<svg width="669" height="607" viewBox="0 0 669 607" fill="none" xmlns="http://www.w3.org/2000/svg">
    <path d="M236 103.46V74.4201H282.2C285.72 74.4201 288.58 73.4667 290.78 71.5601C292.98 69.8001 294.08 66.7934 294.08 62.5401V29.1001H236V0.0600586H390V59.0201C390 66.9401 388.9 73.9067 386.7 79.9201C384.5 85.9334 381.42 90.9201 377.46 94.8801C373.647 98.9867 369.173 102.067 364.04 104.12C358.907 106.32 353.407 107.42 347.54 107.42H342.26C335.953 107.42 330.013 105.733 324.44 102.36C319.013 98.9867 314.833 93.7801 311.9 86.7401H307.94C307.353 91.8734 305.373 95.9067 302 98.8401C298.627 101.92 294.373 103.46 289.24 103.46H236ZM321.8 29.1001V56.8201C321.8 63.8601 323.413 69.2134 326.64 72.8801C330.013 76.5467 334.707 78.3801 340.72 78.3801H343.36C348.493 78.3801 352.893 76.5467 356.56 72.8801C360.373 69.2134 362.28 63.8601 362.28 56.8201V29.1001H321.8Z" fill="#22223F"/>
    <path d="M330.16 131.467C350.107 131.467 365.58 136.454 376.58 146.427C387.58 156.547 393.08 170.48 393.08 188.227C393.08 205.974 387.58 219.834 376.58 229.807C365.58 239.927 350.107 244.987 330.16 244.987H295.84C275.307 244.987 259.687 239.927 248.98 229.807C238.273 219.834 232.92 205.974 232.92 188.227C232.92 170.48 238.273 156.547 248.98 146.427C259.687 136.454 275.307 131.467 295.84 131.467H330.16ZM259.32 188.227C259.32 193.507 260.127 197.907 261.74 201.427C263.5 204.947 265.92 207.807 269 210.007C272.08 212.207 275.747 213.747 280 214.627C284.253 215.507 288.947 215.947 294.08 215.947H331.92C336.76 215.947 341.307 215.434 345.56 214.407C349.813 213.38 353.48 211.767 356.56 209.567C359.64 207.367 362.06 204.507 363.82 200.987C365.727 197.467 366.68 193.214 366.68 188.227C366.68 183.24 365.727 178.987 363.82 175.467C362.06 171.947 359.64 169.087 356.56 166.887C353.48 164.687 349.813 163.074 345.56 162.047C341.307 161.02 336.76 160.507 331.92 160.507H294.08C288.947 160.507 284.253 160.947 280 161.827C275.747 162.707 272.08 164.247 269 166.447C265.92 168.647 263.5 171.507 261.74 175.027C260.127 178.547 259.32 182.947 259.32 188.227Z" fill="#22223F"/>
    <path d="M263.72 267.934V282.454H362.28V267.934H390V335.474C390 342.807 388.973 349.261 386.92 354.834C384.867 360.554 382.08 365.321 378.56 369.134C375.04 373.094 370.787 376.027 365.8 377.934C360.96 379.987 355.68 381.014 349.96 381.014H347.32C338.52 381.014 331.48 378.521 326.2 373.534C320.92 368.694 317.253 362.534 315.2 355.054H311.24C309.187 362.534 305.447 368.694 300.02 373.534C294.74 378.521 287.7 381.014 278.9 381.014H276.26C270.54 381.014 265.187 379.987 260.2 377.934C255.36 376.027 251.107 373.094 247.44 369.134C243.92 365.321 241.133 360.554 239.08 354.834C237.027 349.261 236 342.807 236 335.474V267.934H263.72ZM263.72 311.494V332.614C263.72 338.774 265.04 343.761 267.68 347.574C270.32 351.387 274.72 353.294 280.88 353.294H282.2C288.36 353.294 292.76 351.387 295.4 347.574C298.04 343.761 299.36 338.774 299.36 332.614V311.494H263.72ZM327.08 311.494V332.614C327.08 338.774 328.327 343.761 330.82 347.574C333.46 351.387 337.86 353.294 344.02 353.294H345.34C351.5 353.294 355.827 351.387 358.32 347.574C360.96 343.761 362.28 338.774 362.28 332.614V311.494H327.08Z" fill="#22223F"/>
    <path d="M330.16 405.281C350.107 405.281 365.58 410.268 376.58 420.241C387.58 430.361 393.08 444.294 393.08 462.041C393.08 479.788 387.58 493.648 376.58 503.621C365.58 513.741 350.107 518.801 330.16 518.801H295.84C275.307 518.801 259.687 513.741 248.98 503.621C238.273 493.648 232.92 479.788 232.92 462.041C232.92 444.294 238.273 430.361 248.98 420.241C259.687 410.268 275.307 405.281 295.84 405.281H330.16ZM259.32 462.041C259.32 467.321 260.127 471.721 261.74 475.241C263.5 478.761 265.92 481.621 269 483.821C272.08 486.021 275.747 487.561 280 488.441C284.253 489.321 288.947 489.761 294.08 489.761H331.92C336.76 489.761 341.307 489.248 345.56 488.221C349.813 487.194 353.48 485.581 356.56 483.381C359.64 481.181 362.06 478.321 363.82 474.801C365.727 471.281 366.68 467.028 366.68 462.041C366.68 457.054 365.727 452.801 363.82 449.281C362.06 445.761 359.64 442.901 356.56 440.701C353.48 438.501 349.813 436.888 345.56 435.861C341.307 434.834 336.76 434.321 331.92 434.321H294.08C288.947 434.321 284.253 434.761 280 435.641C275.747 436.521 272.08 438.061 269 440.261C265.92 442.461 263.5 445.321 261.74 448.841C260.127 452.361 259.32 456.761 259.32 462.041Z" fill="#22223F"/>
    <path d="M246 103.46V74.4201H292.2C295.72 74.4201 298.58 73.4667 300.78 71.5601C302.98 69.8001 304.08 66.7934 304.08 62.5401V29.1001H246V0.0600586H400V59.0201C400 66.9401 398.9 73.9067 396.7 79.9201C394.5 85.9334 391.42 90.9201 387.46 94.8801C383.647 98.9867 379.173 102.067 374.04 104.12C368.907 106.32 363.407 107.42 357.54 107.42H352.26C345.953 107.42 340.013 105.733 334.44 102.36C329.013 98.9867 324.833 93.7801 321.9 86.7401H317.94C317.353 91.8734 315.373 95.9067 312 98.8401C308.627 101.92 304.373 103.46 299.24 103.46H246ZM331.8 29.1001V56.8201C331.8 63.8601 333.413 69.2134 336.64 72.8801C340.013 76.5467 344.707 78.3801 350.72 78.3801H353.36C358.493 78.3801 362.893 76.5467 366.56 72.8801C370.373 69.2134 372.28 63.8601 372.28 56.8201V29.1001H331.8Z" fill="white"/>
    <path d="M340.16 131.467C360.107 131.467 375.58 136.454 386.58 146.427C397.58 156.547 403.08 170.48 403.08 188.227C403.08 205.974 397.58 219.834 386.58 229.807C375.58 239.927 360.107 244.987 340.16 244.987H305.84C285.307 244.987 269.687 239.927 258.98 229.807C248.273 219.834 242.92 205.974 242.92 188.227C242.92 170.48 248.273 156.547 258.98 146.427C269.687 136.454 285.307 131.467 305.84 131.467H340.16ZM269.32 188.227C269.32 193.507 270.127 197.907 271.74 201.427C273.5 204.947 275.92 207.807 279 210.007C282.08 212.207 285.747 213.747 290 214.627C294.253 215.507 298.947 215.947 304.08 215.947H341.92C346.76 215.947 351.307 215.434 355.56 214.407C359.813 213.38 363.48 211.767 366.56 209.567C369.64 207.367 372.06 204.507 373.82 200.987C375.727 197.467 376.68 193.214 376.68 188.227C376.68 183.24 375.727 178.987 373.82 175.467C372.06 171.947 369.64 169.087 366.56 166.887C363.48 164.687 359.813 163.074 355.56 162.047C351.307 161.02 346.76 160.507 341.92 160.507H304.08C298.947 160.507 294.253 160.947 290 161.827C285.747 162.707 282.08 164.247 279 166.447C275.92 168.647 273.5 171.507 271.74 175.027C270.127 178.547 269.32 182.947 269.32 188.227Z" fill="white"/>
    <path d="M273.72 267.934V282.454H372.28V267.934H400V335.474C400 342.807 398.973 349.261 396.92 354.834C394.867 360.554 392.08 365.321 388.56 369.134C385.04 373.094 380.787 376.027 375.8 377.934C370.96 379.987 365.68 381.014 359.96 381.014H357.32C348.52 381.014 341.48 378.521 336.2 373.534C330.92 368.694 327.253 362.534 325.2 355.054H321.24C319.187 362.534 315.447 368.694 310.02 373.534C304.74 378.521 297.7 381.014 288.9 381.014H286.26C280.54 381.014 275.187 379.987 270.2 377.934C265.36 376.027 261.107 373.094 257.44 369.134C253.92 365.321 251.133 360.554 249.08 354.834C247.027 349.261 246 342.807 246 335.474V267.934H273.72ZM273.72 311.494V332.614C273.72 338.774 275.04 343.761 277.68 347.574C280.32 351.387 284.72 353.294 290.88 353.294H292.2C298.36 353.294 302.76 351.387 305.4 347.574C308.04 343.761 309.36 338.774 309.36 332.614V311.494H273.72ZM337.08 311.494V332.614C337.08 338.774 338.327 343.761 340.82 347.574C343.46 351.387 347.86 353.294 354.02 353.294H355.34C361.5 353.294 365.827 351.387 368.32 347.574C370.96 343.761 372.28 338.774 372.28 332.614V311.494H337.08Z" fill="white"/>
    <path d="M340.16 405.281C360.107 405.281 375.58 410.268 386.58 420.241C397.58 430.361 403.08 444.294 403.08 462.041C403.08 479.788 397.58 493.648 386.58 503.621C375.58 513.741 360.107 518.801 340.16 518.801H305.84C285.307 518.801 269.687 513.741 258.98 503.621C248.273 493.648 242.92 479.788 242.92 462.041C242.92 444.294 248.273 430.361 258.98 420.241C269.687 410.268 285.307 405.281 305.84 405.281H340.16ZM269.32 462.041C269.32 467.321 270.127 471.721 271.74 475.241C273.5 478.761 275.92 481.621 279 483.821C282.08 486.021 285.747 487.561 290 488.441C294.253 489.321 298.947 489.761 304.08 489.761H341.92C346.76 489.761 351.307 489.248 355.56 488.221C359.813 487.194 363.48 485.581 366.56 483.381C369.64 481.181 372.06 478.321 373.82 474.801C375.727 471.281 376.68 467.028 376.68 462.041C376.68 457.054 375.727 452.801 373.82 449.281C372.06 445.761 369.64 442.901 366.56 440.701C363.48 438.501 359.813 436.888 355.56 435.861C351.307 434.834 346.76 434.321 341.92 434.321H304.08C298.947 434.321 294.253 434.761 290 435.641C285.747 436.521 282.08 438.061 279 440.261C275.92 442.461 273.5 445.321 271.74 448.841C270.127 452.361 269.32 456.761 269.32 462.041Z" fill="white"/>
    <path d="M256 103.46V74.4201H302.2C305.72 74.4201 308.58 73.4667 310.78 71.5601C312.98 69.8001 314.08 66.7934 314.08 62.5401V29.1001H256V0.0600586H410V59.0201C410 66.9401 408.9 73.9067 406.7 79.9201C404.5 85.9334 401.42 90.9201 397.46 94.8801C393.647 98.9867 389.173 102.067 384.04 104.12C378.907 106.32 373.407 107.42 367.54 107.42H362.26C355.953 107.42 350.013 105.733 344.44 102.36C339.013 98.9867 334.833 93.7801 331.9 86.7401H327.94C327.353 91.8734 325.373 95.9067 322 98.8401C318.627 101.92 314.373 103.46 309.24 103.46H256ZM341.8 29.1001V56.8201C341.8 63.8601 343.413 69.2134 346.64 72.8801C350.013 76.5467 354.707 78.3801 360.72 78.3801H363.36C368.493 78.3801 372.893 76.5467 376.56 72.8801C380.373 69.2134 382.28 63.8601 382.28 56.8201V29.1001H341.8Z" fill="#EDB146"/>
    <path d="M350.16 131.467C370.107 131.467 385.58 136.454 396.58 146.427C407.58 156.547 413.08 170.48 413.08 188.227C413.08 205.974 407.58 219.834 396.58 229.807C385.58 239.927 370.107 244.987 350.16 244.987H315.84C295.307 244.987 279.687 239.927 268.98 229.807C258.273 219.834 252.92 205.974 252.92 188.227C252.92 170.48 258.273 156.547 268.98 146.427C279.687 136.454 295.307 131.467 315.84 131.467H350.16ZM279.32 188.227C279.32 193.507 280.127 197.907 281.74 201.427C283.5 204.947 285.92 207.807 289 210.007C292.08 212.207 295.747 213.747 300 214.627C304.253 215.507 308.947 215.947 314.08 215.947H351.92C356.76 215.947 361.307 215.434 365.56 214.407C369.813 213.38 373.48 211.767 376.56 209.567C379.64 207.367 382.06 204.507 383.82 200.987C385.727 197.467 386.68 193.214 386.68 188.227C386.68 183.24 385.727 178.987 383.82 175.467C382.06 171.947 379.64 169.087 376.56 166.887C373.48 164.687 369.813 163.074 365.56 162.047C361.307 161.02 356.76 160.507 351.92 160.507H314.08C308.947 160.507 304.253 160.947 300 161.827C295.747 162.707 292.08 164.247 289 166.447C285.92 168.647 283.5 171.507 281.74 175.027C280.127 178.547 279.32 182.947 279.32 188.227Z" fill="#EDB146"/>
    <path d="M283.72 267.934V282.454H382.28V267.934H410V335.474C410 342.807 408.973 349.261 406.92 354.834C404.867 360.554 402.08 365.321 398.56 369.134C395.04 373.094 390.787 376.027 385.8 377.934C380.96 379.987 375.68 381.014 369.96 381.014H367.32C358.52 381.014 351.48 378.521 346.2 373.534C340.92 368.694 337.253 362.534 335.2 355.054H331.24C329.187 362.534 325.447 368.694 320.02 373.534C314.74 378.521 307.7 381.014 298.9 381.014H296.26C290.54 381.014 285.187 379.987 280.2 377.934C275.36 376.027 271.107 373.094 267.44 369.134C263.92 365.321 261.133 360.554 259.08 354.834C257.027 349.261 256 342.807 256 335.474V267.934H283.72ZM283.72 311.494V332.614C283.72 338.774 285.04 343.761 287.68 347.574C290.32 351.387 294.72 353.294 300.88 353.294H302.2C308.36 353.294 312.76 351.387 315.4 347.574C318.04 343.761 319.36 338.774 319.36 332.614V311.494H283.72ZM347.08 311.494V332.614C347.08 338.774 348.327 343.761 350.82 347.574C353.46 351.387 357.86 353.294 364.02 353.294H365.34C371.5 353.294 375.827 351.387 378.32 347.574C380.96 343.761 382.28 338.774 382.28 332.614V311.494H347.08Z" fill="#EDB146"/>
    <path d="M350.16 405.281C370.107 405.281 385.58 410.268 396.58 420.241C407.58 430.361 413.08 444.294 413.08 462.041C413.08 479.788 407.58 493.648 396.58 503.621C385.58 513.741 370.107 518.801 350.16 518.801H315.84C295.307 518.801 279.687 513.741 268.98 503.621C258.273 493.648 252.92 479.788 252.92 462.041C252.92 444.294 258.273 430.361 268.98 420.241C279.687 410.268 295.307 405.281 315.84 405.281H350.16ZM279.32 462.041C279.32 467.321 280.127 471.721 281.74 475.241C283.5 478.761 285.92 481.621 289 483.821C292.08 486.021 295.747 487.561 300 488.441C304.253 489.321 308.947 489.761 314.08 489.761H351.92C356.76 489.761 361.307 489.248 365.56 488.221C369.813 487.194 373.48 485.581 376.56 483.381C379.64 481.181 382.06 478.321 383.82 474.801C385.727 471.281 386.68 467.028 386.68 462.041C386.68 457.054 385.727 452.801 383.82 449.281C382.06 445.761 379.64 442.901 376.56 440.701C373.48 438.501 369.813 436.888 365.56 435.861C361.307 434.834 356.76 434.321 351.92 434.321H314.08C308.947 434.321 304.253 434.761 300 435.641C295.747 436.521 292.08 438.061 289 440.261C285.92 442.461 283.5 445.321 281.74 448.841C280.127 452.361 279.32 456.761 279.32 462.041Z" fill="#EDB146"/>
    <g filter="url(#filter0_ii)">
        <path d="M382.76 497.762C377.004 490.902 377.899 480.675 384.759 474.919L484.128 391.538C490.988 385.782 501.216 386.677 506.972 393.536L576.456 476.344C582.212 483.204 581.317 493.432 574.457 499.188L475.088 582.569C468.228 588.325 458 587.43 452.244 580.57L382.76 497.762Z" fill="#DC968D"/>
    </g>
    <path fill-rule="evenodd" clip-rule="evenodd" d="M386.497 476.989C380.78 481.786 380.034 490.309 384.831 496.025L454.315 578.833C459.112 584.549 467.635 585.295 473.352 580.499L572.721 497.118C578.437 492.321 579.183 483.798 574.386 478.081L504.902 395.273C500.106 389.557 491.582 388.811 485.866 393.608L386.497 476.989ZM380.691 499.499C373.975 491.496 375.019 479.564 383.023 472.848L482.392 389.468C490.395 382.752 502.327 383.796 509.043 391.799L578.527 474.607C585.242 482.61 584.198 494.543 576.195 501.258L476.826 584.639C468.823 591.355 456.89 590.31 450.175 582.307L380.691 499.499Z" fill="#1F2024"/>
    <g filter="url(#filter1_i)">
        <path d="M434.515 454.335C428.759 447.475 429.654 437.247 436.514 431.491L527.602 355.059C534.462 349.303 544.69 350.198 550.446 357.057L619.93 439.865C625.686 446.725 624.791 456.953 617.931 462.709L526.843 539.141C519.983 544.898 509.755 544.002 503.999 537.143L434.515 454.335Z" fill="#EFA686"/>
    </g>
    <path fill-rule="evenodd" clip-rule="evenodd" d="M438.252 433.561C432.535 438.358 431.789 446.881 436.586 452.598L506.07 535.406C510.867 541.122 519.39 541.868 525.107 537.071L616.195 460.639C621.911 455.843 622.657 447.319 617.86 441.602L548.376 358.795C543.58 353.078 535.056 352.333 529.34 357.13L438.252 433.561ZM432.446 456.072C425.73 448.069 426.774 436.137 434.778 429.421L525.866 352.989C533.869 346.274 545.801 347.317 552.517 355.32L622.001 438.128C628.716 446.131 627.672 458.064 619.669 464.78L528.581 541.212C520.577 547.927 508.645 546.883 501.93 538.88L432.446 456.072Z" fill="#1F2024"/>
    <path d="M492.076 388.397L511.744 371.894L569.616 499.723L549.948 516.226L492.076 388.397Z" fill="white" fill-opacity="0.5"/>
    <path d="M484.313 394.911L487.418 392.306L545.29 520.134L542.185 522.74L484.313 394.911Z" fill="white" fill-opacity="0.5"/>
    <g filter="url(#filter2_d)">
        <path d="M456.906 466.415L390.197 522.391C387.91 524.31 387.612 527.719 389.531 530.006L389.531 530.006C391.45 532.292 394.859 532.591 397.145 530.672L463.855 474.696C466.141 472.777 466.44 469.368 464.521 467.082C462.602 464.795 459.193 464.497 456.906 466.415Z" fill="#E2E2E2"/>
        <path fill-rule="evenodd" clip-rule="evenodd" d="M391.934 524.461C390.79 525.42 390.641 527.125 391.601 528.268L391.601 528.268C392.56 529.412 394.265 529.561 395.408 528.601L462.117 472.626C463.261 471.666 463.41 469.962 462.45 468.818C461.491 467.675 459.786 467.526 458.643 468.485L391.934 524.461ZM387.46 531.743C384.582 528.313 385.03 523.199 388.46 520.321L455.169 464.345C458.599 461.467 463.713 461.914 466.591 465.344C469.469 468.774 469.021 473.888 465.591 476.766L398.882 532.742C395.452 535.62 390.338 535.173 387.46 531.743L387.46 531.743Z" fill="#1F2024"/>
        <g filter="url(#filter3_ii)">
            <path d="M515.368 419.573C505.987 427.445 498.791 421.619 478.672 436.822C458.732 452.217 457.673 460.48 459.932 466.089C462.191 471.698 466.872 477.869 489.241 478.737C511.61 479.604 520.698 465.209 523.18 457.03C525.663 448.85 518.061 430.827 522.036 427.52C526.011 424.214 541.502 434.885 550.898 433.772C560.294 432.658 575.427 426.055 578.169 404.118C580.91 382.18 575.5 375.739 570.802 373.058C566.106 370.376 557.349 369.468 538.727 386.43C520.26 403.605 524.749 411.702 515.368 419.573Z" fill="#E2E2E2"/>
        </g>
        <path fill-rule="evenodd" clip-rule="evenodd" d="M458.587 453.864C461.33 448.665 466.94 442.466 477.02 434.683L477.031 434.675L477.043 434.666C487.419 426.825 494.579 424.339 500.366 422.833C501.267 422.598 502.11 422.391 502.907 422.195C507.212 421.137 510.164 420.411 513.63 417.503C517.096 414.595 518.323 411.814 520.113 407.758C520.444 407.007 520.795 406.213 521.182 405.366C523.67 399.929 527.362 393.309 536.886 384.451L536.896 384.442L536.907 384.432C546.35 375.831 553.544 371.519 559.198 369.793C565.012 368.018 569.146 369 572.142 370.711C575.015 372.351 578.006 375.133 579.833 380.495C581.615 385.726 582.246 393.28 580.85 404.453C579.401 416.047 574.629 423.811 568.785 428.808C562.995 433.758 556.325 435.85 551.216 436.455C548.34 436.796 545.204 436.226 542.256 435.402C539.336 434.587 536.335 433.441 533.632 432.41L533.47 432.348C530.645 431.27 528.222 430.355 526.27 429.886C525.3 429.654 524.598 429.571 524.12 429.586C523.963 429.591 523.856 429.606 523.789 429.62C523.761 429.688 523.724 429.799 523.688 429.97C523.581 430.466 523.534 431.208 523.586 432.24C523.69 434.311 524.152 436.945 524.706 439.958C524.745 440.17 524.785 440.383 524.824 440.598C525.333 443.357 525.885 446.35 526.178 449.153C526.487 452.121 526.55 455.231 525.766 457.815C524.402 462.308 521.256 468.436 515.405 473.346C509.495 478.304 500.969 481.896 489.136 481.437C477.769 480.996 470.519 479.203 465.736 476.555C460.793 473.818 458.712 470.295 457.425 467.099C455.998 463.556 455.742 459.257 458.587 453.864ZM462.439 465.08C463.411 467.493 464.8 469.859 468.354 471.827C472.069 473.883 478.343 475.61 489.345 476.036C499.881 476.445 507.083 473.273 511.931 469.206C516.836 465.09 519.475 459.93 520.594 456.245C521.051 454.739 521.095 452.528 520.802 449.713C520.533 447.132 520.018 444.341 519.5 441.53C519.464 441.332 519.427 441.134 519.391 440.936C518.852 438.008 518.313 435.006 518.188 432.511C518.125 431.261 518.155 429.988 518.403 428.834C518.649 427.691 519.169 426.39 520.307 425.443C521.432 424.507 522.778 424.222 523.944 424.184C525.11 424.146 526.343 424.346 527.532 424.631C529.887 425.196 532.658 426.253 535.367 427.287L535.446 427.317C538.229 428.379 541.032 429.449 543.71 430.197C546.434 430.958 548.757 431.304 550.58 431.088C554.867 430.58 560.462 428.813 565.273 424.7C570.029 420.632 574.194 414.126 575.487 403.783C576.832 393.018 576.129 386.383 574.717 382.238C573.349 378.225 571.287 376.446 569.463 375.405C567.763 374.434 565.169 373.621 560.776 374.962C556.223 376.352 549.731 380.064 540.557 388.419C531.621 396.731 528.326 402.744 526.097 407.615C525.767 408.336 525.453 409.054 525.141 409.768C523.34 413.888 521.599 417.872 517.105 421.643C512.61 425.415 508.384 426.438 504.014 427.496C503.256 427.679 502.495 427.864 501.727 428.064C496.543 429.413 490.049 431.614 480.312 438.97C470.461 446.577 465.573 452.205 463.368 456.386C461.263 460.376 461.607 463.013 462.439 465.08Z" fill="#1F2024"/>
        <path d="M512.767 435.241C508.215 429.16 491.707 432.437 479.764 442.826C467.835 453.22 472.085 461.488 474.154 464.289C479.034 470.708 498.08 478.359 511.447 466.51C524.802 454.646 515.795 439.231 512.767 435.241Z" fill="#1F2024"/>
        <path d="M531.248 419.734C526.05 414.196 532.143 398.507 544.448 388.549C556.756 378.607 564.16 384.228 566.56 386.752C572.033 392.673 576.261 412.758 562.271 423.864C548.268 434.956 534.651 423.409 531.248 419.734Z" fill="#1F2024"/>
    </g>
    <path d="M460.954 546.804C471.244 538.17 472.586 522.829 463.952 512.539C455.318 502.249 439.976 500.907 429.686 509.541C419.396 518.175 418.054 533.517 426.689 543.807C435.323 554.097 450.664 555.439 460.954 546.804Z" fill="black" fill-opacity="0.16"/>
    <g filter="url(#filter4_ii)">
        <path d="M455.659 541.546C465.949 532.911 467.291 517.57 458.657 507.28C450.023 496.99 434.682 495.648 424.391 504.282C414.101 512.916 412.759 528.258 421.394 538.548C430.028 548.838 445.369 550.18 455.659 541.546Z" fill="#ADA3EE"/>
    </g>
    <path fill-rule="evenodd" clip-rule="evenodd" d="M426.128 506.352C416.982 514.027 415.789 527.664 423.463 536.81C431.138 545.957 444.775 547.15 453.922 539.475C463.069 531.8 464.262 518.164 456.587 509.017C448.912 499.87 435.275 498.677 426.128 506.352ZM419.323 540.285C409.729 528.851 411.221 511.806 422.654 502.212C434.087 492.618 451.133 494.109 460.727 505.543C470.321 516.976 468.829 534.022 457.396 543.616C445.963 553.209 428.917 551.718 419.323 540.285Z" fill="#1F2024"/>
    <g filter="url(#filter5_ii)">
        <path d="M440.096 544.02C446.956 538.264 447.851 528.037 442.095 521.177C436.339 514.317 426.111 513.422 419.251 519.178C412.391 524.934 411.496 535.162 417.253 542.022C423.009 548.882 433.236 549.776 440.096 544.02Z" fill="#CAE9FA"/>
    </g>
    <path fill-rule="evenodd" clip-rule="evenodd" d="M420.989 521.248C415.272 526.045 414.527 534.568 419.323 540.285C424.12 546.001 432.643 546.747 438.36 541.95C444.076 537.153 444.822 528.63 440.025 522.914C435.228 517.197 426.706 516.451 420.989 521.248ZM415.183 543.759C408.467 535.756 409.511 523.824 417.515 517.108C425.518 510.392 437.45 511.436 444.166 519.44C450.881 527.443 449.837 539.375 441.834 546.091C433.831 552.806 421.899 551.762 415.183 543.759Z" fill="#1F2024"/>
    <g filter="url(#filter6_ii)">
        <path fill-rule="evenodd" clip-rule="evenodd" d="M530.567 463.698C523.707 469.454 522.811 479.681 528.567 486.541L529.975 488.218C529.976 488.22 529.978 488.222 529.979 488.224C537.145 496.763 539.569 514.352 523.172 522.377C516.153 525.813 508.436 521.74 500.454 517.526C489.791 511.898 478.654 506.019 468.073 517.459C451.678 535.184 493.833 555.816 512.888 564.741C552.728 583.404 619.152 535.669 632.611 495.575C641.581 468.852 623.101 432.287 604.494 413.571C603.06 412.129 599.455 414.713 600.472 416.946C600.494 416.996 600.527 417.066 600.57 417.158C601.847 419.909 611.743 441.23 605.619 453.197C599.298 465.547 586.524 463.083 575.568 450.061L574.112 448.325C568.356 441.465 558.128 440.571 551.268 446.327L530.567 463.698Z" fill="#2477D5"/>
    </g>
    <path d="M529.974 488.218L532.064 486.503L532.055 486.492L532.045 486.481L529.974 488.218ZM523.172 522.378L524.36 524.805L523.172 522.378ZM500.454 517.527L499.193 519.917L500.454 517.527ZM468.073 517.459L466.089 515.624L468.073 517.459ZM512.888 564.742L514.034 562.295L512.888 564.742ZM632.611 495.575L630.049 494.716L632.611 495.575ZM604.493 413.571L606.411 411.666L604.493 413.571ZM600.472 416.946L598.013 418.067L600.472 416.946ZM600.57 417.158L598.118 418.295L598.119 418.296L600.57 417.158ZM605.618 453.197L603.213 451.966L605.618 453.197ZM575.568 450.061L573.498 451.798L573.5 451.801L575.568 450.061ZM530.638 484.804C525.842 479.088 526.586 470.565 532.303 465.768L528.829 461.627C520.826 468.343 519.782 480.275 526.498 488.278L530.638 484.804ZM532.045 486.481L530.638 484.804L526.498 488.278L527.905 489.955L532.045 486.481ZM527.887 489.934C527.892 489.94 527.9 489.95 527.909 489.961L532.05 486.486C532.056 486.494 532.061 486.5 532.064 486.503L527.887 489.934ZM527.909 489.961C531.061 493.716 533.202 499.551 532.719 505.265C532.249 510.811 529.308 516.366 521.984 519.95L524.36 524.805C533.434 520.364 537.478 513.112 538.104 505.722C538.716 498.5 536.064 491.27 532.05 486.486L527.909 489.961ZM521.984 519.95C519.289 521.269 516.356 521.23 512.935 520.228C509.442 519.204 505.769 517.277 501.716 515.137L499.193 519.917C503.121 521.99 507.298 524.207 511.414 525.414C515.602 526.642 520.036 526.921 524.36 524.805L521.984 519.95ZM501.716 515.137C496.494 512.381 490.603 509.235 484.598 508.415C478.282 507.552 471.976 509.258 466.089 515.624L470.057 519.294C474.75 514.22 479.303 513.146 483.866 513.77C488.742 514.436 493.751 517.044 499.193 519.917L501.716 515.137ZM466.089 515.624C463.747 518.156 462.324 520.884 461.844 523.77C461.364 526.652 461.861 529.47 462.993 532.129C465.211 537.34 469.985 542.205 475.523 546.53C486.669 555.234 502.243 562.74 511.741 567.189L514.034 562.295C504.478 557.818 489.446 550.545 478.85 542.27C473.517 538.106 469.635 533.933 467.965 530.011C467.153 528.103 466.897 526.332 467.176 524.658C467.453 522.988 468.3 521.194 470.057 519.294L466.089 515.624ZM511.741 567.189C532.95 577.124 560.587 569.234 584.079 554.481C607.665 539.669 628.178 517.274 635.173 496.435L630.049 494.716C623.585 513.97 604.157 535.489 581.205 549.904C558.161 564.376 532.665 571.022 514.034 562.295L511.741 567.189ZM635.173 496.435C639.944 482.223 637.348 465.694 631.41 450.582C625.453 435.426 615.979 421.292 606.411 411.666L602.577 415.477C611.615 424.568 620.686 438.074 626.379 452.559C632.089 467.089 634.249 482.204 630.049 494.716L635.173 496.435ZM606.411 411.666C605.29 410.539 603.85 410.343 602.738 410.5C601.653 410.655 600.669 411.151 599.9 411.751C598.54 412.814 596.734 415.26 598.013 418.067L602.931 415.826C602.975 415.921 602.998 416.034 602.996 416.14C602.995 416.238 602.973 416.291 602.972 416.293C602.972 416.293 602.987 416.258 603.036 416.198C603.082 416.138 603.148 416.072 603.227 416.01C603.307 415.948 603.384 415.903 603.445 415.875C603.508 415.846 603.528 415.848 603.496 415.852C603.466 415.856 603.345 415.869 603.164 415.82C602.968 415.768 602.754 415.655 602.577 415.477L606.411 411.666ZM598.013 418.067C598.04 418.127 598.078 418.209 598.118 418.295L603.021 416.021C602.977 415.925 602.949 415.865 602.931 415.826L598.013 418.067ZM598.119 418.296C598.742 419.639 601.45 425.477 603.255 432.404C605.106 439.509 605.782 446.946 603.213 451.966L608.024 454.429C611.58 447.481 610.37 438.274 608.485 431.04C606.553 423.626 603.674 417.428 603.021 416.021L598.119 418.296ZM603.213 451.966C601.816 454.694 600.161 456.419 598.447 457.408C596.751 458.386 594.827 458.745 592.682 458.463C588.279 457.888 582.904 454.583 577.636 448.321L573.5 451.801C579.188 458.561 585.678 462.999 591.981 463.823C595.19 464.243 598.328 463.716 601.147 462.089C603.949 460.473 606.26 457.875 608.024 454.429L603.213 451.966ZM572.041 450.063L573.498 451.798L577.638 448.324L576.182 446.588L572.041 450.063ZM553.005 448.397C558.722 443.6 567.245 444.346 572.041 450.063L576.182 446.588C569.466 438.585 557.534 437.541 549.531 444.257L553.005 448.397ZM532.303 465.768L553.005 448.397L549.531 444.257L528.829 461.627L532.303 465.768Z" fill="#1F2024"/>
    <path fill-rule="evenodd" clip-rule="evenodd" d="M546.331 469.873C548.046 468.434 550.603 468.658 552.042 470.373C552.383 470.779 552.803 471.116 553.275 471.362M546.331 469.873C544.616 471.312 544.392 473.869 545.831 475.584ZM558.752 459.45C560.467 458.011 563.024 458.235 564.463 459.95C565.49 461.173 566.265 462.587 566.745 464.109L566.746 464.111C567.225 465.632 567.401 467.234 567.261 468.826M567.261 468.829C567.122 470.419 566.671 471.964 565.935 473.381L565.933 473.384C565.196 474.798 564.188 476.055 562.964 477.082C561.74 478.109 560.327 478.884 558.806 479.364L558.803 479.365C557.28 479.845 555.679 480.02 554.09 479.881M558.752 459.45C557.037 460.889 556.814 463.446 558.253 465.161ZM545.831 475.584C546.858 476.807 548.116 477.816 549.531 478.553ZM558.253 465.161C558.594 465.568 558.853 466.04 559.013 466.547ZM559.013 466.548C559.174 467.057 559.231 467.591 559.185 468.117L559.185 468.12C559.138 468.65 558.988 469.165 558.743 469.638C558.496 470.112 558.159 470.531 557.753 470.871C557.346 471.213 556.875 471.472 556.366 471.633C555.858 471.793 555.324 471.851 554.794 471.804L554.791 471.804C554.265 471.758 553.749 471.609 553.275 471.362M554.087 479.881C552.495 479.742 550.947 479.29 549.533 478.554L549.531 478.553" fill="#1F2024"/>
    <g filter="url(#filter7_i)">
        <path d="M482.542 535.745C485.4 533.346 485.773 529.085 483.374 526.227C480.976 523.368 476.714 522.995 473.856 525.394C470.998 527.792 470.625 532.054 473.023 534.912C475.422 537.77 479.683 538.143 482.542 535.745Z" fill="white"/>
    </g>
    <path fill-rule="evenodd" clip-rule="evenodd" d="M475.593 527.464C473.878 528.903 473.654 531.46 475.093 533.175C476.532 534.89 479.089 535.113 480.804 533.674C482.519 532.235 482.743 529.679 481.304 527.964C479.865 526.249 477.308 526.025 475.593 527.464ZM470.953 536.649C467.595 532.647 468.117 526.681 472.119 523.323C476.12 519.966 482.086 520.488 485.444 524.489C488.802 528.491 488.28 534.457 484.278 537.815C480.277 541.173 474.311 540.651 470.953 536.649Z" fill="#1F2024"/>
    <path fill-rule="evenodd" clip-rule="evenodd" d="M522.82 329.437C523.941 330.423 524.05 332.131 523.064 333.251L502.296 356.85C501.31 357.971 499.603 358.08 498.482 357.094C497.362 356.108 497.253 354.4 498.239 353.28L519.006 329.68C519.992 328.56 521.7 328.451 522.82 329.437Z" fill="#1F2024"/>
    <path fill-rule="evenodd" clip-rule="evenodd" d="M504.11 361.642C503.428 360.315 503.952 358.686 505.279 358.003L532.394 344.071C533.722 343.389 535.351 343.912 536.033 345.239C536.715 346.567 536.192 348.196 534.864 348.878L507.749 362.811C506.422 363.493 504.793 362.97 504.11 361.642Z" fill="#1F2024"/>
    <path d="M471.213 319.914L495.041 357.246C477.623 361.571 469.829 360.096 457.102 355.126L471.213 319.914Z" fill="#E79834"/>
    <path fill-rule="evenodd" clip-rule="evenodd" d="M470.961 317.223C471.97 317.129 472.946 317.606 473.491 318.46L497.32 355.792C497.788 356.525 497.874 357.439 497.552 358.248C497.229 359.056 496.537 359.659 495.693 359.869C486.831 362.069 480.216 362.846 474.101 362.366C467.986 361.885 462.561 360.158 456.12 357.643C455.448 357.381 454.909 356.861 454.623 356.2C454.336 355.538 454.326 354.79 454.594 354.121L468.705 318.909C469.082 317.968 469.952 317.318 470.961 317.223ZM460.634 353.578C465.729 355.459 469.948 356.618 474.525 356.977C479.046 357.333 484.053 356.918 490.709 355.481L471.765 325.802L460.634 353.578Z" fill="#1F2024"/>
    <g filter="url(#filter8_ii)">
        <path fill-rule="evenodd" clip-rule="evenodd" d="M469.879 343.003C491.026 341.301 509.184 347.825 520.356 361.14L449.711 420.417L379.066 479.696C373.264 472.782 369.593 464.33 368.153 454.927C358.588 446.814 351.846 441.666 339.981 433.117C348.965 427.873 358.941 422.33 371.683 421.087C377.894 402.537 390.601 384.468 407.587 370.215C426.323 354.494 448.73 344.705 469.879 343.003Z" fill="#EDB146"/>
    </g>
    <path d="M520.357 361.139L522.094 363.21C523.237 362.25 523.387 360.545 522.427 359.402L520.357 361.139ZM469.879 343.003L469.662 340.309L469.879 343.003ZM449.712 420.417L451.449 422.487L449.712 420.417ZM379.067 479.696L376.996 481.433C377.457 481.982 378.117 482.326 378.831 482.388C379.545 482.45 380.255 482.227 380.804 481.766L379.067 479.696ZM368.154 454.927L370.825 454.518C370.727 453.874 370.399 453.288 369.902 452.866L368.154 454.927ZM339.982 433.116L338.62 430.782C337.83 431.244 337.327 432.073 337.283 432.987C337.239 433.9 337.66 434.774 338.402 435.309L339.982 433.116ZM371.683 421.087L371.946 423.776C373.007 423.673 373.907 422.955 374.246 421.945L371.683 421.087ZM522.427 359.402C510.566 345.266 491.465 338.555 469.662 340.309L470.096 345.697C490.589 344.048 507.804 350.383 518.287 362.876L522.427 359.402ZM451.449 422.487L522.094 363.21L518.62 359.069L447.975 418.347L451.449 422.487ZM380.804 481.766L451.449 422.487L447.975 418.347L377.33 477.626L380.804 481.766ZM365.483 455.336C366.991 465.186 370.85 474.107 376.996 481.433L381.137 477.959C375.68 471.456 372.197 463.474 370.825 454.518L365.483 455.336ZM338.402 435.309C350.229 443.831 356.911 448.935 366.406 456.988L369.902 452.866C360.266 444.693 353.464 439.501 341.562 430.924L338.402 435.309ZM371.421 418.397C358.038 419.703 347.611 425.534 338.62 430.782L341.344 435.45C350.319 430.212 359.846 424.957 371.946 423.776L371.421 418.397ZM405.85 368.145C388.531 382.677 375.509 401.151 369.121 420.228L374.246 421.945C380.281 403.924 392.673 386.258 409.325 372.285L405.85 368.145ZM469.662 340.309C447.872 342.063 424.948 352.12 405.85 368.145L409.325 372.285C427.699 356.867 449.589 347.347 470.096 345.697L469.662 340.309Z" fill="#1F2024"/>
    <mask id="mask0" style="mask-type:alpha" maskUnits="userSpaceOnUse" x="333" y="307" width="192" height="177">
        <path fill-rule="evenodd" clip-rule="evenodd" d="M469.88 343.003C491.027 341.301 509.185 347.825 520.357 361.139L449.712 420.417L379.067 479.696C373.265 472.781 369.594 464.33 368.154 454.927C358.589 446.814 351.847 441.666 339.982 433.116C348.966 427.873 358.942 422.33 371.684 421.086C377.895 402.537 390.602 384.468 407.588 370.215C426.324 354.494 448.731 344.705 469.88 343.003Z" fill="#EDB146"/>
        <path d="M520.357 361.139L522.094 363.21C523.237 362.25 523.387 360.545 522.427 359.402L520.357 361.139ZM469.879 343.003L469.662 340.309L469.879 343.003ZM449.712 420.417L451.449 422.487L449.712 420.417ZM379.067 479.696L376.996 481.433C377.457 481.982 378.117 482.326 378.831 482.388C379.545 482.45 380.255 482.227 380.804 481.766L379.067 479.696ZM368.154 454.927L370.825 454.518C370.727 453.874 370.399 453.288 369.902 452.866L368.154 454.927ZM339.982 433.116L338.62 430.782C337.83 431.244 337.327 432.073 337.283 432.987C337.239 433.9 337.66 434.774 338.402 435.309L339.982 433.116ZM371.683 421.087L371.946 423.776C373.007 423.673 373.907 422.955 374.246 421.945L371.683 421.087ZM522.427 359.402C510.566 345.266 491.465 338.555 469.662 340.309L470.096 345.697C490.589 344.048 507.804 350.383 518.287 362.876L522.427 359.402ZM451.449 422.487L522.094 363.21L518.62 359.069L447.975 418.347L451.449 422.487ZM380.804 481.766L451.449 422.487L447.975 418.347L377.33 477.626L380.804 481.766ZM365.483 455.336C366.991 465.186 370.85 474.107 376.996 481.433L381.137 477.959C375.68 471.456 372.197 463.474 370.825 454.518L365.483 455.336ZM338.402 435.309C350.229 443.831 356.911 448.935 366.406 456.988L369.902 452.866C360.266 444.693 353.464 439.501 341.562 430.924L338.402 435.309ZM371.421 418.397C358.038 419.703 347.611 425.534 338.62 430.782L341.344 435.45C350.319 430.212 359.846 424.957 371.946 423.776L371.421 418.397ZM405.85 368.145C388.531 382.677 375.509 401.151 369.121 420.228L374.246 421.945C380.281 403.924 392.673 386.258 409.325 372.285L405.85 368.145ZM469.662 340.309C447.872 342.063 424.948 352.12 405.85 368.145L409.325 372.285C427.699 356.867 449.589 347.347 470.096 345.697L469.662 340.309Z" fill="#1F2024"/>
    </mask>
    <g mask="url(#mask0)">
        <path d="M428.097 423.561L372.825 452.301C369.228 457.818 362.814 469.786 365.941 473.512C369.067 477.238 377.674 476.895 381.587 476.258L428.097 423.561Z" fill="#FE204F"/>
        <path fill-rule="evenodd" clip-rule="evenodd" d="M370.561 450.825C370.815 450.435 371.166 450.118 371.578 449.903L426.85 421.164C428.005 420.563 429.424 420.871 430.226 421.897C431.027 422.922 430.984 424.374 430.123 425.35L383.613 478.046C383.2 478.514 382.637 478.825 382.021 478.925C379.885 479.273 376.515 479.539 373.202 479.211C370.064 478.9 366.164 477.983 363.87 475.249C362.344 473.431 362.265 471.012 362.51 469.064C362.769 467.004 363.483 464.743 364.353 462.573C366.101 458.21 368.701 453.678 370.561 450.825ZM374.709 454.367C373.014 457.038 370.834 460.931 369.369 464.584C368.577 466.56 368.049 468.334 367.872 469.739C367.682 471.255 367.973 471.73 368.01 471.775C368.843 472.767 370.81 473.542 373.735 473.832C376.046 474.061 378.455 473.939 380.22 473.723L416.466 432.655L374.709 454.367Z" fill="#1F2024"/>
        <path d="M487.614 373.62L509.722 337.43C514.145 336.218 523.77 334.727 526.897 338.453C530.023 342.179 529.961 349.111 529.538 352.112L487.614 373.62Z" fill="#FE204F"/>
        <path fill-rule="evenodd" clip-rule="evenodd" d="M507.417 336.022C507.775 335.434 508.345 335.006 509.008 334.824C511.376 334.175 515.118 333.451 518.749 333.388C520.565 333.356 522.464 333.487 524.194 333.935C525.905 334.378 527.69 335.194 528.968 336.716C531.023 339.165 531.883 342.442 532.231 345.219C532.586 348.054 532.456 350.778 532.215 352.488C532.092 353.359 531.554 354.115 530.772 354.516L488.848 376.025C487.771 376.577 486.458 376.346 485.634 375.459C484.811 374.571 484.678 373.244 485.309 372.211L507.417 336.022ZM494.93 366.83L526.996 350.379C527.076 349.126 527.072 347.526 526.868 345.891C526.571 343.519 525.899 341.467 524.827 340.19C524.541 339.849 523.95 339.455 522.839 339.167C521.747 338.884 520.377 338.765 518.843 338.792C516.242 338.837 513.487 339.296 511.456 339.777L494.93 366.83Z" fill="#1F2024"/>
        <path fill-rule="evenodd" clip-rule="evenodd" d="M348.537 474.796C347.761 473.522 348.164 471.859 349.439 471.083L376.286 454.729C377.561 453.952 379.224 454.356 380 455.631C380.776 456.906 380.373 458.568 379.098 459.345L352.251 475.698C350.976 476.475 349.313 476.071 348.537 474.796Z" fill="#1F2024"/>
        <path fill-rule="evenodd" clip-rule="evenodd" d="M383.502 461.963C384.691 462.865 384.923 464.561 384.021 465.75L365.592 490.033C364.689 491.222 362.994 491.454 361.805 490.552C360.616 489.65 360.384 487.954 361.286 486.766L379.716 462.482C380.618 461.293 382.313 461.061 383.502 461.963Z" fill="#1F2024"/>
        <path fill-rule="evenodd" clip-rule="evenodd" d="M356.029 435.733C355.481 434.345 356.161 432.775 357.549 432.227C360.671 430.993 365.479 429.405 371.237 430.021C372.033 430.107 372.75 430.54 373.195 431.206C373.64 431.871 373.767 432.699 373.543 433.467C372.633 436.577 372.511 440.316 372.559 442.381C372.594 443.873 371.413 445.111 369.921 445.146C368.429 445.18 367.191 443.999 367.156 442.507C367.118 440.885 367.164 438.166 367.615 435.317C364.451 435.486 361.705 436.396 359.536 437.253C358.148 437.802 356.578 437.121 356.029 435.733Z" fill="#1F2024"/>
        <path d="M520.357 361.139L522.094 363.21C523.237 362.25 523.387 360.545 522.427 359.402L520.357 361.139ZM469.879 343.003L469.662 340.309L469.879 343.003ZM449.712 420.417L451.449 422.487L449.712 420.417ZM379.067 479.696L376.996 481.433C377.457 481.982 378.117 482.326 378.831 482.388C379.545 482.45 380.255 482.227 380.804 481.766L379.067 479.696ZM368.154 454.927L370.825 454.518C370.727 453.874 370.399 453.288 369.902 452.866L368.154 454.927ZM339.982 433.116L338.62 430.782C337.83 431.244 337.327 432.073 337.283 432.987C337.239 433.9 337.66 434.774 338.402 435.309L339.982 433.116ZM371.683 421.087L371.946 423.776C373.007 423.673 373.907 422.955 374.246 421.945L371.683 421.087ZM522.427 359.402C510.566 345.266 491.465 338.555 469.662 340.309L470.096 345.697C490.589 344.048 507.804 350.383 518.287 362.876L522.427 359.402ZM451.449 422.487L522.094 363.21L518.62 359.069L447.975 418.347L451.449 422.487ZM380.804 481.766L451.449 422.487L447.975 418.347L377.33 477.626L380.804 481.766ZM365.483 455.336C366.991 465.186 370.85 474.107 376.996 481.433L381.137 477.959C375.68 471.456 372.197 463.474 370.825 454.518L365.483 455.336ZM338.402 435.309C350.229 443.831 356.911 448.935 366.406 456.988L369.902 452.866C360.266 444.693 353.464 439.501 341.562 430.924L338.402 435.309ZM371.421 418.397C358.038 419.703 347.611 425.534 338.62 430.782L341.344 435.45C350.319 430.212 359.846 424.957 371.946 423.776L371.421 418.397ZM405.85 368.145C388.531 382.677 375.509 401.151 369.121 420.228L374.246 421.945C380.281 403.924 392.673 386.258 409.325 372.285L405.85 368.145ZM469.662 340.309C447.872 342.063 424.948 352.12 405.85 368.145L409.325 372.285C427.699 356.867 449.589 347.347 470.096 345.697L469.662 340.309Z" fill="#1F2024"/>
        <path d="M441.168 375.551C425.575 368.662 406.468 372.036 394.398 383.928C389.726 388.531 384.677 395.466 382.295 398.934L373.068 394.77L382.384 386.953L374.133 377.12L391.465 373.601L387.137 360.034L403.277 361.926L413.157 342.169C423.812 346.458 437.316 362.027 441.168 375.551Z" fill="#FE204F"/>
        <path fill-rule="evenodd" clip-rule="evenodd" d="M385.052 358.315C385.636 357.607 386.54 357.243 387.452 357.35L401.709 359.021L410.741 340.96C411.371 339.701 412.861 339.137 414.167 339.662C420.064 342.036 426.442 347.361 431.775 353.649C437.132 359.965 441.706 367.573 443.768 374.811C444.055 375.819 443.733 376.902 442.943 377.59C442.152 378.278 441.035 378.447 440.077 378.023C425.48 371.574 407.562 374.753 396.296 385.853C391.818 390.265 386.889 397.019 384.524 400.464C383.783 401.542 382.377 401.935 381.184 401.397L371.957 397.233C371.11 396.851 370.519 396.06 370.392 395.139C370.265 394.218 370.62 393.297 371.332 392.7L378.578 386.62L372.064 378.857C371.451 378.126 371.268 377.128 371.583 376.228C371.897 375.328 372.662 374.661 373.596 374.471L387.975 371.552L384.563 360.856C384.284 359.981 384.468 359.024 385.052 358.315ZM390.986 363.206L394.04 372.779C394.274 373.511 394.185 374.307 393.796 374.969C393.408 375.631 392.756 376.096 392.003 376.249L379.125 378.864L384.455 385.216C385.415 386.359 385.265 388.064 384.122 389.023L378.101 394.076L381.366 395.549C384.055 391.77 388.387 386.057 392.502 382.002L394.399 383.927L392.502 382.002C403.948 370.726 421.26 366.654 436.618 371.04C434.474 366.298 431.307 361.453 427.653 357.145C423.38 352.106 418.636 348.032 414.394 345.74L405.695 363.134C405.185 364.152 404.093 364.742 402.963 364.61L390.986 363.206Z" fill="#1F2024"/>
        <path d="M423.016 404.894C426.16 402.256 426.57 397.568 423.932 394.424C421.293 391.28 416.606 390.87 413.462 393.508C410.317 396.146 409.907 400.834 412.546 403.978C415.184 407.122 419.871 407.532 423.016 404.894Z" fill="#1F2024"/>
        <path d="M421.788 399.751C423.36 398.432 423.565 396.088 422.246 394.516C420.926 392.944 418.583 392.739 417.011 394.058C415.438 395.377 415.233 397.721 416.553 399.293C417.872 400.865 420.215 401.07 421.788 399.751Z" fill="white"/>
        <path d="M469.596 365.809C472.74 363.171 473.15 358.484 470.512 355.339C467.873 352.195 463.186 351.785 460.042 354.423C456.897 357.062 456.487 361.749 459.126 364.893C461.764 368.038 466.452 368.448 469.596 365.809Z" fill="#1F2024"/>
        <path fill-rule="evenodd" clip-rule="evenodd" d="M464.047 388.103C465.191 387.144 466.895 387.293 467.855 388.437C469.559 390.467 471.168 393.991 470.882 398.261C470.59 402.626 468.345 407.428 462.918 411.982C461.775 412.941 460.07 412.792 459.111 411.649C458.151 410.505 458.3 408.801 459.444 407.841C463.953 404.057 465.313 400.543 465.49 397.9C465.673 395.162 464.616 392.985 463.714 391.911C462.755 390.767 462.904 389.063 464.047 388.103Z" fill="#1F2024"/>
        <path fill-rule="evenodd" clip-rule="evenodd" d="M465.859 386.583C467.003 385.624 468.707 385.773 469.667 386.916C470.568 387.991 472.528 389.41 475.257 389.704C477.891 389.989 481.588 389.261 486.098 385.476C487.241 384.517 488.946 384.666 489.905 385.809C490.864 386.953 490.715 388.657 489.572 389.617C484.145 394.17 479.025 395.548 474.676 395.078C470.421 394.618 467.23 392.421 465.526 390.391C464.567 389.247 464.716 387.543 465.859 386.583Z" fill="#1F2024"/>
        <path d="M445.809 393.167C444.208 391.259 444.215 388.463 445.888 386.62C452.339 379.517 457.939 374.912 464.732 370.733C466.829 369.442 469.54 369.948 471.122 371.834C476.57 378.327 475.723 388.007 469.23 393.455L467.33 395.05C460.867 400.473 451.232 399.63 445.809 393.167Z" fill="#1F2024"/>
        <path fill-rule="evenodd" clip-rule="evenodd" d="M461.803 378.435C461.194 377.072 461.805 375.474 463.168 374.865C464.597 374.227 467.739 373.777 470.351 376.203C471.445 377.219 471.508 378.928 470.492 380.022C469.477 381.116 467.767 381.179 466.673 380.163C466.364 379.876 466.074 379.79 465.831 379.768C465.697 379.756 465.573 379.764 465.473 379.781C465.401 379.793 465.361 379.806 465.355 379.808C463.996 380.404 462.409 379.792 461.803 378.435Z" fill="white"/>
        <path d="M467.849 361.101C469.421 359.782 469.626 357.438 468.307 355.866C466.988 354.294 464.644 354.089 463.072 355.408C461.5 356.727 461.295 359.071 462.614 360.643C463.933 362.215 466.277 362.42 467.849 361.101Z" fill="white"/>
        <path d="M424.426 365.684C425.351 366.855 427.05 367.054 428.222 366.128C429.393 365.203 429.592 363.503 428.666 362.332L424.426 365.684ZM418.716 351.479C417.583 350.508 415.877 350.64 414.906 351.774C413.935 352.908 414.068 354.614 415.202 355.584L418.716 351.479ZM428.666 362.332C425.413 358.216 422.092 354.367 418.716 351.479L415.202 355.584C418.165 358.122 421.225 361.634 424.426 365.684L428.666 362.332Z" fill="white"/>
    </g>
    <g filter="url(#filter9_ii)">
        <path d="M149.472 115.103C155.804 108.771 166.071 108.771 172.403 115.103L264.126 206.826C270.459 213.159 270.459 223.425 264.127 229.758L187.69 306.194C181.358 312.526 171.091 312.527 164.759 306.194L73.0351 214.471C66.7029 208.138 66.7033 197.872 73.0354 191.54L149.472 115.103Z" fill="#8A7ED9"/>
    </g>
    <path fill-rule="evenodd" clip-rule="evenodd" d="M170.492 117.014C165.215 111.737 156.66 111.737 151.383 117.014L74.9463 193.45C69.6695 198.727 69.6693 207.283 74.9461 212.56L166.67 304.283C171.947 309.561 180.502 309.56 185.779 304.283L262.216 227.847C267.493 222.57 267.493 214.015 262.216 208.737L170.492 117.014ZM147.561 113.192C154.949 105.805 166.926 105.804 174.314 113.192L266.037 204.916C273.426 212.304 273.425 224.281 266.038 231.669L189.601 308.105C182.214 315.493 170.236 315.493 162.848 308.105L71.1242 216.382C63.7366 208.994 63.7371 197.016 71.1245 189.629L147.561 113.192Z" fill="#1F2024"/>
    <g filter="url(#filter10_i)">
        <path d="M197.245 162.876C203.578 156.544 213.844 156.544 220.176 162.876L304.257 246.956C310.589 253.288 310.588 263.555 304.256 269.887L227.82 346.323C221.488 352.655 211.221 352.656 204.889 346.324L120.808 262.243C114.476 255.911 114.477 245.645 120.809 239.312L197.245 162.876Z" fill="#ADA3EE"/>
    </g>
    <path fill-rule="evenodd" clip-rule="evenodd" d="M218.265 164.786C212.989 159.51 204.433 159.51 199.156 164.787L122.72 241.223C117.443 246.5 117.443 255.056 122.719 260.332L206.8 344.413C212.076 349.69 220.632 349.689 225.909 344.412L302.345 267.976C307.622 262.699 307.623 254.144 302.346 248.867L218.265 164.786ZM195.334 160.965C202.722 153.577 214.7 153.577 222.087 160.964L306.168 245.045C313.555 252.433 313.555 264.41 306.167 271.797L229.731 348.234C222.343 355.621 210.366 355.622 202.978 348.235L118.897 264.154C111.51 256.767 111.511 244.789 118.898 237.401L195.334 160.965Z" fill="#1F2024"/>
    <path d="M267.949 214.471L286.103 232.624L163.804 301.417L145.651 283.263L267.949 214.471Z" fill="white" fill-opacity="0.5"/>
    <path d="M260.783 207.305L263.649 210.171L141.351 278.963L138.485 276.097L260.783 207.305Z" fill="white" fill-opacity="0.5"/>
    <g filter="url(#filter11_ddi)">
        <path d="M190.557 196.317C194.779 192.095 201.623 192.095 205.845 196.317L270.815 261.287C275.038 265.509 275.037 272.354 270.815 276.575L255.528 291.863C251.306 296.084 244.463 296.084 240.241 291.862L175.27 226.892C171.048 222.669 171.048 215.826 175.27 211.605L190.557 196.317Z" fill="#1F2024"/>
        <path d="M194.379 230.713C198.6 234.935 205.445 234.935 209.666 230.713C213.888 226.492 213.888 219.647 209.666 215.426C205.445 211.204 198.6 211.204 194.379 215.426C190.157 219.647 190.157 226.492 194.379 230.713Z" fill="white"/>
        <path d="M236.419 272.754C240.64 276.975 247.485 276.975 251.706 272.754C255.928 268.532 255.928 261.688 251.706 257.466C247.485 253.245 240.64 253.245 236.419 257.466C232.197 261.688 232.197 268.532 236.419 272.754Z" fill="white"/>
    </g>
    <path d="M221.131 284.219L182.913 246.001C178.692 241.779 171.847 241.779 167.626 246.001C163.404 250.222 163.404 257.067 167.626 261.288L205.844 299.506C210.066 303.728 216.91 303.728 221.131 299.506C225.353 295.285 225.353 288.441 221.131 284.219Z" fill="#1F2024"/>
    <path d="M181.002 244.09L175.27 238.357L159.982 253.644L165.715 259.377L181.002 244.09Z" fill="#CAE9FA"/>
    <path d="M190.557 253.644L184.824 247.912L169.537 263.199L175.27 268.932L190.557 253.644Z" fill="#CAE9FA"/>
    <path d="M200.111 263.199L194.378 257.466L179.091 272.753L184.823 278.486L200.111 263.199Z" fill="#CAE9FA"/>
    <path d="M209.665 272.753L203.933 267.021L188.645 282.308L194.378 288.041L209.665 272.753Z" fill="#CAE9FA"/>
    <path d="M219.221 282.308L213.488 276.576L198.201 291.863L203.934 297.596L219.221 282.308Z" fill="#CAE9FA"/>
    <path d="M228.775 291.863L223.042 286.13L207.755 301.417L213.487 307.15L228.775 291.863Z" fill="#CAE9FA"/>
    <path fill-rule="evenodd" clip-rule="evenodd" d="M181.48 247.434C178.05 244.004 172.489 244.004 169.059 247.434C165.629 250.864 165.629 256.425 169.059 259.855L207.277 298.073C210.707 301.503 216.268 301.503 219.698 298.073C223.128 294.643 223.128 289.082 219.698 285.652L181.48 247.434ZM166.193 244.568C171.206 239.555 179.333 239.555 184.346 244.568L222.565 282.786C227.578 287.799 227.578 295.927 222.565 300.94C217.552 305.953 209.424 305.953 204.411 300.94L166.193 262.721C161.18 257.708 161.18 249.581 166.193 244.568Z" fill="#1F2024"/>
    <g filter="url(#filter12_ii)">
        <path fill-rule="evenodd" clip-rule="evenodd" d="M317.169 269.186C318.197 270.612 320.292 270.711 321.33 269.29C329.435 258.188 331.642 243.782 325.664 231.083C315.716 209.946 298.051 178.646 271.038 151.634C225.236 105.831 182.238 89.4957 132.509 131.984C87.1819 170.711 52.0802 203.07 98.5208 249.511L208.71 359.7C215.043 366.032 225.309 366.032 231.641 359.7L237.214 354.127C238.323 353.018 238.255 351.198 237.072 350.168C191.802 310.751 154.021 271.89 132.421 236.308C128.737 230.239 129.961 222.516 134.981 217.496L170.46 182.017C173.252 179.225 176.966 177.485 180.913 177.527C230.498 178.058 283.048 221.858 317.169 269.186Z" fill="#9BCEF1"/>
    </g>
    <path d="M325.664 231.083L328.109 229.931L325.664 231.083ZM271.038 151.634L272.949 149.723L271.038 151.634ZM132.509 131.984L130.754 129.929L132.509 131.984ZM132.421 236.308L130.111 237.71L132.421 236.308ZM180.913 177.527L180.942 174.825L180.913 177.527ZM237.072 350.168L238.847 348.13L237.072 350.168ZM317.169 269.186L319.361 267.605L317.169 269.186ZM323.219 232.233C328.726 243.934 326.741 257.294 319.147 267.697L323.512 270.883C332.128 259.081 334.556 243.63 328.109 229.931L323.219 232.233ZM269.128 153.545C295.838 180.255 313.345 211.255 323.219 232.233L328.109 229.931C318.086 208.638 300.262 177.035 272.949 149.723L269.128 153.545ZM134.265 134.038C158.666 113.19 181.034 107.052 202.721 111.351C224.616 115.691 246.345 130.762 269.128 153.545L272.949 149.723C249.93 126.703 227.259 110.705 203.772 106.049C180.077 101.352 156.081 108.289 130.754 129.929L134.265 134.038ZM100.432 247.599C89.0364 236.204 82.8625 225.887 80.4876 216.348C78.1279 206.869 79.4517 197.89 83.5564 188.986C87.6895 180.019 94.6373 171.147 103.484 162.037C112.324 152.934 122.925 143.727 134.265 134.038L130.754 129.929C119.429 139.604 108.645 148.964 99.6064 158.272C90.5753 167.572 83.151 176.954 78.6479 186.723C74.1162 196.554 72.5395 206.793 75.2427 217.654C77.9316 228.453 84.7857 239.597 96.6102 251.421L100.432 247.599ZM210.621 357.788L100.432 247.599L96.6102 251.421L206.799 361.61L210.621 357.788ZM229.731 357.789C224.454 363.066 215.898 363.065 210.621 357.788L206.799 361.61C214.187 368.998 226.165 368.999 233.553 361.611L229.731 357.789ZM235.303 352.216L229.731 357.789L233.553 361.611L239.125 356.038L235.303 352.216ZM238.847 348.13C193.625 308.755 156.106 270.117 134.731 234.906L130.111 237.71C151.936 273.662 189.979 312.746 235.297 352.206L238.847 348.13ZM134.731 234.906C131.745 229.985 132.681 223.618 136.892 219.407L133.07 215.585C127.242 221.414 125.73 230.493 130.111 237.71L134.731 234.906ZM136.892 219.407L172.371 183.928L168.549 180.106L133.07 215.585L136.892 219.407ZM172.371 183.928C174.726 181.573 177.766 180.196 180.885 180.23L180.942 174.825C176.166 174.774 171.778 176.877 168.549 180.106L172.371 183.928ZM180.885 180.23C204.915 180.487 229.912 191.249 253.264 208.003C276.588 224.737 298.057 247.297 314.976 270.766L319.361 267.605C302.161 243.747 280.293 220.743 256.415 203.612C232.566 186.501 206.496 175.099 180.942 174.825L180.885 180.23ZM239.125 356.038C241.349 353.814 241.202 350.181 238.847 348.13L235.297 352.206C235.301 352.209 235.302 352.211 235.301 352.21L235.301 352.209C235.3 352.209 235.301 352.211 235.302 352.216C235.302 352.222 235.301 352.223 235.302 352.221C235.303 352.218 235.303 352.216 235.305 352.215C235.306 352.213 235.306 352.213 235.303 352.216L239.125 356.038ZM319.147 267.697C319.157 267.682 319.189 267.651 319.238 267.628C319.282 267.607 319.316 267.604 319.334 267.605C319.367 267.606 319.373 267.621 319.361 267.605L314.976 270.766C316.973 273.535 321.286 273.934 323.512 270.883L319.147 267.697Z" fill="#1F2024"/>
    <g filter="url(#filter13_ii)">
        <path fill-rule="evenodd" clip-rule="evenodd" d="M327.814 267.35C336.524 258.64 341.451 246.568 339.445 234.414C334.243 202.91 319.809 177.473 286.909 144.573C247.585 105.249 178.136 68.2855 127.497 118.925L90.4728 155.949C52.9713 193.45 51.0607 217.336 93.2694 259.545L202.978 369.254C209.31 375.586 219.577 375.587 225.909 369.255L239.671 355.493C241.225 353.939 240.372 351.132 238.439 350.086C237.441 349.546 236.486 348.893 235.594 348.122C188.439 307.443 148.962 267.266 126.689 230.575C123.005 224.507 124.229 216.783 129.249 211.763L164.728 176.284C167.519 173.492 171.234 171.752 175.181 171.795C227.258 172.351 282.607 220.639 316.44 270.612C316.649 270.921 316.846 271.236 317.029 271.554C318.116 273.443 320.898 274.266 322.439 272.725L327.814 267.35Z" fill="white"/>
    </g>
    <path d="M339.445 234.414L342.111 233.974L339.445 234.414ZM235.594 348.122L237.359 346.076L235.594 348.122ZM126.689 230.575L124.379 231.977L126.689 230.575ZM175.181 171.795L175.209 169.093L175.181 171.795ZM316.44 270.612L318.678 269.097L316.44 270.612ZM317.029 271.554L319.371 270.206L317.029 271.554ZM238.439 350.086L237.153 352.464L238.439 350.086ZM336.778 234.854C338.617 245.989 334.121 257.221 325.902 265.439L329.724 269.261C338.927 260.058 344.286 247.147 342.111 233.974L336.778 234.854ZM284.998 146.484C317.648 179.134 331.698 204.085 336.778 234.854L342.111 233.974C336.788 201.735 321.969 175.812 288.82 142.662L284.998 146.484ZM129.408 120.836C153.903 96.3402 182.857 92.9931 210.733 100.619C238.747 108.283 265.547 127.032 284.998 146.484L288.82 142.662C268.947 122.789 241.361 103.395 212.159 95.406C182.82 87.3794 151.73 90.8701 125.586 117.014L129.408 120.836ZM92.3836 157.86L129.408 120.836L125.586 117.014L88.5618 154.038L92.3836 157.86ZM95.18 257.635C74.1389 236.593 64.7849 220.745 64.6821 205.963C64.5795 191.208 73.6898 176.554 92.3836 157.86L88.5618 154.038C69.7542 172.846 59.1585 188.885 59.2776 206C59.3959 223.089 70.1906 240.289 91.3581 261.456L95.18 257.635ZM204.889 367.343L95.18 257.635L91.3581 261.456L201.067 371.165L204.889 367.343ZM223.998 367.343C218.721 372.62 210.166 372.621 204.889 367.343L201.067 371.165C208.455 378.553 220.432 378.552 227.82 371.165L223.998 367.343ZM237.759 353.582L223.998 367.343L227.82 371.165L241.581 357.404L237.759 353.582ZM239.724 347.708C238.896 347.262 238.102 346.718 237.359 346.076L233.828 350.168C234.87 351.067 235.985 351.832 237.153 352.464L239.724 347.708ZM237.359 346.076C190.25 305.436 151.041 265.485 128.999 229.173L124.379 231.977C146.881 269.047 186.629 309.45 233.828 350.168L237.359 346.076ZM128.999 229.173C126.012 224.253 126.949 217.885 131.16 213.674L127.338 209.852C121.509 215.681 119.997 224.761 124.379 231.977L128.999 229.173ZM131.16 213.674L166.639 178.195L162.817 174.373L127.338 209.852L131.16 213.674ZM166.639 178.195C168.993 175.841 172.033 174.464 175.152 174.497L175.209 169.093C170.433 169.041 166.045 171.145 162.817 174.373L166.639 178.195ZM175.152 174.497C200.395 174.767 226.699 186.629 251.033 204.836C275.333 223.018 297.428 247.351 314.202 272.127L318.678 269.097C301.618 243.9 279.122 219.103 254.271 200.508C229.453 181.939 202.044 169.379 175.209 169.093L175.152 174.497ZM314.202 272.127C314.374 272.382 314.537 272.641 314.687 272.903L319.371 270.206C319.155 269.83 318.924 269.46 318.678 269.097L314.202 272.127ZM325.902 265.439L320.527 270.814L324.349 274.636L329.724 269.261L325.902 265.439ZM314.687 272.903C315.627 274.536 317.238 275.641 318.925 276.051C320.636 276.468 322.761 276.224 324.349 274.636L320.527 270.814C320.523 270.818 320.525 270.817 320.529 270.814C320.532 270.812 320.527 270.815 320.509 270.82C320.468 270.829 320.365 270.839 320.203 270.8C319.842 270.712 319.518 270.461 319.371 270.206L314.687 272.903ZM241.581 357.404C243.183 355.802 243.419 353.657 242.982 351.934C242.552 350.236 241.41 348.619 239.724 347.708L237.153 352.464C237.402 352.597 237.653 352.906 237.743 353.263C237.783 353.422 237.774 353.525 237.765 353.565C237.762 353.582 237.757 353.587 237.759 353.583C237.763 353.578 237.764 353.577 237.759 353.582L241.581 357.404Z" fill="#1F2024"/>
    <g filter="url(#filter14_i)">
        <path fill-rule="evenodd" clip-rule="evenodd" d="M174.242 155.912C170.885 156.292 167.807 157.917 165.418 160.307L115.7 210.024C110.954 214.77 109.562 221.975 112.691 227.913C133.771 267.918 174.866 309.938 224.928 351.592C230.745 356.432 239.043 356.444 244.91 351.96C241.579 351.729 238.302 350.458 235.593 348.122C188.439 307.443 148.961 267.266 126.689 230.575C123.004 224.507 124.229 216.783 129.248 211.763L164.727 176.284C167.519 173.492 171.233 171.752 175.18 171.795C227.257 172.351 282.606 220.639 316.439 270.612C317.989 272.901 318.83 275.47 319.007 278.067L324.717 272.357C329.795 267.279 330.975 259.44 327.238 253.308C294.134 198.978 235.09 149.002 174.242 155.912Z" fill="#E2E2E2"/>
    </g>
    <path d="M174.242 155.912L174.547 158.597L174.242 155.912ZM112.691 227.913L110.3 229.173L112.691 227.913ZM224.928 351.592L226.657 349.515L224.928 351.592ZM244.91 351.96L246.551 354.108L252.239 349.762L245.098 349.265L244.91 351.96ZM235.593 348.122L233.828 350.168L235.593 348.122ZM126.689 230.575L128.999 229.173L126.689 230.575ZM175.18 171.795L175.152 174.497L175.18 171.795ZM316.44 270.612L318.677 269.097L316.44 270.612ZM319.007 278.067L316.311 278.251L316.717 284.179L320.918 279.977L319.007 278.067ZM327.238 253.308L324.931 254.714L327.238 253.308ZM167.329 162.218C169.338 160.208 171.867 158.901 174.547 158.597L173.937 153.226C169.902 153.685 166.276 155.627 163.507 158.396L167.329 162.218ZM117.611 211.935L167.329 162.218L163.507 158.396L113.789 208.113L117.611 211.935ZM115.082 226.653C112.553 221.854 113.627 215.919 117.611 211.935L113.789 208.113C108.281 213.621 106.571 222.095 110.3 229.173L115.082 226.653ZM226.657 349.515C176.65 307.908 135.903 266.167 115.082 226.653L110.3 229.173C131.639 269.67 173.081 311.969 223.2 353.669L226.657 349.515ZM243.27 349.814C238.377 353.552 231.479 353.527 226.657 349.515L223.2 353.669C230.012 359.338 239.709 359.337 246.551 354.108L243.27 349.814ZM245.098 349.265C242.329 349.072 239.609 348.018 237.358 346.076L233.828 350.168C236.993 352.899 240.83 354.385 244.723 354.657L245.098 349.265ZM237.358 346.076C190.249 305.436 151.041 265.485 128.999 229.173L124.379 231.977C146.88 269.047 186.629 309.45 233.828 350.168L237.358 346.076ZM128.999 229.173C126.012 224.253 126.949 217.885 131.159 213.674L127.338 209.852C121.509 215.681 119.997 224.761 124.379 231.977L128.999 229.173ZM131.159 213.674L166.638 178.195L162.817 174.373L127.338 209.852L131.159 213.674ZM166.638 178.195C168.993 175.841 172.033 174.464 175.152 174.497L175.209 169.093C170.433 169.041 166.045 171.145 162.817 174.373L166.638 178.195ZM175.152 174.497C200.394 174.767 226.699 186.629 251.033 204.836C275.333 223.018 297.428 247.352 314.202 272.127L318.677 269.097C301.618 243.9 279.122 219.103 254.27 200.508C229.453 181.94 202.044 169.379 175.209 169.093L175.152 174.497ZM314.202 272.127C315.476 274.009 316.165 276.115 316.311 278.251L321.704 277.882C321.494 274.824 320.503 271.794 318.677 269.097L314.202 272.127ZM322.807 270.446L317.097 276.156L320.918 279.977L326.628 274.267L322.807 270.446ZM324.931 254.714C327.977 259.713 327.061 266.192 322.807 270.446L326.628 274.267C332.53 268.366 333.974 259.168 329.547 251.902L324.931 254.714ZM174.547 158.597C204.122 155.239 233.447 165.687 259.602 183.865C285.752 202.039 308.542 227.818 324.931 254.714L329.547 251.902C312.83 224.468 289.547 198.094 262.687 179.426C235.831 160.761 205.21 149.676 173.937 153.226L174.547 158.597Z" fill="#1F2024"/>
    <g filter="url(#filter15_d)">
        <path d="M156.399 314.077C159.038 316.715 163.316 316.715 165.954 314.077C168.592 311.439 168.592 307.161 165.954 304.522C163.316 301.884 159.038 301.884 156.399 304.522C153.761 307.161 153.761 311.439 156.399 314.077Z" fill="#CAE9FA"/>
        <path fill-rule="evenodd" clip-rule="evenodd" d="M164.043 306.433C162.46 304.85 159.893 304.85 158.31 306.433C156.727 308.016 156.727 310.583 158.31 312.166C159.893 313.749 162.46 313.749 164.043 312.166C165.626 310.583 165.626 308.016 164.043 306.433ZM154.489 302.612C158.182 298.918 164.171 298.918 167.865 302.612C171.559 306.305 171.559 312.294 167.865 315.988C164.171 319.682 158.182 319.682 154.489 315.988C150.795 312.294 150.795 306.305 154.489 302.612Z" fill="#1F2024"/>
    </g>
    <g filter="url(#filter16_d)">
        <path d="M173.598 331.275C176.236 333.914 180.514 333.914 183.152 331.275C185.791 328.637 185.791 324.359 183.152 321.721C180.514 319.082 176.236 319.082 173.598 321.721C170.959 324.359 170.959 328.637 173.598 331.275Z" fill="#9BCEF1"/>
        <path fill-rule="evenodd" clip-rule="evenodd" d="M181.241 323.632C179.658 322.049 177.092 322.049 175.509 323.632C173.926 325.215 173.926 327.781 175.509 329.364C177.092 330.947 179.658 330.947 181.241 329.364C182.824 327.781 182.824 325.215 181.241 323.632ZM171.687 319.81C175.381 316.116 181.369 316.116 185.063 319.81C188.757 323.504 188.757 329.492 185.063 333.186C181.369 336.88 175.381 336.88 171.687 333.186C167.993 329.492 167.993 323.504 171.687 319.81Z" fill="#1F2024"/>
    </g>
    <g filter="url(#filter17_d)">
        <path d="M190.796 348.473C193.434 351.112 197.712 351.112 200.351 348.473C202.989 345.835 202.989 341.557 200.351 338.919C197.712 336.28 193.434 336.28 190.796 338.919C188.158 341.557 188.158 345.835 190.796 348.473Z" fill="#FFFA8F"/>
        <path fill-rule="evenodd" clip-rule="evenodd" d="M198.44 340.83C196.857 339.247 194.29 339.247 192.707 340.83C191.124 342.413 191.124 344.98 192.707 346.563C194.29 348.146 196.857 348.146 198.44 346.563C200.023 344.98 200.023 342.413 198.44 340.83ZM188.885 337.008C192.579 333.314 198.568 333.314 202.261 337.008C205.955 340.702 205.955 346.691 202.261 350.384C198.568 354.078 192.579 354.078 188.885 350.384C185.191 346.691 185.191 340.702 188.885 337.008Z" fill="#1F2024"/>
    </g>
    <g filter="url(#filter18_i)">
        <path d="M97.8771 142.811C106.32 134.368 120.008 134.369 128.451 142.811L136.095 150.455C144.538 158.898 144.538 172.587 136.095 181.029C127.653 189.472 113.963 189.473 105.52 181.03L97.8768 173.386C89.4338 164.943 89.4343 151.254 97.8771 142.811Z" fill="#E2E2E2"/>
    </g>
    <path fill-rule="evenodd" clip-rule="evenodd" d="M126.54 144.722C119.153 137.335 107.175 137.335 99.788 144.722C92.4005 152.11 92.4001 164.088 99.7877 171.475L107.431 179.119C114.819 186.506 126.797 186.506 134.184 179.119C141.572 171.731 141.572 159.754 134.184 152.366L126.54 144.722ZM95.9662 140.9C105.464 131.402 120.864 131.402 130.362 140.901L138.006 148.544C147.504 158.043 147.505 173.442 138.006 182.94C128.508 192.439 113.108 192.439 103.61 182.941L95.9659 175.297C86.4674 165.799 86.4681 150.398 95.9662 140.9Z" fill="#1F2024"/>
    <g filter="url(#filter19_ii)">
        <path d="M97.8771 142.811C106.32 134.368 120.008 134.369 128.451 142.811C136.894 151.254 136.895 164.943 128.452 173.386C120.009 181.829 106.32 181.829 97.8768 173.386C89.4339 164.943 89.4343 151.254 97.8771 142.811Z" fill="#ACACAE"/>
    </g>
    <path fill-rule="evenodd" clip-rule="evenodd" d="M126.54 144.722C119.153 137.335 107.175 137.335 99.788 144.722C92.4005 152.11 92.4002 164.088 99.7877 171.475C107.175 178.863 119.153 178.862 126.541 171.475C133.928 164.087 133.928 152.11 126.54 144.722ZM95.9662 140.9C105.464 131.402 120.864 131.402 130.362 140.901C139.861 150.399 139.861 165.798 130.363 175.297C120.864 184.795 105.464 184.795 95.9659 175.297C86.4675 165.799 86.4681 150.398 95.9662 140.9Z" fill="#1F2024"/>
    <g filter="url(#filter20_i)">
        <path d="M78.2908 183.418C84.623 177.086 94.8891 177.086 101.221 183.418L106.954 189.151C113.286 195.483 113.287 205.749 106.955 212.081C100.622 218.414 90.3556 218.414 84.0233 212.082L78.2905 206.349C71.9583 200.017 71.958 189.751 78.2908 183.418Z" fill="#ACACAE"/>
    </g>
    <path fill-rule="evenodd" clip-rule="evenodd" d="M99.3104 185.329C94.0335 180.052 85.4784 180.052 80.2017 185.329C74.9243 190.606 74.9246 199.161 80.2015 204.438L85.9343 210.171C91.2111 215.448 99.7661 215.448 105.044 210.171C110.32 204.894 110.32 196.339 105.043 191.062L99.3104 185.329ZM76.3799 181.507C83.7675 174.119 95.7447 174.12 103.132 181.507L108.865 187.24C116.253 194.628 116.253 206.605 108.865 213.992C101.477 221.381 89.5 221.38 82.1124 213.993L76.3796 208.26C68.9921 200.872 68.9917 188.895 76.3799 181.507Z" fill="#1F2024"/>
    <g filter="url(#filter21_ii)">
        <path d="M78.2908 183.418C84.623 177.086 94.8891 177.086 101.221 183.418C107.554 189.75 107.554 200.017 101.222 206.349C94.889 212.681 84.6228 212.681 78.2905 206.349C71.9583 200.017 71.958 189.751 78.2908 183.418Z" fill="#797A7C"/>
    </g>
    <path fill-rule="evenodd" clip-rule="evenodd" d="M99.3104 185.329C94.0335 180.052 85.4784 180.052 80.2017 185.329C74.9243 190.606 74.9246 199.161 80.2015 204.438C85.4783 209.715 94.0334 209.715 99.3109 204.438C104.588 199.161 104.587 190.606 99.3104 185.329ZM76.3799 181.507C83.7675 174.119 95.7447 174.12 103.132 181.507C110.52 188.895 110.52 200.872 103.133 208.26C95.7445 215.648 83.7672 215.647 76.3796 208.26C68.9921 200.872 68.9917 188.895 76.3799 181.507Z" fill="#1F2024"/>
    <g filter="url(#filter22_i)">
        <path d="M164.728 176.284C167.519 173.493 171.234 171.752 175.181 171.795C227.258 172.351 282.606 220.639 316.44 270.612C320.643 276.82 319.628 285.09 314.327 290.391L257.461 347.257C251.505 353.213 241.971 353.624 235.593 348.122C188.439 307.444 148.962 267.266 126.689 230.575C123.005 224.507 124.229 216.783 129.249 211.763L164.728 176.284Z" fill="#1F2024" fill-opacity="0.2"/>
    </g>
    <path fill-rule="evenodd" clip-rule="evenodd" d="M251.032 204.836C226.699 186.629 200.394 174.767 175.152 174.497L175.152 174.497C172.033 174.463 168.993 175.84 166.639 178.195L131.159 213.674C126.949 217.885 126.012 224.253 128.999 229.173L128.999 229.173C151.042 265.485 190.249 305.436 237.359 346.076L235.593 348.122L237.359 346.076C242.65 350.641 250.582 350.314 255.551 345.346L312.416 288.48C316.854 284.042 317.637 277.202 314.202 272.127L316.438 270.613L314.202 272.127C297.428 247.351 275.333 223.018 251.032 204.836ZM254.27 200.508C279.122 219.103 301.618 243.9 318.677 269.097C323.648 276.439 322.402 286.138 316.238 292.302L259.372 349.167C252.429 356.111 241.292 356.607 233.828 350.168C186.629 309.451 146.881 269.047 124.379 231.977C119.997 224.76 121.509 215.681 127.338 209.852L162.817 174.373C166.045 171.145 170.434 169.041 175.21 169.092M254.27 200.508C229.452 181.939 202.044 169.379 175.21 169.092Z" fill="#1F2024"/>
    <path fill-rule="evenodd" clip-rule="evenodd" d="M233.365 332.781C233.756 333.122 234.148 333.464 234.54 333.806C240.906 339.353 250.474 338.957 256.445 332.986L299.488 289.942C304.828 284.602 305.82 276.257 301.492 270.068C300.715 268.956 299.926 267.846 299.124 266.737C299.086 270.772 297.449 274.783 294.415 277.817L244.18 328.052C241.194 331.038 237.304 332.632 233.365 332.781Z" fill="white"/>
    <g filter="url(#filter23_ii)">
        <path d="M209.905 69.9576C210.037 69.8256 210.037 69.6118 209.905 69.4798C209.773 69.3479 209.559 69.3479 209.427 69.4798L132.513 146.394C132.381 146.526 132.381 146.74 132.513 146.872C132.645 147.004 132.859 147.004 132.99 146.872L209.905 69.9576Z" fill="#ACACAE"/>
    </g>
    <path fill-rule="evenodd" clip-rule="evenodd" d="M207.516 67.569C208.704 66.3817 210.629 66.3817 211.816 67.569C213.003 68.7563 213.003 70.6812 211.816 71.8685L134.901 148.783C133.714 149.97 131.789 149.97 130.602 148.783C129.415 147.596 129.415 145.671 130.602 144.483L207.516 67.569Z" fill="#1F2024"/>
    <path fill-rule="evenodd" clip-rule="evenodd" d="M171.777 117.357C172.236 119.656 171.907 122.287 170.014 124.18C168.121 126.073 165.49 126.402 163.192 125.942C160.871 125.478 158.546 124.176 156.638 122.269L160.46 118.447C161.718 119.705 163.115 120.415 164.252 120.642C165.412 120.874 165.975 120.575 166.193 120.358C166.41 120.14 166.709 119.577 166.477 118.417C166.249 117.28 165.54 115.883 164.282 114.625L168.104 110.803C170.011 112.711 171.313 115.036 171.777 117.357Z" fill="#1F2024"/>
    <path fill-rule="evenodd" clip-rule="evenodd" d="M156.49 132.644C156.95 134.943 156.62 137.574 154.727 139.467C152.834 141.36 150.203 141.689 147.905 141.229C145.584 140.765 143.259 139.463 141.351 137.556L145.173 133.734C146.432 134.992 147.828 135.702 148.965 135.929C150.125 136.161 150.688 135.863 150.905 135.645C151.123 135.427 151.422 134.864 151.19 133.704C150.962 132.567 150.253 131.171 148.995 129.912L152.816 126.09C154.724 127.998 156.026 130.323 156.49 132.644Z" fill="#1F2024"/>
    <path fill-rule="evenodd" clip-rule="evenodd" d="M152.846 120.073C151.686 119.841 151.123 120.14 150.905 120.358C150.688 120.575 150.389 121.139 150.621 122.298C150.849 123.436 151.558 124.832 152.816 126.09L148.995 129.912C147.087 128.004 145.785 125.679 145.321 123.358C144.862 121.06 145.191 118.429 147.084 116.536C148.977 114.643 151.608 114.314 153.906 114.773C156.227 115.237 158.552 116.539 160.46 118.447L156.638 122.269C155.38 121.01 153.984 120.301 152.846 120.073Z" fill="#1F2024"/>
    <path fill-rule="evenodd" clip-rule="evenodd" d="M137.559 135.36C136.399 135.128 135.836 135.427 135.618 135.645C135.401 135.862 135.102 136.426 135.334 137.585C135.561 138.723 136.271 140.119 137.529 141.378L133.707 145.199C131.8 143.292 130.498 140.966 130.034 138.645C129.574 136.347 129.903 133.716 131.796 131.823C133.69 129.93 136.32 129.601 138.619 130.06C140.94 130.525 143.265 131.826 145.173 133.734L141.351 137.556C140.093 136.297 138.696 135.588 137.559 135.36Z" fill="#1F2024"/>
    <path fill-rule="evenodd" clip-rule="evenodd" d="M168.133 104.786C166.974 104.554 166.41 104.853 166.193 105.07C165.975 105.288 165.676 105.851 165.908 107.011C166.136 108.148 166.845 109.545 168.104 110.803L164.282 114.625C162.374 112.717 161.073 110.392 160.608 108.071C160.149 105.772 160.478 103.141 162.371 101.248C164.264 99.3553 166.895 99.0263 169.193 99.486C171.514 99.9501 173.84 101.252 175.747 103.159L171.925 106.981C170.667 105.723 169.271 105.013 168.133 104.786Z" fill="#1F2024"/>
    <g filter="url(#filter24_ii)">
        <path d="M204.411 60.1639C208.633 55.9424 215.477 55.9424 219.698 60.1639C223.92 64.3854 223.92 71.2297 219.698 75.4512C215.477 79.6727 208.632 79.6727 204.411 75.4513C200.19 71.2298 200.19 64.3854 204.411 60.1639Z" fill="#ACACAE"/>
    </g>
    <path fill-rule="evenodd" clip-rule="evenodd" d="M217.787 62.0749C214.621 58.9088 209.488 58.9088 206.322 62.0749C203.156 65.241 203.156 70.3743 206.322 73.5404C209.488 76.7065 214.621 76.7065 217.787 73.5403C220.954 70.3742 220.954 65.241 217.787 62.0749ZM202.5 58.253C207.777 52.9762 216.332 52.9762 221.609 58.2531C226.886 63.5299 226.886 72.0853 221.609 77.3622C216.332 82.639 207.777 82.639 202.5 77.3622C197.223 72.0854 197.223 63.5299 202.5 58.253Z" fill="#1F2024"/>
    <defs>
        <filter id="filter0_ii" x="372.338" y="377.115" width="214.541" height="219.876" filterUnits="userSpaceOnUse" color-interpolation-filters="sRGB">
            <feFlood flood-opacity="0" result="BackgroundImageFix"/>
            <feBlend mode="normal" in="SourceGraphic" in2="BackgroundImageFix" result="shape"/>
            <feColorMatrix in="SourceAlpha" type="matrix" values="0 0 0 0 0 0 0 0 0 0 0 0 0 0 0 0 0 0 127 0" result="hardAlpha"/>
            <feOffset dy="-10.8098"/>
            <feGaussianBlur stdDeviation="2"/>
            <feComposite in2="hardAlpha" operator="arithmetic" k2="-1" k3="1"/>
            <feColorMatrix type="matrix" values="0 0 0 0 0 0 0 0 0 0 0 0 0 0 0 0 0 0 0.25 0"/>
            <feBlend mode="normal" in2="shape" result="effect1_innerShadow"/>
            <feColorMatrix in="SourceAlpha" type="matrix" values="0 0 0 0 0 0 0 0 0 0 0 0 0 0 0 0 0 0 127 0" result="hardAlpha"/>
            <feOffset dy="10.8098"/>
            <feGaussianBlur stdDeviation="2"/>
            <feComposite in2="hardAlpha" operator="arithmetic" k2="-1" k3="1"/>
            <feColorMatrix type="matrix" values="0 0 0 0 1 0 0 0 0 1 0 0 0 0 1 0 0 0 0.25 0"/>
            <feBlend mode="normal" in2="effect1_innerShadow" result="effect2_innerShadow"/>
        </filter>
        <filter id="filter1_i" x="420.093" y="344.636" width="210.26" height="208.927" filterUnits="userSpaceOnUse" color-interpolation-filters="sRGB">
            <feFlood flood-opacity="0" result="BackgroundImageFix"/>
            <feBlend mode="normal" in="SourceGraphic" in2="BackgroundImageFix" result="shape"/>
            <feColorMatrix in="SourceAlpha" type="matrix" values="0 0 0 0 0 0 0 0 0 0 0 0 0 0 0 0 0 0 127 0" result="hardAlpha"/>
            <feOffset dx="-16.2146" dy="5.40488"/>
            <feGaussianBlur stdDeviation="2"/>
            <feComposite in2="hardAlpha" operator="arithmetic" k2="-1" k3="1"/>
            <feColorMatrix type="matrix" values="0 0 0 0 1 0 0 0 0 1 0 0 0 0 1 0 0 0 0.25 0"/>
            <feBlend mode="normal" in2="shape" result="effect1_innerShadow"/>
        </filter>
        <filter id="filter2_d" x="378.861" y="363.186" width="218.758" height="178.155" filterUnits="userSpaceOnUse" color-interpolation-filters="sRGB">
            <feFlood flood-opacity="0" result="BackgroundImageFix"/>
            <feColorMatrix in="SourceAlpha" type="matrix" values="0 0 0 0 0 0 0 0 0 0 0 0 0 0 0 0 0 0 127 0" result="hardAlpha"/>
            <feOffset dx="-2.70244" dy="2.70244"/>
            <feGaussianBlur stdDeviation="2"/>
            <feColorMatrix type="matrix" values="0 0 0 0 0 0 0 0 0 0 0 0 0 0 0 0 0 0 0.25 0"/>
            <feBlend mode="normal" in2="BackgroundImageFix" result="effect1_dropShadow"/>
            <feBlend mode="normal" in="SourceGraphic" in2="effect1_dropShadow" result="shape"/>
        </filter>
        <filter id="filter3_ii" x="452.506" y="360.484" width="143.815" height="139.829" filterUnits="userSpaceOnUse" color-interpolation-filters="sRGB">
            <feFlood flood-opacity="0" result="BackgroundImageFix"/>
            <feBlend mode="normal" in="SourceGraphic" in2="BackgroundImageFix" result="shape"/>
            <feColorMatrix in="SourceAlpha" type="matrix" values="0 0 0 0 0 0 0 0 0 0 0 0 0 0 0 0 0 0 127 0" result="hardAlpha"/>
            <feOffset dy="-10.8098"/>
            <feGaussianBlur stdDeviation="2"/>
            <feComposite in2="hardAlpha" operator="arithmetic" k2="-1" k3="1"/>
            <feColorMatrix type="matrix" values="0 0 0 0 0 0 0 0 0 0 0 0 0 0 0 0 0 0 0.25 0"/>
            <feBlend mode="normal" in2="shape" result="effect1_innerShadow"/>
            <feColorMatrix in="SourceAlpha" type="matrix" values="0 0 0 0 0 0 0 0 0 0 0 0 0 0 0 0 0 0 127 0" result="hardAlpha"/>
            <feOffset dy="10.8098"/>
            <feGaussianBlur stdDeviation="2"/>
            <feComposite in2="hardAlpha" operator="arithmetic" k2="-1" k3="1"/>
            <feColorMatrix type="matrix" values="0 0 0 0 1 0 0 0 0 1 0 0 0 0 1 0 0 0 0.25 0"/>
            <feBlend mode="normal" in2="effect1_innerShadow" result="effect2_innerShadow"/>
        </filter>
        <filter id="filter4_ii" x="401.76" y="488.648" width="76.5312" height="72.5312" filterUnits="userSpaceOnUse" color-interpolation-filters="sRGB">
            <feFlood flood-opacity="0" result="BackgroundImageFix"/>
            <feBlend mode="normal" in="SourceGraphic" in2="BackgroundImageFix" result="shape"/>
            <feColorMatrix in="SourceAlpha" type="matrix" values="0 0 0 0 0 0 0 0 0 0 0 0 0 0 0 0 0 0 127 0" result="hardAlpha"/>
            <feOffset dx="10.8098"/>
            <feGaussianBlur stdDeviation="2"/>
            <feComposite in2="hardAlpha" operator="arithmetic" k2="-1" k3="1"/>
            <feColorMatrix type="matrix" values="0 0 0 0 0 0 0 0 0 0 0 0 0 0 0 0 0 0 0.25 0"/>
            <feBlend mode="normal" in2="shape" result="effect1_innerShadow"/>
            <feColorMatrix in="SourceAlpha" type="matrix" values="0 0 0 0 0 0 0 0 0 0 0 0 0 0 0 0 0 0 127 0" result="hardAlpha"/>
            <feOffset dx="-16.2146" dy="5.40488"/>
            <feGaussianBlur stdDeviation="2"/>
            <feComposite in2="hardAlpha" operator="arithmetic" k2="-1" k3="1"/>
            <feColorMatrix type="matrix" values="0 0 0 0 1 0 0 0 0 1 0 0 0 0 1 0 0 0 0.25 0"/>
            <feBlend mode="normal" in2="effect1_innerShadow" result="effect2_innerShadow"/>
        </filter>
        <filter id="filter5_ii" x="402.83" y="508.756" width="53.6875" height="49.6873" filterUnits="userSpaceOnUse" color-interpolation-filters="sRGB">
            <feFlood flood-opacity="0" result="BackgroundImageFix"/>
            <feBlend mode="normal" in="SourceGraphic" in2="BackgroundImageFix" result="shape"/>
            <feColorMatrix in="SourceAlpha" type="matrix" values="0 0 0 0 0 0 0 0 0 0 0 0 0 0 0 0 0 0 127 0" result="hardAlpha"/>
            <feOffset dx="10.8098"/>
            <feGaussianBlur stdDeviation="2"/>
            <feComposite in2="hardAlpha" operator="arithmetic" k2="-1" k3="1"/>
            <feColorMatrix type="matrix" values="0 0 0 0 0 0 0 0 0 0 0 0 0 0 0 0 0 0 0.25 0"/>
            <feBlend mode="normal" in2="shape" result="effect1_innerShadow"/>
            <feColorMatrix in="SourceAlpha" type="matrix" values="0 0 0 0 0 0 0 0 0 0 0 0 0 0 0 0 0 0 127 0" result="hardAlpha"/>
            <feOffset dx="-16.2146" dy="5.40488"/>
            <feGaussianBlur stdDeviation="2"/>
            <feComposite in2="hardAlpha" operator="arithmetic" k2="-1" k3="1"/>
            <feColorMatrix type="matrix" values="0 0 0 0 1 0 0 0 0 1 0 0 0 0 1 0 0 0 0.25 0"/>
            <feBlend mode="normal" in2="effect1_innerShadow" result="effect2_innerShadow"/>
        </filter>
        <filter id="filter6_ii" x="454.507" y="406.381" width="214.347" height="200.413" filterUnits="userSpaceOnUse" color-interpolation-filters="sRGB">
            <feFlood flood-opacity="0" result="BackgroundImageFix"/>
            <feBlend mode="normal" in="SourceGraphic" in2="BackgroundImageFix" result="shape"/>
            <feColorMatrix in="SourceAlpha" type="matrix" values="0 0 0 0 0 0 0 0 0 0 0 0 0 0 0 0 0 0 127 0" result="hardAlpha"/>
            <feOffset dx="10.8098"/>
            <feGaussianBlur stdDeviation="2"/>
            <feComposite in2="hardAlpha" operator="arithmetic" k2="-1" k3="1"/>
            <feColorMatrix type="matrix" values="0 0 0 0 0 0 0 0 0 0 0 0 0 0 0 0 0 0 0.25 0"/>
            <feBlend mode="normal" in2="shape" result="effect1_innerShadow"/>
            <feColorMatrix in="SourceAlpha" type="matrix" values="0 0 0 0 0 0 0 0 0 0 0 0 0 0 0 0 0 0 127 0" result="hardAlpha"/>
            <feOffset dx="-10.8098" dy="5.40488"/>
            <feGaussianBlur stdDeviation="2"/>
            <feComposite in2="hardAlpha" operator="arithmetic" k2="-1" k3="1"/>
            <feColorMatrix type="matrix" values="0 0 0 0 1 0 0 0 0 1 0 0 0 0 1 0 0 0 0.25 0"/>
            <feBlend mode="normal" in2="effect1_innerShadow" result="effect2_innerShadow"/>
        </filter>
        <filter id="filter7_i" x="464.681" y="521.051" width="23.0361" height="23.0364" filterUnits="userSpaceOnUse" color-interpolation-filters="sRGB">
            <feFlood flood-opacity="0" result="BackgroundImageFix"/>
            <feBlend mode="normal" in="SourceGraphic" in2="BackgroundImageFix" result="shape"/>
            <feColorMatrix in="SourceAlpha" type="matrix" values="0 0 0 0 0 0 0 0 0 0 0 0 0 0 0 0 0 0 127 0" result="hardAlpha"/>
            <feOffset dx="-10.8098" dy="5.40488"/>
            <feGaussianBlur stdDeviation="2"/>
            <feComposite in2="hardAlpha" operator="arithmetic" k2="-1" k3="1"/>
            <feColorMatrix type="matrix" values="0 0 0 0 1 0 0 0 0 1 0 0 0 0 1 0 0 0 0.25 0"/>
            <feBlend mode="normal" in2="shape" result="effect1_innerShadow"/>
        </filter>
        <filter id="filter8_ii" x="332.941" y="310.938" width="191.414" height="172.759" filterUnits="userSpaceOnUse" color-interpolation-filters="sRGB">
            <feFlood flood-opacity="0" result="BackgroundImageFix"/>
            <feBlend mode="normal" in="SourceGraphic" in2="BackgroundImageFix" result="shape"/>
            <feColorMatrix in="SourceAlpha" type="matrix" values="0 0 0 0 0 0 0 0 0 0 0 0 0 0 0 0 0 0 127 0" result="hardAlpha"/>
            <feOffset dx="10.8098"/>
            <feGaussianBlur stdDeviation="2"/>
            <feComposite in2="hardAlpha" operator="arithmetic" k2="-1" k3="1"/>
            <feColorMatrix type="matrix" values="0 0 0 0 0 0 0 0 0 0 0 0 0 0 0 0 0 0 0.25 0"/>
            <feBlend mode="normal" in2="shape" result="effect1_innerShadow"/>
            <feColorMatrix in="SourceAlpha" type="matrix" values="0 0 0 0 0 0 0 0 0 0 0 0 0 0 0 0 0 0 127 0" result="hardAlpha"/>
            <feOffset dx="-16.2146" dy="5.40488"/>
            <feGaussianBlur stdDeviation="2"/>
            <feComposite in2="hardAlpha" operator="arithmetic" k2="-1" k3="1"/>
            <feColorMatrix type="matrix" values="0 0 0 0 1 0 0 0 0 1 0 0 0 0 1 0 0 0 0.25 0"/>
            <feBlend mode="normal" in2="effect1_innerShadow" result="effect2_innerShadow"/>
        </filter>
        <filter id="filter9_ii" x="61.5693" y="99.6375" width="214.022" height="222.022" filterUnits="userSpaceOnUse" color-interpolation-filters="sRGB">
            <feFlood flood-opacity="0" result="BackgroundImageFix"/>
            <feBlend mode="normal" in="SourceGraphic" in2="BackgroundImageFix" result="shape"/>
            <feColorMatrix in="SourceAlpha" type="matrix" values="0 0 0 0 0 0 0 0 0 0 0 0 0 0 0 0 0 0 127 0" result="hardAlpha"/>
            <feOffset dy="-10.8098"/>
            <feGaussianBlur stdDeviation="2"/>
            <feComposite in2="hardAlpha" operator="arithmetic" k2="-1" k3="1"/>
            <feColorMatrix type="matrix" values="0 0 0 0 0 0 0 0 0 0 0 0 0 0 0 0 0 0 0.25 0"/>
            <feBlend mode="normal" in2="shape" result="effect1_innerShadow"/>
            <feColorMatrix in="SourceAlpha" type="matrix" values="0 0 0 0 0 0 0 0 0 0 0 0 0 0 0 0 0 0 127 0" result="hardAlpha"/>
            <feOffset dy="10.8098"/>
            <feGaussianBlur stdDeviation="2"/>
            <feComposite in2="hardAlpha" operator="arithmetic" k2="-1" k3="1"/>
            <feColorMatrix type="matrix" values="0 0 0 0 1 0 0 0 0 1 0 0 0 0 1 0 0 0 0.25 0"/>
            <feBlend mode="normal" in2="effect1_innerShadow" result="effect2_innerShadow"/>
        </filter>
        <filter id="filter10_i" x="105.343" y="151.41" width="210.379" height="210.379" filterUnits="userSpaceOnUse" color-interpolation-filters="sRGB">
            <feFlood flood-opacity="0" result="BackgroundImageFix"/>
            <feBlend mode="normal" in="SourceGraphic" in2="BackgroundImageFix" result="shape"/>
            <feColorMatrix in="SourceAlpha" type="matrix" values="0 0 0 0 0 0 0 0 0 0 0 0 0 0 0 0 0 0 127 0" result="hardAlpha"/>
            <feOffset dx="-16.2146" dy="5.40488"/>
            <feGaussianBlur stdDeviation="2"/>
            <feComposite in2="hardAlpha" operator="arithmetic" k2="-1" k3="1"/>
            <feColorMatrix type="matrix" values="0 0 0 0 1 0 0 0 0 1 0 0 0 0 1 0 0 0 0.25 0"/>
            <feBlend mode="normal" in2="shape" result="effect1_innerShadow"/>
        </filter>
        <filter id="filter11_ddi" x="165.401" y="189.151" width="115.283" height="109.878" filterUnits="userSpaceOnUse" color-interpolation-filters="sRGB">
            <feFlood flood-opacity="0" result="BackgroundImageFix"/>
            <feColorMatrix in="SourceAlpha" type="matrix" values="0 0 0 0 0 0 0 0 0 0 0 0 0 0 0 0 0 0 127 0" result="hardAlpha"/>
            <feOffset dx="-2.70244"/>
            <feGaussianBlur stdDeviation="2"/>
            <feColorMatrix type="matrix" values="0 0 0 0 1 0 0 0 0 1 0 0 0 0 1 0 0 0 0.25 0"/>
            <feBlend mode="normal" in2="BackgroundImageFix" result="effect1_dropShadow"/>
            <feColorMatrix in="SourceAlpha" type="matrix" values="0 0 0 0 0 0 0 0 0 0 0 0 0 0 0 0 0 0 127 0" result="hardAlpha"/>
            <feOffset dx="2.70244"/>
            <feGaussianBlur stdDeviation="2"/>
            <feColorMatrix type="matrix" values="0 0 0 0 0 0 0 0 0 0 0 0 0 0 0 0 0 0 0.25 0"/>
            <feBlend mode="normal" in2="effect1_dropShadow" result="effect2_dropShadow"/>
            <feBlend mode="normal" in="SourceGraphic" in2="effect2_dropShadow" result="shape"/>
            <feColorMatrix in="SourceAlpha" type="matrix" values="0 0 0 0 0 0 0 0 0 0 0 0 0 0 0 0 0 0 127 0" result="hardAlpha"/>
            <feOffset dx="-2.70244"/>
            <feGaussianBlur stdDeviation="2"/>
            <feComposite in2="hardAlpha" operator="arithmetic" k2="-1" k3="1"/>
            <feColorMatrix type="matrix" values="0 0 0 0 0 0 0 0 0 0 0 0 0 0 0 0 0 0 0.25 0"/>
            <feBlend mode="normal" in2="shape" result="effect3_innerShadow"/>
        </filter>
        <filter id="filter12_ii" x="72.6191" y="107.354" width="260.44" height="261.094" filterUnits="userSpaceOnUse" color-interpolation-filters="sRGB">
            <feFlood flood-opacity="0" result="BackgroundImageFix"/>
            <feBlend mode="normal" in="SourceGraphic" in2="BackgroundImageFix" result="shape"/>
            <feColorMatrix in="SourceAlpha" type="matrix" values="0 0 0 0 0 0 0 0 0 0 0 0 0 0 0 0 0 0 127 0" result="hardAlpha"/>
            <feOffset dx="10.8098"/>
            <feGaussianBlur stdDeviation="2"/>
            <feComposite in2="hardAlpha" operator="arithmetic" k2="-1" k3="1"/>
            <feColorMatrix type="matrix" values="0 0 0 0 0 0 0 0 0 0 0 0 0 0 0 0 0 0 0.25 0"/>
            <feBlend mode="normal" in2="shape" result="effect1_innerShadow"/>
            <feColorMatrix in="SourceAlpha" type="matrix" values="0 0 0 0 0 0 0 0 0 0 0 0 0 0 0 0 0 0 127 0" result="hardAlpha"/>
            <feOffset dx="-16.2146" dy="5.40488"/>
            <feGaussianBlur stdDeviation="2"/>
            <feComposite in2="hardAlpha" operator="arithmetic" k2="-1" k3="1"/>
            <feColorMatrix type="matrix" values="0 0 0 0 1 0 0 0 0 1 0 0 0 0 1 0 0 0 0.25 0"/>
            <feBlend mode="normal" in2="effect1_innerShadow" result="effect2_innerShadow"/>
        </filter>
        <filter id="filter13_ii" x="36.0732" y="48.0427" width="336.677" height="336.677" filterUnits="userSpaceOnUse" color-interpolation-filters="sRGB">
            <feFlood flood-opacity="0" result="BackgroundImageFix"/>
            <feBlend mode="normal" in="SourceGraphic" in2="BackgroundImageFix" result="shape"/>
            <feColorMatrix in="SourceAlpha" type="matrix" values="0 0 0 0 0 0 0 0 0 0 0 0 0 0 0 0 0 0 127 0" result="hardAlpha"/>
            <feOffset dx="43.239" dy="-10.8098"/>
            <feGaussianBlur stdDeviation="2"/>
            <feComposite in2="hardAlpha" operator="arithmetic" k2="-1" k3="1"/>
            <feColorMatrix type="matrix" values="0 0 0 0 0 0 0 0 0 0 0 0 0 0 0 0 0 0 0.25 0"/>
            <feBlend mode="normal" in2="shape" result="effect1_innerShadow"/>
            <feColorMatrix in="SourceAlpha" type="matrix" values="0 0 0 0 0 0 0 0 0 0 0 0 0 0 0 0 0 0 127 0" result="hardAlpha"/>
            <feOffset dx="-10.8098" dy="10.8098"/>
            <feGaussianBlur stdDeviation="2"/>
            <feComposite in2="hardAlpha" operator="arithmetic" k2="-1" k3="1"/>
            <feColorMatrix type="matrix" values="0 0 0 0 1 0 0 0 0 1 0 0 0 0 1 0 0 0 0.25 0"/>
            <feBlend mode="normal" in2="effect1_innerShadow" result="effect2_innerShadow"/>
        </filter>
        <filter id="filter14_i" x="107.015" y="155.27" width="222.413" height="204.004" filterUnits="userSpaceOnUse" color-interpolation-filters="sRGB">
            <feFlood flood-opacity="0" result="BackgroundImageFix"/>
            <feBlend mode="normal" in="SourceGraphic" in2="BackgroundImageFix" result="shape"/>
            <feColorMatrix in="SourceAlpha" type="matrix" values="0 0 0 0 0 0 0 0 0 0 0 0 0 0 0 0 0 0 127 0" result="hardAlpha"/>
            <feOffset dx="-16.2146" dy="5.40488"/>
            <feGaussianBlur stdDeviation="2"/>
            <feComposite in2="hardAlpha" operator="arithmetic" k2="-1" k3="1"/>
            <feColorMatrix type="matrix" values="0 0 0 0 1 0 0 0 0 1 0 0 0 0 1 0 0 0 0.25 0"/>
            <feBlend mode="normal" in2="shape" result="effect1_innerShadow"/>
        </filter>
        <filter id="filter15_d" x="145.015" y="295.841" width="26.918" height="26.917" filterUnits="userSpaceOnUse" color-interpolation-filters="sRGB">
            <feFlood flood-opacity="0" result="BackgroundImageFix"/>
            <feColorMatrix in="SourceAlpha" type="matrix" values="0 0 0 0 0 0 0 0 0 0 0 0 0 0 0 0 0 0 127 0" result="hardAlpha"/>
            <feOffset dx="-2.70244"/>
            <feGaussianBlur stdDeviation="2"/>
            <feColorMatrix type="matrix" values="0 0 0 0 0.133333 0 0 0 0 0.133333 0 0 0 0 0.133333 0 0 0 1 0"/>
            <feBlend mode="normal" in2="BackgroundImageFix" result="effect1_dropShadow"/>
            <feBlend mode="normal" in="SourceGraphic" in2="effect1_dropShadow" result="shape"/>
        </filter>
        <filter id="filter16_d" x="162.214" y="313.04" width="26.918" height="26.917" filterUnits="userSpaceOnUse" color-interpolation-filters="sRGB">
            <feFlood flood-opacity="0" result="BackgroundImageFix"/>
            <feColorMatrix in="SourceAlpha" type="matrix" values="0 0 0 0 0 0 0 0 0 0 0 0 0 0 0 0 0 0 127 0" result="hardAlpha"/>
            <feOffset dx="-2.70244"/>
            <feGaussianBlur stdDeviation="2"/>
            <feColorMatrix type="matrix" values="0 0 0 0 0.133333 0 0 0 0 0.133333 0 0 0 0 0.133333 0 0 0 1 0"/>
            <feBlend mode="normal" in2="BackgroundImageFix" result="effect1_dropShadow"/>
            <feBlend mode="normal" in="SourceGraphic" in2="effect1_dropShadow" result="shape"/>
        </filter>
        <filter id="filter17_d" x="179.412" y="330.238" width="26.918" height="26.917" filterUnits="userSpaceOnUse" color-interpolation-filters="sRGB">
            <feFlood flood-opacity="0" result="BackgroundImageFix"/>
            <feColorMatrix in="SourceAlpha" type="matrix" values="0 0 0 0 0 0 0 0 0 0 0 0 0 0 0 0 0 0 127 0" result="hardAlpha"/>
            <feOffset dx="-2.70244"/>
            <feGaussianBlur stdDeviation="2"/>
            <feColorMatrix type="matrix" values="0 0 0 0 0.133333 0 0 0 0 0.133333 0 0 0 0 0.133333 0 0 0 1 0"/>
            <feBlend mode="normal" in2="BackgroundImageFix" result="effect1_dropShadow"/>
            <feBlend mode="normal" in="SourceGraphic" in2="effect1_dropShadow" result="shape"/>
        </filter>
        <filter id="filter18_i" x="87.5449" y="136.479" width="54.8828" height="54.8828" filterUnits="userSpaceOnUse" color-interpolation-filters="sRGB">
            <feFlood flood-opacity="0" result="BackgroundImageFix"/>
            <feBlend mode="normal" in="SourceGraphic" in2="BackgroundImageFix" result="shape"/>
            <feColorMatrix in="SourceAlpha" type="matrix" values="0 0 0 0 0 0 0 0 0 0 0 0 0 0 0 0 0 0 127 0" result="hardAlpha"/>
            <feOffset dx="-16.2146" dy="5.40488"/>
            <feGaussianBlur stdDeviation="2"/>
            <feComposite in2="hardAlpha" operator="arithmetic" k2="-1" k3="1"/>
            <feColorMatrix type="matrix" values="0 0 0 0 1 0 0 0 0 1 0 0 0 0 1 0 0 0 0.25 0"/>
            <feBlend mode="normal" in2="shape" result="effect1_innerShadow"/>
        </filter>
        <filter id="filter19_ii" x="91.5449" y="132.479" width="43.2393" height="51.239" filterUnits="userSpaceOnUse" color-interpolation-filters="sRGB">
            <feFlood flood-opacity="0" result="BackgroundImageFix"/>
            <feBlend mode="normal" in="SourceGraphic" in2="BackgroundImageFix" result="shape"/>
            <feColorMatrix in="SourceAlpha" type="matrix" values="0 0 0 0 0 0 0 0 0 0 0 0 0 0 0 0 0 0 127 0" result="hardAlpha"/>
            <feOffset dy="-10.8098"/>
            <feGaussianBlur stdDeviation="2"/>
            <feComposite in2="hardAlpha" operator="arithmetic" k2="-1" k3="1"/>
            <feColorMatrix type="matrix" values="0 0 0 0 0 0 0 0 0 0 0 0 0 0 0 0 0 0 0.25 0"/>
            <feBlend mode="normal" in2="shape" result="effect1_innerShadow"/>
            <feColorMatrix in="SourceAlpha" type="matrix" values="0 0 0 0 0 0 0 0 0 0 0 0 0 0 0 0 0 0 127 0" result="hardAlpha"/>
            <feOffset dy="10.8098"/>
            <feGaussianBlur stdDeviation="2"/>
            <feComposite in2="hardAlpha" operator="arithmetic" k2="-1" k3="1"/>
            <feColorMatrix type="matrix" values="0 0 0 0 1 0 0 0 0 1 0 0 0 0 1 0 0 0 0.25 0"/>
            <feBlend mode="normal" in2="effect1_innerShadow" result="effect2_innerShadow"/>
        </filter>
        <filter id="filter20_i" x="69.541" y="178.669" width="42.1621" height="42.1621" filterUnits="userSpaceOnUse" color-interpolation-filters="sRGB">
            <feFlood flood-opacity="0" result="BackgroundImageFix"/>
            <feBlend mode="normal" in="SourceGraphic" in2="BackgroundImageFix" result="shape"/>
            <feColorMatrix in="SourceAlpha" type="matrix" values="0 0 0 0 0 0 0 0 0 0 0 0 0 0 0 0 0 0 127 0" result="hardAlpha"/>
            <feOffset dx="-16.2146" dy="5.40488"/>
            <feGaussianBlur stdDeviation="2"/>
            <feComposite in2="hardAlpha" operator="arithmetic" k2="-1" k3="1"/>
            <feColorMatrix type="matrix" values="0 0 0 0 1 0 0 0 0 1 0 0 0 0 1 0 0 0 0.25 0"/>
            <feBlend mode="normal" in2="shape" result="effect1_innerShadow"/>
        </filter>
        <filter id="filter21_ii" x="73.541" y="174.669" width="32.4297" height="40.4294" filterUnits="userSpaceOnUse" color-interpolation-filters="sRGB">
            <feFlood flood-opacity="0" result="BackgroundImageFix"/>
            <feBlend mode="normal" in="SourceGraphic" in2="BackgroundImageFix" result="shape"/>
            <feColorMatrix in="SourceAlpha" type="matrix" values="0 0 0 0 0 0 0 0 0 0 0 0 0 0 0 0 0 0 127 0" result="hardAlpha"/>
            <feOffset dy="-10.8098"/>
            <feGaussianBlur stdDeviation="2"/>
            <feComposite in2="hardAlpha" operator="arithmetic" k2="-1" k3="1"/>
            <feColorMatrix type="matrix" values="0 0 0 0 0 0 0 0 0 0 0 0 0 0 0 0 0 0 0.25 0"/>
            <feBlend mode="normal" in2="shape" result="effect1_innerShadow"/>
            <feColorMatrix in="SourceAlpha" type="matrix" values="0 0 0 0 0 0 0 0 0 0 0 0 0 0 0 0 0 0 127 0" result="hardAlpha"/>
            <feOffset dy="10.8098"/>
            <feGaussianBlur stdDeviation="2"/>
            <feComposite in2="hardAlpha" operator="arithmetic" k2="-1" k3="1"/>
            <feColorMatrix type="matrix" values="0 0 0 0 1 0 0 0 0 1 0 0 0 0 1 0 0 0 0.25 0"/>
            <feBlend mode="normal" in2="effect1_innerShadow" result="effect2_innerShadow"/>
        </filter>
        <filter id="filter22_i" x="120.552" y="171.794" width="198.491" height="184.206" filterUnits="userSpaceOnUse" color-interpolation-filters="sRGB">
            <feFlood flood-opacity="0" result="BackgroundImageFix"/>
            <feBlend mode="normal" in="SourceGraphic" in2="BackgroundImageFix" result="shape"/>
            <feColorMatrix in="SourceAlpha" type="matrix" values="0 0 0 0 0 0 0 0 0 0 0 0 0 0 0 0 0 0 127 0" result="hardAlpha"/>
            <feOffset dx="-16.2146" dy="5.40488"/>
            <feGaussianBlur stdDeviation="2"/>
            <feComposite in2="hardAlpha" operator="arithmetic" k2="-1" k3="1"/>
            <feColorMatrix type="matrix" values="0 0 0 0 1 0 0 0 0 1 0 0 0 0 1 0 0 0 0.25 0"/>
            <feBlend mode="normal" in2="shape" result="effect1_innerShadow"/>
        </filter>
        <filter id="filter23_ii" x="132.414" y="65.3809" width="77.5898" height="85.5901" filterUnits="userSpaceOnUse" color-interpolation-filters="sRGB">
            <feFlood flood-opacity="0" result="BackgroundImageFix"/>
            <feBlend mode="normal" in="SourceGraphic" in2="BackgroundImageFix" result="shape"/>
            <feColorMatrix in="SourceAlpha" type="matrix" values="0 0 0 0 0 0 0 0 0 0 0 0 0 0 0 0 0 0 127 0" result="hardAlpha"/>
            <feOffset dy="-10.8098"/>
            <feGaussianBlur stdDeviation="2"/>
            <feComposite in2="hardAlpha" operator="arithmetic" k2="-1" k3="1"/>
            <feColorMatrix type="matrix" values="0 0 0 0 0 0 0 0 0 0 0 0 0 0 0 0 0 0 0.25 0"/>
            <feBlend mode="normal" in2="shape" result="effect1_innerShadow"/>
            <feColorMatrix in="SourceAlpha" type="matrix" values="0 0 0 0 0 0 0 0 0 0 0 0 0 0 0 0 0 0 127 0" result="hardAlpha"/>
            <feOffset dy="10.8098"/>
            <feGaussianBlur stdDeviation="2"/>
            <feComposite in2="hardAlpha" operator="arithmetic" k2="-1" k3="1"/>
            <feColorMatrix type="matrix" values="0 0 0 0 1 0 0 0 0 1 0 0 0 0 1 0 0 0 0.25 0"/>
            <feBlend mode="normal" in2="effect1_innerShadow" result="effect2_innerShadow"/>
        </filter>
        <filter id="filter24_ii" x="197.245" y="56.9978" width="29.6191" height="25.6196" filterUnits="userSpaceOnUse" color-interpolation-filters="sRGB">
            <feFlood flood-opacity="0" result="BackgroundImageFix"/>
            <feBlend mode="normal" in="SourceGraphic" in2="BackgroundImageFix" result="shape"/>
            <feColorMatrix in="SourceAlpha" type="matrix" values="0 0 0 0 0 0 0 0 0 0 0 0 0 0 0 0 0 0 127 0" result="hardAlpha"/>
            <feOffset dx="10.8098"/>
            <feGaussianBlur stdDeviation="2"/>
            <feComposite in2="hardAlpha" operator="arithmetic" k2="-1" k3="1"/>
            <feColorMatrix type="matrix" values="0 0 0 0 0 0 0 0 0 0 0 0 0 0 0 0 0 0 0.25 0"/>
            <feBlend mode="normal" in2="shape" result="effect1_innerShadow"/>
            <feColorMatrix in="SourceAlpha" type="matrix" values="0 0 0 0 0 0 0 0 0 0 0 0 0 0 0 0 0 0 127 0" result="hardAlpha"/>
            <feOffset dx="-16.2146" dy="5.40488"/>
            <feGaussianBlur stdDeviation="2"/>
            <feComposite in2="hardAlpha" operator="arithmetic" k2="-1" k3="1"/>
            <feColorMatrix type="matrix" values="0 0 0 0 1 0 0 0 0 1 0 0 0 0 1 0 0 0 0.25 0"/>
            <feBlend mode="normal" in2="effect1_innerShadow" result="effect2_innerShadow"/>
        </filter>
    </defs>
</svg>
