<svg width="225" height="227" viewBox="0 0 225 227" fill="none" xmlns="http://www.w3.org/2000/svg">
    <g filter="url(#filter0_ii)">
        <path d="M23.7217 74.0195C23.7217 66.1842 30.0737 59.832 37.9095 59.832L151.412 59.832C159.248 59.832 165.6 66.1842 165.6 74.0195V168.605C165.6 176.441 159.248 182.793 151.412 182.793H37.9095C30.0737 182.793 23.7217 176.441 23.7217 168.605L23.7217 74.0195Z" fill="#DC968D"/>
    </g>
    <path d="M23.7217 74.0195C23.7217 66.1842 30.0737 59.832 37.9095 59.832L151.412 59.832C159.248 59.832 165.6 66.1842 165.6 74.0195V168.605C165.6 176.441 159.248 182.793 151.412 182.793H37.9095C30.0737 182.793 23.7217 176.441 23.7217 168.605L23.7217 74.0195Z" stroke="#1F2024" stroke-width="5.40488"/>
    <g filter="url(#filter1_i)">
        <path d="M82.8374 74.0195C82.8374 66.1842 89.1895 59.832 97.0253 59.832L201.069 59.832C208.905 59.832 215.257 66.1842 215.257 74.0195V168.605C215.257 176.441 208.905 182.793 201.069 182.793H97.0253C89.1895 182.793 82.8374 176.441 82.8374 168.605V74.0195Z" fill="#EFA686"/>
    </g>
    <path d="M82.8374 74.0195C82.8374 66.1842 89.1895 59.832 97.0253 59.832L201.069 59.832C208.905 59.832 215.257 66.1842 215.257 74.0195V168.605C215.257 176.441 208.905 182.793 201.069 182.793H97.0253C89.1895 182.793 82.8374 176.441 82.8374 168.605V74.0195Z" stroke="#1F2024" stroke-width="5.40488"/>
    <path d="M158.506 62.1968H180.97L147.866 180.428H125.401L158.506 62.1968Z" fill="white" fill-opacity="0.5"/>
    <path d="M149.638 62.1968H153.186L120.081 180.428H116.534L149.638 62.1968Z" fill="white" fill-opacity="0.5"/>
    <g filter="url(#filter2_d)">
        <path d="M91.0517 94.7107H14.8543C12.2424 94.7107 10.125 96.828 10.125 99.4399V99.44C10.125 102.052 12.2424 104.169 14.8543 104.169H91.0517C93.6636 104.169 95.7809 102.052 95.7809 99.4399C95.7809 96.828 93.6636 94.7107 91.0517 94.7107Z" fill="#E2E2E2" stroke="#1F2024" stroke-width="5.40488"/>
        <g filter="url(#filter3_ii)">
            <path d="M156.583 96.1938C145.868 96.1938 144.322 88.2418 122.285 87.1166C100.261 86.2206 94.9034 91.1634 93.2627 96.1938C91.6225 101.224 91.2889 107.993 105.794 121.156C120.3 134.318 134.488 129.781 140.752 125.694C147.017 121.608 152.059 105.252 156.583 105.271C161.107 105.29 165.489 121.156 172.413 125.694C179.337 130.233 193.195 134.318 207.371 121.156C221.547 107.993 221.543 100.633 219.902 96.1938C218.263 91.7549 212.904 86.2206 190.881 87.1166C168.844 88.2418 167.298 96.1938 156.583 96.1938Z" fill="#E2E2E2"/>
        </g>
        <path d="M156.583 96.1938C145.868 96.1938 144.322 88.2418 122.285 87.1166C100.261 86.2206 94.9034 91.1634 93.2627 96.1938C91.6225 101.224 91.2889 107.993 105.794 121.156C120.3 134.318 134.488 129.781 140.752 125.694C147.017 121.608 152.059 105.252 156.583 105.271C161.107 105.29 165.489 121.156 172.413 125.694C179.337 130.233 193.195 134.318 207.371 121.156C221.547 107.993 221.543 100.633 219.902 96.1938C218.263 91.7549 212.904 86.2206 190.881 87.1166C168.844 88.2418 167.298 96.1938 156.583 96.1938Z" stroke="#1F2024" stroke-width="5.40488"/>
        <path d="M146.028 105.233C146.397 98.5974 133.489 91.5091 119.641 91.7549C105.799 92.0131 103.998 99.9449 103.809 102.986C103.47 110.034 111.933 125.875 127.557 125.45C143.181 125.009 145.814 109.611 146.028 105.233Z" fill="#1F2024"/>
        <path d="M167.138 105.233C166.768 98.5974 179.676 91.5091 193.525 91.7549C207.367 92.0131 209.168 99.9449 209.357 102.986C209.696 110.034 201.233 125.875 185.609 125.45C169.985 125.009 167.352 109.611 167.138 105.233Z" fill="#1F2024"/>
    </g>
    <path d="M48.5503 150.871C60.3039 150.871 69.8321 141.343 69.8321 129.589C69.8321 117.835 60.3039 108.307 48.5503 108.307C36.7967 108.307 27.2686 117.835 27.2686 129.589C27.2686 141.343 36.7967 150.871 48.5503 150.871Z" fill="black" fill-opacity="0.16"/>
    <g filter="url(#filter4_ii)">
        <path d="M47.959 144.368C59.7126 144.368 69.2407 134.84 69.2407 123.086C69.2407 111.332 59.7126 101.804 47.959 101.804C36.2054 101.804 26.6772 111.332 26.6772 123.086C26.6772 134.84 36.2054 144.368 47.959 144.368Z" fill="#ADA3EE"/>
    </g>
    <path d="M47.959 144.368C59.7126 144.368 69.2407 134.84 69.2407 123.086C69.2407 111.332 59.7126 101.804 47.959 101.804C36.2054 101.804 26.6772 111.332 26.6772 123.086C26.6772 134.84 36.2054 144.368 47.959 144.368Z" stroke="#1F2024" stroke-width="5.40488"/>
    <g filter="url(#filter5_ii)">
        <path d="M36.136 137.274C43.9717 137.274 50.3238 130.922 50.3238 123.086C50.3238 115.25 43.9717 108.898 36.136 108.898C28.3003 108.898 21.9482 115.25 21.9482 123.086C21.9482 130.922 28.3003 137.274 36.136 137.274Z" fill="#CAE9FA"/>
    </g>
    <path d="M36.136 137.274C43.9717 137.274 50.3238 130.922 50.3238 123.086C50.3238 115.25 43.9717 108.898 36.136 108.898C28.3003 108.898 21.9482 115.25 21.9482 123.086C21.9482 130.922 28.3003 137.274 36.136 137.274Z" stroke="#1F2024" stroke-width="5.40488"/>
    <g filter="url(#filter6_ii)">
        <path fill-rule="evenodd" clip-rule="evenodd" d="M141.953 134.318C134.118 134.318 127.765 140.67 127.765 148.506V150.421C127.765 150.424 127.765 150.425 127.765 150.427C127.765 160.182 119.497 173.335 103.993 169.492C97.3561 167.847 94.4739 160.777 91.4936 153.463C87.5118 143.692 83.353 133.488 69.8269 135.205C48.8678 137.865 65.5201 175.403 73.2722 192.103C89.48 227.02 160.851 232.384 192.423 213.079C213.466 200.212 221.645 165.309 219.699 142.298C219.549 140.526 215.679 140.23 215.105 142.298C215.092 142.345 215.074 142.41 215.052 142.496C214.36 145.058 209.002 164.915 198.166 169.492C186.983 174.215 179.807 165.378 179.787 150.488V148.506C179.787 140.67 173.435 134.318 165.599 134.318H141.953Z" fill="#2477D5"/>
    </g>
    <path d="M127.765 150.421L130.13 150.446V150.434V150.421H127.765ZM103.993 169.492L103.425 171.787L103.993 169.492ZM91.4939 153.463L89.3041 154.355L91.4939 153.463ZM69.8271 135.205L69.5294 132.859L69.8271 135.205ZM73.2724 192.103L75.4172 191.109L73.2724 192.103ZM192.423 213.079L191.19 211.062L192.423 213.079ZM219.699 142.298L222.055 142.1L219.699 142.298ZM215.105 142.298L212.827 141.667L215.105 142.298ZM215.052 142.496L212.769 141.879V141.88L215.052 142.496ZM198.166 169.492L197.246 167.314L198.166 169.492ZM179.788 150.488H177.422V150.491L179.788 150.488ZM130.13 148.506C130.13 141.976 135.423 136.683 141.953 136.683V131.953C132.811 131.953 125.401 139.365 125.401 148.506H130.13ZM130.13 150.421V148.506H125.401V150.421H130.13ZM125.401 150.397C125.401 150.404 125.401 150.415 125.401 150.427H130.13C130.13 150.436 130.13 150.443 130.13 150.446L125.401 150.397ZM125.401 150.427C125.401 154.717 123.555 159.833 120.017 163.391C116.583 166.844 111.487 168.913 104.562 167.197L103.425 171.787C112.004 173.914 118.794 171.327 123.37 166.726C127.841 162.229 130.13 155.892 130.13 150.427H125.401ZM104.562 167.197C102.014 166.565 100.07 164.889 98.3408 162.293C96.575 159.642 95.1969 156.284 93.684 152.571L89.3041 154.355C90.7712 157.955 92.3241 161.79 94.4041 164.914C96.5208 168.093 99.3356 170.774 103.425 171.787L104.562 167.197ZM93.684 152.571C91.734 147.786 89.554 142.364 85.9908 138.437C82.2425 134.306 77.0558 131.903 69.5294 132.859L70.1248 137.551C76.1246 136.789 79.7803 138.63 82.4884 141.615C85.3816 144.804 87.272 149.369 89.3041 154.355L93.684 152.571ZM69.5294 132.859C66.5354 133.239 64.0476 134.268 62.1024 135.932C60.1602 137.594 58.9077 139.762 58.1712 142.18C56.7275 146.921 57.1905 152.868 58.4702 158.881C61.0461 170.984 67.2633 184.774 71.1276 193.099L75.4172 191.109C71.5294 182.733 65.5446 169.403 63.0959 157.897C61.8635 152.106 61.6088 147.126 62.6953 143.558C63.2239 141.822 64.0484 140.491 65.1769 139.526C66.3025 138.562 67.879 137.836 70.1248 137.551L69.5294 132.859ZM71.1276 193.099C79.7557 211.687 102.718 221.943 126.763 225.267C150.902 228.604 177.247 225.13 193.657 215.097L191.19 211.062C176.028 220.333 150.902 223.829 127.41 220.582C103.824 217.322 82.997 207.437 75.4172 191.109L71.1276 193.099ZM193.657 215.097C204.848 208.253 212.405 195.715 216.924 182.245C221.456 168.736 223.055 153.933 222.055 142.1L217.343 142.498C218.288 153.674 216.771 167.829 212.44 180.741C208.096 193.692 201.042 205.038 191.19 211.062L193.657 215.097ZM222.055 142.1C221.938 140.714 221.083 139.772 220.249 139.253C219.436 138.746 218.497 138.525 217.644 138.495C216.134 138.442 213.549 139.066 212.827 141.667L217.384 142.931C217.359 143.019 217.311 143.108 217.251 143.178C217.195 143.243 217.15 143.266 217.148 143.267C217.148 143.267 217.178 143.252 217.245 143.239C217.309 143.225 217.391 143.218 217.478 143.221C217.567 143.224 217.644 143.237 217.7 143.253C217.759 143.269 217.771 143.281 217.748 143.266C217.725 143.252 217.637 143.193 217.543 143.058C217.441 142.913 217.361 142.717 217.343 142.498L222.055 142.1ZM212.827 141.667C212.811 141.723 212.791 141.799 212.769 141.879L217.335 143.112C217.358 143.023 217.374 142.967 217.384 142.931L212.827 141.667ZM212.769 141.88C212.431 143.131 210.963 148.567 208.277 154.225C205.521 160.029 201.791 165.394 197.246 167.314L199.086 171.67C205.377 169.013 209.744 162.162 212.549 156.253C215.425 150.196 216.98 144.423 217.335 143.112L212.769 141.88ZM197.246 167.314C194.775 168.357 192.696 168.582 190.991 168.281C189.304 167.982 187.812 167.141 186.533 165.746C183.905 162.884 182.161 157.645 182.152 150.485L177.422 150.491C177.433 158.222 179.287 164.846 183.049 168.944C184.963 171.03 187.363 172.442 190.168 172.937C192.954 173.43 195.965 172.988 199.086 171.67L197.246 167.314ZM177.422 148.506V150.488H182.152V148.506H177.422ZM165.599 136.683C172.13 136.683 177.422 141.976 177.422 148.506H182.152C182.152 139.365 174.741 131.953 165.599 131.953V136.683ZM141.953 136.683H165.599V131.953H141.953V136.683Z" fill="#1F2024"/>
    <path d="M163.235 150.871C163.235 151.802 163.051 152.725 162.695 153.585C162.338 154.446 161.816 155.228 161.157 155.886C160.498 156.545 159.717 157.068 158.856 157.425C157.995 157.781 157.072 157.964 156.141 157.964C155.209 157.964 154.287 157.781 153.426 157.425C152.565 157.068 151.784 156.545 151.125 155.886C150.466 155.228 149.944 154.446 149.587 153.585C149.231 152.725 149.047 151.802 149.047 150.871" stroke="#1F2024" stroke-width="8.10732" stroke-linecap="round"/>
    <g filter="url(#filter7_i)">
        <path d="M69.2407 155.599C72.5056 155.599 75.1523 152.953 75.1523 149.688C75.1523 146.423 72.5056 143.776 69.2407 143.776C65.9758 143.776 63.3291 146.423 63.3291 149.688C63.3291 152.953 65.9758 155.599 69.2407 155.599Z" fill="white"/>
    </g>
    <path d="M69.2407 155.599C72.5056 155.599 75.1523 152.953 75.1523 149.688C75.1523 146.423 72.5056 143.776 69.2407 143.776C65.9758 143.776 63.3291 146.423 63.3291 149.688C63.3291 152.953 65.9758 155.599 69.2407 155.599Z" stroke="#1F2024" stroke-width="5.40488"/>
    <path d="M209.937 40.3239L182.744 44.462" stroke="#1F2024" stroke-width="5.40488" stroke-linecap="round" stroke-linejoin="round"/>
    <path d="M209.937 57.4674L183.926 51.5558" stroke="#1F2024" stroke-width="5.40488" stroke-linecap="round" stroke-linejoin="round"/>
    <path d="M183.039 4.55881L178.014 42.9841C163.906 36.0866 159.512 30.714 153.776 20.2245L183.039 4.55881Z" fill="#E79834" stroke="#1F2024" stroke-width="5.40488" stroke-linejoin="round"/>
    <g filter="url(#filter8_ii)">
        <path fill-rule="evenodd" clip-rule="evenodd" d="M169.159 19.2849C184.291 30.0386 192.793 44.6239 192.793 59.832H112.1L31.4067 59.832C31.4067 51.9344 33.6994 44.2046 38.0229 37.0922C36.1745 26.274 34.5508 19.0315 31.4069 6.62774C40.3773 8.16555 50.1824 10.0615 59.4219 16.3942C74.0183 7.45452 92.6987 2.48969 112.1 2.48969C133.501 2.48969 154.026 8.53104 169.159 19.2849Z" fill="#EDB146"/>
    </g>
    <path d="M192.793 59.832V62.1967C194.099 62.1967 195.158 61.138 195.158 59.832H192.793ZM169.159 19.2849L170.528 17.3573L169.159 19.2849ZM112.1 59.832V62.1967V59.832ZM31.4067 59.832H29.042C29.042 60.4591 29.2911 61.0606 29.7346 61.5041C30.1781 61.9475 30.7795 62.1966 31.4067 62.1966V59.832ZM38.0228 37.0922L40.0435 38.3205C40.3396 37.8334 40.4497 37.2558 40.3537 36.694L38.0228 37.0922ZM31.4069 6.62774L31.8064 4.29709C31.0175 4.16181 30.2138 4.43481 29.6705 5.02255C29.1271 5.6102 28.918 6.43288 29.1147 7.20874L31.4069 6.62774ZM59.4218 16.3942L58.0849 18.3447C58.8542 18.872 59.8615 18.8978 60.6568 18.4108L59.4218 16.3942ZM195.158 59.832C195.158 43.6855 186.129 28.4441 170.528 17.3573L167.789 21.2123C182.453 31.6331 190.428 45.5624 190.428 59.832H195.158ZM112.1 62.1967H192.793V57.4674H112.1V62.1967ZM31.4067 62.1966L112.1 62.1967V57.4674L31.4067 57.4674V62.1966ZM36.0023 35.8639C31.4734 43.314 29.042 51.4647 29.042 59.832H33.7713C33.7713 52.404 35.9253 45.0951 40.0435 38.3205L36.0023 35.8639ZM29.1147 7.20874C32.2487 19.5732 33.8572 26.752 35.692 37.4905L40.3537 36.694C38.4916 25.7961 36.8529 18.4897 33.699 6.04674L29.1147 7.20874ZM60.7586 14.4438C51.0538 7.79201 40.7852 5.8363 31.8064 4.29709L31.0072 8.95839C39.9693 10.4947 49.3109 12.3309 58.0849 18.3447L60.7586 14.4438ZM112.1 0.125C92.3177 0.125 73.199 5.18338 58.1868 14.3777L60.6568 18.4108C74.8375 9.72568 93.0802 4.85429 112.1 4.85429V0.125ZM170.528 17.3573C154.937 6.2773 133.914 0.125 112.1 0.125V4.85429C133.088 4.85429 153.115 10.7848 167.789 21.2123L170.528 17.3573Z" fill="#1F2024"/>
    <mask id="mask0" style="mask-type:alpha" maskUnits="userSpaceOnUse" x="29" y="0" width="167" height="63">
        <path fill-rule="evenodd" clip-rule="evenodd" d="M169.159 19.2849C184.291 30.0386 192.793 44.6239 192.793 59.832H112.1L31.4067 59.832C31.4067 51.9344 33.6994 44.2046 38.0229 37.0922C36.1745 26.274 34.5508 19.0315 31.4069 6.62774C40.3773 8.16555 50.1824 10.0615 59.4219 16.3942C74.0183 7.45452 92.6987 2.48969 112.1 2.48969C133.501 2.48969 154.026 8.53104 169.159 19.2849Z" fill="#EDB146"/>
        <path d="M192.793 59.832V62.1967C194.099 62.1967 195.158 61.138 195.158 59.832H192.793ZM169.159 19.2849L170.528 17.3573L169.159 19.2849ZM112.1 59.832V62.1967V59.832ZM31.4067 59.832H29.042C29.042 60.4591 29.2911 61.0606 29.7346 61.5041C30.1781 61.9475 30.7795 62.1966 31.4067 62.1966V59.832ZM38.0228 37.0922L40.0435 38.3205C40.3396 37.8334 40.4497 37.2558 40.3537 36.694L38.0228 37.0922ZM31.4069 6.62774L31.8064 4.29709C31.0175 4.16181 30.2138 4.43481 29.6705 5.02255C29.1271 5.6102 28.918 6.43288 29.1147 7.20874L31.4069 6.62774ZM59.4218 16.3942L58.0849 18.3447C58.8542 18.872 59.8615 18.8978 60.6568 18.4108L59.4218 16.3942ZM195.158 59.832C195.158 43.6855 186.129 28.4441 170.528 17.3573L167.789 21.2123C182.453 31.6331 190.428 45.5624 190.428 59.832H195.158ZM112.1 62.1967H192.793V57.4674H112.1V62.1967ZM31.4067 62.1966L112.1 62.1967V57.4674L31.4067 57.4674V62.1966ZM36.0023 35.8639C31.4734 43.314 29.042 51.4647 29.042 59.832H33.7713C33.7713 52.404 35.9253 45.0951 40.0435 38.3205L36.0023 35.8639ZM29.1147 7.20874C32.2487 19.5732 33.8572 26.752 35.692 37.4905L40.3537 36.694C38.4916 25.7961 36.8529 18.4897 33.699 6.04674L29.1147 7.20874ZM60.7586 14.4438C51.0538 7.79201 40.7852 5.8363 31.8064 4.29709L31.0072 8.95839C39.9693 10.4947 49.3109 12.3309 58.0849 18.3447L60.7586 14.4438ZM112.1 0.125C92.3177 0.125 73.199 5.18338 58.1868 14.3777L60.6568 18.4108C74.8375 9.72568 93.0802 4.85429 112.1 4.85429V0.125ZM170.528 17.3573C154.937 6.2773 133.914 0.125 112.1 0.125V4.85429C133.088 4.85429 153.115 10.7848 167.789 21.2123L170.528 17.3573Z" fill="#1F2024"/>
    </mask>
    <g mask="url(#mask0)">
        <path d="M95.8433 49.7823L42.6313 37.9591C37.1163 39.6341 26.0864 44.048 26.0864 48.3043C26.0864 52.5607 32.0485 57.1718 35.0296 58.9452L95.8433 49.7823Z" fill="#FE204F" stroke="#1F2024" stroke-width="5.40488" stroke-linecap="round" stroke-linejoin="round"/>
        <path d="M163.826 49.7823L198.999 37.9591C202.646 39.6341 209.936 44.048 209.936 48.3043C209.936 52.5607 205.995 57.1718 204.025 58.9452L163.826 49.7823Z" fill="#FE204F" stroke="#1F2024" stroke-width="5.40488" stroke-linecap="round" stroke-linejoin="round"/>
        <path d="M16.0361 39.7326L43.2294 43.8708" stroke="#1F2024" stroke-width="5.40488" stroke-linecap="round" stroke-linejoin="round"/>
        <path d="M16.0361 56.8763L42.0471 50.9647" stroke="#1F2024" stroke-width="5.40488" stroke-linecap="round" stroke-linejoin="round"/>
        <path d="M42.9346 18.1553C45.5947 19.0421 49.2767 20.5318 52.3931 23.7713C49.7329 25.5449 47.3682 28.2051 46.1859 29.6829" stroke="#1F2024" stroke-width="5.40488" stroke-linecap="round" stroke-linejoin="round"/>
        <path d="M192.793 59.832V62.1967C194.099 62.1967 195.158 61.138 195.158 59.832H192.793ZM169.159 19.2849L170.528 17.3573L169.159 19.2849ZM112.1 59.832V62.1967V59.832ZM31.4067 59.832H29.042C29.042 60.4591 29.2911 61.0606 29.7346 61.5041C30.1781 61.9475 30.7795 62.1966 31.4067 62.1966V59.832ZM38.0228 37.0922L40.0435 38.3205C40.3396 37.8334 40.4497 37.2558 40.3537 36.694L38.0228 37.0922ZM31.4069 6.62774L31.8064 4.29709C31.0175 4.16181 30.2138 4.43481 29.6705 5.02255C29.1271 5.6102 28.918 6.43288 29.1147 7.20874L31.4069 6.62774ZM59.4218 16.3942L58.0849 18.3447C58.8542 18.872 59.8615 18.8978 60.6568 18.4108L59.4218 16.3942ZM195.158 59.832C195.158 43.6855 186.129 28.4441 170.528 17.3573L167.789 21.2123C182.453 31.6331 190.428 45.5624 190.428 59.832H195.158ZM112.1 62.1967H192.793V57.4674H112.1V62.1967ZM31.4067 62.1966L112.1 62.1967V57.4674L31.4067 57.4674V62.1966ZM36.0023 35.8639C31.4734 43.314 29.042 51.4647 29.042 59.832H33.7713C33.7713 52.404 35.9253 45.0951 40.0435 38.3205L36.0023 35.8639ZM29.1147 7.20874C32.2487 19.5732 33.8572 26.752 35.692 37.4905L40.3537 36.694C38.4916 25.7961 36.8529 18.4897 33.699 6.04674L29.1147 7.20874ZM60.7586 14.4438C51.0538 7.79201 40.7852 5.8363 31.8064 4.29709L31.0072 8.95839C39.9693 10.4947 49.3109 12.3309 58.0849 18.3447L60.7586 14.4438ZM112.1 0.125C92.3177 0.125 73.199 5.18338 58.1868 14.3777L60.6568 18.4108C74.8375 9.72568 93.0802 4.85429 112.1 4.85429V0.125ZM170.528 17.3573C154.937 6.2773 133.914 0.125 112.1 0.125V4.85429C133.088 4.85429 153.115 10.7848 167.789 21.2123L170.528 17.3573Z" fill="#1F2024"/>
        <path d="M131.608 24.9537C125.031 11.5661 110.326 3.08083 95.5476 4.26313C89.8264 4.72085 82.5418 6.5293 78.9948 7.51455L75.1523 -0.466066H85.7932V-11.6981L99.3898 -4.30863L104.119 -15.8362L113.874 -5.49093L131.608 -13.176C136.338 -4.30863 136.632 13.7217 131.608 24.9537Z" fill="#FE204F" stroke="#1F2024" stroke-width="5.40488" stroke-linejoin="round"/>
        <path d="M102.937 34.4122C106.528 34.4122 109.44 31.5008 109.44 27.9095C109.44 24.3181 106.528 21.4067 102.937 21.4067C99.3455 21.4067 96.4341 24.3181 96.4341 27.9095C96.4341 31.5008 99.3455 34.4122 102.937 34.4122Z" fill="#1F2024"/>
        <path d="M105.006 30.2741C106.802 30.2741 108.258 28.8184 108.258 27.0227C108.258 25.227 106.802 23.7714 105.006 23.7714C103.211 23.7714 101.755 25.227 101.755 27.0227C101.755 28.8184 103.211 30.2741 105.006 30.2741Z" fill="white"/>
        <path d="M156.141 34.4122C159.733 34.4122 162.644 31.5008 162.644 27.9095C162.644 24.3181 159.733 21.4067 156.141 21.4067C152.55 21.4067 149.639 24.3181 149.639 27.9095C149.639 31.5008 152.55 34.4122 156.141 34.4122Z" fill="#1F2024"/>
        <path d="M139.884 48.6001C139.884 52.1471 137.046 59.2409 125.696 59.2409" stroke="#1F2024" stroke-width="5.40488" stroke-linecap="round" stroke-linejoin="round"/>
        <path d="M141.953 48.6001C141.953 52.1471 144.791 59.2409 156.141 59.2409" stroke="#1F2024" stroke-width="5.40488" stroke-linecap="round" stroke-linejoin="round"/>
        <path d="M124.81 39.3716C124.81 37.1923 126.388 35.3219 128.546 35.0277C136.865 33.8946 143.209 33.9575 150.112 34.9773C152.244 35.292 153.776 37.1554 153.776 39.3094C153.776 46.7259 147.764 52.7381 140.347 52.7381H138.177C130.794 52.7381 124.81 46.7537 124.81 39.3716Z" fill="#1F2024"/>
        <path d="M146.091 39.1415C146.781 39.3385 148.22 40.2056 148.456 42.0972" stroke="white" stroke-width="5.40488" stroke-linecap="round" stroke-linejoin="round"/>
        <path d="M157.619 30.2741C159.415 30.2741 160.87 28.8184 160.87 27.0227C160.87 25.227 159.415 23.7714 157.619 23.7714C155.823 23.7714 154.368 25.227 154.368 27.0227C154.368 28.8184 155.823 30.2741 157.619 30.2741Z" fill="white"/>
        <path d="M125.936 8.92319C125.897 10.2286 126.924 11.3178 128.23 11.3561C129.535 11.3944 130.625 10.3671 130.663 9.06179L125.936 8.92319ZM130.098 -3.80946C129.884 -5.09773 128.666 -5.96862 127.378 -5.7545C126.09 -5.54048 125.219 -4.32256 125.433 -3.03421L130.098 -3.80946ZM130.663 9.06179C130.797 4.47303 130.736 0.0252247 130.098 -3.80946L125.433 -3.03421C125.992 0.333399 126.068 4.4081 125.936 8.92319L130.663 9.06179Z" fill="white"/>
    </g>
    <defs>
        <filter id="filter0_ii" x="23.7217" y="55.832" width="141.878" height="130.961" filterUnits="userSpaceOnUse" color-interpolation-filters="sRGB">
            <feFlood flood-opacity="0" result="BackgroundImageFix"/>
            <feBlend mode="normal" in="SourceGraphic" in2="BackgroundImageFix" result="shape"/>
            <feColorMatrix in="SourceAlpha" type="matrix" values="0 0 0 0 0 0 0 0 0 0 0 0 0 0 0 0 0 0 127 0" result="hardAlpha"/>
            <feOffset dy="-10.8098"/>
            <feGaussianBlur stdDeviation="2"/>
            <feComposite in2="hardAlpha" operator="arithmetic" k2="-1" k3="1"/>
            <feColorMatrix type="matrix" values="0 0 0 0 0 0 0 0 0 0 0 0 0 0 0 0 0 0 0.25 0"/>
            <feBlend mode="normal" in2="shape" result="effect1_innerShadow"/>
            <feColorMatrix in="SourceAlpha" type="matrix" values="0 0 0 0 0 0 0 0 0 0 0 0 0 0 0 0 0 0 127 0" result="hardAlpha"/>
            <feOffset dy="10.8098"/>
            <feGaussianBlur stdDeviation="2"/>
            <feComposite in2="hardAlpha" operator="arithmetic" k2="-1" k3="1"/>
            <feColorMatrix type="matrix" values="0 0 0 0 1 0 0 0 0 1 0 0 0 0 1 0 0 0 0.25 0"/>
            <feBlend mode="normal" in2="effect1_innerShadow" result="effect2_innerShadow"/>
        </filter>
        <filter id="filter1_i" x="78.8374" y="59.832" width="136.419" height="126.961" filterUnits="userSpaceOnUse" color-interpolation-filters="sRGB">
            <feFlood flood-opacity="0" result="BackgroundImageFix"/>
            <feBlend mode="normal" in="SourceGraphic" in2="BackgroundImageFix" result="shape"/>
            <feColorMatrix in="SourceAlpha" type="matrix" values="0 0 0 0 0 0 0 0 0 0 0 0 0 0 0 0 0 0 127 0" result="hardAlpha"/>
            <feOffset dx="-16.2146" dy="5.40488"/>
            <feGaussianBlur stdDeviation="2"/>
            <feComposite in2="hardAlpha" operator="arithmetic" k2="-1" k3="1"/>
            <feColorMatrix type="matrix" values="0 0 0 0 1 0 0 0 0 1 0 0 0 0 1 0 0 0 0.25 0"/>
            <feBlend mode="normal" in2="shape" result="effect1_innerShadow"/>
        </filter>
        <filter id="filter2_d" x="0.719923" y="83.0105" width="223.91" height="56.4585" filterUnits="userSpaceOnUse" color-interpolation-filters="sRGB">
            <feFlood flood-opacity="0" result="BackgroundImageFix"/>
            <feColorMatrix in="SourceAlpha" type="matrix" values="0 0 0 0 0 0 0 0 0 0 0 0 0 0 0 0 0 0 127 0" result="hardAlpha"/>
            <feOffset dx="-2.70244" dy="2.70244"/>
            <feGaussianBlur stdDeviation="2"/>
            <feColorMatrix type="matrix" values="0 0 0 0 0 0 0 0 0 0 0 0 0 0 0 0 0 0 0.25 0"/>
            <feBlend mode="normal" in2="BackgroundImageFix" result="effect1_dropShadow"/>
            <feBlend mode="normal" in="SourceGraphic" in2="effect1_dropShadow" result="shape"/>
        </filter>
        <filter id="filter3_ii" x="92.4858" y="83.0107" width="128.145" height="51.0535" filterUnits="userSpaceOnUse" color-interpolation-filters="sRGB">
            <feFlood flood-opacity="0" result="BackgroundImageFix"/>
            <feBlend mode="normal" in="SourceGraphic" in2="BackgroundImageFix" result="shape"/>
            <feColorMatrix in="SourceAlpha" type="matrix" values="0 0 0 0 0 0 0 0 0 0 0 0 0 0 0 0 0 0 127 0" result="hardAlpha"/>
            <feOffset dy="-10.8098"/>
            <feGaussianBlur stdDeviation="2"/>
            <feComposite in2="hardAlpha" operator="arithmetic" k2="-1" k3="1"/>
            <feColorMatrix type="matrix" values="0 0 0 0 0 0 0 0 0 0 0 0 0 0 0 0 0 0 0.25 0"/>
            <feBlend mode="normal" in2="shape" result="effect1_innerShadow"/>
            <feColorMatrix in="SourceAlpha" type="matrix" values="0 0 0 0 0 0 0 0 0 0 0 0 0 0 0 0 0 0 127 0" result="hardAlpha"/>
            <feOffset dy="10.8098"/>
            <feGaussianBlur stdDeviation="2"/>
            <feComposite in2="hardAlpha" operator="arithmetic" k2="-1" k3="1"/>
            <feColorMatrix type="matrix" values="0 0 0 0 1 0 0 0 0 1 0 0 0 0 1 0 0 0 0.25 0"/>
            <feBlend mode="normal" in2="effect1_innerShadow" result="effect2_innerShadow"/>
        </filter>
        <filter id="filter4_ii" x="22.6772" y="101.804" width="50.5635" height="46.5635" filterUnits="userSpaceOnUse" color-interpolation-filters="sRGB">
            <feFlood flood-opacity="0" result="BackgroundImageFix"/>
            <feBlend mode="normal" in="SourceGraphic" in2="BackgroundImageFix" result="shape"/>
            <feColorMatrix in="SourceAlpha" type="matrix" values="0 0 0 0 0 0 0 0 0 0 0 0 0 0 0 0 0 0 127 0" result="hardAlpha"/>
            <feOffset dx="10.8098"/>
            <feGaussianBlur stdDeviation="2"/>
            <feComposite in2="hardAlpha" operator="arithmetic" k2="-1" k3="1"/>
            <feColorMatrix type="matrix" values="0 0 0 0 0 0 0 0 0 0 0 0 0 0 0 0 0 0 0.25 0"/>
            <feBlend mode="normal" in2="shape" result="effect1_innerShadow"/>
            <feColorMatrix in="SourceAlpha" type="matrix" values="0 0 0 0 0 0 0 0 0 0 0 0 0 0 0 0 0 0 127 0" result="hardAlpha"/>
            <feOffset dx="-16.2146" dy="5.40488"/>
            <feGaussianBlur stdDeviation="2"/>
            <feComposite in2="hardAlpha" operator="arithmetic" k2="-1" k3="1"/>
            <feColorMatrix type="matrix" values="0 0 0 0 1 0 0 0 0 1 0 0 0 0 1 0 0 0 0.25 0"/>
            <feBlend mode="normal" in2="effect1_innerShadow" result="effect2_innerShadow"/>
        </filter>
        <filter id="filter5_ii" x="17.9482" y="108.898" width="36.3755" height="32.3755" filterUnits="userSpaceOnUse" color-interpolation-filters="sRGB">
            <feFlood flood-opacity="0" result="BackgroundImageFix"/>
            <feBlend mode="normal" in="SourceGraphic" in2="BackgroundImageFix" result="shape"/>
            <feColorMatrix in="SourceAlpha" type="matrix" values="0 0 0 0 0 0 0 0 0 0 0 0 0 0 0 0 0 0 127 0" result="hardAlpha"/>
            <feOffset dx="10.8098"/>
            <feGaussianBlur stdDeviation="2"/>
            <feComposite in2="hardAlpha" operator="arithmetic" k2="-1" k3="1"/>
            <feColorMatrix type="matrix" values="0 0 0 0 0 0 0 0 0 0 0 0 0 0 0 0 0 0 0.25 0"/>
            <feBlend mode="normal" in2="shape" result="effect1_innerShadow"/>
            <feColorMatrix in="SourceAlpha" type="matrix" values="0 0 0 0 0 0 0 0 0 0 0 0 0 0 0 0 0 0 127 0" result="hardAlpha"/>
            <feOffset dx="-16.2146" dy="5.40488"/>
            <feGaussianBlur stdDeviation="2"/>
            <feComposite in2="hardAlpha" operator="arithmetic" k2="-1" k3="1"/>
            <feColorMatrix type="matrix" values="0 0 0 0 1 0 0 0 0 1 0 0 0 0 1 0 0 0 0.25 0"/>
            <feBlend mode="normal" in2="effect1_innerShadow" result="effect2_innerShadow"/>
        </filter>
        <filter id="filter6_ii" x="55.644" y="134.318" width="168.333" height="93.8144" filterUnits="userSpaceOnUse" color-interpolation-filters="sRGB">
            <feFlood flood-opacity="0" result="BackgroundImageFix"/>
            <feBlend mode="normal" in="SourceGraphic" in2="BackgroundImageFix" result="shape"/>
            <feColorMatrix in="SourceAlpha" type="matrix" values="0 0 0 0 0 0 0 0 0 0 0 0 0 0 0 0 0 0 127 0" result="hardAlpha"/>
            <feOffset dx="10.8098"/>
            <feGaussianBlur stdDeviation="2"/>
            <feComposite in2="hardAlpha" operator="arithmetic" k2="-1" k3="1"/>
            <feColorMatrix type="matrix" values="0 0 0 0 0 0 0 0 0 0 0 0 0 0 0 0 0 0 0.25 0"/>
            <feBlend mode="normal" in2="shape" result="effect1_innerShadow"/>
            <feColorMatrix in="SourceAlpha" type="matrix" values="0 0 0 0 0 0 0 0 0 0 0 0 0 0 0 0 0 0 127 0" result="hardAlpha"/>
            <feOffset dx="-10.8098" dy="5.40488"/>
            <feGaussianBlur stdDeviation="2"/>
            <feComposite in2="hardAlpha" operator="arithmetic" k2="-1" k3="1"/>
            <feColorMatrix type="matrix" values="0 0 0 0 1 0 0 0 0 1 0 0 0 0 1 0 0 0 0.25 0"/>
            <feBlend mode="normal" in2="effect1_innerShadow" result="effect2_innerShadow"/>
        </filter>
        <filter id="filter7_i" x="59.3291" y="143.776" width="15.8232" height="15.8232" filterUnits="userSpaceOnUse" color-interpolation-filters="sRGB">
            <feFlood flood-opacity="0" result="BackgroundImageFix"/>
            <feBlend mode="normal" in="SourceGraphic" in2="BackgroundImageFix" result="shape"/>
            <feColorMatrix in="SourceAlpha" type="matrix" values="0 0 0 0 0 0 0 0 0 0 0 0 0 0 0 0 0 0 127 0" result="hardAlpha"/>
            <feOffset dx="-10.8098" dy="5.40488"/>
            <feGaussianBlur stdDeviation="2"/>
            <feComposite in2="hardAlpha" operator="arithmetic" k2="-1" k3="1"/>
            <feColorMatrix type="matrix" values="0 0 0 0 1 0 0 0 0 1 0 0 0 0 1 0 0 0 0.25 0"/>
            <feBlend mode="normal" in2="shape" result="effect1_innerShadow"/>
        </filter>
        <filter id="filter8_ii" x="27.4067" y="2.48969" width="169.386" height="61.3423" filterUnits="userSpaceOnUse" color-interpolation-filters="sRGB">
            <feFlood flood-opacity="0" result="BackgroundImageFix"/>
            <feBlend mode="normal" in="SourceGraphic" in2="BackgroundImageFix" result="shape"/>
            <feColorMatrix in="SourceAlpha" type="matrix" values="0 0 0 0 0 0 0 0 0 0 0 0 0 0 0 0 0 0 127 0" result="hardAlpha"/>
            <feOffset dx="10.8098"/>
            <feGaussianBlur stdDeviation="2"/>
            <feComposite in2="hardAlpha" operator="arithmetic" k2="-1" k3="1"/>
            <feColorMatrix type="matrix" values="0 0 0 0 0 0 0 0 0 0 0 0 0 0 0 0 0 0 0.25 0"/>
            <feBlend mode="normal" in2="shape" result="effect1_innerShadow"/>
            <feColorMatrix in="SourceAlpha" type="matrix" values="0 0 0 0 0 0 0 0 0 0 0 0 0 0 0 0 0 0 127 0" result="hardAlpha"/>
            <feOffset dx="-16.2146" dy="5.40488"/>
            <feGaussianBlur stdDeviation="2"/>
            <feComposite in2="hardAlpha" operator="arithmetic" k2="-1" k3="1"/>
            <feColorMatrix type="matrix" values="0 0 0 0 1 0 0 0 0 1 0 0 0 0 1 0 0 0 0.25 0"/>
            <feBlend mode="normal" in2="effect1_innerShadow" result="effect2_innerShadow"/>
        </filter>
    </defs>
</svg>
