<svg width="1200" height="247" viewBox="0 0 1200 247" fill="none" xmlns="http://www.w3.org/2000/svg">
    <path d="M119.46 203H90.42V156.8C90.42 153.28 89.4667 150.42 87.56 148.22C85.8 146.02 82.7933 144.92 78.54 144.92H45.1V203H16.06V49H75.02C82.94 49 89.9067 50.1 95.92 52.3C101.933 54.5 106.92 57.58 110.88 61.54C114.987 65.3533 118.067 69.8267 120.12 74.96C122.32 80.0933 123.42 85.5933 123.42 91.46V96.74C123.42 103.047 121.733 108.987 118.36 114.56C114.987 119.987 109.78 124.167 102.74 127.1V131.06C107.873 131.647 111.907 133.627 114.84 137C117.92 140.373 119.46 144.627 119.46 149.76V203ZM45.1 117.2H72.82C79.86 117.2 85.2133 115.587 88.88 112.36C92.5467 108.987 94.38 104.293 94.38 98.28V95.64C94.38 90.5067 92.5467 86.1067 88.88 82.44C85.2133 78.6267 79.86 76.72 72.82 76.72H45.1V117.2ZM263.187 149.76C263.187 158.853 261.647 166.92 258.567 173.96C255.487 180.853 251.307 186.72 246.027 191.56C240.747 196.253 234.66 199.847 227.767 202.34C221.02 204.833 213.907 206.08 206.427 206.08C198.947 206.08 191.76 204.833 184.867 202.34C178.12 199.847 172.107 196.253 166.827 191.56C161.547 186.72 157.367 180.853 154.287 173.96C151.207 166.92 149.667 158.853 149.667 149.76V147.12C149.667 138.173 151.207 130.253 154.287 123.36C157.367 116.32 161.547 110.38 166.827 105.54C172.107 100.7 178.12 97.0333 184.867 94.54C191.76 92.0467 198.947 90.8 206.427 90.8C213.907 90.8 221.02 92.0467 227.767 94.54C234.66 97.0333 240.747 100.7 246.027 105.54C251.307 110.38 255.487 116.32 258.567 123.36C261.647 130.253 263.187 138.173 263.187 147.12V149.76ZM206.427 179.68C210.387 179.68 214.127 179.02 217.647 177.7C221.167 176.38 224.247 174.473 226.887 171.98C229.527 169.487 231.58 166.48 233.047 162.96C234.66 159.293 235.467 155.187 235.467 150.64V146.24C235.467 141.693 234.66 137.66 233.047 134.14C231.58 130.473 229.527 127.393 226.887 124.9C224.247 122.407 221.167 120.5 217.647 119.18C214.127 117.86 210.387 117.2 206.427 117.2C202.467 117.2 198.727 117.86 195.207 119.18C191.687 120.5 188.607 122.407 185.967 124.9C183.327 127.393 181.2 130.473 179.587 134.14C178.12 137.66 177.387 141.693 177.387 146.24V150.64C177.387 155.187 178.12 159.293 179.587 162.96C181.2 166.48 183.327 169.487 185.967 171.98C188.607 174.473 191.687 176.38 195.207 177.7C198.727 179.02 202.467 179.68 206.427 179.68ZM365.994 187.16C363.061 194.053 358.954 198.967 353.674 201.9C348.394 204.687 342.234 206.08 335.194 206.08C328.594 206.08 322.361 204.833 316.494 202.34C310.774 199.847 305.714 196.18 301.314 191.34C296.914 186.5 293.394 180.633 290.754 173.74C288.261 166.847 287.014 159 287.014 150.2V146.68C287.014 138.027 288.261 130.253 290.754 123.36C293.247 116.467 296.621 110.6 300.874 105.76C305.127 100.92 310.041 97.2533 315.614 94.76C321.334 92.12 327.421 90.8 333.874 90.8C341.647 90.8 347.881 92.12 352.574 94.76C357.414 97.4 361.227 101.507 364.014 107.08H367.974V93.88H395.694V170C395.694 174.4 397.674 176.6 401.634 176.6H405.814V203H386.894C381.907 203 377.801 201.533 374.574 198.6C371.494 195.667 369.954 191.853 369.954 187.16H365.994ZM341.354 179.68C349.421 179.68 355.874 177.04 360.714 171.76C365.554 166.333 367.974 159 367.974 149.76V147.12C367.974 137.88 365.554 130.62 360.714 125.34C355.874 119.913 349.421 117.2 341.354 117.2C333.287 117.2 326.834 119.913 321.994 125.34C317.154 130.62 314.734 137.88 314.734 147.12V149.76C314.734 159 317.154 166.333 321.994 171.76C326.834 177.04 333.287 179.68 341.354 179.68ZM512.801 187.16H508.841C507.668 189.653 506.201 192.073 504.441 194.42C502.828 196.62 500.628 198.6 497.841 200.36C495.201 202.12 491.974 203.513 488.161 204.54C484.494 205.567 480.021 206.08 474.741 206.08C467.994 206.08 461.688 204.907 455.821 202.56C450.101 200.067 445.041 196.473 440.641 191.78C436.388 186.94 433.014 181.073 430.521 174.18C428.174 167.287 427.001 159.367 427.001 150.42V146.46C427.001 137.66 428.248 129.813 430.741 122.92C433.381 116.027 436.901 110.233 441.301 105.54C445.848 100.7 451.054 97.0333 456.921 94.54C462.934 92.0467 469.241 90.8 475.841 90.8C484.641 90.8 491.608 92.4867 496.741 95.86C501.874 99.0867 505.908 103.707 508.841 109.72H512.801V49H540.521V203H512.801V187.16ZM483.761 179.68C492.414 179.68 499.381 176.967 504.661 171.54C510.088 165.967 512.801 158.707 512.801 149.76V147.12C512.801 138.173 510.088 130.987 504.661 125.56C499.381 119.987 492.414 117.2 483.761 117.2C475.108 117.2 468.068 119.913 462.641 125.34C457.361 130.62 454.721 137.88 454.721 147.12V149.76C454.721 159 457.361 166.333 462.641 171.76C468.068 177.04 475.108 179.68 483.761 179.68ZM683.148 203H655.428V126.44C655.428 123.36 654.621 121.087 653.008 119.62C651.541 118.007 649.561 117.2 647.068 117.2C644.135 117.2 641.788 118.08 640.028 119.84C638.415 121.6 637.608 124.24 637.608 127.76V203H609.888V126.44C609.888 123.36 609.008 121.087 607.248 119.62C605.635 118.007 603.655 117.2 601.308 117.2C598.668 117.2 596.468 118.08 594.708 119.84C592.948 121.6 592.068 124.24 592.068 127.76V203H564.348V93.88H592.068V104.44H596.028C596.908 100.48 598.888 97.2533 601.968 94.76C605.195 92.12 609.375 90.8 614.508 90.8C619.348 90.8 623.455 92.12 626.828 94.76C630.201 97.2533 632.475 100.48 633.648 104.44H637.608C638.781 100.48 641.201 97.2533 644.868 94.76C648.681 92.12 653.375 90.8 658.948 90.8C666.281 90.8 672.148 93.2933 676.548 98.28C680.948 103.12 683.148 109.867 683.148 118.52V203ZM783.315 187.16C780.382 194.053 776.275 198.967 770.995 201.9C765.715 204.687 759.555 206.08 752.515 206.08C745.915 206.08 739.682 204.833 733.815 202.34C728.095 199.847 723.035 196.18 718.635 191.34C714.235 186.5 710.715 180.633 708.075 173.74C705.582 166.847 704.335 159 704.335 150.2V146.68C704.335 138.027 705.582 130.253 708.075 123.36C710.568 116.467 713.942 110.6 718.195 105.76C722.448 100.92 727.362 97.2533 732.935 94.76C738.655 92.12 744.742 90.8 751.195 90.8C758.968 90.8 765.202 92.12 769.895 94.76C774.735 97.4 778.548 101.507 781.335 107.08H785.295V93.88H813.015V170C813.015 174.4 814.995 176.6 818.955 176.6H823.135V203H804.215C799.228 203 795.122 201.533 791.895 198.6C788.815 195.667 787.275 191.853 787.275 187.16H783.315ZM758.675 179.68C766.742 179.68 773.195 177.04 778.035 171.76C782.875 166.333 785.295 159 785.295 149.76V147.12C785.295 137.88 782.875 130.62 778.035 125.34C773.195 119.913 766.742 117.2 758.675 117.2C750.608 117.2 744.155 119.913 739.315 125.34C734.475 130.62 732.055 137.88 732.055 147.12V149.76C732.055 159 734.475 166.333 739.315 171.76C744.155 177.04 750.608 179.68 758.675 179.68ZM873.802 247H846.082V93.88H873.802V109.72H877.762C880.696 103.707 884.949 99.0867 890.522 95.86C896.096 92.4867 903.209 90.8 911.862 90.8C918.316 90.8 924.402 92.0467 930.122 94.54C935.989 97.0333 941.049 100.7 945.302 105.54C949.702 110.233 953.149 116.027 955.642 122.92C958.282 129.813 959.602 137.66 959.602 146.46V150.42C959.602 159.367 958.356 167.287 955.862 174.18C953.369 181.073 949.996 186.94 945.742 191.78C941.489 196.473 936.429 200.067 930.562 202.56C924.842 204.907 918.609 206.08 911.862 206.08C906.876 206.08 902.549 205.567 898.882 204.54C895.216 203.513 891.989 202.12 889.202 200.36C886.562 198.6 884.289 196.62 882.382 194.42C880.622 192.073 879.082 189.653 877.762 187.16H873.802V247ZM902.842 179.68C911.496 179.68 918.462 177.04 923.742 171.76C929.169 166.333 931.882 159 931.882 149.76V147.12C931.882 137.88 929.169 130.62 923.742 125.34C918.462 119.913 911.496 117.2 902.842 117.2C894.189 117.2 887.149 119.987 881.722 125.56C876.442 130.987 873.802 138.173 873.802 147.12V149.76C873.802 158.707 876.442 165.967 881.722 171.54C887.149 176.967 894.189 179.68 902.842 179.68Z" fill="#22223F"/>
    <path d="M119.46 193H90.42V146.8C90.42 143.28 89.4667 140.42 87.56 138.22C85.8 136.02 82.7933 134.92 78.54 134.92H45.1V193H16.06V39H75.02C82.94 39 89.9067 40.1 95.92 42.3C101.933 44.5 106.92 47.58 110.88 51.54C114.987 55.3533 118.067 59.8267 120.12 64.96C122.32 70.0933 123.42 75.5933 123.42 81.46V86.74C123.42 93.0467 121.733 98.9867 118.36 104.56C114.987 109.987 109.78 114.167 102.74 117.1V121.06C107.873 121.647 111.907 123.627 114.84 127C117.92 130.373 119.46 134.627 119.46 139.76V193ZM45.1 107.2H72.82C79.86 107.2 85.2133 105.587 88.88 102.36C92.5467 98.9867 94.38 94.2933 94.38 88.28V85.64C94.38 80.5067 92.5467 76.1067 88.88 72.44C85.2133 68.6267 79.86 66.72 72.82 66.72H45.1V107.2ZM263.187 139.76C263.187 148.853 261.647 156.92 258.567 163.96C255.487 170.853 251.307 176.72 246.027 181.56C240.747 186.253 234.66 189.847 227.767 192.34C221.02 194.833 213.907 196.08 206.427 196.08C198.947 196.08 191.76 194.833 184.867 192.34C178.12 189.847 172.107 186.253 166.827 181.56C161.547 176.72 157.367 170.853 154.287 163.96C151.207 156.92 149.667 148.853 149.667 139.76V137.12C149.667 128.173 151.207 120.253 154.287 113.36C157.367 106.32 161.547 100.38 166.827 95.54C172.107 90.7 178.12 87.0333 184.867 84.54C191.76 82.0467 198.947 80.8 206.427 80.8C213.907 80.8 221.02 82.0467 227.767 84.54C234.66 87.0333 240.747 90.7 246.027 95.54C251.307 100.38 255.487 106.32 258.567 113.36C261.647 120.253 263.187 128.173 263.187 137.12V139.76ZM206.427 169.68C210.387 169.68 214.127 169.02 217.647 167.7C221.167 166.38 224.247 164.473 226.887 161.98C229.527 159.487 231.58 156.48 233.047 152.96C234.66 149.293 235.467 145.187 235.467 140.64V136.24C235.467 131.693 234.66 127.66 233.047 124.14C231.58 120.473 229.527 117.393 226.887 114.9C224.247 112.407 221.167 110.5 217.647 109.18C214.127 107.86 210.387 107.2 206.427 107.2C202.467 107.2 198.727 107.86 195.207 109.18C191.687 110.5 188.607 112.407 185.967 114.9C183.327 117.393 181.2 120.473 179.587 124.14C178.12 127.66 177.387 131.693 177.387 136.24V140.64C177.387 145.187 178.12 149.293 179.587 152.96C181.2 156.48 183.327 159.487 185.967 161.98C188.607 164.473 191.687 166.38 195.207 167.7C198.727 169.02 202.467 169.68 206.427 169.68ZM365.994 177.16C363.061 184.053 358.954 188.967 353.674 191.9C348.394 194.687 342.234 196.08 335.194 196.08C328.594 196.08 322.361 194.833 316.494 192.34C310.774 189.847 305.714 186.18 301.314 181.34C296.914 176.5 293.394 170.633 290.754 163.74C288.261 156.847 287.014 149 287.014 140.2V136.68C287.014 128.027 288.261 120.253 290.754 113.36C293.247 106.467 296.621 100.6 300.874 95.76C305.127 90.92 310.041 87.2533 315.614 84.76C321.334 82.12 327.421 80.8 333.874 80.8C341.647 80.8 347.881 82.12 352.574 84.76C357.414 87.4 361.227 91.5067 364.014 97.08H367.974V83.88H395.694V160C395.694 164.4 397.674 166.6 401.634 166.6H405.814V193H386.894C381.907 193 377.801 191.533 374.574 188.6C371.494 185.667 369.954 181.853 369.954 177.16H365.994ZM341.354 169.68C349.421 169.68 355.874 167.04 360.714 161.76C365.554 156.333 367.974 149 367.974 139.76V137.12C367.974 127.88 365.554 120.62 360.714 115.34C355.874 109.913 349.421 107.2 341.354 107.2C333.287 107.2 326.834 109.913 321.994 115.34C317.154 120.62 314.734 127.88 314.734 137.12V139.76C314.734 149 317.154 156.333 321.994 161.76C326.834 167.04 333.287 169.68 341.354 169.68ZM512.801 177.16H508.841C507.668 179.653 506.201 182.073 504.441 184.42C502.828 186.62 500.628 188.6 497.841 190.36C495.201 192.12 491.974 193.513 488.161 194.54C484.494 195.567 480.021 196.08 474.741 196.08C467.994 196.08 461.688 194.907 455.821 192.56C450.101 190.067 445.041 186.473 440.641 181.78C436.388 176.94 433.014 171.073 430.521 164.18C428.174 157.287 427.001 149.367 427.001 140.42V136.46C427.001 127.66 428.248 119.813 430.741 112.92C433.381 106.027 436.901 100.233 441.301 95.54C445.848 90.7 451.054 87.0333 456.921 84.54C462.934 82.0467 469.241 80.8 475.841 80.8C484.641 80.8 491.608 82.4867 496.741 85.86C501.874 89.0867 505.908 93.7067 508.841 99.72H512.801V39H540.521V193H512.801V177.16ZM483.761 169.68C492.414 169.68 499.381 166.967 504.661 161.54C510.088 155.967 512.801 148.707 512.801 139.76V137.12C512.801 128.173 510.088 120.987 504.661 115.56C499.381 109.987 492.414 107.2 483.761 107.2C475.108 107.2 468.068 109.913 462.641 115.34C457.361 120.62 454.721 127.88 454.721 137.12V139.76C454.721 149 457.361 156.333 462.641 161.76C468.068 167.04 475.108 169.68 483.761 169.68ZM683.148 193H655.428V116.44C655.428 113.36 654.621 111.087 653.008 109.62C651.541 108.007 649.561 107.2 647.068 107.2C644.135 107.2 641.788 108.08 640.028 109.84C638.415 111.6 637.608 114.24 637.608 117.76V193H609.888V116.44C609.888 113.36 609.008 111.087 607.248 109.62C605.635 108.007 603.655 107.2 601.308 107.2C598.668 107.2 596.468 108.08 594.708 109.84C592.948 111.6 592.068 114.24 592.068 117.76V193H564.348V83.88H592.068V94.44H596.028C596.908 90.48 598.888 87.2533 601.968 84.76C605.195 82.12 609.375 80.8 614.508 80.8C619.348 80.8 623.455 82.12 626.828 84.76C630.201 87.2533 632.475 90.48 633.648 94.44H637.608C638.781 90.48 641.201 87.2533 644.868 84.76C648.681 82.12 653.375 80.8 658.948 80.8C666.281 80.8 672.148 83.2933 676.548 88.28C680.948 93.12 683.148 99.8667 683.148 108.52V193ZM783.315 177.16C780.382 184.053 776.275 188.967 770.995 191.9C765.715 194.687 759.555 196.08 752.515 196.08C745.915 196.08 739.682 194.833 733.815 192.34C728.095 189.847 723.035 186.18 718.635 181.34C714.235 176.5 710.715 170.633 708.075 163.74C705.582 156.847 704.335 149 704.335 140.2V136.68C704.335 128.027 705.582 120.253 708.075 113.36C710.568 106.467 713.942 100.6 718.195 95.76C722.448 90.92 727.362 87.2533 732.935 84.76C738.655 82.12 744.742 80.8 751.195 80.8C758.968 80.8 765.202 82.12 769.895 84.76C774.735 87.4 778.548 91.5067 781.335 97.08H785.295V83.88H813.015V160C813.015 164.4 814.995 166.6 818.955 166.6H823.135V193H804.215C799.228 193 795.122 191.533 791.895 188.6C788.815 185.667 787.275 181.853 787.275 177.16H783.315ZM758.675 169.68C766.742 169.68 773.195 167.04 778.035 161.76C782.875 156.333 785.295 149 785.295 139.76V137.12C785.295 127.88 782.875 120.62 778.035 115.34C773.195 109.913 766.742 107.2 758.675 107.2C750.608 107.2 744.155 109.913 739.315 115.34C734.475 120.62 732.055 127.88 732.055 137.12V139.76C732.055 149 734.475 156.333 739.315 161.76C744.155 167.04 750.608 169.68 758.675 169.68ZM873.802 237H846.082V83.88H873.802V99.72H877.762C880.696 93.7067 884.949 89.0867 890.522 85.86C896.096 82.4867 903.209 80.8 911.862 80.8C918.316 80.8 924.402 82.0467 930.122 84.54C935.989 87.0333 941.049 90.7 945.302 95.54C949.702 100.233 953.149 106.027 955.642 112.92C958.282 119.813 959.602 127.66 959.602 136.46V140.42C959.602 149.367 958.356 157.287 955.862 164.18C953.369 171.073 949.996 176.94 945.742 181.78C941.489 186.473 936.429 190.067 930.562 192.56C924.842 194.907 918.609 196.08 911.862 196.08C906.876 196.08 902.549 195.567 898.882 194.54C895.216 193.513 891.989 192.12 889.202 190.36C886.562 188.6 884.289 186.62 882.382 184.42C880.622 182.073 879.082 179.653 877.762 177.16H873.802V237ZM902.842 169.68C911.496 169.68 918.462 167.04 923.742 161.76C929.169 156.333 931.882 149 931.882 139.76V137.12C931.882 127.88 929.169 120.62 923.742 115.34C918.462 109.913 911.496 107.2 902.842 107.2C894.189 107.2 887.149 109.987 881.722 115.56C876.442 120.987 873.802 128.173 873.802 137.12V139.76C873.802 148.707 876.442 155.967 881.722 161.54C887.149 166.967 894.189 169.68 902.842 169.68Z" fill="white"/>
    <path d="M119.46 183H90.42V136.8C90.42 133.28 89.4667 130.42 87.56 128.22C85.8 126.02 82.7933 124.92 78.54 124.92H45.1V183H16.06V29H75.02C82.94 29 89.9067 30.1 95.92 32.3C101.933 34.5 106.92 37.58 110.88 41.54C114.987 45.3533 118.067 49.8267 120.12 54.96C122.32 60.0933 123.42 65.5933 123.42 71.46V76.74C123.42 83.0467 121.733 88.9867 118.36 94.56C114.987 99.9867 109.78 104.167 102.74 107.1V111.06C107.873 111.647 111.907 113.627 114.84 117C117.92 120.373 119.46 124.627 119.46 129.76V183ZM45.1 97.2H72.82C79.86 97.2 85.2133 95.5867 88.88 92.36C92.5467 88.9867 94.38 84.2933 94.38 78.28V75.64C94.38 70.5067 92.5467 66.1067 88.88 62.44C85.2133 58.6267 79.86 56.72 72.82 56.72H45.1V97.2ZM263.187 129.76C263.187 138.853 261.647 146.92 258.567 153.96C255.487 160.853 251.307 166.72 246.027 171.56C240.747 176.253 234.66 179.847 227.767 182.34C221.02 184.833 213.907 186.08 206.427 186.08C198.947 186.08 191.76 184.833 184.867 182.34C178.12 179.847 172.107 176.253 166.827 171.56C161.547 166.72 157.367 160.853 154.287 153.96C151.207 146.92 149.667 138.853 149.667 129.76V127.12C149.667 118.173 151.207 110.253 154.287 103.36C157.367 96.32 161.547 90.38 166.827 85.54C172.107 80.7 178.12 77.0333 184.867 74.54C191.76 72.0467 198.947 70.8 206.427 70.8C213.907 70.8 221.02 72.0467 227.767 74.54C234.66 77.0333 240.747 80.7 246.027 85.54C251.307 90.38 255.487 96.32 258.567 103.36C261.647 110.253 263.187 118.173 263.187 127.12V129.76ZM206.427 159.68C210.387 159.68 214.127 159.02 217.647 157.7C221.167 156.38 224.247 154.473 226.887 151.98C229.527 149.487 231.58 146.48 233.047 142.96C234.66 139.293 235.467 135.187 235.467 130.64V126.24C235.467 121.693 234.66 117.66 233.047 114.14C231.58 110.473 229.527 107.393 226.887 104.9C224.247 102.407 221.167 100.5 217.647 99.18C214.127 97.86 210.387 97.2 206.427 97.2C202.467 97.2 198.727 97.86 195.207 99.18C191.687 100.5 188.607 102.407 185.967 104.9C183.327 107.393 181.2 110.473 179.587 114.14C178.12 117.66 177.387 121.693 177.387 126.24V130.64C177.387 135.187 178.12 139.293 179.587 142.96C181.2 146.48 183.327 149.487 185.967 151.98C188.607 154.473 191.687 156.38 195.207 157.7C198.727 159.02 202.467 159.68 206.427 159.68ZM365.994 167.16C363.061 174.053 358.954 178.967 353.674 181.9C348.394 184.687 342.234 186.08 335.194 186.08C328.594 186.08 322.361 184.833 316.494 182.34C310.774 179.847 305.714 176.18 301.314 171.34C296.914 166.5 293.394 160.633 290.754 153.74C288.261 146.847 287.014 139 287.014 130.2V126.68C287.014 118.027 288.261 110.253 290.754 103.36C293.247 96.4667 296.621 90.6 300.874 85.76C305.127 80.92 310.041 77.2533 315.614 74.76C321.334 72.12 327.421 70.8 333.874 70.8C341.647 70.8 347.881 72.12 352.574 74.76C357.414 77.4 361.227 81.5067 364.014 87.08H367.974V73.88H395.694V150C395.694 154.4 397.674 156.6 401.634 156.6H405.814V183H386.894C381.907 183 377.801 181.533 374.574 178.6C371.494 175.667 369.954 171.853 369.954 167.16H365.994ZM341.354 159.68C349.421 159.68 355.874 157.04 360.714 151.76C365.554 146.333 367.974 139 367.974 129.76V127.12C367.974 117.88 365.554 110.62 360.714 105.34C355.874 99.9133 349.421 97.2 341.354 97.2C333.287 97.2 326.834 99.9133 321.994 105.34C317.154 110.62 314.734 117.88 314.734 127.12V129.76C314.734 139 317.154 146.333 321.994 151.76C326.834 157.04 333.287 159.68 341.354 159.68ZM512.801 167.16H508.841C507.668 169.653 506.201 172.073 504.441 174.42C502.828 176.62 500.628 178.6 497.841 180.36C495.201 182.12 491.974 183.513 488.161 184.54C484.494 185.567 480.021 186.08 474.741 186.08C467.994 186.08 461.688 184.907 455.821 182.56C450.101 180.067 445.041 176.473 440.641 171.78C436.388 166.94 433.014 161.073 430.521 154.18C428.174 147.287 427.001 139.367 427.001 130.42V126.46C427.001 117.66 428.248 109.813 430.741 102.92C433.381 96.0267 436.901 90.2333 441.301 85.54C445.848 80.7 451.054 77.0333 456.921 74.54C462.934 72.0467 469.241 70.8 475.841 70.8C484.641 70.8 491.608 72.4867 496.741 75.86C501.874 79.0867 505.908 83.7067 508.841 89.72H512.801V29H540.521V183H512.801V167.16ZM483.761 159.68C492.414 159.68 499.381 156.967 504.661 151.54C510.088 145.967 512.801 138.707 512.801 129.76V127.12C512.801 118.173 510.088 110.987 504.661 105.56C499.381 99.9867 492.414 97.2 483.761 97.2C475.108 97.2 468.068 99.9133 462.641 105.34C457.361 110.62 454.721 117.88 454.721 127.12V129.76C454.721 139 457.361 146.333 462.641 151.76C468.068 157.04 475.108 159.68 483.761 159.68ZM683.148 183H655.428V106.44C655.428 103.36 654.621 101.087 653.008 99.62C651.541 98.0067 649.561 97.2 647.068 97.2C644.135 97.2 641.788 98.08 640.028 99.84C638.415 101.6 637.608 104.24 637.608 107.76V183H609.888V106.44C609.888 103.36 609.008 101.087 607.248 99.62C605.635 98.0067 603.655 97.2 601.308 97.2C598.668 97.2 596.468 98.08 594.708 99.84C592.948 101.6 592.068 104.24 592.068 107.76V183H564.348V73.88H592.068V84.44H596.028C596.908 80.48 598.888 77.2533 601.968 74.76C605.195 72.12 609.375 70.8 614.508 70.8C619.348 70.8 623.455 72.12 626.828 74.76C630.201 77.2533 632.475 80.48 633.648 84.44H637.608C638.781 80.48 641.201 77.2533 644.868 74.76C648.681 72.12 653.375 70.8 658.948 70.8C666.281 70.8 672.148 73.2933 676.548 78.28C680.948 83.12 683.148 89.8667 683.148 98.52V183ZM783.315 167.16C780.382 174.053 776.275 178.967 770.995 181.9C765.715 184.687 759.555 186.08 752.515 186.08C745.915 186.08 739.682 184.833 733.815 182.34C728.095 179.847 723.035 176.18 718.635 171.34C714.235 166.5 710.715 160.633 708.075 153.74C705.582 146.847 704.335 139 704.335 130.2V126.68C704.335 118.027 705.582 110.253 708.075 103.36C710.568 96.4667 713.942 90.6 718.195 85.76C722.448 80.92 727.362 77.2533 732.935 74.76C738.655 72.12 744.742 70.8 751.195 70.8C758.968 70.8 765.202 72.12 769.895 74.76C774.735 77.4 778.548 81.5067 781.335 87.08H785.295V73.88H813.015V150C813.015 154.4 814.995 156.6 818.955 156.6H823.135V183H804.215C799.228 183 795.122 181.533 791.895 178.6C788.815 175.667 787.275 171.853 787.275 167.16H783.315ZM758.675 159.68C766.742 159.68 773.195 157.04 778.035 151.76C782.875 146.333 785.295 139 785.295 129.76V127.12C785.295 117.88 782.875 110.62 778.035 105.34C773.195 99.9133 766.742 97.2 758.675 97.2C750.608 97.2 744.155 99.9133 739.315 105.34C734.475 110.62 732.055 117.88 732.055 127.12V129.76C732.055 139 734.475 146.333 739.315 151.76C744.155 157.04 750.608 159.68 758.675 159.68ZM873.802 227H846.082V73.88H873.802V89.72H877.762C880.696 83.7067 884.949 79.0867 890.522 75.86C896.096 72.4867 903.209 70.8 911.862 70.8C918.316 70.8 924.402 72.0467 930.122 74.54C935.989 77.0333 941.049 80.7 945.302 85.54C949.702 90.2333 953.149 96.0267 955.642 102.92C958.282 109.813 959.602 117.66 959.602 126.46V130.42C959.602 139.367 958.356 147.287 955.862 154.18C953.369 161.073 949.996 166.94 945.742 171.78C941.489 176.473 936.429 180.067 930.562 182.56C924.842 184.907 918.609 186.08 911.862 186.08C906.876 186.08 902.549 185.567 898.882 184.54C895.216 183.513 891.989 182.12 889.202 180.36C886.562 178.6 884.289 176.62 882.382 174.42C880.622 172.073 879.082 169.653 877.762 167.16H873.802V227ZM902.842 159.68C911.496 159.68 918.462 157.04 923.742 151.76C929.169 146.333 931.882 139 931.882 129.76V127.12C931.882 117.88 929.169 110.62 923.742 105.34C918.462 99.9133 911.496 97.2 902.842 97.2C894.189 97.2 887.149 99.9867 881.722 105.56C876.442 110.987 873.802 118.173 873.802 127.12V129.76C873.802 138.707 876.442 145.967 881.722 151.54C887.149 156.967 894.189 159.68 902.842 159.68Z" fill="#D74040"/>
</svg>
