<svg width="611" height="815" viewBox="0 0 611 815" fill="none" xmlns="http://www.w3.org/2000/svg">
    <g clip-path="url(#clip0)">
        <g filter="url(#filter0_ii)">
            <path d="M96.5076 486.113C90.1755 479.781 90.1759 469.515 96.5081 463.182L188.232 371.459C194.564 365.127 204.83 365.126 211.163 371.458L287.599 447.895C293.932 454.227 293.932 464.494 287.599 470.826L195.876 562.55C189.543 568.882 179.277 568.882 172.944 562.55L96.5076 486.113Z" fill="#75D1C1"/>
        </g>
        <path d="M96.5076 486.113C90.1755 479.781 90.1759 469.515 96.5081 463.182L188.232 371.459C194.564 365.127 204.83 365.126 211.163 371.458L287.599 447.895C293.932 454.227 293.932 464.494 287.599 470.826L195.876 562.55C189.543 568.882 179.277 568.882 172.944 562.55L96.5076 486.113Z" stroke="#1F2024" stroke-width="5.40488"/>
        <g filter="url(#filter1_i)">
            <path d="M144.281 438.34C137.948 432.008 137.949 421.742 144.281 415.41L228.361 331.33C234.694 324.997 244.959 324.997 251.292 331.329L327.728 407.766C334.061 414.098 334.061 424.364 327.728 430.697L243.649 514.777C237.316 521.109 227.05 521.109 220.717 514.777L144.281 438.34Z" fill="#ACE5D7"/>
        </g>
        <path d="M144.281 438.34C137.948 432.008 137.949 421.742 144.281 415.41L228.361 331.33C234.694 324.997 244.959 324.997 251.292 331.329L327.728 407.766C334.061 414.098 334.061 424.364 327.728 430.697L243.649 514.777C237.316 521.109 227.05 521.109 220.717 514.777L144.281 438.34Z" stroke="#1F2024" stroke-width="5.40488"/>
        <path d="M195.876 367.636L214.029 349.482L282.822 471.781L264.669 489.934L195.876 367.636Z" fill="white" fill-opacity="0.5"/>
        <path d="M188.709 374.802L191.576 371.936L260.369 494.234L257.502 497.101L188.709 374.802Z" fill="white" fill-opacity="0.5"/>
        <g filter="url(#filter2_d)">
            <path d="M167.69 443.595L119.917 491.368C119.126 492.16 119.126 493.443 119.917 494.234C120.709 495.026 121.992 495.026 122.783 494.234L170.556 446.462C171.348 445.67 171.348 444.387 170.556 443.595C169.765 442.804 168.481 442.804 167.69 443.595Z" fill="#1F2024" stroke="#1F2024" stroke-width="5.40488"/>
            <path fill-rule="evenodd" clip-rule="evenodd" d="M221.744 403.734C237.286 419.275 238.301 434.011 224.738 447.573C206.843 465.468 189.264 460.662 178.77 450.167C176.15 447.548 175.036 447.963 173.581 448.571C171.514 449.424 167.461 445.596 165.667 443.516C165.466 443.283 165.464 442.938 165.647 442.69C182.088 420.483 191.502 410.632 206.417 400.508C209.412 398.475 213.111 397.248 215.67 394.689L220.071 390.287C222.631 387.728 223.857 384.029 225.891 381.034C236.015 366.118 245.866 356.705 268.073 340.264C268.321 340.081 268.666 340.083 268.899 340.284C270.978 342.079 274.806 346.132 273.954 348.198C273.346 349.653 272.931 350.767 275.55 353.387C286.045 363.881 290.851 381.461 272.956 399.355C259.394 412.918 244.658 411.903 229.117 396.361C228.451 395.534 227.21 395.453 226.459 396.204L221.587 401.076C220.836 401.827 220.917 403.068 221.744 403.734Z" fill="#1F2024"/>
            <path d="M173.581 448.571L174.096 449.819L174.101 449.817L173.581 448.571ZM165.667 443.516L166.69 442.633L165.667 443.516ZM165.647 442.69L164.561 441.886L165.647 442.69ZM268.073 340.264L267.269 339.178L268.073 340.264ZM268.899 340.284L269.782 339.262L269.781 339.261L268.899 340.284ZM273.954 348.198L275.2 348.718L275.202 348.713L273.954 348.198ZM225.694 448.528C232.662 441.56 236.039 434.124 235.503 426.303C234.972 418.528 230.591 410.67 222.7 402.778L220.789 404.689C228.439 412.339 232.337 419.619 232.807 426.488C233.274 433.31 230.376 440.023 223.782 446.617L225.694 448.528ZM177.814 451.123C183.245 456.553 190.572 460.576 198.932 460.867C207.322 461.158 216.537 457.684 225.694 448.528L223.782 446.617C215.043 455.356 206.522 458.427 199.025 458.165C191.499 457.904 184.789 454.275 179.725 449.212L177.814 451.123ZM174.101 449.817C174.857 449.502 175.147 449.423 175.49 449.487C175.87 449.558 176.563 449.872 177.814 451.123L179.725 449.212C178.356 447.843 177.183 447.055 175.987 446.831C174.754 446.6 173.76 447.032 173.061 447.323L174.101 449.817ZM164.644 444.399C165.586 445.49 167.119 447.042 168.717 448.228C169.512 448.819 170.378 449.359 171.236 449.693C172.062 450.014 173.106 450.228 174.096 449.819L173.065 447.322C173.022 447.339 172.785 447.395 172.214 447.174C171.674 446.964 171.027 446.578 170.328 446.058C168.933 445.023 167.543 443.622 166.69 442.633L164.644 444.399ZM164.561 441.886C164.026 442.608 164.004 443.657 164.644 444.399L166.69 442.633C166.928 442.909 166.901 443.267 166.733 443.494L164.561 441.886ZM205.658 399.389C190.565 409.634 181.046 419.619 164.561 441.886L166.733 443.494C183.129 421.346 192.438 411.629 207.176 401.626L205.658 399.389ZM216.625 395.644L221.027 391.243L219.115 389.331L214.714 393.733L216.625 395.644ZM227.008 381.793C237.012 367.055 246.729 357.747 268.877 341.35L267.269 339.178C245.002 355.662 235.018 365.181 224.772 380.275L227.008 381.793ZM268.877 341.35C268.65 341.518 268.292 341.545 268.016 341.307L269.781 339.261C269.039 338.621 267.991 338.643 267.269 339.178L268.877 341.35ZM268.016 341.307C269.005 342.16 270.406 343.55 271.441 344.945C271.96 345.645 272.346 346.291 272.557 346.831C272.778 347.402 272.722 347.639 272.704 347.683L275.202 348.713C275.611 347.723 275.397 346.679 275.076 345.853C274.742 344.996 274.201 344.129 273.611 343.334C272.426 341.736 270.873 340.203 269.782 339.262L268.016 341.307ZM272.706 347.678C272.414 348.377 271.983 349.371 272.214 350.604C272.438 351.8 273.226 352.973 274.595 354.342L276.506 352.432C275.255 351.181 274.942 350.487 274.87 350.107C274.806 349.764 274.886 349.474 275.2 348.718L272.706 347.678ZM274.595 354.342C279.659 359.406 283.287 366.115 283.548 373.642C283.809 381.139 280.738 389.661 272 398.399L273.911 400.31C283.068 391.154 286.541 381.939 286.25 373.549C285.958 365.189 281.936 357.862 276.506 352.432L274.595 354.342ZM272 398.399C265.406 404.993 258.693 407.891 251.871 407.424C245.002 406.954 237.722 403.056 230.072 395.406L228.161 397.317C236.052 405.209 243.911 409.588 251.686 410.12C259.508 410.655 266.943 407.279 273.911 400.31L272 398.399ZM225.503 395.248L220.631 400.12L222.542 402.031L227.414 397.159L225.503 395.248ZM230.169 395.514C229.012 394.076 226.836 393.915 225.503 395.248L227.414 397.159C227.582 396.991 227.89 396.993 228.063 397.208L230.169 395.514ZM221.027 391.243C222.452 389.818 223.473 388.109 224.366 386.47C225.286 384.777 226.042 383.217 227.008 381.793L224.772 380.275C223.706 381.846 222.833 383.633 221.991 385.178C221.122 386.776 220.251 388.196 219.115 389.331L221.027 391.243ZM220.631 400.12C219.299 401.453 219.459 403.629 220.897 404.786L222.591 402.681C222.376 402.507 222.373 402.2 222.542 402.031L220.631 400.12ZM207.176 401.626C208.6 400.658 210.16 399.903 211.853 398.982C213.492 398.09 215.201 397.068 216.625 395.644L214.714 393.733C213.579 394.868 212.159 395.739 210.561 396.609C209.016 397.449 207.228 398.323 205.658 399.389L207.176 401.626Z" fill="#1F2024"/>
            <path d="M177.7 424.985L185.843 416.842L211.341 455.361L200.068 458.775L177.7 424.985Z" fill="white"/>
            <path d="M189.734 412.951L192.531 410.154L219.539 450.983L216.147 452.879L189.734 412.951Z" fill="white"/>
            <path d="M221.744 403.734L223.655 401.823L223.552 401.72L223.438 401.627L221.744 403.734ZM206.417 400.508L204.899 398.271L206.417 400.508ZM165.646 442.69L163.474 441.082L165.646 442.69ZM165.667 443.516L167.713 441.751L165.667 443.516ZM173.581 448.571L174.612 451.069L174.621 451.065L173.581 448.571ZM229.117 396.362L227.01 398.055L227.102 398.17L227.205 398.273L229.117 396.362ZM225.891 381.034L223.654 379.516L225.891 381.034ZM268.073 340.264L266.465 338.092L268.073 340.264ZM268.899 340.284L270.664 338.238L268.899 340.284ZM273.954 348.198L276.448 349.239L276.452 349.229L273.954 348.198ZM219.834 405.644C227.364 413.174 231.02 420.166 231.459 426.58C231.892 432.903 229.233 439.255 222.827 445.662L226.649 449.484C233.804 442.328 237.42 434.532 236.851 426.211C236.288 417.982 231.667 409.835 223.655 401.823L219.834 405.644ZM207.935 402.744C210.149 401.241 211.819 401.16 213.451 401.666C215.353 402.254 217.385 403.695 220.05 405.84L223.438 401.627C220.85 399.546 218.072 397.438 215.05 396.502C211.757 395.483 208.391 395.901 204.899 398.271L207.935 402.744ZM167.819 444.298C184.172 422.209 193.375 412.627 207.935 402.744L204.899 398.271C189.628 408.638 180.003 418.756 163.474 441.082L167.819 444.298ZM167.713 441.751C168.39 442.536 168.338 443.596 167.819 444.298L163.474 441.082C162.588 442.279 162.542 444.031 163.621 445.282L167.713 441.751ZM172.55 446.073C172.981 445.895 173.148 446.087 172.703 445.914C172.322 445.766 171.785 445.458 171.133 444.973C169.84 444.014 168.522 442.688 167.713 441.751L163.621 445.282C164.607 446.424 166.212 448.052 167.911 449.313C168.755 449.94 169.73 450.558 170.746 450.952C171.699 451.323 173.147 451.673 174.612 451.069L172.55 446.073ZM180.681 448.257C179.253 446.829 177.839 445.803 176.236 445.503C174.558 445.188 173.211 445.797 172.54 446.076L174.621 451.065C175.405 450.738 175.343 450.835 175.241 450.816C175.214 450.81 175.667 450.886 176.859 452.079L180.681 448.257ZM222.827 445.662C214.297 454.192 206.122 457.061 199.073 456.816C191.962 456.568 185.56 453.136 180.681 448.257L176.859 452.079C182.473 457.692 190.109 461.912 198.884 462.217C207.722 462.525 217.283 458.849 226.649 449.484L222.827 445.662ZM227.205 398.273C235.217 406.284 243.365 410.905 251.594 411.469C259.914 412.038 267.711 408.422 274.867 401.266L271.045 397.444C264.638 403.851 258.286 406.509 251.963 406.076C245.548 405.637 238.557 401.981 231.027 394.451L227.205 398.273ZM223.654 379.516C221.284 383.008 220.865 386.374 221.884 389.667C222.821 392.689 224.929 395.467 227.01 398.055L231.222 394.668C229.078 392.002 227.637 389.97 227.048 388.069C226.542 386.437 226.623 384.766 228.126 382.552L223.654 379.516ZM266.465 338.092C244.139 354.621 234.02 364.246 223.654 379.516L228.126 382.552C238.01 367.992 247.592 358.789 269.681 342.436L266.465 338.092ZM270.664 338.238C269.414 337.159 267.662 337.206 266.465 338.092L269.681 342.436C268.978 342.956 267.919 343.007 267.134 342.33L270.664 338.238ZM276.452 349.229C277.056 347.765 276.705 346.317 276.334 345.364C275.94 344.348 275.322 343.372 274.696 342.529C273.435 340.829 271.807 339.224 270.664 338.238L267.134 342.33C268.071 343.139 269.397 344.458 270.356 345.75C270.84 346.403 271.149 346.939 271.297 347.321C271.47 347.765 271.277 347.598 271.455 347.167L276.452 349.229ZM277.461 351.477C276.269 350.284 276.193 349.831 276.198 349.859C276.218 349.96 276.12 350.023 276.448 349.239L271.459 347.157C271.18 347.829 270.571 349.176 270.886 350.854C271.186 352.457 272.212 353.87 273.64 355.298L277.461 351.477ZM274.867 401.266C284.231 391.901 287.907 382.34 287.599 373.501C287.295 364.726 283.075 357.09 277.461 351.477L273.64 355.298C278.519 360.177 281.951 366.579 282.198 373.69C282.443 380.739 279.574 388.914 271.045 397.444L274.867 401.266Z" fill="#1F2024"/>
        </g>
        <g filter="url(#filter3_i)">
            <path fill-rule="evenodd" clip-rule="evenodd" d="M258.688 445.82C258.961 447.382 258.894 448.978 258.451 450.47C255.029 461.979 246.145 468.34 239.218 473.3C236.29 475.397 233.712 477.243 232.045 479.121C231.193 480.081 230.435 481.299 229.69 482.497C228.063 485.112 226.498 487.627 224.156 487.127C220.397 486.324 212.696 468.859 222.118 455.247C228.959 445.362 242.298 435.396 249.261 436.393C248.265 429.429 258.231 416.09 268.115 409.25C281.728 399.827 299.192 407.528 299.996 411.287C300.496 413.629 297.981 415.194 295.366 416.821C294.168 417.567 292.95 418.325 291.99 419.176C290.112 420.843 288.266 423.421 286.168 426.35C281.209 433.276 274.847 442.16 263.339 445.582C261.847 446.025 260.251 446.092 258.688 445.82Z" fill="#1F2024"/>
        </g>
        <g filter="url(#filter4_ii)">
            <path d="M76.7093 327.08L109.884 352.307L110.258 448.476L99.3818 459.353C98.8291 449.178 90.7101 444.13 70.8678 450.918C81.3586 431.29 68.3519 422.048 48.4943 425.616C69.1533 404.515 70.2999 394.429 50.2783 380.13C84.9748 365.333 89.61 353.446 76.7093 327.08Z" fill="#E79834"/>
        </g>
        <path d="M76.7093 327.08L109.884 352.307L110.258 448.476L99.3818 459.353C98.8291 449.178 90.7101 444.13 70.8678 450.918C81.3586 431.29 68.3519 422.048 48.4943 425.616C69.1533 404.515 70.2999 394.429 50.2783 380.13C84.9748 365.333 89.61 353.446 76.7093 327.08Z" stroke="#1F2024" stroke-width="5.40488" stroke-linejoin="round"/>
        <g filter="url(#filter5_i)">
            <path d="M90.9835 397.827L49.8707 380.141L93.5272 378.2L90.9835 397.827Z" fill="#F9E174"/>
        </g>
        <path d="M90.9835 397.827L49.8707 380.141L93.5272 378.2L90.9835 397.827Z" stroke="#1F2024" stroke-width="5.40488" stroke-linejoin="round"/>
        <g filter="url(#filter6_i)">
            <path d="M70.8678 450.918L92.7678 423.456L98.9458 436.746L70.8678 450.918Z" fill="#F9E174"/>
        </g>
        <path d="M70.8678 450.918L92.7678 423.456L98.9458 436.746L70.8678 450.918Z" stroke="#1F2024" stroke-width="5.40488" stroke-linejoin="round"/>
        <g filter="url(#filter7_i)">
            <path d="M102.334 360.653L76.5214 326.474C94.9281 337.112 104.759 340.302 121.211 339.789L102.334 360.653Z" fill="#F9E174"/>
        </g>
        <path d="M102.334 360.653L76.5214 326.474C94.9281 337.112 104.759 340.302 121.211 339.789L102.334 360.653Z" stroke="#1F2024" stroke-width="5.40488" stroke-linejoin="round"/>
        <g filter="url(#filter8_i)">
            <path d="M88.4315 401.969L49.1115 425.397L91.451 419.211L88.4315 401.969Z" fill="#F9E174"/>
        </g>
        <path d="M88.4315 401.969L49.1115 425.397L91.451 419.211L88.4315 401.969Z" stroke="#1F2024" stroke-width="5.40488" stroke-linejoin="round"/>
        <g filter="url(#filter9_ii)">
            <path fill-rule="evenodd" clip-rule="evenodd" d="M153.534 332.12C161.207 332.42 168.832 334.009 176.101 336.733C190.333 334.334 193.756 327.378 198.458 317.819C200.507 313.656 202.797 308.999 206.33 304.01C206.931 300.195 208.7 296.529 211.641 293.589C219.028 286.202 231.006 286.201 238.393 293.589C245.621 300.817 245.778 312.438 238.862 319.856L238.871 319.864L238.393 320.341L175.811 382.924L108.929 449.806C95.297 436.174 87.0359 417.897 86.311 399.344C85.5862 380.79 92.2614 363.284 104.868 350.677C117.475 338.071 134.981 331.395 153.534 332.12Z" fill="#F2C95C"/>
        </g>
        <path d="M176.101 336.733L175.152 339.263C175.598 339.431 176.08 339.477 176.55 339.398L176.101 336.733ZM153.534 332.12L153.429 334.821L153.534 332.12ZM198.458 317.819L200.883 319.012L198.458 317.819ZM206.33 304.01L208.536 305.572C208.777 305.232 208.935 304.842 209 304.43L206.33 304.01ZM238.862 319.856L236.886 318.013C235.894 319.078 235.923 320.737 236.951 321.766L238.862 319.856ZM238.871 319.864L240.782 321.776C241.838 320.72 241.838 319.009 240.782 317.953L238.871 319.864ZM175.811 382.924L173.145 383.368C173.311 384.367 174.022 385.189 174.986 385.498C175.95 385.807 177.006 385.551 177.722 384.835L175.811 382.924ZM175.811 382.924L178.477 382.48C178.31 381.481 177.6 380.66 176.636 380.351C175.671 380.041 174.616 380.298 173.9 381.013L175.811 382.924ZM108.929 449.806L107.018 451.717C107.525 452.224 108.212 452.508 108.929 452.509C109.646 452.509 110.333 452.224 110.84 451.717L108.929 449.806ZM86.311 399.344L89.0114 399.238L86.311 399.344ZM177.049 334.202C169.523 331.382 161.614 329.732 153.64 329.42L153.429 334.821C160.8 335.109 168.14 336.636 175.152 339.263L177.049 334.202ZM196.033 316.626C193.638 321.495 191.79 325.192 188.939 328.053C186.198 330.803 182.343 332.94 175.652 334.068L176.55 339.398C184.09 338.127 189.063 335.586 192.768 331.868C196.361 328.262 198.575 323.703 200.883 319.012L196.033 316.626ZM204.125 302.449C200.454 307.632 198.08 312.466 196.033 316.626L200.883 319.012C202.933 314.846 205.141 310.366 208.536 305.572L204.125 302.449ZM209 304.43C209.514 301.161 211.029 298.022 213.552 295.5L209.73 291.678C206.372 295.035 204.347 299.23 203.661 303.59L209 304.43ZM213.552 295.5C219.884 289.168 230.15 289.168 236.482 295.5L240.304 291.678C231.861 283.235 218.173 283.235 209.73 291.678L213.552 295.5ZM236.482 295.5C242.677 301.695 242.812 311.656 236.886 318.013L240.839 321.698C248.742 313.22 248.564 299.939 240.304 291.678L236.482 295.5ZM240.782 317.953L240.773 317.944L236.951 321.766L236.96 321.775L240.782 317.953ZM240.305 322.253L240.782 321.776L236.96 317.954L236.483 318.431L240.305 322.253ZM177.722 384.835L240.305 322.253L236.483 318.431L173.9 381.013L177.722 384.835ZM173.145 383.368L178.477 382.48L173.145 383.368ZM110.84 451.717L177.722 384.835L173.9 381.013L107.018 447.895L110.84 451.717ZM83.6107 399.449C84.3635 418.72 92.9326 437.632 107.018 451.717L110.84 447.895C97.6611 434.717 89.7082 417.074 89.0114 399.238L83.6107 399.449ZM102.957 348.766C89.7933 361.93 82.8577 380.178 83.6107 399.449L89.0114 399.238C88.3146 381.402 94.7294 364.638 106.779 352.588L102.957 348.766ZM153.64 329.42C134.368 328.667 116.121 335.603 102.957 348.766L106.779 352.588C118.828 340.539 135.592 334.124 153.429 334.821L153.64 329.42Z" fill="#1F2024"/>
        <path fill-rule="evenodd" clip-rule="evenodd" d="M222.422 332.492L233.127 321.787C226.714 325.299 218.505 324.339 213.074 318.908C209.697 315.531 208.049 311.08 208.129 306.655L204.295 310.489C204.341 316.221 206.55 321.94 210.923 326.314C214.19 329.58 218.208 331.639 222.422 332.492Z" fill="black" fill-opacity="0.16"/>
        <path d="M110.601 356.41C116.839 350.172 124.491 345.677 132.789 343.246M147.037 341.162C144.903 341.173 142.782 341.316 140.685 341.588L147.037 341.162Z" stroke="white" stroke-width="5.40488" stroke-linecap="round"/>
        <path fill-rule="evenodd" clip-rule="evenodd" d="M178.42 359.891C175.024 368.97 169.327 377.942 161.479 385.791C138.789 408.481 106.706 413.186 89.8197 396.301C89.6473 396.128 89.4771 395.954 89.3091 395.778C89.1158 397.855 89.0186 399.949 89.0199 402.052C89.0307 419.892 96.3088 437.186 108.931 449.808L203.999 354.74C203.913 354.654 203.826 354.568 203.739 354.482C195.507 358.553 186.728 360.385 178.42 359.891Z" fill="black" fill-opacity="0.16"/>
        <path d="M211.641 320.341C204.253 312.954 204.253 300.976 211.641 293.588" stroke="#1F2024" stroke-width="5.40488" stroke-linecap="round" stroke-linejoin="round"/>
        <path d="M230.75 312.698C233.916 309.531 233.916 304.398 230.75 301.232C227.584 298.066 222.45 298.066 219.284 301.232C216.118 304.398 216.118 309.531 219.284 312.698C222.45 315.864 227.584 315.864 230.75 312.698Z" fill="#E79834" stroke="#1F2024" stroke-width="5.40488" stroke-linejoin="round"/>
        <path d="M138.554 377.197C128.991 371.457 117.526 382.922 123.267 392.484" stroke="#1F2024" stroke-width="6.7561" stroke-linecap="round" stroke-linejoin="round"/>
        <path d="M122.427 392.6C116.275 394.461 112.915 394.508 107.14 392.123" stroke="#1F2024" stroke-width="5.40488" stroke-linecap="round" stroke-linejoin="round"/>
        <path d="M122.427 384.479C117.704 385.604 114.133 384.969 109.528 383.046" stroke="#1F2024" stroke-width="5.40488" stroke-linecap="round" stroke-linejoin="round"/>
        <path d="M162.44 353.311C156.7 343.748 168.165 332.283 177.728 338.023" stroke="#1F2024" stroke-width="6.7561" stroke-linecap="round" stroke-linejoin="round"/>
        <path d="M177.843 337.184C179.704 331.033 179.751 327.672 177.366 321.897" stroke="#1F2024" stroke-width="5.40488" stroke-linecap="round" stroke-linejoin="round"/>
        <path d="M169.722 337.183C170.847 332.461 170.212 328.889 168.289 324.285" stroke="#1F2024" stroke-width="5.40488" stroke-linecap="round" stroke-linejoin="round"/>
        <path d="M198.742 359.993L225.017 333.718C225.017 333.718 256.309 337.779 241.021 353.066C225.734 368.353 198.742 359.993 198.742 359.993Z" fill="black" fill-opacity="0.16"/>
        <path d="M121.35 427.83C125.571 423.609 125.571 416.764 121.35 412.543C117.128 408.321 110.284 408.321 106.063 412.543C101.841 416.764 101.841 423.609 106.063 427.83C110.284 432.052 117.128 432.052 121.35 427.83Z" fill="#E36776" fill-opacity="0.5"/>
    </g>
    <g clip-path="url(#clip1)">
        <g filter="url(#filter10_ii)">
            <path d="M316.29 127.801C319.352 119.386 328.657 115.047 337.072 118.11L458.966 162.476C467.381 165.539 471.72 174.843 468.657 183.258L431.685 284.837C428.623 293.252 419.318 297.591 410.903 294.528L289.009 250.162C280.594 247.1 276.255 237.794 279.318 229.38L316.29 127.801Z" fill="#ACACAE"/>
        </g>
        <path d="M316.29 127.801C319.352 119.386 328.657 115.047 337.072 118.11L458.966 162.476C467.381 165.539 471.72 174.843 468.657 183.258L431.685 284.837C428.623 293.252 419.318 297.591 410.903 294.528L289.009 250.162C280.594 247.1 276.255 237.794 279.318 229.38L316.29 127.801Z" stroke="#1F2024" stroke-width="5.40488"/>
        <g filter="url(#filter11_i)">
            <path d="M379.776 150.908C382.839 142.493 392.144 138.155 400.559 141.218L512.295 181.886C520.71 184.949 525.049 194.253 521.986 202.668L485.015 304.247C481.952 312.662 472.647 317.001 464.232 313.938L352.496 273.27C344.081 270.207 339.742 260.902 342.805 252.487L379.776 150.908Z" fill="#E2E2E2"/>
        </g>
        <path d="M379.776 150.908C382.839 142.493 392.144 138.155 400.559 141.218L512.295 181.886C520.71 184.949 525.049 194.253 521.986 202.668L485.015 304.247C481.952 312.662 472.647 317.001 464.232 313.938L352.496 273.27C344.081 270.207 339.742 260.902 342.805 252.487L379.776 150.908Z" stroke="#1F2024" stroke-width="5.40488"/>
        <path d="M465.66 167.788L489.785 176.569L408.018 290.602L383.893 281.821L465.66 167.788Z" fill="white" fill-opacity="0.5"/>
        <path d="M456.137 164.322L459.947 165.708L378.18 279.742L374.371 278.355L456.137 164.322Z" fill="white" fill-opacity="0.5"/>
        <g filter="url(#filter12_d)">
            <path d="M303.804 146.302C304.825 143.497 307.939 142.017 310.744 143.038L392.006 172.615C394.811 173.636 396.258 176.738 395.237 179.543L393.499 184.318C392.436 187.239 389.134 188.664 386.28 187.433L306.732 153.146C304.102 152.012 302.825 148.993 303.804 146.302Z" fill="#E2E2E2" stroke="#1F2024" stroke-width="5.40488"/>
            <path fill-rule="evenodd" clip-rule="evenodd" d="M442.161 190.87L463.111 198.495L475.174 202.886L524.059 220.678C526.864 221.699 528.31 224.801 527.289 227.606L515.273 260.619C514.252 263.424 511.151 264.87 508.346 263.85L452.477 243.515C449.672 242.494 448.226 239.392 449.247 236.587L453.868 223.889C454.889 221.084 453.444 217.984 450.639 216.963C447.834 215.942 444.732 217.387 443.711 220.192L439.09 232.89C438.069 235.695 434.967 237.142 432.162 236.121L376.294 215.787C373.489 214.766 372.042 211.664 373.063 208.859L385.079 175.846C386.1 173.041 389.202 171.594 392.007 172.615L442.161 190.87Z" fill="white"/>
            <path d="M442.161 190.87L443.085 188.331L442.161 190.87ZM392.007 172.615L392.931 170.076L392.007 172.615ZM464.035 195.956L443.085 188.331L441.236 193.41L462.187 201.035L464.035 195.956ZM462.187 201.035L474.25 205.426L476.098 200.347L464.035 195.956L462.187 201.035ZM474.25 205.426L523.134 223.218L524.983 218.139L476.098 200.347L474.25 205.426ZM524.749 226.681L512.733 259.695L517.812 261.543L529.828 228.53L524.749 226.681ZM512.733 259.695C512.223 261.097 510.672 261.82 509.27 261.309L507.421 266.389C511.629 267.92 516.281 265.75 517.812 261.543L512.733 259.695ZM509.27 261.309L453.402 240.975L451.553 246.054L507.421 266.389L509.27 261.309ZM453.402 240.975C452 240.465 451.276 238.914 451.787 237.512L446.708 235.663C445.176 239.87 447.346 244.523 451.553 246.054L453.402 240.975ZM451.787 237.512L456.408 224.814L451.329 222.965L446.708 235.663L451.787 237.512ZM441.629 233.815L446.25 221.117L441.171 219.268L436.55 231.966L441.629 233.815ZM431.238 238.66C435.445 240.191 440.097 238.022 441.629 233.815L436.55 231.966C436.039 233.368 434.488 234.091 433.086 233.581L431.238 238.66ZM375.37 218.326L431.238 238.66L433.086 233.581L377.218 213.247L375.37 218.326ZM370.524 207.935C368.993 212.142 371.162 216.794 375.37 218.326L377.218 213.247C375.816 212.736 375.093 211.185 375.603 209.783L370.524 207.935ZM382.54 174.921L370.524 207.935L375.603 209.783L387.619 176.77L382.54 174.921ZM443.085 188.331L392.931 170.076L391.082 175.155L441.236 193.41L443.085 188.331ZM387.619 176.77C388.129 175.367 389.68 174.645 391.082 175.155L392.931 170.076C388.723 168.545 384.071 170.713 382.54 174.921L387.619 176.77ZM451.563 214.423C447.355 212.891 442.703 215.061 441.171 219.268L446.25 221.117C446.761 219.715 448.312 218.991 449.714 219.502L451.563 214.423ZM456.408 224.814C457.94 220.607 455.77 215.954 451.563 214.423L449.714 219.502C451.117 220.012 451.84 221.563 451.329 222.965L456.408 224.814ZM523.134 223.218C524.536 223.728 525.26 225.278 524.749 226.681L529.828 228.53C531.36 224.322 529.191 219.671 524.983 218.139L523.134 223.218Z" fill="#1F2024"/>
            <path d="M393.388 184.622C393.899 183.219 395.45 182.496 396.852 183.006L437.483 197.795C438.886 198.305 439.609 199.856 439.099 201.259L430.78 224.114C430.27 225.516 428.719 226.24 427.316 225.729L386.685 210.94C385.283 210.43 384.559 208.879 385.07 207.477L393.388 184.622Z" fill="#776FE8"/>
            <path d="M419.073 191.094L434.309 196.639L413.985 220.877L398.747 215.331L419.073 191.094Z" fill="black" fill-opacity="0.16"/>
            <path d="M410.819 188.09L415.898 189.938L395.573 214.175L390.494 212.327L410.819 188.09Z" fill="white" fill-opacity="0.16"/>
            <path d="M469.572 212.351C470.083 210.948 471.633 210.224 473.036 210.735L513.668 225.524C515.07 226.034 515.793 227.585 515.282 228.988L506.964 251.843C506.453 253.245 504.903 253.968 503.501 253.458L462.869 238.669C461.466 238.159 460.743 236.608 461.253 235.206L469.572 212.351Z" fill="#FF4049"/>
            <path d="M495.256 218.822L510.494 224.368L490.168 248.605L474.931 243.059L495.256 218.822Z" fill="black" fill-opacity="0.16"/>
            <path d="M487.003 215.818L492.082 217.667L471.757 241.904L466.678 240.055L487.003 215.818Z" fill="white" fill-opacity="0.16"/>
        </g>
        <path d="M312.915 220.039C325.537 224.633 339.494 218.125 344.088 205.502C348.683 192.88 342.174 178.923 329.552 174.328C316.929 169.734 302.972 176.242 298.378 188.865C293.784 201.488 300.292 215.445 312.915 220.039Z" fill="black" fill-opacity="0.16"/>
        <g filter="url(#filter13_ii)">
            <path d="M314.821 212.824C327.444 217.418 341.401 210.91 345.995 198.287C350.589 185.665 344.081 171.708 331.459 167.114C318.836 162.519 304.879 169.028 300.285 181.65C295.691 194.273 302.199 208.23 314.821 212.824Z" fill="#E2E2E2"/>
        </g>
        <path d="M314.821 212.824C327.444 217.418 341.401 210.91 345.995 198.287C350.589 185.665 344.081 171.708 331.459 167.114C318.836 162.519 304.879 169.028 300.285 181.65C295.691 194.273 302.199 208.23 314.821 212.824Z" stroke="#1F2024" stroke-width="5.40488"/>
        <g filter="url(#filter14_ii)">
            <path d="M304.897 200.584C313.312 203.647 322.617 199.308 325.679 190.893C328.742 182.478 324.403 173.173 315.988 170.111C307.573 167.048 298.269 171.387 295.206 179.802C292.143 188.217 296.482 197.521 304.897 200.584Z" fill="#CAE9FA"/>
        </g>
        <path d="M304.897 200.584C313.312 203.647 322.617 199.308 325.679 190.893C328.742 182.478 324.403 173.173 315.988 170.111C307.573 167.048 298.269 171.387 295.206 179.802C292.143 188.217 296.482 197.521 304.897 200.584Z" stroke="#1F2024" stroke-width="5.40488"/>
        <path d="M450.858 255.866C453.663 256.887 455.158 260.019 453.804 262.679C448.165 273.759 437.916 279.915 416.22 272.018C394.524 264.122 390.629 252.818 393.432 240.705C394.106 237.797 397.264 236.36 400.069 237.381L450.858 255.866Z" fill="#4A4A4E" stroke="#1F2024" stroke-width="5.40488"/>
        <path d="M439.234 274.961C433.476 276.285 426.015 275.584 416.22 272.018C396.561 264.863 391.518 254.91 392.829 244.093C403.328 243.241 433.886 259.037 439.234 274.961Z" fill="#FF3979" stroke="#1F2024" stroke-width="5.40488"/>
        <path d="M406.993 242.058C407.376 241.006 408.54 240.463 409.592 240.846L421.019 245.005C422.072 245.388 422.613 246.552 422.231 247.603L420.151 253.318C419.13 256.123 416.028 257.569 413.223 256.548L408.144 254.7C405.339 253.679 403.893 250.577 404.914 247.772L406.993 242.058Z" fill="white" stroke="#1F2024" stroke-width="5.40488"/>
        <path d="M422.231 247.603C422.613 246.552 423.776 246.009 424.829 246.392L436.256 250.551C437.308 250.934 437.85 252.098 437.468 253.149L435.388 258.864C434.367 261.669 431.265 263.115 428.46 262.094L423.381 260.245C420.576 259.224 419.13 256.123 420.151 253.318L422.231 247.603Z" fill="white" stroke="#1F2024" stroke-width="5.40488"/>
        <path d="M531.203 68.7003L416.144 137.903L464.394 155.465L531.203 68.7003Z" fill="white" stroke="#1F2024" stroke-width="5.40488" stroke-linejoin="round"/>
        <mask id="mask0" style="mask-type:alpha" maskUnits="userSpaceOnUse" x="416" y="68" width="116" height="88">
            <path d="M531.203 68.7003L416.144 137.903L464.394 155.465L531.203 68.7003Z" fill="#C4C4C4"/>
        </mask>
        <g mask="url(#mask0)">
            <g filter="url(#filter15_i)">
                <path d="M420.818 127.039C414.583 147.35 431.324 164.466 440.474 170.485L466.528 143.675L447.496 109.052L420.818 127.039Z" fill="#9BCEF1"/>
            </g>
            <path d="M420.818 127.039C414.583 147.35 431.324 164.466 440.474 170.485L466.528 143.675L447.496 109.052L420.818 127.039Z" stroke="#1F2024" stroke-width="5.40488" stroke-linejoin="round"/>
            <g filter="url(#filter16_i)">
                <path d="M441.717 113.076C435.482 133.388 452.224 150.503 461.373 156.523L487.427 129.713L468.395 95.0896L441.717 113.076Z" fill="#FFFDD0"/>
            </g>
            <path d="M441.717 113.076C435.482 133.388 452.224 150.503 461.373 156.523L487.427 129.713L468.395 95.0896L441.717 113.076Z" stroke="#1F2024" stroke-width="5.40488" stroke-linejoin="round"/>
            <g filter="url(#filter17_i)">
                <path d="M462.616 99.1133C456.382 119.426 473.122 136.541 482.272 142.559L508.326 115.751L489.294 81.1267L462.616 99.1133Z" fill="#ACE5D7"/>
            </g>
            <path d="M462.616 99.1133C456.382 119.426 473.122 136.541 482.272 142.559L508.326 115.751L489.294 81.1267L462.616 99.1133Z" stroke="#1F2024" stroke-width="5.40488" stroke-linejoin="round"/>
            <g filter="url(#filter18_i)">
                <path d="M483.516 85.1513C477.28 105.464 494.021 122.579 503.172 128.597L529.226 101.789L510.193 67.1648L483.516 85.1513Z" fill="#F9E174"/>
            </g>
            <path d="M483.516 85.1513C477.28 105.464 494.021 122.579 503.172 128.597L529.226 101.789L510.193 67.1648L483.516 85.1513Z" stroke="#1F2024" stroke-width="5.40488" stroke-linejoin="round"/>
            <g filter="url(#filter19_i)">
                <path d="M504.414 71.1885C498.179 91.5007 514.921 108.616 524.07 114.635L550.125 87.8257L531.092 53.2019L504.414 71.1885Z" fill="#FF8BE6"/>
            </g>
            <path d="M504.414 71.1885C498.179 91.5007 514.921 108.616 524.07 114.635L550.125 87.8257L531.092 53.2019L504.414 71.1885Z" stroke="#1F2024" stroke-width="5.40488" stroke-linejoin="round"/>
            <path d="M531.203 68.7003L416.144 137.903L464.394 155.465L531.203 68.7003Z" stroke="#1F2024" stroke-width="5.40488" stroke-linejoin="round"/>
            <g filter="url(#filter20_i)">
                <path d="M402.753 139.14C403.774 136.335 406.875 134.888 409.68 135.909L469.357 157.63C472.162 158.651 473.609 161.753 472.588 164.558L471.663 167.098L401.828 141.68L402.753 139.14Z" fill="#ADA3EE"/>
            </g>
            <path d="M402.753 139.14C403.774 136.335 406.875 134.888 409.68 135.909L469.357 157.63C472.162 158.651 473.609 161.753 472.588 164.558L471.663 167.098L401.828 141.68L402.753 139.14Z" stroke="#1F2024" stroke-width="5.40488"/>
        </g>
    </g>
    <g clip-path="url(#clip2)">
        <g filter="url(#filter21_ii)">
            <path d="M375.339 542.236C381.383 536.193 391.182 536.193 397.225 542.237L484.77 629.781C490.814 635.825 490.814 645.624 484.77 651.667L411.816 724.621C405.772 730.665 395.973 730.665 389.93 724.621L302.385 637.077C296.341 631.033 296.342 621.234 302.385 615.191L375.339 542.236Z" fill="#8A7ED9"/>
        </g>
        <path d="M375.339 542.236C381.383 536.193 391.182 536.193 397.225 542.237L484.77 629.781C490.814 635.825 490.814 645.624 484.77 651.667L411.816 724.621C405.772 730.665 395.973 730.665 389.93 724.621L302.385 637.077C296.341 631.033 296.342 621.234 302.385 615.191L375.339 542.236Z" stroke="#1F2024" stroke-width="5.15862"/>
        <g filter="url(#filter22_i)">
            <path d="M420.936 587.833C426.979 581.789 436.778 581.789 442.822 587.833L523.071 668.082C529.115 674.126 529.115 683.925 523.071 689.968L450.117 762.922C444.073 768.966 434.274 768.966 428.231 762.922L347.981 682.673C341.938 676.629 341.938 666.83 347.982 660.787L420.936 587.833Z" fill="#ADA3EE"/>
        </g>
        <path d="M420.936 587.833C426.979 581.789 436.778 581.789 442.822 587.833L523.071 668.082C529.115 674.126 529.115 683.925 523.071 689.968L450.117 762.922C444.073 768.966 434.274 768.966 428.231 762.922L347.981 682.673C341.938 676.629 341.938 666.83 347.982 660.787L420.936 587.833Z" stroke="#1F2024" stroke-width="5.15862"/>
        <path d="M488.418 637.077L505.745 654.403L389.019 720.062L371.692 702.735L488.418 637.077Z" fill="white" fill-opacity="0.5"/>
        <path d="M481.579 630.237L484.314 632.973L367.589 698.632L364.853 695.896L481.579 630.237Z" fill="white" fill-opacity="0.5"/>
        <g filter="url(#filter23_ddi)">
            <path d="M414.552 619.75C418.581 615.721 425.114 615.721 429.143 619.75L491.153 681.761C495.183 685.79 495.183 692.323 491.154 696.352L476.563 710.943C472.534 714.972 466.001 714.971 461.972 710.942L399.961 648.932C395.932 644.903 395.932 638.37 399.961 634.341L414.552 619.75Z" fill="#1F2024"/>
            <path d="M418.2 652.579C422.229 656.609 428.762 656.609 432.791 652.579C436.82 648.55 436.82 642.018 432.791 637.989C428.762 633.96 422.229 633.96 418.2 637.989C414.171 642.018 414.171 648.55 418.2 652.579Z" fill="white"/>
            <path d="M458.325 692.704C462.354 696.733 468.887 696.733 472.916 692.704C476.945 688.675 476.945 682.142 472.916 678.113C468.887 674.084 462.354 674.084 458.325 678.113C454.296 682.142 454.296 688.675 458.325 692.704Z" fill="white"/>
        </g>
        <g filter="url(#filter24_d)">
            <g filter="url(#filter25_i)">
                <path d="M344.79 573.698C352.849 565.639 365.913 565.639 373.972 573.698L381.267 580.993C389.325 589.051 389.326 602.116 381.267 610.175C373.209 618.233 360.144 618.233 352.085 610.175L344.79 602.879C336.732 594.821 336.732 581.756 344.79 573.698Z" fill="#ADA3EE"/>
            </g>
            <path d="M344.79 573.698C352.849 565.639 365.913 565.639 373.972 573.698L381.267 580.993C389.325 589.051 389.326 602.116 381.267 610.175C373.209 618.233 360.144 618.233 352.085 610.175L344.79 602.879C336.732 594.821 336.732 581.756 344.79 573.698Z" stroke="#1F2024" stroke-width="5.15862"/>
            <g filter="url(#filter26_ii)">
                <path d="M344.79 573.698C352.849 565.639 365.913 565.639 373.972 573.698C382.03 581.756 382.03 594.821 373.971 602.88C365.913 610.938 352.848 610.938 344.79 602.879C336.732 594.821 336.732 581.756 344.79 573.698Z" fill="#8A7ED9"/>
            </g>
            <path d="M344.79 573.698C352.849 565.639 365.913 565.639 373.972 573.698C382.03 581.756 382.03 594.821 373.971 602.88C365.913 610.938 352.848 610.938 344.79 602.879C336.732 594.821 336.732 581.756 344.79 573.698Z" stroke="#1F2024" stroke-width="5.15862"/>
            <path d="M349.806 606.071L331.567 624.31" stroke="#1F2024" stroke-width="5.15862"/>
            <g filter="url(#filter27_ii)">
                <path d="M336.887 638.823C337.137 638.129 336.93 637.31 336.363 636.742L329.745 630.125L344.879 626.892C345.533 626.753 346.026 626.265 346.172 625.614C346.318 624.962 346.096 624.247 345.588 623.739L334.254 612.405C333.737 611.888 333.006 611.668 332.348 611.829L304.86 618.538C304.222 618.693 303.746 619.185 303.612 619.829C303.476 620.475 303.7 621.178 304.201 621.679L310.6 628.078L292.018 635.02C291.187 635.331 290.756 636.212 290.99 637.119C291.088 637.497 291.288 637.833 291.556 638.102C291.931 638.477 292.439 638.715 292.974 638.73L335.216 639.935C335.979 639.957 336.637 639.52 336.887 638.823Z" fill="#EDB146"/>
            </g>
            <path d="M336.887 638.823C337.137 638.129 336.93 637.31 336.363 636.742L329.745 630.125L344.879 626.892C345.533 626.753 346.026 626.265 346.172 625.614C346.318 624.962 346.096 624.247 345.588 623.739L334.254 612.405C333.737 611.888 333.006 611.668 332.348 611.829L304.86 618.538C304.222 618.693 303.746 619.185 303.612 619.829C303.476 620.475 303.7 621.178 304.201 621.679L310.6 628.078L292.018 635.02C291.187 635.331 290.756 636.212 290.99 637.119C291.088 637.497 291.288 637.833 291.556 638.102C291.931 638.477 292.439 638.715 292.974 638.73L335.216 639.935C335.979 639.957 336.637 639.52 336.887 638.823Z" stroke="#1F2024" stroke-width="5.15862"/>
        </g>
        <path d="M443.734 703.647L407.257 667.17C403.228 663.141 396.695 663.141 392.666 667.17L392.666 667.17C388.637 671.2 388.637 677.732 392.666 681.761L429.143 718.238C433.172 722.267 439.705 722.267 443.734 718.238L443.734 718.238C447.763 714.209 447.763 707.677 443.734 703.647Z" fill="#1F2024"/>
        <path d="M405.433 665.347L399.961 659.875L385.371 674.466L390.842 679.937L405.433 665.347Z" fill="#CAE9FA"/>
        <path d="M414.552 674.465L409.08 668.994L394.489 683.584L399.961 689.056L414.552 674.465Z" fill="#CAE9FA"/>
        <path d="M423.671 683.585L418.2 678.113L403.609 692.704L409.08 698.176L423.671 683.585Z" fill="#CAE9FA"/>
        <path d="M432.791 692.704L427.319 687.233L412.728 701.824L418.2 707.295L432.791 692.704Z" fill="#CAE9FA"/>
        <path d="M441.91 701.824L436.438 696.352L421.847 710.943L427.319 716.414L441.91 701.824Z" fill="#CAE9FA"/>
        <path d="M451.029 710.943L445.558 705.471L430.967 720.062L436.438 725.534L451.029 710.943Z" fill="#CAE9FA"/>
        <path d="M443.734 703.647L407.257 667.17C403.228 663.141 396.695 663.141 392.666 667.17L392.666 667.17C388.637 671.2 388.637 677.732 392.666 681.761L429.143 718.238C433.172 722.267 439.705 722.267 443.734 718.238L443.734 718.238C447.763 714.209 447.763 707.677 443.734 703.647Z" stroke="#1F2024" stroke-width="3.86897"/>
        <g filter="url(#filter28_ii)">
            <path fill-rule="evenodd" clip-rule="evenodd" d="M400.418 545.429L507.346 652.357C519.262 627.633 514.968 597.056 494.462 576.551L476.224 558.312C455.719 537.807 425.142 533.513 400.418 545.429Z" fill="#EB0D18"/>
        </g>
        <path d="M400.418 545.428L399.298 543.105C398.545 543.468 398.015 544.173 397.875 544.997C397.735 545.821 398.003 546.661 398.594 547.252L400.418 545.428ZM507.347 652.357L505.523 654.181C506.114 654.772 506.955 655.04 507.778 654.9C508.602 654.76 509.307 654.23 509.67 653.477L507.347 652.357ZM398.594 547.252L505.523 654.181L509.17 650.533L402.242 543.605L398.594 547.252ZM492.639 578.374C512.345 598.081 516.478 627.47 505.023 651.237L509.67 653.477C522.047 627.796 517.591 596.031 496.286 574.727L492.639 578.374ZM474.4 560.136L492.639 578.374L496.286 574.727L478.048 556.488L474.4 560.136ZM401.538 547.752C425.305 536.297 454.694 540.43 474.4 560.136L478.048 556.488C456.744 535.184 424.979 530.728 399.298 543.105L401.538 547.752Z" fill="#1F2024"/>
        <g filter="url(#filter29_ii)">
            <path fill-rule="evenodd" clip-rule="evenodd" d="M418.656 563.666L525.584 670.595C537.501 645.871 533.206 615.294 512.701 594.789L494.462 576.55C473.957 556.045 443.38 551.75 418.656 563.666Z" fill="#FF3979"/>
        </g>
        <path d="M418.656 563.667L417.536 561.343C416.783 561.706 416.253 562.411 416.113 563.235C415.973 564.059 416.241 564.9 416.832 565.491L418.656 563.667ZM525.584 670.595L523.76 672.419C524.351 673.01 525.192 673.278 526.016 673.139C526.84 672.998 527.545 672.468 527.908 671.715L525.584 670.595ZM416.832 565.491L523.76 672.419L527.408 668.771L420.479 561.843L416.832 565.491ZM510.877 596.613C530.583 616.319 534.715 645.708 523.261 669.476L527.908 671.715C540.285 646.034 535.829 614.27 514.525 592.965L510.877 596.613ZM492.638 578.374L510.877 596.613L514.525 592.965L496.286 574.727L492.638 578.374ZM419.775 565.99C443.543 554.535 472.932 558.668 492.638 578.374L496.286 574.727C474.982 553.422 443.217 548.966 417.536 561.343L419.775 565.99Z" fill="#1F2024"/>
        <g filter="url(#filter30_ii)">
            <path fill-rule="evenodd" clip-rule="evenodd" d="M436.894 581.905L543.823 688.834C555.739 664.11 551.445 633.533 530.939 613.027L512.701 594.789C492.195 574.283 461.619 569.989 436.894 581.905Z" fill="#EB0D18"/>
        </g>
        <path d="M436.894 581.905L435.775 579.582C435.022 579.945 434.491 580.65 434.352 581.474C434.212 582.298 434.48 583.138 435.071 583.729L436.894 581.905ZM543.823 688.834L542 690.658C542.591 691.249 543.431 691.517 544.255 691.377C545.079 691.237 545.784 690.707 546.147 689.954L543.823 688.834ZM435.071 583.729L542 690.658L545.647 687.011L438.718 580.082L435.071 583.729ZM529.115 614.851C548.822 634.558 552.955 663.947 541.5 687.714L546.147 689.954C558.524 664.273 554.068 632.508 532.763 611.204L529.115 614.851ZM510.877 596.613L529.115 614.851L532.763 611.204L514.525 592.965L510.877 596.613ZM438.014 584.229C461.782 572.774 491.171 576.907 510.877 596.613L514.525 592.965C493.22 571.661 461.456 567.205 435.775 579.582L438.014 584.229Z" fill="#1F2024"/>
        <g filter="url(#filter31_ii)">
            <path fill-rule="evenodd" clip-rule="evenodd" d="M455.016 600.027L478.011 623.022C488.805 620.654 500.543 623.667 508.937 632.061L520.205 643.33C533.299 656.424 533.3 677.655 520.205 690.75L484.64 726.315C474.121 736.834 466.678 751.24 472.576 759.615L472.46 759.731L473.827 761.099L482.491 769.762L492.066 779.337C488.918 773.427 489.327 763.002 494.289 757.964L538.118 714.135C564.056 688.197 564.056 646.144 538.118 620.207L530.823 612.911C510.318 592.406 479.741 588.111 455.016 600.027Z" fill="#FF3979"/>
        </g>
        <path d="M478.011 623.022L476.187 624.846C476.808 625.467 477.704 625.729 478.563 625.541L478.011 623.022ZM455.016 600.027L453.896 597.704C453.144 598.067 452.613 598.772 452.474 599.596C452.333 600.419 452.601 601.26 453.193 601.851L455.016 600.027ZM472.576 759.615L474.4 761.438C475.287 760.552 475.408 759.155 474.685 758.13L472.576 759.615ZM472.46 759.731L470.635 757.907C469.628 758.914 469.628 760.547 470.636 761.555L472.46 759.731ZM492.066 779.337L490.242 781.161C491.146 782.065 492.574 782.171 493.601 781.41C494.628 780.65 494.944 779.252 494.342 778.125L492.066 779.337ZM494.289 757.964L492.465 756.141C492.461 756.145 492.456 756.15 492.452 756.154L494.289 757.964ZM479.835 621.198L456.84 598.204L453.193 601.851L476.187 624.846L479.835 621.198ZM510.761 630.238C501.719 621.196 489.075 617.954 477.458 620.503L478.563 625.541C488.535 623.354 499.366 626.139 507.113 633.885L510.761 630.238ZM522.029 641.506L510.761 630.238L507.113 633.885L518.381 645.154L522.029 641.506ZM522.029 692.574C536.131 678.472 536.131 655.608 522.029 641.506L518.381 645.154C530.469 657.241 530.468 676.838 518.381 688.926L522.029 692.574ZM486.464 728.138L522.029 692.574L518.381 688.926L482.816 724.491L486.464 728.138ZM474.685 758.13C472.491 755.016 472.528 750.397 474.839 744.746C477.115 739.181 481.376 733.227 486.464 728.138L482.816 724.491C477.385 729.922 472.665 736.431 470.064 742.793C467.499 749.067 466.762 755.84 470.467 761.1L474.685 758.13ZM474.283 761.555L474.4 761.438L470.752 757.79L470.635 757.907L474.283 761.555ZM475.652 759.275L474.284 757.907L470.636 761.555L472.004 762.922L475.652 759.275ZM484.315 767.938L475.652 759.275L472.004 762.922L480.667 771.586L484.315 767.938ZM493.89 777.513L484.315 767.938L480.667 771.586L490.242 781.161L493.89 777.513ZM492.452 756.154C489.403 759.25 487.924 763.777 487.566 768.111C487.206 772.459 487.932 777.062 489.789 780.55L494.342 778.125C493.052 775.702 492.409 772.137 492.707 768.536C493.006 764.919 494.214 761.716 496.126 759.774L492.452 756.154ZM536.295 712.311L492.465 756.141L496.112 759.788L539.942 715.958L536.295 712.311ZM536.295 622.031C561.225 646.961 561.225 687.381 536.295 712.311L539.942 715.958C566.887 689.013 566.887 645.328 539.942 618.383L536.295 622.031ZM528.999 614.735L536.295 622.031L539.942 618.383L532.647 611.088L528.999 614.735ZM456.136 602.351C479.903 590.896 509.293 595.029 528.999 614.735L532.647 611.088C511.343 589.783 479.578 585.327 453.896 597.704L456.136 602.351Z" fill="#1F2024"/>
    </g>
    <defs>
        <filter id="filter0_ii" x="91.7588" y="362.709" width="200.59" height="208.589" filterUnits="userSpaceOnUse" color-interpolation-filters="sRGB">
            <feFlood flood-opacity="0" result="BackgroundImageFix"/>
            <feBlend mode="normal" in="SourceGraphic" in2="BackgroundImageFix" result="shape"/>
            <feColorMatrix in="SourceAlpha" type="matrix" values="0 0 0 0 0 0 0 0 0 0 0 0 0 0 0 0 0 0 127 0" result="hardAlpha"/>
            <feOffset dy="-10.8098"/>
            <feGaussianBlur stdDeviation="2"/>
            <feComposite in2="hardAlpha" operator="arithmetic" k2="-1" k3="1"/>
            <feColorMatrix type="matrix" values="0 0 0 0 0 0 0 0 0 0 0 0 0 0 0 0 0 0 0.25 0"/>
            <feBlend mode="normal" in2="shape" result="effect1_innerShadow"/>
            <feColorMatrix in="SourceAlpha" type="matrix" values="0 0 0 0 0 0 0 0 0 0 0 0 0 0 0 0 0 0 127 0" result="hardAlpha"/>
            <feOffset dy="10.8098"/>
            <feGaussianBlur stdDeviation="2"/>
            <feComposite in2="hardAlpha" operator="arithmetic" k2="-1" k3="1"/>
            <feColorMatrix type="matrix" values="0 0 0 0 1 0 0 0 0 1 0 0 0 0 1 0 0 0 0.25 0"/>
            <feBlend mode="normal" in2="effect1_innerShadow" result="effect2_innerShadow"/>
        </filter>
        <filter id="filter1_i" x="135.532" y="326.58" width="196.946" height="196.946" filterUnits="userSpaceOnUse" color-interpolation-filters="sRGB">
            <feFlood flood-opacity="0" result="BackgroundImageFix"/>
            <feBlend mode="normal" in="SourceGraphic" in2="BackgroundImageFix" result="shape"/>
            <feColorMatrix in="SourceAlpha" type="matrix" values="0 0 0 0 0 0 0 0 0 0 0 0 0 0 0 0 0 0 127 0" result="hardAlpha"/>
            <feOffset dx="-16.2146" dy="5.40488"/>
            <feGaussianBlur stdDeviation="2"/>
            <feComposite in2="hardAlpha" operator="arithmetic" k2="-1" k3="1"/>
            <feColorMatrix type="matrix" values="0 0 0 0 1 0 0 0 0 1 0 0 0 0 1 0 0 0 0.25 0"/>
            <feBlend mode="normal" in2="shape" result="effect1_innerShadow"/>
        </filter>
        <filter id="filter2_d" x="109.919" y="336.13" width="178.996" height="168.104" filterUnits="userSpaceOnUse" color-interpolation-filters="sRGB">
            <feFlood flood-opacity="0" result="BackgroundImageFix"/>
            <feColorMatrix in="SourceAlpha" type="matrix" values="0 0 0 0 0 0 0 0 0 0 0 0 0 0 0 0 0 0 127 0" result="hardAlpha"/>
            <feOffset dx="-2.70244" dy="2.70244"/>
            <feGaussianBlur stdDeviation="2"/>
            <feColorMatrix type="matrix" values="0 0 0 0 0 0 0 0 0 0 0 0 0 0 0 0 0 0 0.25 0"/>
            <feBlend mode="normal" in2="BackgroundImageFix" result="effect1_dropShadow"/>
            <feBlend mode="normal" in="SourceGraphic" in2="effect1_dropShadow" result="shape"/>
        </filter>
        <filter id="filter3_i" x="213.614" y="404.746" width="86.4456" height="86.4453" filterUnits="userSpaceOnUse" color-interpolation-filters="sRGB">
            <feFlood flood-opacity="0" result="BackgroundImageFix"/>
            <feBlend mode="normal" in="SourceGraphic" in2="BackgroundImageFix" result="shape"/>
            <feColorMatrix in="SourceAlpha" type="matrix" values="0 0 0 0 0 0 0 0 0 0 0 0 0 0 0 0 0 0 127 0" result="hardAlpha"/>
            <feOffset dx="-10.8098" dy="5.40488"/>
            <feGaussianBlur stdDeviation="2"/>
            <feComposite in2="hardAlpha" operator="arithmetic" k2="-1" k3="1"/>
            <feColorMatrix type="matrix" values="0 0 0 0 1 0 0 0 0 1 0 0 0 0 1 0 0 0 0.25 0"/>
            <feBlend mode="normal" in2="shape" result="effect1_innerShadow"/>
        </filter>
        <filter id="filter4_ii" x="44.4944" y="327.08" width="69.7638" height="136.272" filterUnits="userSpaceOnUse" color-interpolation-filters="sRGB">
            <feFlood flood-opacity="0" result="BackgroundImageFix"/>
            <feBlend mode="normal" in="SourceGraphic" in2="BackgroundImageFix" result="shape"/>
            <feColorMatrix in="SourceAlpha" type="matrix" values="0 0 0 0 0 0 0 0 0 0 0 0 0 0 0 0 0 0 127 0" result="hardAlpha"/>
            <feOffset dx="10.8098"/>
            <feGaussianBlur stdDeviation="2"/>
            <feComposite in2="hardAlpha" operator="arithmetic" k2="-1" k3="1"/>
            <feColorMatrix type="matrix" values="0 0 0 0 0 0 0 0 0 0 0 0 0 0 0 0 0 0 0.25 0"/>
            <feBlend mode="normal" in2="shape" result="effect1_innerShadow"/>
            <feColorMatrix in="SourceAlpha" type="matrix" values="0 0 0 0 0 0 0 0 0 0 0 0 0 0 0 0 0 0 127 0" result="hardAlpha"/>
            <feOffset dx="-10.8098" dy="5.40488"/>
            <feGaussianBlur stdDeviation="2"/>
            <feComposite in2="hardAlpha" operator="arithmetic" k2="-1" k3="1"/>
            <feColorMatrix type="matrix" values="0 0 0 0 1 0 0 0 0 1 0 0 0 0 1 0 0 0 0.25 0"/>
            <feBlend mode="normal" in2="effect1_innerShadow" result="effect2_innerShadow"/>
        </filter>
        <filter id="filter5_i" x="49.8707" y="378.2" width="47.6565" height="19.6274" filterUnits="userSpaceOnUse" color-interpolation-filters="sRGB">
            <feFlood flood-opacity="0" result="BackgroundImageFix"/>
            <feBlend mode="normal" in="SourceGraphic" in2="BackgroundImageFix" result="shape"/>
            <feColorMatrix in="SourceAlpha" type="matrix" values="0 0 0 0 0 0 0 0 0 0 0 0 0 0 0 0 0 0 127 0" result="hardAlpha"/>
            <feOffset dx="10.8098"/>
            <feGaussianBlur stdDeviation="2"/>
            <feComposite in2="hardAlpha" operator="arithmetic" k2="-1" k3="1"/>
            <feColorMatrix type="matrix" values="0 0 0 0 0 0 0 0 0 0 0 0 0 0 0 0 0 0 0.25 0"/>
            <feBlend mode="normal" in2="shape" result="effect1_innerShadow"/>
        </filter>
        <filter id="filter6_i" x="70.8678" y="423.456" width="32.078" height="27.4624" filterUnits="userSpaceOnUse" color-interpolation-filters="sRGB">
            <feFlood flood-opacity="0" result="BackgroundImageFix"/>
            <feBlend mode="normal" in="SourceGraphic" in2="BackgroundImageFix" result="shape"/>
            <feColorMatrix in="SourceAlpha" type="matrix" values="0 0 0 0 0 0 0 0 0 0 0 0 0 0 0 0 0 0 127 0" result="hardAlpha"/>
            <feOffset dx="10.8098"/>
            <feGaussianBlur stdDeviation="2"/>
            <feComposite in2="hardAlpha" operator="arithmetic" k2="-1" k3="1"/>
            <feColorMatrix type="matrix" values="0 0 0 0 0 0 0 0 0 0 0 0 0 0 0 0 0 0 0.25 0"/>
            <feBlend mode="normal" in2="shape" result="effect1_innerShadow"/>
        </filter>
        <filter id="filter7_i" x="76.5215" y="326.474" width="48.6896" height="34.1787" filterUnits="userSpaceOnUse" color-interpolation-filters="sRGB">
            <feFlood flood-opacity="0" result="BackgroundImageFix"/>
            <feBlend mode="normal" in="SourceGraphic" in2="BackgroundImageFix" result="shape"/>
            <feColorMatrix in="SourceAlpha" type="matrix" values="0 0 0 0 0 0 0 0 0 0 0 0 0 0 0 0 0 0 127 0" result="hardAlpha"/>
            <feOffset dx="10.8098"/>
            <feGaussianBlur stdDeviation="2"/>
            <feComposite in2="hardAlpha" operator="arithmetic" k2="-1" k3="1"/>
            <feColorMatrix type="matrix" values="0 0 0 0 0 0 0 0 0 0 0 0 0 0 0 0 0 0 0.25 0"/>
            <feBlend mode="normal" in2="shape" result="effect1_innerShadow"/>
        </filter>
        <filter id="filter8_i" x="49.1115" y="401.969" width="46.3396" height="23.4282" filterUnits="userSpaceOnUse" color-interpolation-filters="sRGB">
            <feFlood flood-opacity="0" result="BackgroundImageFix"/>
            <feBlend mode="normal" in="SourceGraphic" in2="BackgroundImageFix" result="shape"/>
            <feColorMatrix in="SourceAlpha" type="matrix" values="0 0 0 0 0 0 0 0 0 0 0 0 0 0 0 0 0 0 127 0" result="hardAlpha"/>
            <feOffset dx="10.8098"/>
            <feGaussianBlur stdDeviation="2"/>
            <feComposite in2="hardAlpha" operator="arithmetic" k2="-1" k3="1"/>
            <feColorMatrix type="matrix" values="0 0 0 0 0 0 0 0 0 0 0 0 0 0 0 0 0 0 0.25 0"/>
            <feBlend mode="normal" in2="shape" result="effect1_innerShadow"/>
        </filter>
        <filter id="filter9_ii" x="82.2576" y="288.048" width="165.677" height="165.758" filterUnits="userSpaceOnUse" color-interpolation-filters="sRGB">
            <feFlood flood-opacity="0" result="BackgroundImageFix"/>
            <feBlend mode="normal" in="SourceGraphic" in2="BackgroundImageFix" result="shape"/>
            <feColorMatrix in="SourceAlpha" type="matrix" values="0 0 0 0 0 0 0 0 0 0 0 0 0 0 0 0 0 0 127 0" result="hardAlpha"/>
            <feOffset dx="10.8098"/>
            <feGaussianBlur stdDeviation="2"/>
            <feComposite in2="hardAlpha" operator="arithmetic" k2="-1" k3="1"/>
            <feColorMatrix type="matrix" values="0 0 0 0 0 0 0 0 0 0 0 0 0 0 0 0 0 0 0.25 0"/>
            <feBlend mode="normal" in2="shape" result="effect1_innerShadow"/>
            <feColorMatrix in="SourceAlpha" type="matrix" values="0 0 0 0 0 0 0 0 0 0 0 0 0 0 0 0 0 0 127 0" result="hardAlpha"/>
            <feOffset dx="-10.8098" dy="5.40488"/>
            <feGaussianBlur stdDeviation="2"/>
            <feComposite in2="hardAlpha" operator="arithmetic" k2="-1" k3="1"/>
            <feColorMatrix type="matrix" values="0 0 0 0 1 0 0 0 0 1 0 0 0 0 1 0 0 0 0.25 0"/>
            <feBlend mode="normal" in2="effect1_innerShadow" result="effect2_innerShadow"/>
        </filter>
        <filter id="filter10_ii" x="278.336" y="113.128" width="191.304" height="186.382" filterUnits="userSpaceOnUse" color-interpolation-filters="sRGB">
            <feFlood flood-opacity="0" result="BackgroundImageFix"/>
            <feBlend mode="normal" in="SourceGraphic" in2="BackgroundImageFix" result="shape"/>
            <feColorMatrix in="SourceAlpha" type="matrix" values="0 0 0 0 0 0 0 0 0 0 0 0 0 0 0 0 0 0 127 0" result="hardAlpha"/>
            <feOffset dy="-10.8098"/>
            <feGaussianBlur stdDeviation="2"/>
            <feComposite in2="hardAlpha" operator="arithmetic" k2="-1" k3="1"/>
            <feColorMatrix type="matrix" values="0 0 0 0 0 0 0 0 0 0 0 0 0 0 0 0 0 0 0.25 0"/>
            <feBlend mode="normal" in2="shape" result="effect1_innerShadow"/>
            <feColorMatrix in="SourceAlpha" type="matrix" values="0 0 0 0 0 0 0 0 0 0 0 0 0 0 0 0 0 0 127 0" result="hardAlpha"/>
            <feOffset dy="10.8098"/>
            <feGaussianBlur stdDeviation="2"/>
            <feComposite in2="hardAlpha" operator="arithmetic" k2="-1" k3="1"/>
            <feColorMatrix type="matrix" values="0 0 0 0 1 0 0 0 0 1 0 0 0 0 1 0 0 0 0.25 0"/>
            <feBlend mode="normal" in2="effect1_innerShadow" result="effect2_innerShadow"/>
        </filter>
        <filter id="filter11_i" x="337.822" y="140.235" width="185.146" height="178.686" filterUnits="userSpaceOnUse" color-interpolation-filters="sRGB">
            <feFlood flood-opacity="0" result="BackgroundImageFix"/>
            <feBlend mode="normal" in="SourceGraphic" in2="BackgroundImageFix" result="shape"/>
            <feColorMatrix in="SourceAlpha" type="matrix" values="0 0 0 0 0 0 0 0 0 0 0 0 0 0 0 0 0 0 127 0" result="hardAlpha"/>
            <feOffset dx="-16.2146" dy="5.40488"/>
            <feGaussianBlur stdDeviation="2"/>
            <feComposite in2="hardAlpha" operator="arithmetic" k2="-1" k3="1"/>
            <feColorMatrix type="matrix" values="0 0 0 0 1 0 0 0 0 1 0 0 0 0 1 0 0 0 0.25 0"/>
            <feBlend mode="normal" in2="shape" result="effect1_innerShadow"/>
        </filter>
        <filter id="filter12_d" x="294.071" y="138.713" width="237.547" height="134.869" filterUnits="userSpaceOnUse" color-interpolation-filters="sRGB">
            <feFlood flood-opacity="0" result="BackgroundImageFix"/>
            <feColorMatrix in="SourceAlpha" type="matrix" values="0 0 0 0 0 0 0 0 0 0 0 0 0 0 0 0 0 0 127 0" result="hardAlpha"/>
            <feOffset dx="-2.70244" dy="2.70244"/>
            <feGaussianBlur stdDeviation="2"/>
            <feColorMatrix type="matrix" values="0 0 0 0 0 0 0 0 0 0 0 0 0 0 0 0 0 0 0.25 0"/>
            <feBlend mode="normal" in2="BackgroundImageFix" result="effect1_dropShadow"/>
            <feBlend mode="normal" in="SourceGraphic" in2="effect1_dropShadow" result="shape"/>
        </filter>
        <filter id="filter13_ii" x="294.811" y="165.64" width="56.6572" height="52.6572" filterUnits="userSpaceOnUse" color-interpolation-filters="sRGB">
            <feFlood flood-opacity="0" result="BackgroundImageFix"/>
            <feBlend mode="normal" in="SourceGraphic" in2="BackgroundImageFix" result="shape"/>
            <feColorMatrix in="SourceAlpha" type="matrix" values="0 0 0 0 0 0 0 0 0 0 0 0 0 0 0 0 0 0 127 0" result="hardAlpha"/>
            <feOffset dx="10.8098"/>
            <feGaussianBlur stdDeviation="2"/>
            <feComposite in2="hardAlpha" operator="arithmetic" k2="-1" k3="1"/>
            <feColorMatrix type="matrix" values="0 0 0 0 0 0 0 0 0 0 0 0 0 0 0 0 0 0 0.25 0"/>
            <feBlend mode="normal" in2="shape" result="effect1_innerShadow"/>
            <feColorMatrix in="SourceAlpha" type="matrix" values="0 0 0 0 0 0 0 0 0 0 0 0 0 0 0 0 0 0 127 0" result="hardAlpha"/>
            <feOffset dx="-16.2146" dy="5.40488"/>
            <feGaussianBlur stdDeviation="2"/>
            <feComposite in2="hardAlpha" operator="arithmetic" k2="-1" k3="1"/>
            <feColorMatrix type="matrix" values="0 0 0 0 1 0 0 0 0 1 0 0 0 0 1 0 0 0 0.25 0"/>
            <feBlend mode="normal" in2="effect1_innerShadow" result="effect2_innerShadow"/>
        </filter>
        <filter id="filter14_ii" x="290.224" y="169.128" width="40.438" height="36.438" filterUnits="userSpaceOnUse" color-interpolation-filters="sRGB">
            <feFlood flood-opacity="0" result="BackgroundImageFix"/>
            <feBlend mode="normal" in="SourceGraphic" in2="BackgroundImageFix" result="shape"/>
            <feColorMatrix in="SourceAlpha" type="matrix" values="0 0 0 0 0 0 0 0 0 0 0 0 0 0 0 0 0 0 127 0" result="hardAlpha"/>
            <feOffset dx="10.8098"/>
            <feGaussianBlur stdDeviation="2"/>
            <feComposite in2="hardAlpha" operator="arithmetic" k2="-1" k3="1"/>
            <feColorMatrix type="matrix" values="0 0 0 0 0 0 0 0 0 0 0 0 0 0 0 0 0 0 0.25 0"/>
            <feBlend mode="normal" in2="shape" result="effect1_innerShadow"/>
            <feColorMatrix in="SourceAlpha" type="matrix" values="0 0 0 0 0 0 0 0 0 0 0 0 0 0 0 0 0 0 127 0" result="hardAlpha"/>
            <feOffset dx="-16.2146" dy="5.40488"/>
            <feGaussianBlur stdDeviation="2"/>
            <feComposite in2="hardAlpha" operator="arithmetic" k2="-1" k3="1"/>
            <feColorMatrix type="matrix" values="0 0 0 0 1 0 0 0 0 1 0 0 0 0 1 0 0 0 0.25 0"/>
            <feBlend mode="normal" in2="effect1_innerShadow" result="effect2_innerShadow"/>
        </filter>
        <filter id="filter15_i" x="419.46" y="105.052" width="51.0675" height="65.4326" filterUnits="userSpaceOnUse" color-interpolation-filters="sRGB">
            <feFlood flood-opacity="0" result="BackgroundImageFix"/>
            <feBlend mode="normal" in="SourceGraphic" in2="BackgroundImageFix" result="shape"/>
            <feColorMatrix in="SourceAlpha" type="matrix" values="0 0 0 0 0 0 0 0 0 0 0 0 0 0 0 0 0 0 127 0" result="hardAlpha"/>
            <feOffset dx="8.10732" dy="-5.40488"/>
            <feGaussianBlur stdDeviation="2"/>
            <feComposite in2="hardAlpha" operator="arithmetic" k2="-1" k3="1"/>
            <feColorMatrix type="matrix" values="0 0 0 0 0 0 0 0 0 0 0 0 0 0 0 0 0 0 0.25 0"/>
            <feBlend mode="normal" in2="shape" result="effect1_innerShadow"/>
        </filter>
        <filter id="filter16_i" x="440.359" y="91.0898" width="51.0685" height="65.4326" filterUnits="userSpaceOnUse" color-interpolation-filters="sRGB">
            <feFlood flood-opacity="0" result="BackgroundImageFix"/>
            <feBlend mode="normal" in="SourceGraphic" in2="BackgroundImageFix" result="shape"/>
            <feColorMatrix in="SourceAlpha" type="matrix" values="0 0 0 0 0 0 0 0 0 0 0 0 0 0 0 0 0 0 127 0" result="hardAlpha"/>
            <feOffset dx="8.10732" dy="-5.40488"/>
            <feGaussianBlur stdDeviation="2"/>
            <feComposite in2="hardAlpha" operator="arithmetic" k2="-1" k3="1"/>
            <feColorMatrix type="matrix" values="0 0 0 0 0 0 0 0 0 0 0 0 0 0 0 0 0 0 0.25 0"/>
            <feBlend mode="normal" in2="shape" result="effect1_innerShadow"/>
        </filter>
        <filter id="filter17_i" x="461.258" y="77.127" width="51.0682" height="65.4321" filterUnits="userSpaceOnUse" color-interpolation-filters="sRGB">
            <feFlood flood-opacity="0" result="BackgroundImageFix"/>
            <feBlend mode="normal" in="SourceGraphic" in2="BackgroundImageFix" result="shape"/>
            <feColorMatrix in="SourceAlpha" type="matrix" values="0 0 0 0 0 0 0 0 0 0 0 0 0 0 0 0 0 0 127 0" result="hardAlpha"/>
            <feOffset dx="8.10732" dy="-5.40488"/>
            <feGaussianBlur stdDeviation="2"/>
            <feComposite in2="hardAlpha" operator="arithmetic" k2="-1" k3="1"/>
            <feColorMatrix type="matrix" values="0 0 0 0 0 0 0 0 0 0 0 0 0 0 0 0 0 0 0.25 0"/>
            <feBlend mode="normal" in2="shape" result="effect1_innerShadow"/>
        </filter>
        <filter id="filter18_i" x="482.157" y="63.165" width="51.0686" height="65.4321" filterUnits="userSpaceOnUse" color-interpolation-filters="sRGB">
            <feFlood flood-opacity="0" result="BackgroundImageFix"/>
            <feBlend mode="normal" in="SourceGraphic" in2="BackgroundImageFix" result="shape"/>
            <feColorMatrix in="SourceAlpha" type="matrix" values="0 0 0 0 0 0 0 0 0 0 0 0 0 0 0 0 0 0 127 0" result="hardAlpha"/>
            <feOffset dx="8.10732" dy="-5.40488"/>
            <feGaussianBlur stdDeviation="2"/>
            <feComposite in2="hardAlpha" operator="arithmetic" k2="-1" k3="1"/>
            <feColorMatrix type="matrix" values="0 0 0 0 0 0 0 0 0 0 0 0 0 0 0 0 0 0 0.25 0"/>
            <feBlend mode="normal" in2="shape" result="effect1_innerShadow"/>
        </filter>
        <filter id="filter19_i" x="503.056" y="49.2021" width="51.0685" height="65.4326" filterUnits="userSpaceOnUse" color-interpolation-filters="sRGB">
            <feFlood flood-opacity="0" result="BackgroundImageFix"/>
            <feBlend mode="normal" in="SourceGraphic" in2="BackgroundImageFix" result="shape"/>
            <feColorMatrix in="SourceAlpha" type="matrix" values="0 0 0 0 0 0 0 0 0 0 0 0 0 0 0 0 0 0 127 0" result="hardAlpha"/>
            <feOffset dx="8.10732" dy="-5.40488"/>
            <feGaussianBlur stdDeviation="2"/>
            <feComposite in2="hardAlpha" operator="arithmetic" k2="-1" k3="1"/>
            <feColorMatrix type="matrix" values="0 0 0 0 0 0 0 0 0 0 0 0 0 0 0 0 0 0 0.25 0"/>
            <feBlend mode="normal" in2="shape" result="effect1_innerShadow"/>
        </filter>
        <filter id="filter20_i" x="397.828" y="135.582" width="75.0872" height="35.5161" filterUnits="userSpaceOnUse" color-interpolation-filters="sRGB">
            <feFlood flood-opacity="0" result="BackgroundImageFix"/>
            <feBlend mode="normal" in="SourceGraphic" in2="BackgroundImageFix" result="shape"/>
            <feColorMatrix in="SourceAlpha" type="matrix" values="0 0 0 0 0 0 0 0 0 0 0 0 0 0 0 0 0 0 127 0" result="hardAlpha"/>
            <feOffset dx="-16.2146" dy="5.40488"/>
            <feGaussianBlur stdDeviation="2"/>
            <feComposite in2="hardAlpha" operator="arithmetic" k2="-1" k3="1"/>
            <feColorMatrix type="matrix" values="0 0 0 0 1 0 0 0 0 1 0 0 0 0 1 0 0 0 0.25 0"/>
            <feBlend mode="normal" in2="shape" result="effect1_innerShadow"/>
        </filter>
        <filter id="filter21_ii" x="297.852" y="533.704" width="191.45" height="199.451" filterUnits="userSpaceOnUse" color-interpolation-filters="sRGB">
            <feFlood flood-opacity="0" result="BackgroundImageFix"/>
            <feBlend mode="normal" in="SourceGraphic" in2="BackgroundImageFix" result="shape"/>
            <feColorMatrix in="SourceAlpha" type="matrix" values="0 0 0 0 0 0 0 0 0 0 0 0 0 0 0 0 0 0 127 0" result="hardAlpha"/>
            <feOffset dy="-10.3172"/>
            <feGaussianBlur stdDeviation="2"/>
            <feComposite in2="hardAlpha" operator="arithmetic" k2="-1" k3="1"/>
            <feColorMatrix type="matrix" values="0 0 0 0 0 0 0 0 0 0 0 0 0 0 0 0 0 0 0.25 0"/>
            <feBlend mode="normal" in2="shape" result="effect1_innerShadow"/>
            <feColorMatrix in="SourceAlpha" type="matrix" values="0 0 0 0 0 0 0 0 0 0 0 0 0 0 0 0 0 0 127 0" result="hardAlpha"/>
            <feOffset dy="10.3172"/>
            <feGaussianBlur stdDeviation="2"/>
            <feComposite in2="hardAlpha" operator="arithmetic" k2="-1" k3="1"/>
            <feColorMatrix type="matrix" values="0 0 0 0 1 0 0 0 0 1 0 0 0 0 1 0 0 0 0.25 0"/>
            <feBlend mode="normal" in2="effect1_innerShadow" result="effect2_innerShadow"/>
        </filter>
        <filter id="filter22_i" x="339.449" y="583.3" width="188.155" height="188.155" filterUnits="userSpaceOnUse" color-interpolation-filters="sRGB">
            <feFlood flood-opacity="0" result="BackgroundImageFix"/>
            <feBlend mode="normal" in="SourceGraphic" in2="BackgroundImageFix" result="shape"/>
            <feColorMatrix in="SourceAlpha" type="matrix" values="0 0 0 0 0 0 0 0 0 0 0 0 0 0 0 0 0 0 127 0" result="hardAlpha"/>
            <feOffset dx="-15.4759" dy="5.15862"/>
            <feGaussianBlur stdDeviation="2"/>
            <feComposite in2="hardAlpha" operator="arithmetic" k2="-1" k3="1"/>
            <feColorMatrix type="matrix" values="0 0 0 0 1 0 0 0 0 1 0 0 0 0 1 0 0 0 0.25 0"/>
            <feBlend mode="normal" in2="shape" result="effect1_innerShadow"/>
        </filter>
        <filter id="filter23_ddi" x="390.36" y="612.728" width="110.395" height="105.236" filterUnits="userSpaceOnUse" color-interpolation-filters="sRGB">
            <feFlood flood-opacity="0" result="BackgroundImageFix"/>
            <feColorMatrix in="SourceAlpha" type="matrix" values="0 0 0 0 0 0 0 0 0 0 0 0 0 0 0 0 0 0 127 0" result="hardAlpha"/>
            <feOffset dx="-2.57931"/>
            <feGaussianBlur stdDeviation="2"/>
            <feColorMatrix type="matrix" values="0 0 0 0 1 0 0 0 0 1 0 0 0 0 1 0 0 0 0.25 0"/>
            <feBlend mode="normal" in2="BackgroundImageFix" result="effect1_dropShadow"/>
            <feColorMatrix in="SourceAlpha" type="matrix" values="0 0 0 0 0 0 0 0 0 0 0 0 0 0 0 0 0 0 127 0" result="hardAlpha"/>
            <feOffset dx="2.57931"/>
            <feGaussianBlur stdDeviation="2"/>
            <feColorMatrix type="matrix" values="0 0 0 0 0 0 0 0 0 0 0 0 0 0 0 0 0 0 0.25 0"/>
            <feBlend mode="normal" in2="effect1_dropShadow" result="effect2_dropShadow"/>
            <feBlend mode="normal" in="SourceGraphic" in2="effect2_dropShadow" result="shape"/>
            <feColorMatrix in="SourceAlpha" type="matrix" values="0 0 0 0 0 0 0 0 0 0 0 0 0 0 0 0 0 0 127 0" result="hardAlpha"/>
            <feOffset dx="-2.57931"/>
            <feGaussianBlur stdDeviation="2"/>
            <feComposite in2="hardAlpha" operator="arithmetic" k2="-1" k3="1"/>
            <feColorMatrix type="matrix" values="0 0 0 0 0 0 0 0 0 0 0 0 0 0 0 0 0 0 0.25 0"/>
            <feBlend mode="normal" in2="shape" result="effect3_innerShadow"/>
        </filter>
        <filter id="filter24_d" x="281.77" y="563.654" width="109.541" height="85.4399" filterUnits="userSpaceOnUse" color-interpolation-filters="sRGB">
            <feFlood flood-opacity="0" result="BackgroundImageFix"/>
            <feColorMatrix in="SourceAlpha" type="matrix" values="0 0 0 0 0 0 0 0 0 0 0 0 0 0 0 0 0 0 127 0" result="hardAlpha"/>
            <feOffset dx="-2.57931" dy="2.57931"/>
            <feGaussianBlur stdDeviation="2"/>
            <feColorMatrix type="matrix" values="0 0 0 0 0 0 0 0 0 0 0 0 0 0 0 0 0 0 0.25 0"/>
            <feBlend mode="normal" in2="BackgroundImageFix" result="effect1_dropShadow"/>
            <feBlend mode="normal" in="SourceGraphic" in2="effect1_dropShadow" result="shape"/>
        </filter>
        <filter id="filter25_i" x="334.746" y="567.654" width="52.5646" height="52.5649" filterUnits="userSpaceOnUse" color-interpolation-filters="sRGB">
            <feFlood flood-opacity="0" result="BackgroundImageFix"/>
            <feBlend mode="normal" in="SourceGraphic" in2="BackgroundImageFix" result="shape"/>
            <feColorMatrix in="SourceAlpha" type="matrix" values="0 0 0 0 0 0 0 0 0 0 0 0 0 0 0 0 0 0 127 0" result="hardAlpha"/>
            <feOffset dx="-15.4759" dy="5.15862"/>
            <feGaussianBlur stdDeviation="2"/>
            <feComposite in2="hardAlpha" operator="arithmetic" k2="-1" k3="1"/>
            <feColorMatrix type="matrix" values="0 0 0 0 1 0 0 0 0 1 0 0 0 0 1 0 0 0 0.25 0"/>
            <feBlend mode="normal" in2="shape" result="effect1_innerShadow"/>
        </filter>
        <filter id="filter26_ii" x="338.746" y="563.654" width="41.2692" height="49.2695" filterUnits="userSpaceOnUse" color-interpolation-filters="sRGB">
            <feFlood flood-opacity="0" result="BackgroundImageFix"/>
            <feBlend mode="normal" in="SourceGraphic" in2="BackgroundImageFix" result="shape"/>
            <feColorMatrix in="SourceAlpha" type="matrix" values="0 0 0 0 0 0 0 0 0 0 0 0 0 0 0 0 0 0 127 0" result="hardAlpha"/>
            <feOffset dy="-10.3172"/>
            <feGaussianBlur stdDeviation="2"/>
            <feComposite in2="hardAlpha" operator="arithmetic" k2="-1" k3="1"/>
            <feColorMatrix type="matrix" values="0 0 0 0 0 0 0 0 0 0 0 0 0 0 0 0 0 0 0.25 0"/>
            <feBlend mode="normal" in2="shape" result="effect1_innerShadow"/>
            <feColorMatrix in="SourceAlpha" type="matrix" values="0 0 0 0 0 0 0 0 0 0 0 0 0 0 0 0 0 0 127 0" result="hardAlpha"/>
            <feOffset dy="10.3172"/>
            <feGaussianBlur stdDeviation="2"/>
            <feComposite in2="hardAlpha" operator="arithmetic" k2="-1" k3="1"/>
            <feColorMatrix type="matrix" values="0 0 0 0 1 0 0 0 0 1 0 0 0 0 1 0 0 0 0.25 0"/>
            <feBlend mode="normal" in2="effect1_innerShadow" result="effect2_innerShadow"/>
        </filter>
        <filter id="filter27_ii" x="290.926" y="607.777" width="55.2899" height="36.1587" filterUnits="userSpaceOnUse" color-interpolation-filters="sRGB">
            <feFlood flood-opacity="0" result="BackgroundImageFix"/>
            <feBlend mode="normal" in="SourceGraphic" in2="BackgroundImageFix" result="shape"/>
            <feColorMatrix in="SourceAlpha" type="matrix" values="0 0 0 0 0 0 0 0 0 0 0 0 0 0 0 0 0 0 127 0" result="hardAlpha"/>
            <feOffset dy="-10.3172"/>
            <feGaussianBlur stdDeviation="2"/>
            <feComposite in2="hardAlpha" operator="arithmetic" k2="-1" k3="1"/>
            <feColorMatrix type="matrix" values="0 0 0 0 0 0 0 0 0 0 0 0 0 0 0 0 0 0 0.25 0"/>
            <feBlend mode="normal" in2="shape" result="effect1_innerShadow"/>
            <feColorMatrix in="SourceAlpha" type="matrix" values="0 0 0 0 0 0 0 0 0 0 0 0 0 0 0 0 0 0 127 0" result="hardAlpha"/>
            <feOffset dy="10.3172"/>
            <feGaussianBlur stdDeviation="2"/>
            <feComposite in2="hardAlpha" operator="arithmetic" k2="-1" k3="1"/>
            <feColorMatrix type="matrix" values="0 0 0 0 1 0 0 0 0 1 0 0 0 0 1 0 0 0 0.25 0"/>
            <feBlend mode="normal" in2="effect1_innerShadow" result="effect2_innerShadow"/>
        </filter>
        <filter id="filter28_ii" x="396.418" y="538.859" width="121.498" height="117.498" filterUnits="userSpaceOnUse" color-interpolation-filters="sRGB">
            <feFlood flood-opacity="0" result="BackgroundImageFix"/>
            <feBlend mode="normal" in="SourceGraphic" in2="BackgroundImageFix" result="shape"/>
            <feColorMatrix in="SourceAlpha" type="matrix" values="0 0 0 0 0 0 0 0 0 0 0 0 0 0 0 0 0 0 127 0" result="hardAlpha"/>
            <feOffset dx="10.3172"/>
            <feGaussianBlur stdDeviation="2"/>
            <feComposite in2="hardAlpha" operator="arithmetic" k2="-1" k3="1"/>
            <feColorMatrix type="matrix" values="0 0 0 0 0 0 0 0 0 0 0 0 0 0 0 0 0 0 0.25 0"/>
            <feBlend mode="normal" in2="shape" result="effect1_innerShadow"/>
            <feColorMatrix in="SourceAlpha" type="matrix" values="0 0 0 0 0 0 0 0 0 0 0 0 0 0 0 0 0 0 127 0" result="hardAlpha"/>
            <feOffset dx="-15.4759" dy="5.15862"/>
            <feGaussianBlur stdDeviation="2"/>
            <feComposite in2="hardAlpha" operator="arithmetic" k2="-1" k3="1"/>
            <feColorMatrix type="matrix" values="0 0 0 0 1 0 0 0 0 1 0 0 0 0 1 0 0 0 0.25 0"/>
            <feBlend mode="normal" in2="effect1_innerShadow" result="effect2_innerShadow"/>
        </filter>
        <filter id="filter29_ii" x="414.656" y="557.097" width="121.498" height="117.498" filterUnits="userSpaceOnUse" color-interpolation-filters="sRGB">
            <feFlood flood-opacity="0" result="BackgroundImageFix"/>
            <feBlend mode="normal" in="SourceGraphic" in2="BackgroundImageFix" result="shape"/>
            <feColorMatrix in="SourceAlpha" type="matrix" values="0 0 0 0 0 0 0 0 0 0 0 0 0 0 0 0 0 0 127 0" result="hardAlpha"/>
            <feOffset dx="10.3172"/>
            <feGaussianBlur stdDeviation="2"/>
            <feComposite in2="hardAlpha" operator="arithmetic" k2="-1" k3="1"/>
            <feColorMatrix type="matrix" values="0 0 0 0 0 0 0 0 0 0 0 0 0 0 0 0 0 0 0.25 0"/>
            <feBlend mode="normal" in2="shape" result="effect1_innerShadow"/>
            <feColorMatrix in="SourceAlpha" type="matrix" values="0 0 0 0 0 0 0 0 0 0 0 0 0 0 0 0 0 0 127 0" result="hardAlpha"/>
            <feOffset dx="-15.4759" dy="5.15862"/>
            <feGaussianBlur stdDeviation="2"/>
            <feComposite in2="hardAlpha" operator="arithmetic" k2="-1" k3="1"/>
            <feColorMatrix type="matrix" values="0 0 0 0 1 0 0 0 0 1 0 0 0 0 1 0 0 0 0.25 0"/>
            <feBlend mode="normal" in2="effect1_innerShadow" result="effect2_innerShadow"/>
        </filter>
        <filter id="filter30_ii" x="432.894" y="575.336" width="121.498" height="117.498" filterUnits="userSpaceOnUse" color-interpolation-filters="sRGB">
            <feFlood flood-opacity="0" result="BackgroundImageFix"/>
            <feBlend mode="normal" in="SourceGraphic" in2="BackgroundImageFix" result="shape"/>
            <feColorMatrix in="SourceAlpha" type="matrix" values="0 0 0 0 0 0 0 0 0 0 0 0 0 0 0 0 0 0 127 0" result="hardAlpha"/>
            <feOffset dx="10.3172"/>
            <feGaussianBlur stdDeviation="2"/>
            <feComposite in2="hardAlpha" operator="arithmetic" k2="-1" k3="1"/>
            <feColorMatrix type="matrix" values="0 0 0 0 0 0 0 0 0 0 0 0 0 0 0 0 0 0 0.25 0"/>
            <feBlend mode="normal" in2="shape" result="effect1_innerShadow"/>
            <feColorMatrix in="SourceAlpha" type="matrix" values="0 0 0 0 0 0 0 0 0 0 0 0 0 0 0 0 0 0 127 0" result="hardAlpha"/>
            <feOffset dx="-15.4759" dy="5.15862"/>
            <feGaussianBlur stdDeviation="2"/>
            <feComposite in2="hardAlpha" operator="arithmetic" k2="-1" k3="1"/>
            <feColorMatrix type="matrix" values="0 0 0 0 1 0 0 0 0 1 0 0 0 0 1 0 0 0 0.25 0"/>
            <feBlend mode="normal" in2="effect1_innerShadow" result="effect2_innerShadow"/>
        </filter>
        <filter id="filter31_ii" x="451.016" y="593.458" width="110.555" height="189.879" filterUnits="userSpaceOnUse" color-interpolation-filters="sRGB">
            <feFlood flood-opacity="0" result="BackgroundImageFix"/>
            <feBlend mode="normal" in="SourceGraphic" in2="BackgroundImageFix" result="shape"/>
            <feColorMatrix in="SourceAlpha" type="matrix" values="0 0 0 0 0 0 0 0 0 0 0 0 0 0 0 0 0 0 127 0" result="hardAlpha"/>
            <feOffset dx="10.3172"/>
            <feGaussianBlur stdDeviation="2"/>
            <feComposite in2="hardAlpha" operator="arithmetic" k2="-1" k3="1"/>
            <feColorMatrix type="matrix" values="0 0 0 0 0 0 0 0 0 0 0 0 0 0 0 0 0 0 0.25 0"/>
            <feBlend mode="normal" in2="shape" result="effect1_innerShadow"/>
            <feColorMatrix in="SourceAlpha" type="matrix" values="0 0 0 0 0 0 0 0 0 0 0 0 0 0 0 0 0 0 127 0" result="hardAlpha"/>
            <feOffset dx="-15.4759" dy="5.15862"/>
            <feGaussianBlur stdDeviation="2"/>
            <feComposite in2="hardAlpha" operator="arithmetic" k2="-1" k3="1"/>
            <feColorMatrix type="matrix" values="0 0 0 0 1 0 0 0 0 1 0 0 0 0 1 0 0 0 0.25 0"/>
            <feBlend mode="normal" in2="effect1_innerShadow" result="effect2_innerShadow"/>
        </filter>
        <clipPath id="clip0">
            <rect width="246" height="275" fill="white" transform="translate(0 398.948) rotate(-45)"/>
        </clipPath>
        <clipPath id="clip1">
            <rect width="247" height="277" fill="white" transform="translate(350.74) rotate(20)"/>
        </clipPath>
        <clipPath id="clip2">
            <rect width="262" height="213" fill="white" transform="translate(425.614 479) rotate(45)"/>
        </clipPath>
    </defs>
</svg>
