<svg width="482" height="644" viewBox="0 0 482 644" fill="none" xmlns="http://www.w3.org/2000/svg">
    <path d="M61.7697 163.359H45.6877V137.774C45.6877 135.825 45.1597 134.241 44.1038 133.023C43.1291 131.804 41.4641 131.195 39.1086 131.195H20.5899V163.359H4.50785V78.0757H37.1593C41.5453 78.0757 45.4034 78.6849 48.7335 79.9032C52.0636 81.1215 54.8252 82.8272 57.0182 85.0202C59.2924 87.132 60.9981 89.6093 62.1352 92.4521C63.3535 95.2949 63.9627 98.3407 63.9627 101.59V104.514C63.9627 108.006 63.0287 111.296 61.1605 114.382C59.2924 117.387 56.409 119.702 52.5103 121.327V123.52C55.3531 123.845 57.5868 124.941 59.2112 126.809C60.9169 128.677 61.7697 131.033 61.7697 133.876V163.359ZM20.5899 115.844H35.941C39.8396 115.844 42.8043 114.951 44.8348 113.164C46.8654 111.296 47.8807 108.697 47.8807 105.366V103.904C47.8807 101.062 46.8654 98.625 44.8348 96.5944C42.8043 94.4826 39.8396 93.4267 35.941 93.4267H20.5899V115.844Z" fill="#22223F"/>
    <path d="M141.364 133.876C141.364 138.911 140.511 143.379 138.806 147.277C137.1 151.095 134.785 154.344 131.861 157.024C128.937 159.623 125.566 161.613 121.749 162.994C118.013 164.375 114.074 165.065 109.931 165.065C105.789 165.065 101.809 164.375 97.9914 162.994C94.2552 161.613 90.9251 159.623 88.0011 157.024C85.0771 154.344 82.7622 151.095 81.0566 147.277C79.3509 143.379 78.498 138.911 78.498 133.876V132.414C78.498 127.459 79.3509 123.073 81.0566 119.255C82.7622 115.357 85.0771 112.067 88.0011 109.387C90.9251 106.707 94.2552 104.676 97.9914 103.295C101.809 101.914 105.789 101.224 109.931 101.224C114.074 101.224 118.013 101.914 121.749 103.295C125.566 104.676 128.937 106.707 131.861 109.387C134.785 112.067 137.1 115.357 138.806 119.255C140.511 123.073 141.364 127.459 141.364 132.414V133.876ZM109.931 150.445C112.124 150.445 114.195 150.079 116.145 149.348C118.094 148.617 119.8 147.562 121.262 146.181C122.724 144.8 123.861 143.135 124.673 141.186C125.566 139.155 126.013 136.881 126.013 134.363V131.926C126.013 129.408 125.566 127.175 124.673 125.225C123.861 123.195 122.724 121.489 121.262 120.108C119.8 118.728 118.094 117.672 116.145 116.941C114.195 116.21 112.124 115.844 109.931 115.844C107.738 115.844 105.667 116.21 103.718 116.941C101.768 117.672 100.063 118.728 98.6006 120.108C97.1386 121.489 95.9609 123.195 95.0674 125.225C94.2552 127.175 93.8491 129.408 93.8491 131.926V134.363C93.8491 136.881 94.2552 139.155 95.0674 141.186C95.9609 143.135 97.1386 144.8 98.6006 146.181C100.063 147.562 101.768 148.617 103.718 149.348C105.667 150.079 107.738 150.445 109.931 150.445Z" fill="#22223F"/>
    <path d="M44.2256 265.345C42.6012 269.163 40.327 271.884 37.403 273.508C34.479 275.051 31.0676 275.823 27.1689 275.823C23.5139 275.823 20.062 275.133 16.8131 273.752C13.6454 272.371 10.8432 270.34 8.40653 267.66C5.96985 264.98 4.02051 261.731 2.55851 257.913C1.17773 254.096 0.487335 249.751 0.487335 244.877V242.928C0.487335 238.136 1.17773 233.831 2.55851 230.013C3.93929 226.196 5.80741 222.947 8.16286 220.267C10.5183 217.586 13.2393 215.556 16.3257 214.175C19.4934 212.713 22.8641 211.982 26.4379 211.982C30.7427 211.982 34.1947 212.713 36.7938 214.175C39.4741 215.637 41.5859 217.911 43.1291 220.998H45.3222V213.688H60.6732V255.842C60.6732 258.279 61.7697 259.497 63.9627 259.497H66.2776V274.117H55.7999C53.0383 274.117 50.7641 273.305 48.9772 271.681C47.2715 270.056 46.4187 267.944 46.4187 265.345H44.2256ZM30.5803 261.203C35.0475 261.203 38.6213 259.741 41.3016 256.817C43.982 253.812 45.3222 249.751 45.3222 244.633V243.171C45.3222 238.054 43.982 234.034 41.3016 231.11C38.6213 228.105 35.0475 226.602 30.5803 226.602C26.113 226.602 22.5392 228.105 19.8589 231.11C17.1786 234.034 15.8384 238.054 15.8384 243.171V244.633C15.8384 249.751 17.1786 253.812 19.8589 256.817C22.5392 259.741 26.113 261.203 30.5803 261.203Z" fill="#22223F"/>
    <path d="M125.526 265.345H123.333C122.683 266.726 121.871 268.066 120.896 269.366C120.003 270.584 118.784 271.681 117.241 272.655C115.779 273.63 113.992 274.402 111.88 274.97C109.85 275.539 107.373 275.823 104.449 275.823C100.712 275.823 97.2198 275.173 93.9709 273.874C90.8033 272.493 88.0011 270.503 85.5644 267.904C83.2089 265.223 81.3408 261.974 79.9601 258.157C78.6605 254.34 78.0107 249.954 78.0107 244.999V242.806C78.0107 237.933 78.7011 233.587 80.0819 229.77C81.5439 225.952 83.4932 222.744 85.9299 220.145C88.4478 217.465 91.3312 215.434 94.5801 214.053C97.9102 212.672 101.403 211.982 105.058 211.982C109.931 211.982 113.789 212.916 116.632 214.784C119.475 216.571 121.708 219.13 123.333 222.46H125.526V188.834H140.877V274.117H125.526V265.345ZM109.444 261.203C114.236 261.203 118.094 259.7 121.018 256.695C124.023 253.609 125.526 249.588 125.526 244.633V243.171C125.526 238.217 124.023 234.237 121.018 231.232C118.094 228.145 114.236 226.602 109.444 226.602C104.652 226.602 100.753 228.105 97.7478 231.11C94.8238 234.034 93.3618 238.054 93.3618 243.171V244.633C93.3618 249.751 94.8238 253.812 97.7478 256.817C100.753 259.741 104.652 261.203 109.444 261.203Z" fill="#22223F"/>
    <path d="M65.7902 384.875H50.4392V342.477C50.4392 340.771 49.9924 339.512 49.099 338.7C48.2868 337.807 47.1903 337.36 45.8095 337.36C44.185 337.36 42.8855 337.847 41.9108 338.822C41.0174 339.797 40.5706 341.259 40.5706 343.208V384.875H25.2196V342.477C25.2196 340.771 24.7323 339.512 23.7576 338.7C22.8641 337.807 21.7676 337.36 20.4681 337.36C19.0061 337.36 17.7877 337.847 16.8131 338.822C15.8384 339.797 15.3511 341.259 15.3511 343.208V384.875H0V324.446H15.3511V330.294H17.5441C18.0314 328.101 19.1279 326.314 20.8336 324.933C22.6205 323.471 24.9353 322.74 27.7781 322.74C30.4584 322.74 32.7327 323.471 34.6008 324.933C36.4689 326.314 37.7279 328.101 38.3776 330.294H40.5706C41.2204 328.101 42.5606 326.314 44.5912 324.933C46.7029 323.471 49.3021 322.74 52.3885 322.74C56.4496 322.74 59.6985 324.121 62.1352 326.882C64.5719 329.563 65.7902 333.299 65.7902 338.091V384.875Z" fill="#22223F"/>
    <path d="M121.262 376.103C119.637 379.921 117.363 382.642 114.439 384.266C111.515 385.809 108.104 386.581 104.205 386.581C100.55 386.581 97.098 385.89 93.8491 384.51C90.6814 383.129 87.8792 381.098 85.4426 378.418C83.0059 375.738 81.0566 372.489 79.5946 368.671C78.2138 364.854 77.5234 360.508 77.5234 355.635V353.686C77.5234 348.894 78.2138 344.589 79.5946 340.771C80.9753 336.954 82.8435 333.705 85.1989 331.025C87.5544 328.344 90.2753 326.314 93.3618 324.933C96.5294 323.471 99.9002 322.74 103.474 322.74C107.779 322.74 111.231 323.471 113.83 324.933C116.51 326.395 118.622 328.669 120.165 331.756H122.358V324.446H137.709V366.6C137.709 369.037 138.806 370.255 140.999 370.255H143.314V384.875H132.836C130.074 384.875 127.8 384.063 126.013 382.439C124.308 380.814 123.455 378.702 123.455 376.103H121.262ZM107.616 371.961C112.084 371.961 115.657 370.499 118.338 367.575C121.018 364.57 122.358 360.508 122.358 355.391V353.929C122.358 348.812 121.018 344.792 118.338 341.868C115.657 338.863 112.084 337.36 107.616 337.36C103.149 337.36 99.5753 338.863 96.8949 341.868C94.2146 344.792 92.8744 348.812 92.8744 353.929V355.391C92.8744 360.508 94.2146 364.57 96.8949 367.575C99.5753 370.499 103.149 371.961 107.616 371.961Z" fill="#22223F"/>
    <path d="M17.3004 520H1.94934V435.204H17.3004V443.976H19.4934C21.1178 440.646 23.4733 438.087 26.5598 436.3C29.6462 434.432 33.5855 433.498 38.3776 433.498C41.9514 433.498 45.3222 434.188 48.4898 435.569C51.7387 436.95 54.5409 438.98 56.8964 441.661C59.333 444.26 61.2418 447.468 62.6225 451.286C64.0845 455.103 64.8156 459.449 64.8156 464.322V466.515C64.8156 471.469 64.1252 475.855 62.7444 479.673C61.3636 483.49 59.4955 486.739 57.14 489.42C54.7846 492.019 51.9824 494.009 48.7335 495.389C45.5658 496.689 42.1139 497.339 38.3776 497.339C35.6161 497.339 33.22 497.055 31.1894 496.486C29.1589 495.917 27.372 495.146 25.8288 494.171C24.3667 493.196 23.1078 492.1 22.0519 490.882C21.0772 489.582 20.2244 488.242 19.4934 486.861H17.3004V520ZM33.3824 482.719C38.1746 482.719 42.0326 481.257 44.9567 478.333C47.9619 475.328 49.4645 471.266 49.4645 466.149V464.687C49.4645 459.57 47.9619 455.55 44.9567 452.626C42.0326 449.621 38.1746 448.118 33.3824 448.118C28.5903 448.118 24.6916 449.661 21.6864 452.748C18.7624 455.753 17.3004 459.733 17.3004 464.687V466.149C17.3004 471.104 18.7624 475.124 21.6864 478.211C24.6916 481.216 28.5903 482.719 33.3824 482.719Z" fill="#22223F"/>
    <path d="M61.7697 157.821H45.6877V132.236C45.6877 130.287 45.1597 128.703 44.1038 127.485C43.1291 126.267 41.4641 125.657 39.1086 125.657H20.5899V157.821H4.50785V72.5378H37.1593C41.5453 72.5378 45.4034 73.147 48.7335 74.3653C52.0636 75.5837 54.8252 77.2894 57.0182 79.4824C59.2924 81.5942 60.9981 84.0714 62.1352 86.9142C63.3535 89.757 63.9627 92.8029 63.9627 96.0518V98.9758C63.9627 102.468 63.0287 105.758 61.1605 108.844C59.2924 111.85 56.409 114.164 52.5103 115.789V117.982C55.3531 118.307 57.5868 119.403 59.2112 121.271C60.9169 123.139 61.7697 125.495 61.7697 128.338V157.821ZM20.5899 110.306H35.941C39.8396 110.306 42.8043 109.413 44.8348 107.626C46.8654 105.758 47.8807 103.159 47.8807 99.8286V98.3666C47.8807 95.5238 46.8654 93.0871 44.8348 91.0566C42.8043 88.9448 39.8396 87.8889 35.941 87.8889H20.5899V110.306Z" fill="white"/>
    <path d="M141.364 128.338C141.364 133.373 140.511 137.841 138.806 141.739C137.1 145.557 134.785 148.806 131.861 151.486C128.937 154.085 125.566 156.075 121.749 157.456C118.013 158.837 114.074 159.527 109.931 159.527C105.789 159.527 101.809 158.837 97.9914 157.456C94.2552 156.075 90.9251 154.085 88.0011 151.486C85.0771 148.806 82.7622 145.557 81.0566 141.739C79.3509 137.841 78.498 133.373 78.498 128.338V126.876C78.498 121.921 79.3509 117.535 81.0566 113.718C82.7622 109.819 85.0771 106.529 88.0011 103.849C90.9251 101.169 94.2552 99.1382 97.9914 97.7574C101.809 96.3766 105.789 95.6863 109.931 95.6863C114.074 95.6863 118.013 96.3766 121.749 97.7574C125.566 99.1382 128.937 101.169 131.861 103.849C134.785 106.529 137.1 109.819 138.806 113.718C140.511 117.535 141.364 121.921 141.364 126.876V128.338ZM109.931 144.907C112.124 144.907 114.195 144.542 116.145 143.811C118.094 143.08 119.8 142.024 121.262 140.643C122.724 139.262 123.861 137.597 124.673 135.648C125.566 133.617 126.013 131.343 126.013 128.825V126.388C126.013 123.87 125.566 121.637 124.673 119.688C123.861 117.657 122.724 115.951 121.262 114.57C119.8 113.19 118.094 112.134 116.145 111.403C114.195 110.672 112.124 110.306 109.931 110.306C107.738 110.306 105.667 110.672 103.718 111.403C101.768 112.134 100.063 113.19 98.6006 114.57C97.1386 115.951 95.9609 117.657 95.0674 119.688C94.2552 121.637 93.8491 123.87 93.8491 126.388V128.825C93.8491 131.343 94.2552 133.617 95.0674 135.648C95.9609 137.597 97.1386 139.262 98.6006 140.643C100.063 142.024 101.768 143.08 103.718 143.811C105.667 144.542 107.738 144.907 109.931 144.907Z" fill="white"/>
    <path d="M44.2256 259.807C42.6012 263.625 40.327 266.346 37.403 267.97C34.479 269.513 31.0676 270.285 27.1689 270.285C23.5139 270.285 20.062 269.595 16.8131 268.214C13.6454 266.833 10.8432 264.803 8.40653 262.122C5.96985 259.442 4.02051 256.193 2.55851 252.376C1.17773 248.558 0.487335 244.213 0.487335 239.339V237.39C0.487335 232.598 1.17773 228.293 2.55851 224.476C3.93929 220.658 5.80741 217.409 8.16286 214.729C10.5183 212.049 13.2393 210.018 16.3257 208.637C19.4934 207.175 22.8641 206.444 26.4379 206.444C30.7427 206.444 34.1947 207.175 36.7938 208.637C39.4741 210.099 41.5859 212.373 43.1291 215.46H45.3222V208.15H60.6732V250.304C60.6732 252.741 61.7697 253.959 63.9627 253.959H66.2776V268.579H55.7999C53.0383 268.579 50.7641 267.767 48.9772 266.143C47.2715 264.518 46.4187 262.406 46.4187 259.807H44.2256ZM30.5803 255.665C35.0475 255.665 38.6213 254.203 41.3016 251.279C43.982 248.274 45.3222 244.213 45.3222 239.096V237.634C45.3222 232.517 43.982 228.496 41.3016 225.572C38.6213 222.567 35.0475 221.064 30.5803 221.064C26.113 221.064 22.5392 222.567 19.8589 225.572C17.1786 228.496 15.8384 232.517 15.8384 237.634V239.096C15.8384 244.213 17.1786 248.274 19.8589 251.279C22.5392 254.203 26.113 255.665 30.5803 255.665Z" fill="white"/>
    <path d="M125.526 259.807H123.333C122.683 261.188 121.871 262.528 120.896 263.828C120.003 265.046 118.784 266.143 117.241 267.117C115.779 268.092 113.992 268.864 111.88 269.432C109.85 270.001 107.373 270.285 104.449 270.285C100.712 270.285 97.2198 269.635 93.9709 268.336C90.8033 266.955 88.0011 264.965 85.5644 262.366C83.2089 259.686 81.3408 256.437 79.9601 252.619C78.6605 248.802 78.0107 244.416 78.0107 239.461V237.268C78.0107 232.395 78.7011 228.049 80.0819 224.232C81.5439 220.414 83.4932 217.206 85.9299 214.607C88.4478 211.927 91.3312 209.896 94.5801 208.515C97.9102 207.135 101.403 206.444 105.058 206.444C109.931 206.444 113.789 207.378 116.632 209.246C119.475 211.033 121.708 213.592 123.333 216.922H125.526V183.296H140.877V268.579H125.526V259.807ZM109.444 255.665C114.236 255.665 118.094 254.162 121.018 251.157C124.023 248.071 125.526 244.05 125.526 239.096V237.634C125.526 232.679 124.023 228.699 121.018 225.694C118.094 222.607 114.236 221.064 109.444 221.064C104.652 221.064 100.753 222.567 97.7478 225.572C94.8238 228.496 93.3618 232.517 93.3618 237.634V239.096C93.3618 244.213 94.8238 248.274 97.7478 251.279C100.753 254.203 104.652 255.665 109.444 255.665Z" fill="white"/>
    <path d="M65.7902 379.337H50.4392V336.939C50.4392 335.234 49.9924 333.975 49.099 333.162C48.2868 332.269 47.1903 331.822 45.8095 331.822C44.185 331.822 42.8855 332.31 41.9108 333.284C41.0174 334.259 40.5706 335.721 40.5706 337.67V379.337H25.2196V336.939C25.2196 335.234 24.7323 333.975 23.7576 333.162C22.8641 332.269 21.7676 331.822 20.4681 331.822C19.0061 331.822 17.7877 332.31 16.8131 333.284C15.8384 334.259 15.3511 335.721 15.3511 337.67V379.337H0V318.908H15.3511V324.756H17.5441C18.0314 322.563 19.1279 320.776 20.8336 319.395C22.6205 317.933 24.9353 317.202 27.7781 317.202C30.4584 317.202 32.7327 317.933 34.6008 319.395C36.4689 320.776 37.7279 322.563 38.3776 324.756H40.5706C41.2204 322.563 42.5606 320.776 44.5912 319.395C46.7029 317.933 49.3021 317.202 52.3885 317.202C56.4496 317.202 59.6985 318.583 62.1352 321.344C64.5719 324.025 65.7902 327.761 65.7902 332.553V379.337Z" fill="white"/>
    <path d="M121.262 370.565C119.637 374.383 117.363 377.104 114.439 378.728C111.515 380.271 108.104 381.043 104.205 381.043C100.55 381.043 97.098 380.353 93.8491 378.972C90.6814 377.591 87.8792 375.561 85.4426 372.88C83.0059 370.2 81.0566 366.951 79.5946 363.133C78.2138 359.316 77.5234 354.971 77.5234 350.097V348.148C77.5234 343.356 78.2138 339.051 79.5946 335.234C80.9753 331.416 82.8435 328.167 85.1989 325.487C87.5544 322.807 90.2753 320.776 93.3618 319.395C96.5294 317.933 99.9002 317.202 103.474 317.202C107.779 317.202 111.231 317.933 113.83 319.395C116.51 320.857 118.622 323.131 120.165 326.218H122.358V318.908H137.709V361.062C137.709 363.499 138.806 364.717 140.999 364.717H143.314V379.337H132.836C130.074 379.337 127.8 378.525 126.013 376.901C124.308 375.276 123.455 373.164 123.455 370.565H121.262ZM107.616 366.423C112.084 366.423 115.657 364.961 118.338 362.037C121.018 359.032 122.358 354.971 122.358 349.854V348.392C122.358 343.275 121.018 339.254 118.338 336.33C115.657 333.325 112.084 331.822 107.616 331.822C103.149 331.822 99.5753 333.325 96.8949 336.33C94.2146 339.254 92.8744 343.275 92.8744 348.392V349.854C92.8744 354.971 94.2146 359.032 96.8949 362.037C99.5753 364.961 103.149 366.423 107.616 366.423Z" fill="white"/>
    <path d="M17.3004 514.462H1.94934V429.666H17.3004V438.438H19.4934C21.1178 435.108 23.4733 432.549 26.5598 430.762C29.6462 428.894 33.5855 427.96 38.3776 427.96C41.9514 427.96 45.3222 428.65 48.4898 430.031C51.7387 431.412 54.5409 433.443 56.8964 436.123C59.333 438.722 61.2418 441.93 62.6225 445.748C64.0845 449.565 64.8156 453.911 64.8156 458.784V460.977C64.8156 465.932 64.1252 470.318 62.7444 474.135C61.3636 477.953 59.4955 481.201 57.14 483.882C54.7846 486.481 51.9824 488.471 48.7335 489.852C45.5658 491.151 42.1139 491.801 38.3776 491.801C35.6161 491.801 33.22 491.517 31.1894 490.948C29.1589 490.38 27.372 489.608 25.8288 488.633C24.3667 487.659 23.1078 486.562 22.0519 485.344C21.0772 484.044 20.2244 482.704 19.4934 481.323H17.3004V514.462ZM33.3824 477.181C38.1746 477.181 42.0326 475.719 44.9567 472.795C47.9619 469.79 49.4645 465.729 49.4645 460.612V459.15C49.4645 454.033 47.9619 450.012 44.9567 447.088C42.0326 444.083 38.1746 442.58 33.3824 442.58C28.5903 442.58 24.6916 444.123 21.6864 447.21C18.7624 450.215 17.3004 454.195 17.3004 459.15V460.612C17.3004 465.566 18.7624 469.587 21.6864 472.673C24.6916 475.678 28.5903 477.181 33.3824 477.181Z" fill="white"/>
    <path d="M61.7697 152.284H45.6877V126.699C45.6877 124.749 45.1597 123.165 44.1038 121.947C43.1291 120.729 41.4641 120.12 39.1086 120.12H20.5899V152.284H4.50785V67H37.1593C41.5453 67 45.4034 67.6092 48.7335 68.8275C52.0636 70.0458 54.8252 71.7515 57.0182 73.9445C59.2924 76.0563 60.9981 78.5336 62.1352 81.3764C63.3535 84.2192 63.9627 87.265 63.9627 90.5139V93.4379C63.9627 96.9305 63.0287 100.22 61.1605 103.306C59.2924 106.312 56.409 108.627 52.5103 110.251V112.444C55.3531 112.769 57.5868 113.865 59.2112 115.734C60.9169 117.602 61.7697 119.957 61.7697 122.8V152.284ZM20.5899 104.768H35.941C39.8396 104.768 42.8043 103.875 44.8348 102.088C46.8654 100.22 47.8807 97.6209 47.8807 94.2908V92.8288C47.8807 89.986 46.8654 87.5493 44.8348 85.5187C42.8043 83.4069 39.8396 82.3511 35.941 82.3511H20.5899V104.768Z" fill="#D74040"/>
    <path d="M141.364 122.8C141.364 127.836 140.511 132.303 138.806 136.202C137.1 140.019 134.785 143.268 131.861 145.948C128.937 148.547 125.566 150.537 121.749 151.918C118.013 153.299 114.074 153.989 109.931 153.989C105.789 153.989 101.809 153.299 97.9914 151.918C94.2552 150.537 90.9251 148.547 88.0011 145.948C85.0771 143.268 82.7622 140.019 81.0566 136.202C79.3509 132.303 78.498 127.836 78.498 122.8V121.338C78.498 116.383 79.3509 111.997 81.0566 108.18C82.7622 104.281 85.0771 100.992 88.0011 98.3113C90.9251 95.6309 94.2552 93.6004 97.9914 92.2196C101.809 90.8388 105.789 90.1484 109.931 90.1484C114.074 90.1484 118.013 90.8388 121.749 92.2196C125.566 93.6004 128.937 95.6309 131.861 98.3113C134.785 100.992 137.1 104.281 138.806 108.18C140.511 111.997 141.364 116.383 141.364 121.338V122.8ZM109.931 139.369C112.124 139.369 114.195 139.004 116.145 138.273C118.094 137.542 119.8 136.486 121.262 135.105C122.724 133.724 123.861 132.059 124.673 130.11C125.566 128.079 126.013 125.805 126.013 123.287V120.851C126.013 118.333 125.566 116.099 124.673 114.15C123.861 112.119 122.724 110.413 121.262 109.033C119.8 107.652 118.094 106.596 116.145 105.865C114.195 105.134 112.124 104.768 109.931 104.768C107.738 104.768 105.667 105.134 103.718 105.865C101.768 106.596 100.063 107.652 98.6006 109.033C97.1386 110.413 95.9609 112.119 95.0674 114.15C94.2552 116.099 93.8491 118.333 93.8491 120.851V123.287C93.8491 125.805 94.2552 128.079 95.0674 130.11C95.9609 132.059 97.1386 133.724 98.6006 135.105C100.063 136.486 101.768 137.542 103.718 138.273C105.667 139.004 107.738 139.369 109.931 139.369Z" fill="#D74040"/>
    <path d="M44.2256 254.27C42.6012 258.087 40.327 260.808 37.403 262.432C34.479 263.976 31.0676 264.747 27.1689 264.747C23.5139 264.747 20.062 264.057 16.8131 262.676C13.6454 261.295 10.8432 259.265 8.40653 256.584C5.96985 253.904 4.02051 250.655 2.55851 246.838C1.17773 243.02 0.487335 238.675 0.487335 233.801V231.852C0.487335 227.06 1.17773 222.755 2.55851 218.938C3.93929 215.12 5.80741 211.871 8.16286 209.191C10.5183 206.511 13.2393 204.48 16.3257 203.099C19.4934 201.637 22.8641 200.906 26.4379 200.906C30.7427 200.906 34.1947 201.637 36.7938 203.099C39.4741 204.561 41.5859 206.836 43.1291 209.922H45.3222V202.612H60.6732V244.767C60.6732 247.203 61.7697 248.422 63.9627 248.422H66.2776V263.042H55.7999C53.0383 263.042 50.7641 262.229 48.9772 260.605C47.2715 258.98 46.4187 256.869 46.4187 254.27H44.2256ZM30.5803 250.127C35.0475 250.127 38.6213 248.665 41.3016 245.741C43.982 242.736 45.3222 238.675 45.3222 233.558V232.096C45.3222 226.979 43.982 222.958 41.3016 220.034C38.6213 217.029 35.0475 215.526 30.5803 215.526C26.113 215.526 22.5392 217.029 19.8589 220.034C17.1786 222.958 15.8384 226.979 15.8384 232.096V233.558C15.8384 238.675 17.1786 242.736 19.8589 245.741C22.5392 248.665 26.113 250.127 30.5803 250.127Z" fill="#D74040"/>
    <path d="M125.526 254.27H123.333C122.683 255.65 121.871 256.99 120.896 258.29C120.003 259.508 118.784 260.605 117.241 261.58C115.779 262.554 113.992 263.326 111.88 263.894C109.85 264.463 107.373 264.747 104.449 264.747C100.712 264.747 97.2198 264.097 93.9709 262.798C90.8033 261.417 88.0011 259.427 85.5644 256.828C83.2089 254.148 81.3408 250.899 79.9601 247.081C78.6605 243.264 78.0107 238.878 78.0107 233.923V231.73C78.0107 226.857 78.7011 222.512 80.0819 218.694C81.5439 214.877 83.4932 211.668 85.9299 209.069C88.4478 206.389 91.3312 204.358 94.5801 202.978C97.9102 201.597 101.403 200.906 105.058 200.906C109.931 200.906 113.789 201.84 116.632 203.709C119.475 205.495 121.708 208.054 123.333 211.384H125.526V177.758H140.877V263.042H125.526V254.27ZM109.444 250.127C114.236 250.127 118.094 248.625 121.018 245.619C124.023 242.533 125.526 238.512 125.526 233.558V232.096C125.526 227.141 124.023 223.161 121.018 220.156C118.094 217.07 114.236 215.526 109.444 215.526C104.652 215.526 100.753 217.029 97.7478 220.034C94.8238 222.958 93.3618 226.979 93.3618 232.096V233.558C93.3618 238.675 94.8238 242.736 97.7478 245.741C100.753 248.665 104.652 250.127 109.444 250.127Z" fill="#D74040"/>
    <path d="M65.7902 373.799H50.4392V331.401C50.4392 329.696 49.9924 328.437 49.099 327.625C48.2868 326.731 47.1903 326.284 45.8095 326.284C44.185 326.284 42.8855 326.772 41.9108 327.746C41.0174 328.721 40.5706 330.183 40.5706 332.132V373.799H25.2196V331.401C25.2196 329.696 24.7323 328.437 23.7576 327.625C22.8641 326.731 21.7676 326.284 20.4681 326.284C19.0061 326.284 17.7877 326.772 16.8131 327.746C15.8384 328.721 15.3511 330.183 15.3511 332.132V373.799H0V313.37H15.3511V319.218H17.5441C18.0314 317.025 19.1279 315.238 20.8336 313.857C22.6205 312.395 24.9353 311.664 27.7781 311.664C30.4584 311.664 32.7327 312.395 34.6008 313.857C36.4689 315.238 37.7279 317.025 38.3776 319.218H40.5706C41.2204 317.025 42.5606 315.238 44.5912 313.857C46.7029 312.395 49.3021 311.664 52.3885 311.664C56.4496 311.664 59.6985 313.045 62.1352 315.807C64.5719 318.487 65.7902 322.223 65.7902 327.015V373.799Z" fill="#D74040"/>
    <path d="M121.262 365.027C119.637 368.845 117.363 371.566 114.439 373.19C111.515 374.734 108.104 375.505 104.205 375.505C100.55 375.505 97.098 374.815 93.8491 373.434C90.6814 372.053 87.8792 370.023 85.4426 367.342C83.0059 364.662 81.0566 361.413 79.5946 357.596C78.2138 353.778 77.5234 349.433 77.5234 344.559V342.61C77.5234 337.818 78.2138 333.513 79.5946 329.696C80.9753 325.878 82.8435 322.629 85.1989 319.949C87.5544 317.269 90.2753 315.238 93.3618 313.857C96.5294 312.395 99.9002 311.664 103.474 311.664C107.779 311.664 111.231 312.395 113.83 313.857C116.51 315.319 118.622 317.594 120.165 320.68H122.358V313.37H137.709V355.524C137.709 357.961 138.806 359.179 140.999 359.179H143.314V373.799H132.836C130.074 373.799 127.8 372.987 126.013 371.363C124.308 369.738 123.455 367.627 123.455 365.027H121.262ZM107.616 360.885C112.084 360.885 115.657 359.423 118.338 356.499C121.018 353.494 122.358 349.433 122.358 344.316V342.854C122.358 337.737 121.018 333.716 118.338 330.792C115.657 327.787 112.084 326.284 107.616 326.284C103.149 326.284 99.5753 327.787 96.8949 330.792C94.2146 333.716 92.8744 337.737 92.8744 342.854V344.316C92.8744 349.433 94.2146 353.494 96.8949 356.499C99.5753 359.423 103.149 360.885 107.616 360.885Z" fill="#D74040"/>
    <path d="M17.3004 508.924H1.94934V424.128H17.3004V432.9H19.4934C21.1178 429.57 23.4733 427.011 26.5598 425.224C29.6462 423.356 33.5855 422.422 38.3776 422.422C41.9514 422.422 45.3222 423.113 48.4898 424.493C51.7387 425.874 54.5409 427.905 56.8964 430.585C59.333 433.184 61.2418 436.393 62.6225 440.21C64.0845 444.027 64.8156 448.373 64.8156 453.246V455.439C64.8156 460.394 64.1252 464.78 62.7444 468.597C61.3636 472.415 59.4955 475.664 57.14 478.344C54.7846 480.943 51.9824 482.933 48.7335 484.314C45.5658 485.613 42.1139 486.263 38.3776 486.263C35.6161 486.263 33.22 485.979 31.1894 485.41C29.1589 484.842 27.372 484.07 25.8288 483.095C24.3667 482.121 23.1078 481.024 22.0519 479.806C21.0772 478.506 20.2244 477.166 19.4934 475.785H17.3004V508.924ZM33.3824 471.643C38.1746 471.643 42.0326 470.181 44.9567 467.257C47.9619 464.252 49.4645 460.191 49.4645 455.074V453.612C49.4645 448.495 47.9619 444.474 44.9567 441.55C42.0326 438.545 38.1746 437.042 33.3824 437.042C28.5903 437.042 24.6916 438.586 21.6864 441.672C18.7624 444.677 17.3004 448.657 17.3004 453.612V455.074C17.3004 460.028 18.7624 464.049 21.6864 467.135C24.6916 470.14 28.5903 471.643 33.3824 471.643Z" fill="#D74040"/>
    <g clip-path="url(#clip0)">
        <g filter="url(#filter0_ii)">
            <path d="M209.508 261.113C203.176 254.781 203.176 244.515 209.508 238.182L301.232 146.459C307.564 140.127 317.831 140.126 324.163 146.458L400.6 222.895C406.932 229.227 406.932 239.494 400.6 245.826L308.876 337.55C302.544 343.882 292.277 343.882 285.945 337.55L209.508 261.113Z" fill="#75D1C1"/>
        </g>
        <path d="M209.508 261.113C203.176 254.781 203.176 244.515 209.508 238.182L301.232 146.459C307.564 140.127 317.831 140.126 324.163 146.458L400.6 222.895C406.932 229.227 406.932 239.494 400.6 245.826L308.876 337.55C302.544 343.882 292.277 343.882 285.945 337.55L209.508 261.113Z" stroke="#1F2024" stroke-width="5.40488"/>
        <g filter="url(#filter1_i)">
            <path d="M257.28 213.34C250.948 207.008 250.949 196.742 257.281 190.41L341.361 106.33C347.694 99.9968 357.959 99.9968 364.292 106.329L440.728 182.766C447.06 189.098 447.061 199.364 440.728 205.697L356.648 289.777C350.316 296.109 340.049 296.109 333.717 289.777L257.28 213.34Z" fill="#ACE5D7"/>
        </g>
        <path d="M257.28 213.34C250.948 207.008 250.949 196.742 257.281 190.41L341.361 106.33C347.694 99.9968 357.959 99.9968 364.292 106.329L440.728 182.766C447.06 189.098 447.061 199.364 440.728 205.697L356.648 289.777C350.316 296.109 340.049 296.109 333.717 289.777L257.28 213.34Z" stroke="#1F2024" stroke-width="5.40488"/>
        <path d="M308.876 142.636L327.029 124.483L395.822 246.781L377.669 264.935L308.876 142.636Z" fill="white" fill-opacity="0.5"/>
        <path d="M301.709 149.803L304.575 146.936L373.368 269.234L370.502 272.101L301.709 149.803Z" fill="white" fill-opacity="0.5"/>
        <g filter="url(#filter2_d)">
            <path d="M280.689 218.596L232.917 266.368C232.125 267.16 232.125 268.443 232.917 269.235C233.708 270.026 234.991 270.026 235.783 269.235L283.556 221.462C284.347 220.67 284.347 219.387 283.556 218.596C282.764 217.804 281.481 217.804 280.689 218.596Z" fill="#1F2024" stroke="#1F2024" stroke-width="5.40488"/>
            <path fill-rule="evenodd" clip-rule="evenodd" d="M334.744 178.734C350.286 194.275 351.3 209.011 337.738 222.573C319.843 240.468 302.264 235.662 291.769 225.168C289.15 222.548 288.035 222.964 286.581 223.571C284.514 224.424 280.461 220.596 278.667 218.517C278.466 218.283 278.463 217.938 278.646 217.69C295.087 195.483 304.501 185.632 319.417 175.508C322.411 173.475 326.11 172.248 328.669 169.689L333.071 165.288C335.631 162.728 336.857 159.03 338.891 156.034C349.015 141.119 358.866 131.705 381.072 115.264C381.321 115.081 381.666 115.084 381.899 115.285C383.978 117.079 387.806 121.132 386.953 123.198C386.346 124.653 385.93 125.767 388.55 128.387C399.044 138.881 403.85 156.461 385.956 174.356C372.393 187.918 357.658 186.903 342.116 171.362C341.45 170.534 340.209 170.453 339.458 171.204L334.586 176.076C333.835 176.827 333.917 178.068 334.744 178.734Z" fill="#1F2024"/>
            <path d="M286.581 223.571L287.096 224.82L287.1 224.818L286.581 223.571ZM278.667 218.517L279.69 217.634L278.667 218.517ZM278.646 217.69L277.561 216.887L278.646 217.69ZM381.072 115.264L380.269 114.178L381.072 115.264ZM381.899 115.285L382.782 114.262L382.781 114.261L381.899 115.285ZM386.953 123.199L388.2 123.718L388.202 123.713L386.953 123.199ZM338.693 223.529C345.662 216.56 349.038 209.125 348.503 201.303C347.971 193.528 343.591 185.67 335.7 177.779L333.789 179.689C341.439 187.34 345.337 194.62 345.807 201.488C346.274 208.31 343.376 215.023 336.782 221.617L338.693 223.529ZM290.814 226.123C296.245 231.554 303.572 235.576 311.931 235.867C320.321 236.159 329.537 232.685 338.693 223.529L336.782 221.617C328.043 230.356 319.522 233.427 312.025 233.166C304.498 232.904 297.789 229.276 292.725 224.212L290.814 226.123ZM287.1 224.818C287.857 224.503 288.147 224.424 288.49 224.488C288.87 224.559 289.563 224.872 290.814 226.123L292.725 224.212C291.356 222.843 290.183 222.055 288.987 221.831C287.754 221.6 286.759 222.032 286.06 222.324L287.1 224.818ZM277.644 219.4C278.585 220.49 280.119 222.043 281.716 223.229C282.512 223.819 283.378 224.36 284.235 224.693C285.061 225.014 286.105 225.229 287.096 224.82L286.065 222.322C286.022 222.34 285.785 222.396 285.214 222.174C284.674 221.964 284.027 221.578 283.327 221.059C281.933 220.024 280.543 218.622 279.69 217.634L277.644 219.4ZM277.561 216.887C277.026 217.608 277.003 218.657 277.644 219.4L279.69 217.634C279.928 217.909 279.901 218.267 279.733 218.495L277.561 216.887ZM318.658 174.39C303.564 184.635 294.045 194.619 277.561 216.887L279.733 218.495C296.129 196.347 305.437 186.63 320.176 176.626L318.658 174.39ZM329.625 170.645L334.027 166.243L332.115 164.332L327.713 168.733L329.625 170.645ZM340.008 156.794C350.012 142.055 359.728 132.747 381.877 116.35L380.269 114.178C358.002 130.663 348.017 140.182 337.772 155.275L340.008 156.794ZM381.877 116.35C381.649 116.519 381.292 116.545 381.016 116.308L382.781 114.261C382.039 113.622 380.99 113.643 380.269 114.178L381.877 116.35ZM381.016 116.308C382.004 117.161 383.406 118.551 384.441 119.945C384.96 120.645 385.346 121.292 385.557 121.832C385.778 122.402 385.722 122.64 385.704 122.683L388.202 123.713C388.611 122.723 388.397 121.679 388.076 120.853C387.742 119.996 387.201 119.13 386.611 118.334C385.425 116.736 383.873 115.203 382.782 114.262L381.016 116.308ZM385.706 122.678C385.414 123.377 384.983 124.372 385.213 125.605C385.437 126.801 386.226 127.974 387.595 129.343L389.505 127.432C388.255 126.181 387.941 125.487 387.87 125.108C387.806 124.765 387.885 124.474 388.2 123.718L385.706 122.678ZM387.595 129.343C392.658 134.406 396.287 141.116 396.548 148.642C396.809 156.14 393.738 164.661 385 173.4L386.911 175.311C396.067 166.155 399.541 156.94 399.249 148.549C398.958 140.19 394.936 132.863 389.505 127.432L387.595 129.343ZM385 173.4C378.406 179.993 371.693 182.891 364.871 182.424C358.002 181.955 350.722 178.057 343.072 170.406L341.161 172.318C349.052 180.209 356.911 184.589 364.686 185.121C372.507 185.656 379.942 182.279 386.911 175.311L385 173.4ZM338.503 170.249L333.631 175.121L335.542 177.031L340.414 172.159L338.503 170.249ZM343.169 170.515C342.012 169.076 339.836 168.916 338.503 170.249L340.414 172.159C340.582 171.991 340.89 171.993 341.063 172.209L343.169 170.515ZM334.027 166.243C335.451 164.818 336.473 163.109 337.365 161.47C338.286 159.777 339.041 158.217 340.008 156.794L337.772 155.275C336.706 156.846 335.832 158.633 334.991 160.179C334.121 161.777 333.251 163.196 332.115 164.332L334.027 166.243ZM333.631 175.121C332.298 176.454 332.459 178.629 333.897 179.786L335.591 177.681C335.376 177.507 335.373 177.2 335.542 177.031L333.631 175.121ZM320.176 176.626C321.6 175.659 323.16 174.904 324.853 173.983C326.492 173.091 328.201 172.069 329.625 170.645L327.713 168.733C326.579 169.868 325.159 170.739 323.561 171.609C322.016 172.45 320.228 173.324 318.658 174.39L320.176 176.626Z" fill="#1F2024"/>
            <path d="M290.7 199.985L298.843 191.842L324.341 230.361L313.068 233.775L290.7 199.985Z" fill="white"/>
            <path d="M302.734 187.951L305.531 185.155L332.539 225.984L329.147 227.879L302.734 187.951Z" fill="white"/>
            <path d="M334.745 178.734L336.655 176.823L336.552 176.72L336.438 176.628L334.745 178.734ZM319.418 175.508L317.899 173.272L319.418 175.508ZM278.647 217.69L276.475 216.082L278.647 217.69ZM278.668 218.517L280.713 216.751L278.668 218.517ZM286.581 223.571L287.612 226.069L287.622 226.065L286.581 223.571ZM342.117 171.362L340.011 173.055L340.103 173.17L340.206 173.273L342.117 171.362ZM338.891 156.035L336.655 154.516L338.891 156.035ZM381.073 115.264L379.465 113.092L381.073 115.264ZM381.9 115.285L383.665 113.238L381.9 115.285ZM386.954 123.199L389.448 124.239L389.452 124.229L386.954 123.199ZM332.834 180.645C340.364 188.175 344.021 195.166 344.46 201.58C344.892 207.903 342.234 214.256 335.827 220.662L339.649 224.484C346.805 217.329 350.421 209.532 349.851 201.212C349.289 192.982 344.667 184.835 336.655 176.823L332.834 180.645ZM320.935 177.744C323.15 176.241 324.82 176.16 326.451 176.666C328.353 177.254 330.385 178.695 333.051 180.84L336.438 176.628C333.85 174.546 331.072 172.438 328.05 171.502C324.757 170.483 321.391 170.901 317.899 173.272L320.935 177.744ZM280.819 219.298C297.172 197.209 306.375 187.627 320.935 177.744L317.899 173.272C302.629 183.638 293.004 193.757 276.475 216.082L280.819 219.298ZM280.713 216.751C281.391 217.536 281.339 218.596 280.819 219.298L276.475 216.082C275.589 217.279 275.542 219.031 276.621 220.282L280.713 216.751ZM285.55 221.073C285.981 220.895 286.148 221.087 285.704 220.915C285.322 220.766 284.786 220.458 284.133 219.974C282.841 219.015 281.522 217.688 280.713 216.751L276.621 220.282C277.607 221.424 279.212 223.052 280.912 224.314C281.755 224.94 282.731 225.558 283.746 225.952C284.7 226.323 286.148 226.674 287.612 226.069L285.55 221.073ZM293.681 223.257C292.253 221.829 290.839 220.804 289.236 220.503C287.558 220.189 286.212 220.797 285.54 221.077L287.622 226.065C288.406 225.738 288.344 225.835 288.241 225.816C288.214 225.81 288.667 225.887 289.859 227.079L293.681 223.257ZM335.827 220.662C327.298 229.192 319.122 232.061 312.073 231.816C304.962 231.568 298.561 228.137 293.681 223.257L289.859 227.079C295.473 232.693 303.109 236.912 311.885 237.217C320.722 237.525 330.284 233.849 339.649 224.484L335.827 220.662ZM340.206 173.273C348.217 181.285 356.365 185.906 364.594 186.469C372.914 187.038 380.711 183.422 387.867 176.266L384.045 172.444C377.638 178.851 371.286 181.509 364.963 181.077C358.549 180.638 351.558 176.981 344.028 169.451L340.206 173.273ZM336.655 154.516C334.284 158.008 333.865 161.375 334.885 164.667C335.821 167.689 337.929 170.467 340.011 173.055L344.222 169.668C342.078 167.002 340.637 164.97 340.048 163.069C339.543 161.438 339.624 159.767 341.126 157.553L336.655 154.516ZM379.465 113.092C357.139 129.621 347.02 139.246 336.655 154.516L341.126 157.553C351.01 142.992 360.592 133.789 382.681 117.436L379.465 113.092ZM383.665 113.238C382.414 112.159 380.662 112.206 379.465 113.092L382.681 117.436C381.979 117.956 380.919 118.008 380.134 117.33L383.665 113.238ZM389.452 124.229C390.056 122.765 389.705 121.317 389.335 120.364C388.94 119.348 388.322 118.373 387.696 117.529C386.435 115.829 384.807 114.224 383.665 113.238L380.134 117.33C381.072 118.139 382.397 119.458 383.356 120.751C383.841 121.403 384.149 121.939 384.297 122.321C384.47 122.765 384.278 122.598 384.456 122.167L389.452 124.229ZM390.461 126.477C389.269 125.285 389.193 124.831 389.198 124.859C389.218 124.961 389.121 125.023 389.448 124.239L384.459 122.158C384.18 122.829 383.571 124.176 383.886 125.854C384.186 127.457 385.212 128.87 386.64 130.298L390.461 126.477ZM387.867 176.266C397.232 166.901 400.907 157.34 400.6 148.502C400.295 139.726 396.075 132.09 390.461 126.477L386.64 130.298C391.52 135.178 394.951 141.579 395.198 148.691C395.444 155.74 392.575 163.915 384.045 172.444L387.867 176.266Z" fill="#1F2024"/>
        </g>
        <g filter="url(#filter3_i)">
            <path fill-rule="evenodd" clip-rule="evenodd" d="M371.688 220.819C371.961 222.382 371.895 223.977 371.451 225.47C368.029 236.978 359.145 243.34 352.218 248.3C349.29 250.397 346.712 252.243 345.045 254.121C344.194 255.081 343.436 256.299 342.69 257.496C341.063 260.112 339.498 262.627 337.156 262.127C333.397 261.323 325.696 243.859 335.118 230.247C341.959 220.362 355.298 210.396 362.261 211.392C361.265 204.429 371.231 191.09 381.115 184.249C394.728 174.826 412.193 182.528 412.996 186.287C413.496 188.629 410.981 190.194 408.366 191.821C407.168 192.566 405.95 193.324 404.99 194.176C403.112 195.843 401.266 198.421 399.168 201.349C394.209 208.275 387.847 217.159 376.339 220.582C374.847 221.025 373.251 221.092 371.688 220.819Z" fill="#1F2024"/>
        </g>
        <g filter="url(#filter4_ii)">
            <path d="M189.71 102.08L222.885 127.308L223.259 223.477L212.382 234.353C211.83 224.179 203.711 219.13 183.868 225.918C194.359 206.29 181.352 197.048 161.495 200.617C182.154 179.515 183.3 169.43 163.279 155.13C197.975 140.333 202.61 128.447 189.71 102.08Z" fill="#E79834"/>
        </g>
        <path d="M189.71 102.08L222.885 127.308L223.259 223.477L212.382 234.353C211.83 224.179 203.711 219.13 183.868 225.918C194.359 206.29 181.352 197.048 161.495 200.617C182.154 179.515 183.3 169.43 163.279 155.13C197.975 140.333 202.61 128.447 189.71 102.08Z" stroke="#1F2024" stroke-width="5.40488" stroke-linejoin="round"/>
        <g filter="url(#filter5_i)">
            <path d="M203.984 172.827L162.871 155.14L206.528 153.2L203.984 172.827Z" fill="#F9E174"/>
        </g>
        <path d="M203.984 172.827L162.871 155.14L206.528 153.2L203.984 172.827Z" stroke="#1F2024" stroke-width="5.40488" stroke-linejoin="round"/>
        <g filter="url(#filter6_i)">
            <path d="M183.868 225.918L205.768 198.456L211.946 211.746L183.868 225.918Z" fill="#F9E174"/>
        </g>
        <path d="M183.868 225.918L205.768 198.456L211.946 211.746L183.868 225.918Z" stroke="#1F2024" stroke-width="5.40488" stroke-linejoin="round"/>
        <g filter="url(#filter7_i)">
            <path d="M215.334 135.653L189.521 101.474C207.928 112.112 217.759 115.302 234.211 114.789L215.334 135.653Z" fill="#F9E174"/>
        </g>
        <path d="M215.334 135.653L189.521 101.474C207.928 112.112 217.759 115.302 234.211 114.789L215.334 135.653Z" stroke="#1F2024" stroke-width="5.40488" stroke-linejoin="round"/>
        <g filter="url(#filter8_i)">
            <path d="M201.431 176.969L162.111 200.397L204.451 194.211L201.431 176.969Z" fill="#F9E174"/>
        </g>
        <path d="M201.431 176.969L162.111 200.397L204.451 194.211L201.431 176.969Z" stroke="#1F2024" stroke-width="5.40488" stroke-linejoin="round"/>
        <g filter="url(#filter9_ii)">
            <path fill-rule="evenodd" clip-rule="evenodd" d="M266.534 107.12C274.206 107.42 281.831 109.009 289.1 111.733C303.333 109.334 306.755 102.377 311.458 92.8191C313.507 88.6553 315.797 83.9991 319.33 79.0101C319.93 75.1951 321.7 71.5287 324.64 68.5885C332.028 61.2014 344.006 61.201 351.393 68.5886C358.621 75.8166 358.777 87.4379 351.862 94.8554L351.87 94.8639L351.393 95.3412L288.811 157.924L221.929 224.806C208.297 211.174 200.036 192.897 199.311 174.343C198.586 155.79 205.261 138.284 217.868 125.677C230.474 113.071 247.981 106.395 266.534 107.12Z" fill="#F2C95C"/>
        </g>
        <path d="M289.101 111.733L288.153 114.263C288.598 114.43 289.08 114.477 289.55 114.398L289.101 111.733ZM266.535 107.12L266.429 109.82L266.535 107.12ZM311.458 92.8192L313.883 94.0122L311.458 92.8192ZM319.331 79.0101L321.536 80.5721C321.777 80.2318 321.936 79.8415 322.001 79.43L319.331 79.0101ZM351.862 94.8555L349.887 93.0128C348.894 94.0777 348.923 95.7372 349.952 96.7661L351.862 94.8555ZM351.871 94.864L353.782 96.7753C354.838 95.7196 354.838 94.0084 353.782 92.9527L351.871 94.864ZM288.811 157.924L286.145 158.368C286.312 159.367 287.023 160.189 287.987 160.498C288.95 160.807 290.007 160.551 290.722 159.835L288.811 157.924ZM288.811 157.924L291.477 157.48C291.31 156.481 290.6 155.66 289.636 155.351C288.672 155.041 287.616 155.298 286.901 156.013L288.811 157.924ZM221.929 224.806L220.018 226.717C220.525 227.224 221.212 227.508 221.929 227.508C222.646 227.508 223.334 227.224 223.84 226.717L221.929 224.806ZM199.311 174.343L202.012 174.238L199.311 174.343ZM290.049 109.202C282.524 106.381 274.614 104.731 266.64 104.42L266.429 109.82C273.8 110.108 281.141 111.635 288.153 114.263L290.049 109.202ZM309.034 91.6261C306.639 96.4944 304.791 100.192 301.94 103.053C299.199 105.803 295.344 107.94 288.652 109.068L289.55 114.398C297.091 113.127 302.063 110.585 305.768 106.868C309.361 103.262 311.576 98.7023 313.883 94.0122L309.034 91.6261ZM317.125 77.4483C313.455 82.6319 311.081 87.466 309.034 91.6261L313.883 94.0122C315.933 89.8455 318.142 85.3658 321.536 80.5721L317.125 77.4483ZM322.001 79.43C322.515 76.161 324.03 73.0218 326.552 70.4995L322.73 66.6777C319.373 70.035 317.347 74.2294 316.662 78.5897L322.001 79.43ZM326.552 70.4995C332.884 64.1674 343.15 64.1678 349.482 70.5L353.304 66.6781C344.861 58.2351 331.173 58.2348 322.73 66.6777L326.552 70.4995ZM349.482 70.5C355.677 76.6949 355.812 86.6559 349.887 93.0128L353.839 96.6982C361.743 88.2193 361.565 74.9384 353.304 66.6781L349.482 70.5ZM353.782 92.9527L353.774 92.9442L349.952 96.7661L349.96 96.7746L353.782 92.9527ZM353.305 97.2526L353.782 96.7753L349.96 92.9534L349.483 93.4307L353.305 97.2526ZM290.722 159.835L353.305 97.2526L349.483 93.4307L286.901 156.013L290.722 159.835ZM286.145 158.368L291.477 157.48L286.145 158.368ZM223.84 226.717L290.722 159.835L286.901 156.013L220.018 222.895L223.84 226.717ZM196.611 174.449C197.364 193.72 205.933 212.631 220.018 226.717L223.84 222.895C210.661 209.716 202.709 192.074 202.012 174.238L196.611 174.449ZM215.958 123.766C202.794 136.93 195.858 155.178 196.611 174.449L202.012 174.238C201.315 156.402 207.73 139.638 219.78 127.588L215.958 123.766ZM266.64 104.42C247.369 103.667 229.121 110.603 215.958 123.766L219.78 127.588C231.829 115.539 248.593 109.124 266.429 109.82L266.64 104.42Z" fill="#1F2024"/>
        <path fill-rule="evenodd" clip-rule="evenodd" d="M335.422 107.492L346.127 96.7867C339.714 100.299 331.506 99.3393 326.074 93.9082C322.697 90.531 321.049 86.0798 321.13 81.6547L317.296 85.4886C317.341 91.2206 319.55 96.9397 323.924 101.314C327.191 104.58 331.209 106.639 335.422 107.492Z" fill="black" fill-opacity="0.16"/>
        <path d="M223.602 131.41C229.84 125.172 237.491 120.677 245.789 118.246M260.037 116.162C257.903 116.173 255.783 116.317 253.686 116.588L260.037 116.162Z" stroke="white" stroke-width="5.40488" stroke-linecap="round"/>
        <path fill-rule="evenodd" clip-rule="evenodd" d="M291.421 134.891C288.025 143.97 282.328 152.942 274.48 160.79C251.789 183.481 219.706 188.186 202.82 171.3C202.648 171.128 202.477 170.954 202.309 170.778C202.116 172.855 202.019 174.949 202.02 177.052C202.031 194.892 209.309 212.186 221.931 224.808L316.999 129.74C316.913 129.654 316.827 129.567 316.74 129.482C308.507 133.553 299.728 135.385 291.421 134.891Z" fill="black" fill-opacity="0.16"/>
        <path d="M324.641 95.3414C317.253 87.9539 317.253 75.9766 324.641 68.5887" stroke="#1F2024" stroke-width="5.40488" stroke-linecap="round" stroke-linejoin="round"/>
        <path d="M343.75 87.6978C346.916 84.5317 346.916 79.3985 343.75 76.2324C340.584 73.0663 335.451 73.0662 332.284 76.2324C329.118 79.3985 329.118 84.5317 332.285 87.6978C335.451 90.8639 340.584 90.8639 343.75 87.6978Z" fill="#E79834" stroke="#1F2024" stroke-width="5.40488" stroke-linejoin="round"/>
        <path d="M251.555 152.197C241.991 146.457 230.526 157.922 236.267 167.484" stroke="#1F2024" stroke-width="6.7561" stroke-linecap="round" stroke-linejoin="round"/>
        <path d="M235.427 167.601C229.275 169.462 225.915 169.508 220.14 167.123" stroke="#1F2024" stroke-width="5.40488" stroke-linecap="round" stroke-linejoin="round"/>
        <path d="M235.427 159.479C230.704 160.604 227.133 159.969 222.528 158.046" stroke="#1F2024" stroke-width="5.40488" stroke-linecap="round" stroke-linejoin="round"/>
        <path d="M275.44 128.311C269.7 118.748 281.165 107.283 290.728 113.023" stroke="#1F2024" stroke-width="6.7561" stroke-linecap="round" stroke-linejoin="round"/>
        <path d="M290.843 112.184C292.705 106.032 292.751 102.672 290.366 96.8967" stroke="#1F2024" stroke-width="5.40488" stroke-linecap="round" stroke-linejoin="round"/>
        <path d="M282.723 112.184C283.847 107.461 283.212 103.89 281.289 99.2853" stroke="#1F2024" stroke-width="5.40488" stroke-linecap="round" stroke-linejoin="round"/>
        <path d="M311.741 134.993L338.017 108.718C338.017 108.718 369.308 112.778 354.021 128.066C338.734 143.353 311.741 134.993 311.741 134.993Z" fill="black" fill-opacity="0.16"/>
        <path d="M234.35 202.83C238.571 198.609 238.571 191.765 234.35 187.543C230.129 183.322 223.284 183.322 219.063 187.543C214.841 191.765 214.841 198.609 219.063 202.83C223.284 207.052 230.129 207.052 234.35 202.83Z" fill="#E36776" fill-opacity="0.5"/>
    </g>
    <g clip-path="url(#clip1)">
        <g filter="url(#filter10_ii)">
            <path d="M129.289 426.801C132.352 418.386 141.657 414.047 150.072 417.11L271.966 461.476C280.381 464.539 284.72 473.843 281.657 482.258L244.685 583.837C241.622 592.252 232.318 596.591 223.903 593.528L102.009 549.162C93.5937 546.1 89.255 536.794 92.3178 528.38L129.289 426.801Z" fill="#ACACAE"/>
        </g>
        <path d="M129.289 426.801C132.352 418.386 141.657 414.047 150.072 417.11L271.966 461.476C280.381 464.539 284.72 473.843 281.657 482.258L244.685 583.837C241.622 592.252 232.318 596.591 223.903 593.528L102.009 549.162C93.5937 546.1 89.255 536.794 92.3178 528.38L129.289 426.801Z" stroke="#1F2024" stroke-width="5.40488"/>
        <g filter="url(#filter11_i)">
            <path d="M192.776 449.908C195.839 441.493 205.143 437.155 213.558 440.218L325.294 480.886C333.709 483.949 338.049 493.253 334.986 501.668L298.014 603.247C294.951 611.662 285.646 616.001 277.231 612.938L165.495 572.27C157.08 569.207 152.741 559.902 155.804 551.487L192.776 449.908Z" fill="#E2E2E2"/>
        </g>
        <path d="M192.776 449.908C195.839 441.493 205.143 437.155 213.558 440.218L325.294 480.886C333.709 483.949 338.049 493.253 334.986 501.668L298.014 603.247C294.951 611.662 285.646 616.001 277.231 612.938L165.495 572.27C157.08 569.207 152.741 559.902 155.804 551.487L192.776 449.908Z" stroke="#1F2024" stroke-width="5.40488"/>
        <path d="M278.66 466.788L302.784 475.569L221.018 589.602L196.893 580.821L278.66 466.788Z" fill="white" fill-opacity="0.5"/>
        <path d="M269.137 463.322L272.947 464.708L191.18 578.742L187.371 577.355L269.137 463.322Z" fill="white" fill-opacity="0.5"/>
        <g filter="url(#filter12_d)">
            <path d="M116.804 445.302C117.825 442.497 120.939 441.017 123.744 442.038L205.007 471.615C207.812 472.636 209.258 475.738 208.237 478.543L206.499 483.318C205.436 486.239 202.135 487.664 199.28 486.433L119.732 452.146C117.103 451.012 115.825 447.993 116.804 445.302Z" fill="#E2E2E2" stroke="#1F2024" stroke-width="5.40488"/>
            <path fill-rule="evenodd" clip-rule="evenodd" d="M255.161 489.87L276.111 497.495L288.174 501.886L337.059 519.678C339.864 520.699 341.31 523.801 340.289 526.606L328.273 559.619C327.252 562.424 324.15 563.87 321.346 562.85L265.477 542.515C262.672 541.494 261.226 538.392 262.247 535.587L266.868 522.889C267.889 520.084 266.443 516.984 263.638 515.963C260.834 514.942 257.732 516.387 256.711 519.192L252.089 531.89C251.069 534.695 247.967 536.142 245.162 535.121L189.294 514.787C186.489 513.766 185.042 510.664 186.063 507.859L198.079 474.846C199.1 472.041 202.202 470.594 205.007 471.615L255.161 489.87Z" fill="white"/>
            <path d="M255.161 489.87L256.085 487.331L255.161 489.87ZM205.007 471.615L205.931 469.076L205.007 471.615ZM277.035 494.956L256.085 487.331L254.236 492.41L275.187 500.035L277.035 494.956ZM275.187 500.035L287.25 504.426L289.098 499.347L277.035 494.956L275.187 500.035ZM287.25 504.426L336.134 522.218L337.983 517.139L289.098 499.347L287.25 504.426ZM337.749 525.681L325.733 558.695L330.812 560.543L342.828 527.53L337.749 525.681ZM325.733 558.695C325.223 560.097 323.672 560.82 322.27 560.309L320.421 565.389C324.629 566.92 329.281 564.75 330.812 560.543L325.733 558.695ZM322.27 560.309L266.402 539.975L264.553 545.054L320.421 565.389L322.27 560.309ZM266.402 539.975C265 539.465 264.276 537.914 264.787 536.512L259.708 534.663C258.176 538.87 260.346 543.523 264.553 545.054L266.402 539.975ZM264.787 536.512L269.408 523.814L264.329 521.965L259.708 534.663L264.787 536.512ZM254.629 532.815L259.25 520.117L254.171 518.268L249.55 530.966L254.629 532.815ZM244.238 537.66C248.445 539.191 253.097 537.022 254.629 532.815L249.55 530.966C249.039 532.368 247.488 533.091 246.086 532.581L244.238 537.66ZM188.37 517.326L244.238 537.66L246.086 532.581L190.218 512.247L188.37 517.326ZM183.524 506.935C181.993 511.142 184.162 515.794 188.37 517.326L190.218 512.247C188.816 511.736 188.093 510.185 188.603 508.783L183.524 506.935ZM195.54 473.921L183.524 506.935L188.603 508.783L200.619 475.77L195.54 473.921ZM256.085 487.331L205.931 469.076L204.082 474.155L254.236 492.41L256.085 487.331ZM200.619 475.77C201.129 474.367 202.68 473.645 204.082 474.155L205.931 469.076C201.723 467.545 197.071 469.713 195.54 473.921L200.619 475.77ZM264.563 513.423C260.355 511.891 255.703 514.061 254.171 518.268L259.25 520.117C259.761 518.715 261.312 517.991 262.714 518.502L264.563 513.423ZM269.408 523.814C270.94 519.607 268.77 514.954 264.563 513.423L262.714 518.502C264.117 519.012 264.84 520.563 264.329 521.965L269.408 523.814ZM336.134 522.218C337.536 522.728 338.26 524.278 337.749 525.681L342.828 527.53C344.36 523.322 342.191 518.671 337.983 517.139L336.134 522.218Z" fill="#1F2024"/>
            <path d="M206.388 483.622C206.899 482.219 208.45 481.496 209.852 482.006L250.483 496.795C251.886 497.305 252.609 498.856 252.098 500.259L243.78 523.114C243.27 524.516 241.719 525.24 240.316 524.729L199.684 509.94C198.282 509.43 197.559 507.879 198.069 506.477L206.388 483.622Z" fill="#776FE8"/>
            <path d="M232.073 490.094L247.309 495.639L226.985 519.877L211.748 514.331L232.073 490.094Z" fill="black" fill-opacity="0.16"/>
            <path d="M223.819 487.09L228.898 488.938L208.573 513.175L203.494 511.327L223.819 487.09Z" fill="white" fill-opacity="0.16"/>
            <path d="M282.572 511.351C283.082 509.948 284.633 509.224 286.036 509.735L326.667 524.524C328.069 525.034 328.793 526.585 328.282 527.988L319.963 550.843C319.453 552.245 317.902 552.968 316.5 552.458L275.869 537.669C274.466 537.159 273.743 535.608 274.253 534.206L282.572 511.351Z" fill="#FF4049"/>
            <path d="M308.257 517.822L323.494 523.368L303.169 547.605L287.931 542.059L308.257 517.822Z" fill="black" fill-opacity="0.16"/>
            <path d="M300.003 514.818L305.082 516.667L284.757 540.904L279.677 539.055L300.003 514.818Z" fill="white" fill-opacity="0.16"/>
        </g>
        <path d="M125.914 519.039C138.537 523.633 152.494 517.125 157.088 504.502C161.682 491.88 155.174 477.923 142.551 473.328C129.929 468.734 115.972 475.242 111.378 487.865C106.783 500.488 113.292 514.445 125.914 519.039Z" fill="black" fill-opacity="0.16"/>
        <g filter="url(#filter13_ii)">
            <path d="M127.821 511.824C140.443 516.418 154.4 509.91 158.994 497.287C163.589 484.665 157.08 470.708 144.458 466.114C131.835 461.519 117.878 468.028 113.284 480.65C108.69 493.273 115.198 507.23 127.821 511.824Z" fill="#E2E2E2"/>
        </g>
        <path d="M127.821 511.824C140.443 516.418 154.4 509.91 158.994 497.287C163.589 484.665 157.08 470.708 144.458 466.114C131.835 461.519 117.878 468.028 113.284 480.65C108.69 493.273 115.198 507.23 127.821 511.824Z" stroke="#1F2024" stroke-width="5.40488"/>
        <g filter="url(#filter14_ii)">
            <path d="M117.896 499.584C126.311 502.647 135.616 498.308 138.679 489.893C141.742 481.478 137.403 472.173 128.988 469.111C120.573 466.048 111.268 470.387 108.205 478.802C105.142 487.217 109.481 496.521 117.896 499.584Z" fill="#CAE9FA"/>
        </g>
        <path d="M117.896 499.584C126.311 502.647 135.616 498.308 138.679 489.893C141.742 481.478 137.403 472.173 128.988 469.111C120.573 466.048 111.268 470.387 108.205 478.802C105.142 487.217 109.481 496.521 117.896 499.584Z" stroke="#1F2024" stroke-width="5.40488"/>
        <path d="M263.858 554.866C266.663 555.887 268.158 559.019 266.804 561.679C261.165 572.759 250.916 578.915 229.22 571.018C207.524 563.122 203.63 551.818 206.432 539.705C207.106 536.797 210.264 535.36 213.069 536.381L263.858 554.866Z" fill="#4A4A4E" stroke="#1F2024" stroke-width="5.40488"/>
        <path d="M252.234 573.961C246.476 575.285 239.015 574.584 229.22 571.018C209.56 563.863 204.517 553.91 205.829 543.093C216.328 542.241 246.886 558.037 252.234 573.961Z" fill="#FF3979" stroke="#1F2024" stroke-width="5.40488"/>
        <path d="M219.993 541.058C220.376 540.006 221.54 539.463 222.591 539.846L234.019 544.005C235.071 544.388 235.613 545.552 235.23 546.603L233.151 552.318C232.13 555.123 229.028 556.569 226.223 555.548L221.144 553.7C218.339 552.679 216.892 549.577 217.913 546.772L219.993 541.058Z" fill="white" stroke="#1F2024" stroke-width="5.40488"/>
        <path d="M235.231 546.603C235.613 545.552 236.776 545.009 237.829 545.392L249.256 549.551C250.308 549.934 250.85 551.098 250.468 552.149L248.388 557.864C247.367 560.669 244.265 562.115 241.46 561.094L236.381 559.245C233.576 558.224 232.13 555.123 233.151 552.318L235.231 546.603Z" fill="white" stroke="#1F2024" stroke-width="5.40488"/>
        <path d="M344.203 367.7L229.144 436.903L277.393 454.465L344.203 367.7Z" fill="white" stroke="#1F2024" stroke-width="5.40488" stroke-linejoin="round"/>
        <mask id="mask0" style="mask-type:alpha" maskUnits="userSpaceOnUse" x="229" y="367" width="116" height="88">
            <path d="M344.203 367.7L229.144 436.903L277.393 454.465L344.203 367.7Z" fill="#C4C4C4"/>
        </mask>
        <g mask="url(#mask0)">
            <g filter="url(#filter15_i)">
                <path d="M233.818 426.039C227.583 446.35 244.324 463.466 253.474 469.485L279.528 442.675L260.496 408.052L233.818 426.039Z" fill="#9BCEF1"/>
            </g>
            <path d="M233.818 426.039C227.583 446.35 244.324 463.466 253.474 469.485L279.528 442.675L260.496 408.052L233.818 426.039Z" stroke="#1F2024" stroke-width="5.40488" stroke-linejoin="round"/>
            <g filter="url(#filter16_i)">
                <path d="M254.717 412.076C248.482 432.388 265.223 449.503 274.373 455.523L300.427 428.713L281.394 394.09L254.717 412.076Z" fill="#FFFDD0"/>
            </g>
            <path d="M254.717 412.076C248.482 432.388 265.223 449.503 274.373 455.523L300.427 428.713L281.394 394.09L254.717 412.076Z" stroke="#1F2024" stroke-width="5.40488" stroke-linejoin="round"/>
            <g filter="url(#filter17_i)">
                <path d="M275.616 398.113C269.382 418.426 286.123 435.541 295.272 441.559L321.327 414.751L302.294 380.127L275.616 398.113Z" fill="#ACE5D7"/>
            </g>
            <path d="M275.616 398.113C269.382 418.426 286.123 435.541 295.272 441.559L321.327 414.751L302.294 380.127L275.616 398.113Z" stroke="#1F2024" stroke-width="5.40488" stroke-linejoin="round"/>
            <g filter="url(#filter18_i)">
                <path d="M296.516 384.151C290.28 404.464 307.021 421.579 316.172 427.597L342.226 400.789L323.193 366.165L296.516 384.151Z" fill="#F9E174"/>
            </g>
            <path d="M296.516 384.151C290.28 404.464 307.021 421.579 316.172 427.597L342.226 400.789L323.193 366.165L296.516 384.151Z" stroke="#1F2024" stroke-width="5.40488" stroke-linejoin="round"/>
            <g filter="url(#filter19_i)">
                <path d="M317.414 370.188C311.179 390.501 327.921 407.616 337.07 413.635L363.124 386.826L344.092 352.202L317.414 370.188Z" fill="#FF8BE6"/>
            </g>
            <path d="M317.414 370.188C311.179 390.501 327.921 407.616 337.07 413.635L363.124 386.826L344.092 352.202L317.414 370.188Z" stroke="#1F2024" stroke-width="5.40488" stroke-linejoin="round"/>
            <path d="M344.203 367.7L229.144 436.903L277.393 454.465L344.203 367.7Z" stroke="#1F2024" stroke-width="5.40488" stroke-linejoin="round"/>
            <g filter="url(#filter20_i)">
                <path d="M215.752 438.14C216.773 435.335 219.875 433.888 222.68 434.909L282.357 456.63C285.162 457.651 286.608 460.753 285.587 463.558L284.663 466.098L214.827 440.68L215.752 438.14Z" fill="#ADA3EE"/>
            </g>
            <path d="M215.752 438.14C216.773 435.335 219.875 433.888 222.68 434.909L282.357 456.63C285.162 457.651 286.608 460.753 285.587 463.558L284.663 466.098L214.827 440.68L215.752 438.14Z" stroke="#1F2024" stroke-width="5.40488"/>
        </g>
    </g>
    <defs>
        <filter id="filter0_ii" x="198.043" y="130.993" width="214.022" height="222.023" filterUnits="userSpaceOnUse" color-interpolation-filters="sRGB">
            <feFlood flood-opacity="0" result="BackgroundImageFix"/>
            <feBlend mode="normal" in="SourceGraphic" in2="BackgroundImageFix" result="shape"/>
            <feColorMatrix in="SourceAlpha" type="matrix" values="0 0 0 0 0 0 0 0 0 0 0 0 0 0 0 0 0 0 127 0" result="hardAlpha"/>
            <feOffset dy="-10.8098"/>
            <feGaussianBlur stdDeviation="2"/>
            <feComposite in2="hardAlpha" operator="arithmetic" k2="-1" k3="1"/>
            <feColorMatrix type="matrix" values="0 0 0 0 0 0 0 0 0 0 0 0 0 0 0 0 0 0 0.25 0"/>
            <feBlend mode="normal" in2="shape" result="effect1_innerShadow"/>
            <feColorMatrix in="SourceAlpha" type="matrix" values="0 0 0 0 0 0 0 0 0 0 0 0 0 0 0 0 0 0 127 0" result="hardAlpha"/>
            <feOffset dy="10.8098"/>
            <feGaussianBlur stdDeviation="2"/>
            <feComposite in2="hardAlpha" operator="arithmetic" k2="-1" k3="1"/>
            <feColorMatrix type="matrix" values="0 0 0 0 1 0 0 0 0 1 0 0 0 0 1 0 0 0 0.25 0"/>
            <feBlend mode="normal" in2="effect1_innerShadow" result="effect2_innerShadow"/>
        </filter>
        <filter id="filter1_i" x="241.815" y="94.864" width="210.379" height="210.379" filterUnits="userSpaceOnUse" color-interpolation-filters="sRGB">
            <feFlood flood-opacity="0" result="BackgroundImageFix"/>
            <feBlend mode="normal" in="SourceGraphic" in2="BackgroundImageFix" result="shape"/>
            <feColorMatrix in="SourceAlpha" type="matrix" values="0 0 0 0 0 0 0 0 0 0 0 0 0 0 0 0 0 0 127 0" result="hardAlpha"/>
            <feOffset dx="-16.2146" dy="5.40488"/>
            <feGaussianBlur stdDeviation="2"/>
            <feComposite in2="hardAlpha" operator="arithmetic" k2="-1" k3="1"/>
            <feColorMatrix type="matrix" values="0 0 0 0 1 0 0 0 0 1 0 0 0 0 1 0 0 0 0.25 0"/>
            <feBlend mode="normal" in2="shape" result="effect1_innerShadow"/>
        </filter>
        <filter id="filter2_d" x="220.959" y="107.348" width="197.67" height="173.844" filterUnits="userSpaceOnUse" color-interpolation-filters="sRGB">
            <feFlood flood-opacity="0" result="BackgroundImageFix"/>
            <feColorMatrix in="SourceAlpha" type="matrix" values="0 0 0 0 0 0 0 0 0 0 0 0 0 0 0 0 0 0 127 0" result="hardAlpha"/>
            <feOffset dx="-2.70244" dy="2.70244"/>
            <feGaussianBlur stdDeviation="2"/>
            <feColorMatrix type="matrix" values="0 0 0 0 0 0 0 0 0 0 0 0 0 0 0 0 0 0 0.25 0"/>
            <feBlend mode="normal" in2="BackgroundImageFix" result="effect1_dropShadow"/>
            <feBlend mode="normal" in="SourceGraphic" in2="effect1_dropShadow" result="shape"/>
        </filter>
        <filter id="filter3_i" x="326.614" y="179.745" width="86.4453" height="86.4453" filterUnits="userSpaceOnUse" color-interpolation-filters="sRGB">
            <feFlood flood-opacity="0" result="BackgroundImageFix"/>
            <feBlend mode="normal" in="SourceGraphic" in2="BackgroundImageFix" result="shape"/>
            <feColorMatrix in="SourceAlpha" type="matrix" values="0 0 0 0 0 0 0 0 0 0 0 0 0 0 0 0 0 0 127 0" result="hardAlpha"/>
            <feOffset dx="-10.8098" dy="5.40488"/>
            <feGaussianBlur stdDeviation="2"/>
            <feComposite in2="hardAlpha" operator="arithmetic" k2="-1" k3="1"/>
            <feColorMatrix type="matrix" values="0 0 0 0 1 0 0 0 0 1 0 0 0 0 1 0 0 0 0.25 0"/>
            <feBlend mode="normal" in2="shape" result="effect1_innerShadow"/>
        </filter>
        <filter id="filter4_ii" x="120.87" y="98.1064" width="154.286" height="150.286" filterUnits="userSpaceOnUse" color-interpolation-filters="sRGB">
            <feFlood flood-opacity="0" result="BackgroundImageFix"/>
            <feBlend mode="normal" in="SourceGraphic" in2="BackgroundImageFix" result="shape"/>
            <feColorMatrix in="SourceAlpha" type="matrix" values="0 0 0 0 0 0 0 0 0 0 0 0 0 0 0 0 0 0 127 0" result="hardAlpha"/>
            <feOffset dx="10.8098"/>
            <feGaussianBlur stdDeviation="2"/>
            <feComposite in2="hardAlpha" operator="arithmetic" k2="-1" k3="1"/>
            <feColorMatrix type="matrix" values="0 0 0 0 0 0 0 0 0 0 0 0 0 0 0 0 0 0 0.25 0"/>
            <feBlend mode="normal" in2="shape" result="effect1_innerShadow"/>
            <feColorMatrix in="SourceAlpha" type="matrix" values="0 0 0 0 0 0 0 0 0 0 0 0 0 0 0 0 0 0 127 0" result="hardAlpha"/>
            <feOffset dx="-10.8098" dy="5.40488"/>
            <feGaussianBlur stdDeviation="2"/>
            <feComposite in2="hardAlpha" operator="arithmetic" k2="-1" k3="1"/>
            <feColorMatrix type="matrix" values="0 0 0 0 1 0 0 0 0 1 0 0 0 0 1 0 0 0 0.25 0"/>
            <feBlend mode="normal" in2="effect1_innerShadow" result="effect2_innerShadow"/>
        </filter>
        <filter id="filter5_i" x="162.871" y="153.2" width="47.6562" height="19.6274" filterUnits="userSpaceOnUse" color-interpolation-filters="sRGB">
            <feFlood flood-opacity="0" result="BackgroundImageFix"/>
            <feBlend mode="normal" in="SourceGraphic" in2="BackgroundImageFix" result="shape"/>
            <feColorMatrix in="SourceAlpha" type="matrix" values="0 0 0 0 0 0 0 0 0 0 0 0 0 0 0 0 0 0 127 0" result="hardAlpha"/>
            <feOffset dx="10.8098"/>
            <feGaussianBlur stdDeviation="2"/>
            <feComposite in2="hardAlpha" operator="arithmetic" k2="-1" k3="1"/>
            <feColorMatrix type="matrix" values="0 0 0 0 0 0 0 0 0 0 0 0 0 0 0 0 0 0 0.25 0"/>
            <feBlend mode="normal" in2="shape" result="effect1_innerShadow"/>
        </filter>
        <filter id="filter6_i" x="183.868" y="198.456" width="32.0781" height="27.4619" filterUnits="userSpaceOnUse" color-interpolation-filters="sRGB">
            <feFlood flood-opacity="0" result="BackgroundImageFix"/>
            <feBlend mode="normal" in="SourceGraphic" in2="BackgroundImageFix" result="shape"/>
            <feColorMatrix in="SourceAlpha" type="matrix" values="0 0 0 0 0 0 0 0 0 0 0 0 0 0 0 0 0 0 127 0" result="hardAlpha"/>
            <feOffset dx="10.8098"/>
            <feGaussianBlur stdDeviation="2"/>
            <feComposite in2="hardAlpha" operator="arithmetic" k2="-1" k3="1"/>
            <feColorMatrix type="matrix" values="0 0 0 0 0 0 0 0 0 0 0 0 0 0 0 0 0 0 0.25 0"/>
            <feBlend mode="normal" in2="shape" result="effect1_innerShadow"/>
        </filter>
        <filter id="filter7_i" x="185.338" y="85.7869" width="53.8662" height="49.8662" filterUnits="userSpaceOnUse" color-interpolation-filters="sRGB">
            <feFlood flood-opacity="0" result="BackgroundImageFix"/>
            <feBlend mode="normal" in="SourceGraphic" in2="BackgroundImageFix" result="shape"/>
            <feColorMatrix in="SourceAlpha" type="matrix" values="0 0 0 0 0 0 0 0 0 0 0 0 0 0 0 0 0 0 127 0" result="hardAlpha"/>
            <feOffset dx="10.8098"/>
            <feGaussianBlur stdDeviation="2"/>
            <feComposite in2="hardAlpha" operator="arithmetic" k2="-1" k3="1"/>
            <feColorMatrix type="matrix" values="0 0 0 0 0 0 0 0 0 0 0 0 0 0 0 0 0 0 0.25 0"/>
            <feBlend mode="normal" in2="shape" result="effect1_innerShadow"/>
        </filter>
        <filter id="filter8_i" x="162.111" y="176.969" width="46.3398" height="23.4282" filterUnits="userSpaceOnUse" color-interpolation-filters="sRGB">
            <feFlood flood-opacity="0" result="BackgroundImageFix"/>
            <feBlend mode="normal" in="SourceGraphic" in2="BackgroundImageFix" result="shape"/>
            <feColorMatrix in="SourceAlpha" type="matrix" values="0 0 0 0 0 0 0 0 0 0 0 0 0 0 0 0 0 0 127 0" result="hardAlpha"/>
            <feOffset dx="10.8098"/>
            <feGaussianBlur stdDeviation="2"/>
            <feComposite in2="hardAlpha" operator="arithmetic" k2="-1" k3="1"/>
            <feColorMatrix type="matrix" values="0 0 0 0 0 0 0 0 0 0 0 0 0 0 0 0 0 0 0.25 0"/>
            <feBlend mode="normal" in2="shape" result="effect1_innerShadow"/>
        </filter>
        <filter id="filter9_ii" x="166.334" y="30.3704" width="202.436" height="198.435" filterUnits="userSpaceOnUse" color-interpolation-filters="sRGB">
            <feFlood flood-opacity="0" result="BackgroundImageFix"/>
            <feBlend mode="normal" in="SourceGraphic" in2="BackgroundImageFix" result="shape"/>
            <feColorMatrix in="SourceAlpha" type="matrix" values="0 0 0 0 0 0 0 0 0 0 0 0 0 0 0 0 0 0 127 0" result="hardAlpha"/>
            <feOffset dx="10.8098"/>
            <feGaussianBlur stdDeviation="2"/>
            <feComposite in2="hardAlpha" operator="arithmetic" k2="-1" k3="1"/>
            <feColorMatrix type="matrix" values="0 0 0 0 0 0 0 0 0 0 0 0 0 0 0 0 0 0 0.25 0"/>
            <feBlend mode="normal" in2="shape" result="effect1_innerShadow"/>
            <feColorMatrix in="SourceAlpha" type="matrix" values="0 0 0 0 0 0 0 0 0 0 0 0 0 0 0 0 0 0 127 0" result="hardAlpha"/>
            <feOffset dx="-10.8098" dy="5.40488"/>
            <feGaussianBlur stdDeviation="2"/>
            <feComposite in2="hardAlpha" operator="arithmetic" k2="-1" k3="1"/>
            <feColorMatrix type="matrix" values="0 0 0 0 1 0 0 0 0 1 0 0 0 0 1 0 0 0 0.25 0"/>
            <feBlend mode="normal" in2="effect1_innerShadow" result="effect2_innerShadow"/>
        </filter>
        <filter id="filter10_ii" x="91.3359" y="412.128" width="191.303" height="186.382" filterUnits="userSpaceOnUse" color-interpolation-filters="sRGB">
            <feFlood flood-opacity="0" result="BackgroundImageFix"/>
            <feBlend mode="normal" in="SourceGraphic" in2="BackgroundImageFix" result="shape"/>
            <feColorMatrix in="SourceAlpha" type="matrix" values="0 0 0 0 0 0 0 0 0 0 0 0 0 0 0 0 0 0 127 0" result="hardAlpha"/>
            <feOffset dy="-10.8098"/>
            <feGaussianBlur stdDeviation="2"/>
            <feComposite in2="hardAlpha" operator="arithmetic" k2="-1" k3="1"/>
            <feColorMatrix type="matrix" values="0 0 0 0 0 0 0 0 0 0 0 0 0 0 0 0 0 0 0.25 0"/>
            <feBlend mode="normal" in2="shape" result="effect1_innerShadow"/>
            <feColorMatrix in="SourceAlpha" type="matrix" values="0 0 0 0 0 0 0 0 0 0 0 0 0 0 0 0 0 0 127 0" result="hardAlpha"/>
            <feOffset dy="10.8098"/>
            <feGaussianBlur stdDeviation="2"/>
            <feComposite in2="hardAlpha" operator="arithmetic" k2="-1" k3="1"/>
            <feColorMatrix type="matrix" values="0 0 0 0 1 0 0 0 0 1 0 0 0 0 1 0 0 0 0.25 0"/>
            <feBlend mode="normal" in2="effect1_innerShadow" result="effect2_innerShadow"/>
        </filter>
        <filter id="filter11_i" x="150.822" y="439.235" width="185.146" height="178.686" filterUnits="userSpaceOnUse" color-interpolation-filters="sRGB">
            <feFlood flood-opacity="0" result="BackgroundImageFix"/>
            <feBlend mode="normal" in="SourceGraphic" in2="BackgroundImageFix" result="shape"/>
            <feColorMatrix in="SourceAlpha" type="matrix" values="0 0 0 0 0 0 0 0 0 0 0 0 0 0 0 0 0 0 127 0" result="hardAlpha"/>
            <feOffset dx="-16.2146" dy="5.40488"/>
            <feGaussianBlur stdDeviation="2"/>
            <feComposite in2="hardAlpha" operator="arithmetic" k2="-1" k3="1"/>
            <feColorMatrix type="matrix" values="0 0 0 0 1 0 0 0 0 1 0 0 0 0 1 0 0 0 0.25 0"/>
            <feBlend mode="normal" in2="shape" result="effect1_innerShadow"/>
        </filter>
        <filter id="filter12_d" x="107.071" y="437.713" width="237.546" height="134.869" filterUnits="userSpaceOnUse" color-interpolation-filters="sRGB">
            <feFlood flood-opacity="0" result="BackgroundImageFix"/>
            <feColorMatrix in="SourceAlpha" type="matrix" values="0 0 0 0 0 0 0 0 0 0 0 0 0 0 0 0 0 0 127 0" result="hardAlpha"/>
            <feOffset dx="-2.70244" dy="2.70244"/>
            <feGaussianBlur stdDeviation="2"/>
            <feColorMatrix type="matrix" values="0 0 0 0 0 0 0 0 0 0 0 0 0 0 0 0 0 0 0.25 0"/>
            <feBlend mode="normal" in2="BackgroundImageFix" result="effect1_dropShadow"/>
            <feBlend mode="normal" in="SourceGraphic" in2="effect1_dropShadow" result="shape"/>
        </filter>
        <filter id="filter13_ii" x="107.811" y="464.64" width="56.6572" height="52.6572" filterUnits="userSpaceOnUse" color-interpolation-filters="sRGB">
            <feFlood flood-opacity="0" result="BackgroundImageFix"/>
            <feBlend mode="normal" in="SourceGraphic" in2="BackgroundImageFix" result="shape"/>
            <feColorMatrix in="SourceAlpha" type="matrix" values="0 0 0 0 0 0 0 0 0 0 0 0 0 0 0 0 0 0 127 0" result="hardAlpha"/>
            <feOffset dx="10.8098"/>
            <feGaussianBlur stdDeviation="2"/>
            <feComposite in2="hardAlpha" operator="arithmetic" k2="-1" k3="1"/>
            <feColorMatrix type="matrix" values="0 0 0 0 0 0 0 0 0 0 0 0 0 0 0 0 0 0 0.25 0"/>
            <feBlend mode="normal" in2="shape" result="effect1_innerShadow"/>
            <feColorMatrix in="SourceAlpha" type="matrix" values="0 0 0 0 0 0 0 0 0 0 0 0 0 0 0 0 0 0 127 0" result="hardAlpha"/>
            <feOffset dx="-16.2146" dy="5.40488"/>
            <feGaussianBlur stdDeviation="2"/>
            <feComposite in2="hardAlpha" operator="arithmetic" k2="-1" k3="1"/>
            <feColorMatrix type="matrix" values="0 0 0 0 1 0 0 0 0 1 0 0 0 0 1 0 0 0 0.25 0"/>
            <feBlend mode="normal" in2="effect1_innerShadow" result="effect2_innerShadow"/>
        </filter>
        <filter id="filter14_ii" x="103.223" y="468.128" width="40.4385" height="36.438" filterUnits="userSpaceOnUse" color-interpolation-filters="sRGB">
            <feFlood flood-opacity="0" result="BackgroundImageFix"/>
            <feBlend mode="normal" in="SourceGraphic" in2="BackgroundImageFix" result="shape"/>
            <feColorMatrix in="SourceAlpha" type="matrix" values="0 0 0 0 0 0 0 0 0 0 0 0 0 0 0 0 0 0 127 0" result="hardAlpha"/>
            <feOffset dx="10.8098"/>
            <feGaussianBlur stdDeviation="2"/>
            <feComposite in2="hardAlpha" operator="arithmetic" k2="-1" k3="1"/>
            <feColorMatrix type="matrix" values="0 0 0 0 0 0 0 0 0 0 0 0 0 0 0 0 0 0 0.25 0"/>
            <feBlend mode="normal" in2="shape" result="effect1_innerShadow"/>
            <feColorMatrix in="SourceAlpha" type="matrix" values="0 0 0 0 0 0 0 0 0 0 0 0 0 0 0 0 0 0 127 0" result="hardAlpha"/>
            <feOffset dx="-16.2146" dy="5.40488"/>
            <feGaussianBlur stdDeviation="2"/>
            <feComposite in2="hardAlpha" operator="arithmetic" k2="-1" k3="1"/>
            <feColorMatrix type="matrix" values="0 0 0 0 1 0 0 0 0 1 0 0 0 0 1 0 0 0 0.25 0"/>
            <feBlend mode="normal" in2="effect1_innerShadow" result="effect2_innerShadow"/>
        </filter>
        <filter id="filter15_i" x="232.46" y="404.052" width="51.0674" height="65.4326" filterUnits="userSpaceOnUse" color-interpolation-filters="sRGB">
            <feFlood flood-opacity="0" result="BackgroundImageFix"/>
            <feBlend mode="normal" in="SourceGraphic" in2="BackgroundImageFix" result="shape"/>
            <feColorMatrix in="SourceAlpha" type="matrix" values="0 0 0 0 0 0 0 0 0 0 0 0 0 0 0 0 0 0 127 0" result="hardAlpha"/>
            <feOffset dx="8.10732" dy="-5.40488"/>
            <feGaussianBlur stdDeviation="2"/>
            <feComposite in2="hardAlpha" operator="arithmetic" k2="-1" k3="1"/>
            <feColorMatrix type="matrix" values="0 0 0 0 0 0 0 0 0 0 0 0 0 0 0 0 0 0 0.25 0"/>
            <feBlend mode="normal" in2="shape" result="effect1_innerShadow"/>
        </filter>
        <filter id="filter16_i" x="253.358" y="390.09" width="51.0684" height="65.4326" filterUnits="userSpaceOnUse" color-interpolation-filters="sRGB">
            <feFlood flood-opacity="0" result="BackgroundImageFix"/>
            <feBlend mode="normal" in="SourceGraphic" in2="BackgroundImageFix" result="shape"/>
            <feColorMatrix in="SourceAlpha" type="matrix" values="0 0 0 0 0 0 0 0 0 0 0 0 0 0 0 0 0 0 127 0" result="hardAlpha"/>
            <feOffset dx="8.10732" dy="-5.40488"/>
            <feGaussianBlur stdDeviation="2"/>
            <feComposite in2="hardAlpha" operator="arithmetic" k2="-1" k3="1"/>
            <feColorMatrix type="matrix" values="0 0 0 0 0 0 0 0 0 0 0 0 0 0 0 0 0 0 0.25 0"/>
            <feBlend mode="normal" in2="shape" result="effect1_innerShadow"/>
        </filter>
        <filter id="filter17_i" x="274.259" y="376.127" width="51.0674" height="65.4321" filterUnits="userSpaceOnUse" color-interpolation-filters="sRGB">
            <feFlood flood-opacity="0" result="BackgroundImageFix"/>
            <feBlend mode="normal" in="SourceGraphic" in2="BackgroundImageFix" result="shape"/>
            <feColorMatrix in="SourceAlpha" type="matrix" values="0 0 0 0 0 0 0 0 0 0 0 0 0 0 0 0 0 0 127 0" result="hardAlpha"/>
            <feOffset dx="8.10732" dy="-5.40488"/>
            <feGaussianBlur stdDeviation="2"/>
            <feComposite in2="hardAlpha" operator="arithmetic" k2="-1" k3="1"/>
            <feColorMatrix type="matrix" values="0 0 0 0 0 0 0 0 0 0 0 0 0 0 0 0 0 0 0.25 0"/>
            <feBlend mode="normal" in2="shape" result="effect1_innerShadow"/>
        </filter>
        <filter id="filter18_i" x="295.157" y="362.165" width="51.0684" height="65.4321" filterUnits="userSpaceOnUse" color-interpolation-filters="sRGB">
            <feFlood flood-opacity="0" result="BackgroundImageFix"/>
            <feBlend mode="normal" in="SourceGraphic" in2="BackgroundImageFix" result="shape"/>
            <feColorMatrix in="SourceAlpha" type="matrix" values="0 0 0 0 0 0 0 0 0 0 0 0 0 0 0 0 0 0 127 0" result="hardAlpha"/>
            <feOffset dx="8.10732" dy="-5.40488"/>
            <feGaussianBlur stdDeviation="2"/>
            <feComposite in2="hardAlpha" operator="arithmetic" k2="-1" k3="1"/>
            <feColorMatrix type="matrix" values="0 0 0 0 0 0 0 0 0 0 0 0 0 0 0 0 0 0 0.25 0"/>
            <feBlend mode="normal" in2="shape" result="effect1_innerShadow"/>
        </filter>
        <filter id="filter19_i" x="316.056" y="348.202" width="51.0684" height="65.4326" filterUnits="userSpaceOnUse" color-interpolation-filters="sRGB">
            <feFlood flood-opacity="0" result="BackgroundImageFix"/>
            <feBlend mode="normal" in="SourceGraphic" in2="BackgroundImageFix" result="shape"/>
            <feColorMatrix in="SourceAlpha" type="matrix" values="0 0 0 0 0 0 0 0 0 0 0 0 0 0 0 0 0 0 127 0" result="hardAlpha"/>
            <feOffset dx="8.10732" dy="-5.40488"/>
            <feGaussianBlur stdDeviation="2"/>
            <feComposite in2="hardAlpha" operator="arithmetic" k2="-1" k3="1"/>
            <feColorMatrix type="matrix" values="0 0 0 0 0 0 0 0 0 0 0 0 0 0 0 0 0 0 0.25 0"/>
            <feBlend mode="normal" in2="shape" result="effect1_innerShadow"/>
        </filter>
        <filter id="filter20_i" x="210.827" y="434.582" width="75.0879" height="35.5161" filterUnits="userSpaceOnUse" color-interpolation-filters="sRGB">
            <feFlood flood-opacity="0" result="BackgroundImageFix"/>
            <feBlend mode="normal" in="SourceGraphic" in2="BackgroundImageFix" result="shape"/>
            <feColorMatrix in="SourceAlpha" type="matrix" values="0 0 0 0 0 0 0 0 0 0 0 0 0 0 0 0 0 0 127 0" result="hardAlpha"/>
            <feOffset dx="-16.2146" dy="5.40488"/>
            <feGaussianBlur stdDeviation="2"/>
            <feComposite in2="hardAlpha" operator="arithmetic" k2="-1" k3="1"/>
            <feColorMatrix type="matrix" values="0 0 0 0 1 0 0 0 0 1 0 0 0 0 1 0 0 0 0.25 0"/>
            <feBlend mode="normal" in2="shape" result="effect1_innerShadow"/>
        </filter>
        <clipPath id="clip0">
            <rect width="246" height="275" fill="white" transform="translate(113 173.948) rotate(-45)"/>
        </clipPath>
        <clipPath id="clip1">
            <rect width="247" height="277" fill="white" transform="translate(163.739 299) rotate(20)"/>
        </clipPath>
    </defs>
</svg>
