<svg width="1164" height="117" viewBox="0 0 1164 117" fill="none" xmlns="http://www.w3.org/2000/svg">
<path d="M60.0275 80.88V96H0.987456V79.4399C0.987456 75.0399 1.62746 71.28 2.90746 68.16C4.26746 65.0399 6.14746 62.4 8.54746 60.24C11.0275 58.08 13.9875 56.3199 17.4275 54.9599C20.8675 53.5199 24.7475 52.32 29.0675 51.36C32.2675 50.64 34.8675 49.84 36.8675 48.9599C38.9475 47.9999 40.5875 46.96 41.7875 45.84C42.9875 44.6399 43.7875 43.3599 44.1875 42C44.6675 40.5599 44.9075 38.9599 44.9075 37.2C44.9075 33.84 43.6675 31.04 41.1875 28.8C38.7875 26.56 35.4275 25.44 31.1075 25.44C26.5475 25.44 22.9075 26.84 20.1875 29.6399C17.4675 32.3599 16.1075 36.1599 16.1075 41.0399V46.3199H0.267456V39.5999C0.267456 35.6799 0.947456 31.9599 2.30746 28.4399C3.74746 24.8399 5.74746 21.7199 8.30746 19.0799C10.9475 16.36 14.1475 14.24 17.9075 12.72C21.6675 11.1199 25.9075 10.3199 30.6275 10.3199C35.6675 10.3199 40.0675 11.0799 43.8275 12.5999C47.5875 14.0399 50.7075 15.9599 53.1875 18.36C55.7475 20.7599 57.6275 23.5599 58.8275 26.7599C60.1075 29.8799 60.7475 33.1199 60.7475 36.4799V37.9199C60.7475 44.9599 58.7475 50.7999 54.7475 55.4399C50.8275 60.08 44.3875 63.44 35.4275 65.52C31.6675 66.4 28.5475 67.32 26.0675 68.28C23.6675 69.16 21.7875 70.1599 20.4275 71.2799C19.0675 72.4 18.1075 73.64 17.5475 75C17.0675 76.28 16.8275 77.7599 16.8275 79.4399V80.88H60.0275Z" fill="#D74040"/>
<path d="M93.304 54C93.304 51.28 94.304 48.92 96.304 46.92C98.304 44.92 100.664 43.9199 103.384 43.9199C106.104 43.9199 108.464 44.92 110.464 46.92C112.464 48.92 113.464 51.28 113.464 54C113.464 56.72 112.464 59.08 110.464 61.08C108.464 63.08 106.104 64.08 103.384 64.08C100.664 64.08 98.304 63.08 96.304 61.08C94.304 59.08 93.304 56.72 93.304 54ZM72.424 44.6399C72.424 33.7599 75.144 25.3199 80.584 19.3199C86.104 13.3199 93.704 10.3199 103.384 10.3199C113.064 10.3199 120.624 13.3199 126.064 19.3199C131.584 25.3199 134.344 33.7599 134.344 44.6399V63.36C134.344 74.56 131.584 83.08 126.064 88.92C120.624 94.76 113.064 97.68 103.384 97.68C93.704 97.68 86.104 94.76 80.584 88.92C75.144 83.08 72.424 74.56 72.424 63.36V44.6399ZM103.384 83.28C106.264 83.28 108.664 82.84 110.584 81.96C112.504 81 114.064 79.68 115.264 78C116.464 76.32 117.304 74.32 117.784 72C118.264 69.6799 118.504 67.12 118.504 64.32V43.68C118.504 41.04 118.224 38.5599 117.664 36.2399C117.104 33.9199 116.224 31.92 115.024 30.2399C113.824 28.56 112.264 27.24 110.344 26.2799C108.424 25.2399 106.104 24.7199 103.384 24.7199C100.664 24.7199 98.344 25.2399 96.424 26.2799C94.504 27.24 92.944 28.56 91.744 30.2399C90.544 31.92 89.664 33.9199 89.104 36.2399C88.544 38.5599 88.264 41.04 88.264 43.68V64.32C88.264 67.12 88.504 69.6799 88.984 72C89.464 74.32 90.304 76.32 91.504 78C92.704 79.68 94.264 81 96.184 81.96C98.104 82.84 100.504 83.28 103.384 83.28Z" fill="#D74040"/>
<path d="M280.577 11.9999V66.9599C280.577 76.5599 278.017 84.08 272.897 89.52C267.857 94.96 260.337 97.68 250.337 97.68C240.337 97.68 232.777 94.96 227.657 89.52C222.617 84.08 220.097 76.5599 220.097 66.9599V11.9999H235.937V66.9599C235.937 71.92 237.097 75.8 239.417 78.6C241.737 81.4 245.377 82.7999 250.337 82.7999C255.297 82.7999 258.937 81.4 261.257 78.6C263.577 75.8 264.737 71.92 264.737 66.9599V11.9999H280.577Z" fill="#D74040"/>
<path d="M335.214 88.0799H337.374V11.9999H353.214V96H322.254L312.414 19.92H310.254V96H294.414V11.9999H325.374L335.214 88.0799Z" fill="#D74040"/>
<path d="M369.21 11.9999H425.37V27.12H405.21V80.88H425.37V96H369.21V80.88H389.37V27.12H369.21V11.9999Z" fill="#D74040"/>
<path d="M463.207 96.96C455.767 95.6 450.007 92.0799 445.927 86.3999C441.847 80.7199 439.807 73.04 439.807 63.36V44.6399C439.807 33.7599 442.527 25.3199 447.967 19.3199C453.487 13.3199 461.087 10.3199 470.767 10.3199C480.447 10.3199 488.007 13.3199 493.447 19.3199C498.967 25.3199 501.727 33.7599 501.727 44.6399V63.36C501.727 73.04 499.647 80.7199 495.487 86.3999C491.407 92.0799 485.687 95.6 478.327 96.96V99.1199C478.327 101.36 479.327 102.48 481.327 102.48H488.767V116.88H474.607C471.327 116.88 468.607 115.76 466.447 113.52C464.287 111.36 463.207 108.64 463.207 105.36V96.96ZM470.767 83.28C473.647 83.28 476.047 82.8 477.967 81.84C479.887 80.88 481.447 79.56 482.647 77.88C483.847 76.2 484.687 74.2 485.167 71.88C485.647 69.48 485.887 66.88 485.887 64.08V43.9199C485.887 41.2799 485.607 38.8 485.047 36.4799C484.487 34.1599 483.607 32.1199 482.407 30.3599C481.207 28.5999 479.647 27.24 477.727 26.2799C475.807 25.2399 473.487 24.7199 470.767 24.7199C468.047 24.7199 465.727 25.2399 463.807 26.2799C461.887 27.24 460.327 28.5999 459.127 30.3599C457.927 32.1199 457.047 34.1599 456.487 36.4799C455.927 38.8 455.647 41.2799 455.647 43.9199V64.08C455.647 66.88 455.887 69.48 456.367 71.88C456.847 74.2 457.687 76.2 458.887 77.88C460.087 79.56 461.647 80.88 463.567 81.84C465.487 82.8 467.887 83.28 470.767 83.28Z" fill="#D74040"/>
<path d="M574.483 11.9999V66.9599C574.483 76.5599 571.923 84.08 566.803 89.52C561.763 94.96 554.243 97.68 544.243 97.68C534.243 97.68 526.683 94.96 521.563 89.52C516.523 84.08 514.003 76.5599 514.003 66.9599V11.9999H529.843V66.9599C529.843 71.92 531.003 75.8 533.323 78.6C535.643 81.4 539.283 82.7999 544.243 82.7999C549.203 82.7999 552.843 81.4 555.163 78.6C557.483 75.8 558.643 71.92 558.643 66.9599V11.9999H574.483Z" fill="#D74040"/>
<path d="M590.84 11.9999H643.88V27.12H606.68V46.3199H642.44V61.4399H606.68V80.88H645.32V96H590.84V11.9999Z" fill="#D74040"/>
<path d="M793.113 96H777.273V70.7999C777.273 68.8799 776.753 67.3199 775.713 66.1199C774.753 64.92 773.113 64.32 770.793 64.32H752.553V96H736.713V11.9999H768.873C773.193 11.9999 776.993 12.5999 780.273 13.7999C783.553 14.9999 786.273 16.6799 788.433 18.84C790.673 20.9199 792.353 23.3599 793.473 26.16C794.673 28.9599 795.273 31.9599 795.273 35.1599V38.04C795.273 41.4799 794.353 44.7199 792.513 47.7599C790.673 50.7199 787.833 53 783.993 54.5999V56.7599C786.793 57.0799 788.993 58.16 790.593 60C792.273 61.84 793.113 64.1599 793.113 66.9599V96ZM752.553 49.2H767.673C771.513 49.2 774.433 48.3199 776.433 46.5599C778.433 44.7199 779.433 42.1599 779.433 38.88V37.4399C779.433 34.6399 778.433 32.24 776.433 30.2399C774.433 28.16 771.513 27.12 767.673 27.12H752.553V49.2Z" fill="#D74040"/>
<path d="M807.19 44.6399C807.19 33.7599 809.91 25.3199 815.35 19.3199C820.87 13.3199 828.47 10.3199 838.15 10.3199C847.83 10.3199 855.39 13.3199 860.83 19.3199C866.35 25.3199 869.11 33.7599 869.11 44.6399V63.36C869.11 74.56 866.35 83.08 860.83 88.92C855.39 94.76 847.83 97.68 838.15 97.68C828.47 97.68 820.87 94.76 815.35 88.92C809.91 83.08 807.19 74.56 807.19 63.36V44.6399ZM838.15 83.28C841.03 83.28 843.43 82.84 845.35 81.96C847.27 81 848.83 79.68 850.03 78C851.23 76.32 852.07 74.32 852.55 72C853.03 69.6799 853.27 67.12 853.27 64.32V43.68C853.27 41.04 852.99 38.5599 852.43 36.2399C851.87 33.9199 850.99 31.92 849.79 30.2399C848.59 28.56 847.03 27.24 845.11 26.2799C843.19 25.2399 840.87 24.7199 838.15 24.7199C835.43 24.7199 833.11 25.2399 831.19 26.2799C829.27 27.24 827.71 28.56 826.51 30.2399C825.31 31.92 824.43 33.9199 823.87 36.2399C823.31 38.5599 823.03 41.04 823.03 43.68V64.32C823.03 67.12 823.27 69.6799 823.75 72C824.23 74.32 825.07 76.32 826.27 78C827.47 79.68 829.03 81 830.95 81.96C832.87 82.84 835.27 83.28 838.15 83.28Z" fill="#D74040"/>
<path d="M880.426 80.88H888.346V27.12H880.426V11.9999H917.266C921.266 11.9999 924.786 12.5599 927.826 13.6799C930.946 14.7999 933.546 16.3199 935.626 18.24C937.786 20.16 939.386 22.4799 940.426 25.1999C941.546 27.8399 942.106 30.7199 942.106 33.84V35.2799C942.106 40.0799 940.746 43.92 938.026 46.7999C935.386 49.68 932.026 51.6799 927.946 52.7999V54.9599C932.026 56.0799 935.386 58.12 938.026 61.08C940.746 63.96 942.106 67.8 942.106 72.6V74.04C942.106 77.16 941.546 80.0799 940.426 82.7999C939.386 85.4399 937.786 87.7599 935.626 89.7599C933.546 91.6799 930.946 93.2 927.826 94.32C924.786 95.44 921.266 96 917.266 96H880.426V80.88ZM904.186 80.88H915.706C919.066 80.88 921.786 80.1599 923.866 78.7199C925.946 77.2799 926.986 74.88 926.986 71.52V70.7999C926.986 67.4399 925.946 65.0399 923.866 63.5999C921.786 62.1599 919.066 61.4399 915.706 61.4399H904.186V80.88ZM904.186 46.3199H915.706C919.066 46.3199 921.786 45.6399 923.866 44.2799C925.946 42.8399 926.986 40.4399 926.986 37.0799V36.36C926.986 32.9999 925.946 30.6399 923.866 29.2799C921.786 27.8399 919.066 27.12 915.706 27.12H904.186V46.3199Z" fill="#D74040"/>
<path d="M954.143 44.6399C954.143 33.7599 956.863 25.3199 962.303 19.3199C967.823 13.3199 975.423 10.3199 985.103 10.3199C994.783 10.3199 1002.34 13.3199 1007.78 19.3199C1013.3 25.3199 1016.06 33.7599 1016.06 44.6399V63.36C1016.06 74.56 1013.3 83.08 1007.78 88.92C1002.34 94.76 994.783 97.68 985.103 97.68C975.423 97.68 967.823 94.76 962.303 88.92C956.863 83.08 954.143 74.56 954.143 63.36V44.6399ZM985.103 83.28C987.983 83.28 990.383 82.84 992.303 81.96C994.223 81 995.783 79.68 996.983 78C998.183 76.32 999.023 74.32 999.503 72C999.983 69.6799 1000.22 67.12 1000.22 64.32V43.68C1000.22 41.04 999.943 38.5599 999.383 36.2399C998.823 33.9199 997.943 31.92 996.743 30.2399C995.543 28.56 993.983 27.24 992.063 26.2799C990.143 25.2399 987.823 24.7199 985.103 24.7199C982.383 24.7199 980.063 25.2399 978.143 26.2799C976.223 27.24 974.663 28.56 973.463 30.2399C972.263 31.92 971.383 33.9199 970.823 36.2399C970.263 38.5599 969.983 41.04 969.983 43.68V64.32C969.983 67.12 970.223 69.6799 970.703 72C971.183 74.32 972.023 76.32 973.223 78C974.423 79.68 975.983 81 977.903 81.96C979.823 82.84 982.223 83.28 985.103 83.28Z" fill="#D74040"/>
<path d="M1028.34 11.9999H1088.82V27.12H1066.5V96H1050.66V27.12H1028.34V11.9999Z" fill="#D74040"/>
<path d="M1146.46 37.6799C1146.46 34.32 1145.14 31.4 1142.5 28.92C1139.94 26.4399 1136.3 25.1999 1131.58 25.1999C1127.58 25.1999 1124.42 26.0399 1122.1 27.72C1119.78 29.32 1118.62 31.5199 1118.62 34.32C1118.62 35.76 1118.9 37.0799 1119.46 38.2799C1120.02 39.3999 1120.98 40.44 1122.34 41.4C1123.78 42.2799 1125.62 43.0799 1127.86 43.7999C1130.18 44.5199 1133.1 45.1999 1136.62 45.84C1145.42 47.4399 1152.14 50.1199 1156.78 53.88C1161.42 57.64 1163.74 63.2 1163.74 70.56V72C1163.74 75.92 1163.02 79.48 1161.58 82.68C1160.22 85.8 1158.22 88.4799 1155.58 90.7199C1152.94 92.9599 1149.74 94.68 1145.98 95.88C1142.22 97.08 1137.98 97.68 1133.26 97.68C1127.74 97.68 1122.86 96.9199 1118.62 95.3999C1114.46 93.7999 1110.98 91.64 1108.18 88.92C1105.38 86.12 1103.26 82.88 1101.82 79.2C1100.38 75.44 1099.66 71.36 1099.66 66.9599V63.36H1115.5V66.24C1115.5 71.28 1116.94 75.32 1119.82 78.36C1122.78 81.32 1127.34 82.7999 1133.5 82.7999C1138.3 82.7999 1141.86 81.76 1144.18 79.68C1146.5 77.6 1147.66 75.12 1147.66 72.24C1147.66 70.88 1147.42 69.6 1146.94 68.4C1146.46 67.12 1145.62 66 1144.42 65.04C1143.22 64 1141.58 63.0799 1139.5 62.2799C1137.42 61.4799 1134.78 60.8 1131.58 60.24C1127.34 59.52 1123.46 58.5999 1119.94 57.4799C1116.42 56.2799 1113.34 54.7199 1110.7 52.7999C1108.14 50.88 1106.14 48.4799 1104.7 45.5999C1103.26 42.7199 1102.54 39.1999 1102.54 35.0399V34.32C1102.54 30.8799 1103.22 27.7199 1104.58 24.8399C1106.02 21.8799 1107.98 19.3199 1110.46 17.16C1113.02 15 1116.06 13.3199 1119.58 12.1199C1123.18 10.9199 1127.18 10.3199 1131.58 10.3199C1136.54 10.3199 1140.94 11.0399 1144.78 12.4799C1148.62 13.8399 1151.82 15.7199 1154.38 18.1199C1157.02 20.5199 1158.98 23.2799 1160.26 26.3999C1161.62 29.5199 1162.3 32.7999 1162.3 36.2399V40.5599H1146.46V37.6799Z" fill="#D74040"/>
<path d="M60.0275 70.88V86H0.987456V69.4399C0.987456 65.0399 1.62746 61.28 2.90746 58.16C4.26746 55.0399 6.14746 52.4 8.54746 50.24C11.0275 48.08 13.9875 46.3199 17.4275 44.9599C20.8675 43.5199 24.7475 42.32 29.0675 41.36C32.2675 40.64 34.8675 39.84 36.8675 38.9599C38.9475 37.9999 40.5875 36.96 41.7875 35.84C42.9875 34.6399 43.7875 33.3599 44.1875 32C44.6675 30.5599 44.9075 28.9599 44.9075 27.2C44.9075 23.84 43.6675 21.04 41.1875 18.8C38.7875 16.56 35.4275 15.44 31.1075 15.44C26.5475 15.44 22.9075 16.84 20.1875 19.6399C17.4675 22.3599 16.1075 26.1599 16.1075 31.0399V36.3199H0.267456V29.5999C0.267456 25.6799 0.947456 21.9599 2.30746 18.4399C3.74746 14.8399 5.74746 11.7199 8.30746 9.07995C10.9475 6.35995 14.1475 4.23995 17.9075 2.71995C21.6675 1.11995 25.9075 0.319946 30.6275 0.319946C35.6675 0.319946 40.0675 1.07995 43.8275 2.59995C47.5875 4.03995 50.7075 5.95995 53.1875 8.35995C55.7475 10.7599 57.6275 13.5599 58.8275 16.7599C60.1075 19.8799 60.7475 23.1199 60.7475 26.4799V27.9199C60.7475 34.9599 58.7475 40.7999 54.7475 45.4399C50.8275 50.08 44.3875 53.44 35.4275 55.52C31.6675 56.4 28.5475 57.32 26.0675 58.28C23.6675 59.16 21.7875 60.1599 20.4275 61.2799C19.0675 62.4 18.1075 63.64 17.5475 65C17.0675 66.28 16.8275 67.7599 16.8275 69.4399V70.88H60.0275Z" fill="white"/>
<path d="M93.304 44C93.304 41.28 94.304 38.92 96.304 36.92C98.304 34.92 100.664 33.9199 103.384 33.9199C106.104 33.9199 108.464 34.92 110.464 36.92C112.464 38.92 113.464 41.28 113.464 44C113.464 46.72 112.464 49.08 110.464 51.08C108.464 53.08 106.104 54.08 103.384 54.08C100.664 54.08 98.304 53.08 96.304 51.08C94.304 49.08 93.304 46.72 93.304 44ZM72.424 34.6399C72.424 23.7599 75.144 15.3199 80.584 9.31994C86.104 3.31995 93.704 0.319946 103.384 0.319946C113.064 0.319946 120.624 3.31995 126.064 9.31994C131.584 15.3199 134.344 23.7599 134.344 34.6399V53.36C134.344 64.56 131.584 73.08 126.064 78.92C120.624 84.76 113.064 87.68 103.384 87.68C93.704 87.68 86.104 84.76 80.584 78.92C75.144 73.08 72.424 64.56 72.424 53.36V34.6399ZM103.384 73.28C106.264 73.28 108.664 72.84 110.584 71.96C112.504 71 114.064 69.68 115.264 68C116.464 66.32 117.304 64.32 117.784 62C118.264 59.6799 118.504 57.12 118.504 54.32V33.68C118.504 31.04 118.224 28.5599 117.664 26.2399C117.104 23.9199 116.224 21.92 115.024 20.2399C113.824 18.56 112.264 17.24 110.344 16.2799C108.424 15.2399 106.104 14.7199 103.384 14.7199C100.664 14.7199 98.344 15.2399 96.424 16.2799C94.504 17.24 92.944 18.56 91.744 20.2399C90.544 21.92 89.664 23.9199 89.104 26.2399C88.544 28.5599 88.264 31.04 88.264 33.68V54.32C88.264 57.12 88.504 59.6799 88.984 62C89.464 64.32 90.304 66.32 91.504 68C92.704 69.68 94.264 71 96.184 71.96C98.104 72.84 100.504 73.28 103.384 73.28Z" fill="white"/>
<path d="M280.577 1.99995V56.9599C280.577 66.5599 278.017 74.08 272.897 79.52C267.857 84.96 260.337 87.68 250.337 87.68C240.337 87.68 232.777 84.96 227.657 79.52C222.617 74.08 220.097 66.5599 220.097 56.9599V1.99995H235.937V56.9599C235.937 61.92 237.097 65.8 239.417 68.6C241.737 71.4 245.377 72.7999 250.337 72.7999C255.297 72.7999 258.937 71.4 261.257 68.6C263.577 65.8 264.737 61.92 264.737 56.9599V1.99995H280.577Z" fill="white"/>
<path d="M335.214 78.0799H337.374V1.99995H353.214V86H322.254L312.414 9.91995H310.254V86H294.414V1.99995H325.374L335.214 78.0799Z" fill="white"/>
<path d="M369.21 1.99995H425.37V17.12H405.21V70.88H425.37V86H369.21V70.88H389.37V17.12H369.21V1.99995Z" fill="white"/>
<path d="M463.207 86.96C455.767 85.6 450.007 82.0799 445.927 76.3999C441.847 70.7199 439.807 63.04 439.807 53.36V34.6399C439.807 23.7599 442.527 15.3199 447.967 9.31994C453.487 3.31995 461.087 0.319946 470.767 0.319946C480.447 0.319946 488.007 3.31995 493.447 9.31994C498.967 15.3199 501.727 23.7599 501.727 34.6399V53.36C501.727 63.04 499.647 70.7199 495.487 76.3999C491.407 82.0799 485.687 85.6 478.327 86.96V89.1199C478.327 91.3599 479.327 92.4799 481.327 92.4799H488.767V106.88H474.607C471.327 106.88 468.607 105.76 466.447 103.52C464.287 101.36 463.207 98.64 463.207 95.36V86.96ZM470.767 73.28C473.647 73.28 476.047 72.8 477.967 71.84C479.887 70.88 481.447 69.56 482.647 67.88C483.847 66.2 484.687 64.2 485.167 61.88C485.647 59.48 485.887 56.88 485.887 54.08V33.9199C485.887 31.2799 485.607 28.8 485.047 26.4799C484.487 24.1599 483.607 22.1199 482.407 20.3599C481.207 18.5999 479.647 17.24 477.727 16.2799C475.807 15.2399 473.487 14.7199 470.767 14.7199C468.047 14.7199 465.727 15.2399 463.807 16.2799C461.887 17.24 460.327 18.5999 459.127 20.3599C457.927 22.1199 457.047 24.1599 456.487 26.4799C455.927 28.8 455.647 31.2799 455.647 33.9199V54.08C455.647 56.88 455.887 59.48 456.367 61.88C456.847 64.2 457.687 66.2 458.887 67.88C460.087 69.56 461.647 70.88 463.567 71.84C465.487 72.8 467.887 73.28 470.767 73.28Z" fill="white"/>
<path d="M574.483 1.99995V56.9599C574.483 66.5599 571.923 74.08 566.803 79.52C561.763 84.96 554.243 87.68 544.243 87.68C534.243 87.68 526.683 84.96 521.563 79.52C516.523 74.08 514.003 66.5599 514.003 56.9599V1.99995H529.843V56.9599C529.843 61.92 531.003 65.8 533.323 68.6C535.643 71.4 539.283 72.7999 544.243 72.7999C549.203 72.7999 552.843 71.4 555.163 68.6C557.483 65.8 558.643 61.92 558.643 56.9599V1.99995H574.483Z" fill="white"/>
<path d="M590.84 1.99995H643.88V17.12H606.68V36.3199H642.44V51.4399H606.68V70.88H645.32V86H590.84V1.99995Z" fill="white"/>
<path d="M793.113 86H777.273V60.7999C777.273 58.8799 776.753 57.3199 775.713 56.1199C774.753 54.92 773.113 54.32 770.793 54.32H752.553V86H736.713V1.99995H768.873C773.193 1.99995 776.993 2.59995 780.273 3.79994C783.553 4.99995 786.273 6.67995 788.433 8.83995C790.673 10.9199 792.353 13.3599 793.473 16.16C794.673 18.9599 795.273 21.9599 795.273 25.1599V28.04C795.273 31.4799 794.353 34.7199 792.513 37.7599C790.673 40.7199 787.833 43 783.993 44.5999V46.7599C786.793 47.0799 788.993 48.16 790.593 50C792.273 51.84 793.113 54.1599 793.113 56.9599V86ZM752.553 39.2H767.673C771.513 39.2 774.433 38.3199 776.433 36.5599C778.433 34.7199 779.433 32.1599 779.433 28.88V27.4399C779.433 24.6399 778.433 22.24 776.433 20.2399C774.433 18.16 771.513 17.12 767.673 17.12H752.553V39.2Z" fill="white"/>
<path d="M807.19 34.6399C807.19 23.7599 809.91 15.3199 815.35 9.31994C820.87 3.31995 828.47 0.319946 838.15 0.319946C847.83 0.319946 855.39 3.31995 860.83 9.31994C866.35 15.3199 869.11 23.7599 869.11 34.6399V53.36C869.11 64.56 866.35 73.08 860.83 78.92C855.39 84.76 847.83 87.68 838.15 87.68C828.47 87.68 820.87 84.76 815.35 78.92C809.91 73.08 807.19 64.56 807.19 53.36V34.6399ZM838.15 73.28C841.03 73.28 843.43 72.84 845.35 71.96C847.27 71 848.83 69.68 850.03 68C851.23 66.32 852.07 64.32 852.55 62C853.03 59.6799 853.27 57.12 853.27 54.32V33.68C853.27 31.04 852.99 28.5599 852.43 26.2399C851.87 23.9199 850.99 21.92 849.79 20.2399C848.59 18.56 847.03 17.24 845.11 16.2799C843.19 15.2399 840.87 14.7199 838.15 14.7199C835.43 14.7199 833.11 15.2399 831.19 16.2799C829.27 17.24 827.71 18.56 826.51 20.2399C825.31 21.92 824.43 23.9199 823.87 26.2399C823.31 28.5599 823.03 31.04 823.03 33.68V54.32C823.03 57.12 823.27 59.6799 823.75 62C824.23 64.32 825.07 66.32 826.27 68C827.47 69.68 829.03 71 830.95 71.96C832.87 72.84 835.27 73.28 838.15 73.28Z" fill="white"/>
<path d="M880.426 70.88H888.346V17.12H880.426V1.99995H917.266C921.266 1.99995 924.786 2.55995 927.826 3.67995C930.946 4.79995 933.546 6.31995 935.626 8.23995C937.786 10.16 939.386 12.4799 940.426 15.1999C941.546 17.8399 942.106 20.7199 942.106 23.84V25.2799C942.106 30.0799 940.746 33.92 938.026 36.7999C935.386 39.68 932.026 41.6799 927.946 42.7999V44.9599C932.026 46.0799 935.386 48.12 938.026 51.08C940.746 53.96 942.106 57.8 942.106 62.6V64.04C942.106 67.16 941.546 70.0799 940.426 72.7999C939.386 75.4399 937.786 77.7599 935.626 79.7599C933.546 81.6799 930.946 83.2 927.826 84.32C924.786 85.44 921.266 86 917.266 86H880.426V70.88ZM904.186 70.88H915.706C919.066 70.88 921.786 70.1599 923.866 68.7199C925.946 67.2799 926.986 64.88 926.986 61.52V60.7999C926.986 57.4399 925.946 55.0399 923.866 53.5999C921.786 52.1599 919.066 51.4399 915.706 51.4399H904.186V70.88ZM904.186 36.3199H915.706C919.066 36.3199 921.786 35.6399 923.866 34.2799C925.946 32.8399 926.986 30.4399 926.986 27.0799V26.36C926.986 22.9999 925.946 20.6399 923.866 19.2799C921.786 17.8399 919.066 17.12 915.706 17.12H904.186V36.3199Z" fill="white"/>
<path d="M954.143 34.6399C954.143 23.7599 956.863 15.3199 962.303 9.31994C967.823 3.31995 975.423 0.319946 985.103 0.319946C994.783 0.319946 1002.34 3.31995 1007.78 9.31994C1013.3 15.3199 1016.06 23.7599 1016.06 34.6399V53.36C1016.06 64.56 1013.3 73.08 1007.78 78.92C1002.34 84.76 994.783 87.68 985.103 87.68C975.423 87.68 967.823 84.76 962.303 78.92C956.863 73.08 954.143 64.56 954.143 53.36V34.6399ZM985.103 73.28C987.983 73.28 990.383 72.84 992.303 71.96C994.223 71 995.783 69.68 996.983 68C998.183 66.32 999.023 64.32 999.503 62C999.983 59.6799 1000.22 57.12 1000.22 54.32V33.68C1000.22 31.04 999.943 28.5599 999.383 26.2399C998.823 23.9199 997.943 21.92 996.743 20.2399C995.543 18.56 993.983 17.24 992.063 16.2799C990.143 15.2399 987.823 14.7199 985.103 14.7199C982.383 14.7199 980.063 15.2399 978.143 16.2799C976.223 17.24 974.663 18.56 973.463 20.2399C972.263 21.92 971.383 23.9199 970.823 26.2399C970.263 28.5599 969.983 31.04 969.983 33.68V54.32C969.983 57.12 970.223 59.6799 970.703 62C971.183 64.32 972.023 66.32 973.223 68C974.423 69.68 975.983 71 977.903 71.96C979.823 72.84 982.223 73.28 985.103 73.28Z" fill="white"/>
<path d="M1028.34 1.99995H1088.82V17.12H1066.5V86H1050.66V17.12H1028.34V1.99995Z" fill="white"/>
<path d="M1146.46 27.6799C1146.46 24.32 1145.14 21.4 1142.5 18.92C1139.94 16.4399 1136.3 15.1999 1131.58 15.1999C1127.58 15.1999 1124.42 16.0399 1122.1 17.72C1119.78 19.32 1118.62 21.5199 1118.62 24.32C1118.62 25.76 1118.9 27.0799 1119.46 28.2799C1120.02 29.3999 1120.98 30.44 1122.34 31.4C1123.78 32.2799 1125.62 33.0799 1127.86 33.7999C1130.18 34.5199 1133.1 35.1999 1136.62 35.84C1145.42 37.4399 1152.14 40.1199 1156.78 43.88C1161.42 47.64 1163.74 53.2 1163.74 60.56V62C1163.74 65.92 1163.02 69.48 1161.58 72.68C1160.22 75.8 1158.22 78.4799 1155.58 80.7199C1152.94 82.9599 1149.74 84.68 1145.98 85.88C1142.22 87.08 1137.98 87.68 1133.26 87.68C1127.74 87.68 1122.86 86.9199 1118.62 85.3999C1114.46 83.7999 1110.98 81.64 1108.18 78.92C1105.38 76.12 1103.26 72.88 1101.82 69.2C1100.38 65.44 1099.66 61.36 1099.66 56.9599V53.36H1115.5V56.24C1115.5 61.28 1116.94 65.32 1119.82 68.36C1122.78 71.32 1127.34 72.7999 1133.5 72.7999C1138.3 72.7999 1141.86 71.76 1144.18 69.68C1146.5 67.6 1147.66 65.12 1147.66 62.24C1147.66 60.88 1147.42 59.6 1146.94 58.4C1146.46 57.12 1145.62 56 1144.42 55.04C1143.22 54 1141.58 53.0799 1139.5 52.2799C1137.42 51.4799 1134.78 50.8 1131.58 50.24C1127.34 49.52 1123.46 48.5999 1119.94 47.4799C1116.42 46.2799 1113.34 44.7199 1110.7 42.7999C1108.14 40.88 1106.14 38.4799 1104.7 35.5999C1103.26 32.7199 1102.54 29.1999 1102.54 25.0399V24.32C1102.54 20.8799 1103.22 17.7199 1104.58 14.8399C1106.02 11.8799 1107.98 9.31995 1110.46 7.15995C1113.02 4.99995 1116.06 3.31995 1119.58 2.11994C1123.18 0.919946 1127.18 0.319946 1131.58 0.319946C1136.54 0.319946 1140.94 1.03995 1144.78 2.47995C1148.62 3.83995 1151.82 5.71995 1154.38 8.11995C1157.02 10.5199 1158.98 13.2799 1160.26 16.3999C1161.62 19.5199 1162.3 22.7999 1162.3 26.2399V30.5599H1146.46V27.6799Z" fill="white"/>
</svg>
